<svg width="43" height="42" viewBox="0 0 43 42" fill="none" xmlns="http://www.w3.org/2000/svg">
<g clip-path="url(#clip0_1_319)">
<path d="M10.7936 16.0913C11.8558 16.5761 12.5296 18.0846 12.6136 20.1898C12.6713 21.5846 12.5086 22.6381 12.0833 23.5586C11.0963 25.6743 9.32183 25.7496 8.29808 23.7196C7.86058 22.8656 7.67158 21.9258 7.67158 20.6081C7.68208 19.2028 7.83258 18.3786 8.27883 17.4668C8.91408 16.1683 9.84508 15.6556 10.7936 16.0913V16.0913ZM27.8876 16.2243C28.9218 16.9068 29.6341 19.0716 29.4906 21.0823C29.3296 23.4816 28.2673 25.2088 26.9776 25.2088C26.2653 25.2088 25.5356 24.5823 25.0613 23.5586C24.2738 21.8506 24.3211 18.9858 25.1751 17.3163C25.8103 16.0633 26.9671 15.5996 27.8876 16.2243ZM22.4136 0.0508189C22.8038 0.106819 22.8598 0.155819 23.0786 0.561819C23.4006 1.14982 23.6001 1.35982 24.1986 1.74832C24.7481 2.09832 24.7481 2.11757 24.5591 3.01882C24.3963 3.77832 24.4908 4.52732 24.8426 5.20107C25.3553 6.21607 26.7868 7.27832 28.0976 7.61082C28.5893 7.74382 28.7888 7.75257 29.3873 7.64932C29.7758 7.59157 30.1556 7.56357 30.2308 7.59157C30.3166 7.63007 30.5161 7.94157 30.6858 8.29332C31.0656 9.11057 32.0158 10.0871 32.7736 10.4388C34.0073 11.0163 35.3461 10.9883 36.6341 10.3513C36.9946 10.1728 37.3551 10.0591 37.4408 10.0871C37.5161 10.1151 37.7348 10.3321 37.9238 10.5613C38.1146 10.7993 38.4943 11.1021 38.7603 11.2351C39.1961 11.4626 39.3571 11.4906 40.0781 11.4801C40.6468 11.4713 40.9321 11.5011 40.9986 11.5851C41.2733 11.9176 42.0311 15.4368 42.3548 17.8571C42.6401 20.0288 42.6681 24.8868 42.4021 27.0096C42.0521 29.8866 41.5306 32.3523 40.8096 34.5713C40.2968 36.1463 39.8418 37.1806 38.9021 38.8693C37.4793 41.4313 36.9281 42.0001 35.8851 42.0001C35.5943 42.0009 35.3045 41.9656 35.0223 41.8951C34.4046 41.6868 33.4561 40.9571 31.9948 39.5711C30.2693 37.9401 29.5378 37.3713 28.6278 36.9251C27.5183 36.3738 26.4263 36.3266 25.4778 36.7921C25.2503 36.9058 24.6063 37.4186 24.0656 37.9401C22.9281 39.0216 22.4906 39.2578 21.4931 39.3243C20.2611 39.4013 19.5681 39.0881 17.6326 37.5883C16.8083 36.9531 16.2011 36.6678 15.5273 36.6118C14.7118 36.5453 14.1133 36.7536 12.7956 37.5516C11.4953 38.3391 10.8023 38.5841 9.90108 38.5841C8.02333 38.5841 6.39058 37.4291 4.71233 34.9143C2.84333 32.0951 1.47658 28.1576 1.03208 24.2603C0.860581 22.7903 0.832581 19.8206 0.974331 18.3681C1.72333 10.9026 5.33883 5.19057 11.1733 2.28032C12.9933 1.37032 14.9953 0.733319 17.2808 0.344819C18.9888 0.0595689 21.5036 -0.0821811 22.4136 0.0508189V0.0508189ZM18.4953 2.64082C14.1046 3.07657 9.83458 5.44782 7.26383 8.86382C4.58808 12.4216 3.09883 18.3121 3.64133 23.1963C3.99133 26.4338 5.32833 30.1036 7.12208 32.7986C8.03208 34.1636 8.38208 34.5433 9.01908 34.8566C9.98683 35.3308 10.9826 35.1611 12.2163 34.3158C13.3171 33.5563 14.4563 33.2256 15.6778 33.2921C16.9203 33.3673 17.3963 33.6141 19.2741 35.2171C20.3836 36.1656 21.3426 36.2706 22.4136 35.5583C22.6516 35.3973 23.1836 34.9896 23.6001 34.6483C24.9371 33.5388 25.9626 33.1486 27.5848 33.1398C29.6148 33.1293 30.9326 33.8888 32.8016 36.1673C34.3206 38.0048 34.9086 38.3863 35.7416 38.0731C37.1083 37.5516 38.4838 34.4296 39.3851 29.8201C40.5803 23.7301 40.3528 18.4066 38.7691 15.1726C38.2563 14.1086 37.6403 13.4261 37.0611 13.2563C36.7006 13.1513 36.5886 13.1601 35.8291 13.4068C35.0976 13.6448 34.8421 13.6833 33.8936 13.6833C33.0011 13.6833 32.6878 13.6343 32.1576 13.4558C31.1426 13.1128 30.6876 12.6963 29.5571 11.0828C29.0356 10.3338 28.5806 10.0871 27.3468 9.84032C25.0718 9.40282 24.1408 9.00557 23.3341 8.13232C22.5746 7.31682 22.0916 6.22482 21.7416 4.53782C21.6453 4.04432 21.4756 3.50357 21.3706 3.33207C20.9821 2.70732 20.0423 2.47807 18.4953 2.64082V2.64082Z" fill="#FF4C34"/>
</g>
<defs>
<clipPath id="clip0_1_319">
<rect width="42" height="42" fill="white" transform="translate(0.734131)"/>
</clipPath>
</defs>
</svg>
