<svg width="166" height="42" viewBox="0 0 166 42" fill="none" xmlns="http://www.w3.org/2000/svg">
<g clip-path="url(#clip0_1_321)">
<path d="M52.973 19.6854L56.4023 14.4795L56.7036 14.0343C56.7089 14.0291 56.712 14.0217 56.7173 14.0175C56.8295 13.8477 56.8894 13.6488 56.8895 13.4452V1.03109C56.8896 0.89565 56.863 0.761481 56.8113 0.63632C56.7595 0.511158 56.6836 0.397496 56.5878 0.301722C56.492 0.205948 56.3783 0.129955 56.2531 0.0781866C56.128 0.0264179 55.9938 -0.000137602 55.8584 5.36173e-07H1.39486C1.12148 0.000278502 0.859376 0.10899 0.666068 0.302298C0.472759 0.495607 0.364047 0.757715 0.36377 1.03109V40.971C0.363907 41.1063 0.390704 41.2402 0.442596 41.3651C0.494489 41.49 0.570449 41.6035 0.666196 41.699C0.761942 41.7946 0.875577 41.8704 1.0006 41.922C1.12563 41.9736 1.2596 42.0001 1.39486 42H55.8552C55.9905 42.0001 56.1245 41.9736 56.2495 41.922C56.3745 41.8704 56.4881 41.7946 56.5839 41.699C56.6796 41.6035 56.7556 41.49 56.8075 41.3651C56.8594 41.2402 56.8862 41.1063 56.8863 40.971V28.5316C56.8866 28.329 56.8267 28.131 56.7141 27.9625C56.7106 27.9551 56.7064 27.9481 56.7016 27.9416L56.3949 27.4953L52.973 22.2988L52.9352 22.2411L52.1141 20.9926L52.9352 19.7442L52.973 19.6854ZM49.8891 18.0201L49.8503 18.0589L49.8136 18.1702L49.739 18.0201L46.7318 13.3214L46.6184 13.1344H42.3333L42.8215 13.8474L47.5182 20.9874L42.8215 28.1274L42.3333 28.8792H46.6226L46.736 28.6545L49.7432 23.9558L49.8198 23.8423L49.8566 23.9169L49.8954 23.9547L52.8617 28.4697C52.9005 28.5086 52.9006 28.5831 52.9363 28.6965C52.9363 28.7574 52.9604 28.8414 52.9698 28.9306C52.9716 28.9526 52.9716 28.9748 52.9698 28.9968V38.0888H4.28134V3.91757H52.973V12.9801C52.973 13.0966 52.9363 13.209 52.9363 13.3224C52.8995 13.3969 52.8995 13.4725 52.8617 13.5471L49.8891 18.0201Z" fill="#FF4C34"/>
<path d="M121.652 13.4654L120.759 16.8496H119.97C119.854 16.8379 119.738 16.8507 119.628 16.8873C119.589 16.9126 119.555 16.9458 119.529 16.9846C119.503 17.0234 119.486 17.0671 119.477 17.1131L115.206 28.2494C115.137 28.4364 115.015 28.5995 114.856 28.719C114.696 28.8384 114.506 28.9091 114.307 28.9224H111.096L110.983 28.5802L106.51 17.1131C106.488 17.0308 106.449 16.9539 106.396 16.8873C106.301 16.8507 106.198 16.8378 106.096 16.8496H105.305L104.41 13.4654H108.537C108.738 13.4655 108.934 13.5243 109.102 13.6346C109.27 13.7448 109.402 13.9017 109.482 14.0859V14.0964C109.482 14.0964 109.482 14.0964 109.482 14.1027L109.505 14.1647C109.506 14.1682 109.506 14.1717 109.505 14.1752V14.1899L109.774 14.906L111.625 19.8557L112.999 23.5412L113.074 23.7302L113.149 23.5412L115.258 17.8848L116.424 14.7642L116.657 14.1405C116.662 14.1248 116.668 14.109 116.675 14.0943C116.753 13.9083 116.885 13.7495 117.053 13.6375C117.221 13.5255 117.418 13.4653 117.62 13.4644L121.652 13.4654Z" fill="#FF4C34"/>
<path d="M96.0398 8.82522V28.9254H92.284V11.2906C92.284 11.2161 92.2839 11.1783 92.2461 11.1783C92.2165 11.1541 92.1795 11.1408 92.1412 11.1405H90.4822L89.5854 7.79413H95.0139C95.2865 7.79552 95.5474 7.90475 95.7397 8.09796C95.9319 8.29118 96.0398 8.55267 96.0398 8.82522V8.82522Z" fill="#FF4C34"/>
<path d="M39.5834 15.4675C37.9867 13.9923 35.8926 13.173 33.7186 13.173C31.5447 13.173 29.4506 13.9923 27.8539 15.4675L27.8465 15.4728C27.0966 16.2232 26.5018 17.114 26.0963 18.0944C25.6908 19.0747 25.4825 20.1254 25.4832 21.1863C25.4838 22.2472 25.6936 23.2976 26.1004 24.2774C26.5071 25.2573 27.103 26.1473 27.8539 26.8968C29.4396 28.394 31.5378 29.228 33.7186 29.228C35.8995 29.228 37.9977 28.394 39.5834 26.8968V26.8894C41.098 25.3748 41.9489 23.3205 41.9489 21.1785C41.9489 19.0365 41.098 16.9822 39.5834 15.4675V15.4675ZM36.9132 24.528C36.8817 24.5627 36.8481 24.5941 36.8156 24.6277C35.9676 25.4492 34.828 25.9001 33.6476 25.8814C32.4671 25.8627 31.3424 25.3759 30.5208 24.528C29.6978 23.6077 29.2428 22.4163 29.2428 21.1817C29.2428 19.947 29.6978 18.7556 30.5208 17.8353C31.371 16.9922 32.5198 16.5192 33.717 16.5192C34.9143 16.5192 36.0631 16.9922 36.9132 17.8353C37.736 18.7556 38.1908 19.9467 38.1908 21.1811C38.1908 22.4156 37.736 23.6067 36.9132 24.5269V24.528ZM39.5834 15.4675C37.9867 13.9923 35.8926 13.173 33.7186 13.173C31.5447 13.173 29.4506 13.9923 27.8539 15.4675L27.8465 15.4728C27.0966 16.2232 26.5018 17.114 26.0963 18.0944C25.6908 19.0747 25.4825 20.1254 25.4832 21.1863C25.4838 22.2472 25.6936 23.2976 26.1004 24.2774C26.5071 25.2573 27.103 26.1473 27.8539 26.8968C29.4396 28.394 31.5378 29.228 33.7186 29.228C35.8995 29.228 37.9977 28.394 39.5834 26.8968V26.8894C41.098 25.3748 41.9489 23.3205 41.9489 21.1785C41.9489 19.0365 41.098 16.9822 39.5834 15.4675V15.4675ZM36.9132 24.528C36.8817 24.5627 36.8481 24.5941 36.8156 24.6277C35.9676 25.4492 34.828 25.9001 33.6476 25.8814C32.4671 25.8627 31.3424 25.3759 30.5208 24.528C29.6978 23.6077 29.2428 22.4163 29.2428 21.1817C29.2428 19.947 29.6978 18.7556 30.5208 17.8353C31.371 16.9922 32.5198 16.5192 33.717 16.5192C34.9143 16.5192 36.0631 16.9922 36.9132 17.8353C37.736 18.7556 38.1908 19.9467 38.1908 21.1811C38.1908 22.4156 37.736 23.6067 36.9132 24.5269V24.528ZM39.5834 15.4675C37.9867 13.9923 35.8926 13.173 33.7186 13.173C31.5447 13.173 29.4506 13.9923 27.8539 15.4675L27.8465 15.4728C27.0966 16.2232 26.5018 17.114 26.0963 18.0944C25.6908 19.0747 25.4825 20.1254 25.4832 21.1863C25.4838 22.2472 25.6936 23.2976 26.1004 24.2774C26.5071 25.2573 27.103 26.1473 27.8539 26.8968C29.4396 28.394 31.5378 29.228 33.7186 29.228C35.8995 29.228 37.9977 28.394 39.5834 26.8968V26.8894C41.098 25.3748 41.9489 23.3205 41.9489 21.1785C41.9489 19.0365 41.098 16.9822 39.5834 15.4675V15.4675ZM36.9132 24.528C36.8817 24.5627 36.8481 24.5941 36.8156 24.6277C35.9676 25.4492 34.828 25.9001 33.6476 25.8814C32.4671 25.8627 31.3424 25.3759 30.5208 24.528C29.6978 23.6077 29.2428 22.4163 29.2428 21.1817C29.2428 19.947 29.6978 18.7556 30.5208 17.8353C31.371 16.9922 32.5198 16.5192 33.717 16.5192C34.9143 16.5192 36.0631 16.9922 36.9132 17.8353C37.736 18.7556 38.1908 19.9467 38.1908 21.1811C38.1908 22.4156 37.736 23.6067 36.9132 24.5269V24.528ZM39.5834 15.4675C37.9867 13.9923 35.8926 13.173 33.7186 13.173C31.5447 13.173 29.4506 13.9923 27.8539 15.4675L27.8465 15.4728C27.0966 16.2232 26.5018 17.114 26.0963 18.0944C25.6908 19.0747 25.4825 20.1254 25.4832 21.1863C25.4838 22.2472 25.6936 23.2976 26.1004 24.2774C26.5071 25.2573 27.103 26.1473 27.8539 26.8968C29.4396 28.394 31.5378 29.228 33.7186 29.228C35.8995 29.228 37.9977 28.394 39.5834 26.8968V26.8894C41.098 25.3748 41.9489 23.3205 41.9489 21.1785C41.9489 19.0365 41.098 16.9822 39.5834 15.4675V15.4675ZM36.9132 24.528C36.8817 24.5627 36.8481 24.5941 36.8156 24.6277C35.9676 25.4492 34.828 25.9001 33.6476 25.8814C32.4671 25.8627 31.3424 25.3759 30.5208 24.528C29.6978 23.6077 29.2428 22.4163 29.2428 21.1817C29.2428 19.947 29.6978 18.7556 30.5208 17.8353C31.371 16.9922 32.5198 16.5192 33.717 16.5192C34.9143 16.5192 36.0631 16.9922 36.9132 17.8353C37.736 18.7556 38.1908 19.9467 38.1908 21.1811C38.1908 22.4156 37.736 23.6067 36.9132 24.5269V24.528ZM39.5834 15.4675C37.9867 13.9923 35.8926 13.173 33.7186 13.173C31.5447 13.173 29.4506 13.9923 27.8539 15.4675L27.8465 15.4728C27.0966 16.2232 26.5018 17.114 26.0963 18.0944C25.6908 19.0747 25.4825 20.1254 25.4832 21.1863C25.4838 22.2472 25.6936 23.2976 26.1004 24.2774C26.5071 25.2573 27.103 26.1473 27.8539 26.8968C29.4396 28.394 31.5378 29.228 33.7186 29.228C35.8995 29.228 37.9977 28.394 39.5834 26.8968V26.8894C41.098 25.3748 41.9489 23.3205 41.9489 21.1785C41.9489 19.0365 41.098 16.9822 39.5834 15.4675V15.4675ZM36.9132 24.528C36.8817 24.5627 36.8481 24.5941 36.8156 24.6277C35.9676 25.4492 34.828 25.9001 33.6476 25.8814C32.4671 25.8627 31.3424 25.3759 30.5208 24.528C29.6978 23.6077 29.2428 22.4163 29.2428 21.1817C29.2428 19.947 29.6978 18.7556 30.5208 17.8353C31.371 16.9922 32.5198 16.5192 33.717 16.5192C34.9143 16.5192 36.0631 16.9922 36.9132 17.8353C37.736 18.7556 38.1908 19.9467 38.1908 21.1811C38.1908 22.4156 37.736 23.6067 36.9132 24.5269V24.528ZM39.5834 15.4675C37.9867 13.9923 35.8926 13.173 33.7186 13.173C31.5447 13.173 29.4506 13.9923 27.8539 15.4675L27.8465 15.4728C27.0966 16.2232 26.5018 17.114 26.0963 18.0944C25.6908 19.0747 25.4825 20.1254 25.4832 21.1863C25.4838 22.2472 25.6936 23.2976 26.1004 24.2774C26.5071 25.2573 27.103 26.1473 27.8539 26.8968C29.4396 28.394 31.5378 29.228 33.7186 29.228C35.8995 29.228 37.9977 28.394 39.5834 26.8968V26.8894C41.098 25.3748 41.9489 23.3205 41.9489 21.1785C41.9489 19.0365 41.098 16.9822 39.5834 15.4675V15.4675ZM36.9132 24.528C36.8817 24.5627 36.8481 24.5941 36.8156 24.6277C35.9676 25.4492 34.828 25.9001 33.6476 25.8814C32.4671 25.8627 31.3424 25.3759 30.5208 24.528C29.6978 23.6077 29.2428 22.4163 29.2428 21.1817C29.2428 19.947 29.6978 18.7556 30.5208 17.8353C31.371 16.9922 32.5198 16.5192 33.717 16.5192C34.9143 16.5192 36.0631 16.9922 36.9132 17.8353C37.736 18.7556 38.1908 19.9467 38.1908 21.1811C38.1908 22.4156 37.736 23.6067 36.9132 24.5269V24.528ZM39.5834 15.4675C37.9867 13.9923 35.8926 13.173 33.7186 13.173C31.5447 13.173 29.4506 13.9923 27.8539 15.4675L27.8465 15.4728C27.0966 16.2232 26.5018 17.114 26.0963 18.0944C25.6908 19.0747 25.4825 20.1254 25.4832 21.1863C25.4838 22.2472 25.6936 23.2976 26.1004 24.2774C26.5071 25.2573 27.103 26.1473 27.8539 26.8968C29.4396 28.394 31.5378 29.228 33.7186 29.228C35.8995 29.228 37.9977 28.394 39.5834 26.8968V26.8894C41.098 25.3748 41.9489 23.3205 41.9489 21.1785C41.9489 19.0365 41.098 16.9822 39.5834 15.4675V15.4675ZM36.9132 24.528C36.8817 24.5627 36.8481 24.5941 36.8156 24.6277C35.9676 25.4492 34.828 25.9001 33.6476 25.8814C32.4671 25.8627 31.3424 25.3759 30.5208 24.528C29.6978 23.6077 29.2428 22.4163 29.2428 21.1817C29.2428 19.947 29.6978 18.7556 30.5208 17.8353C31.371 16.9922 32.5198 16.5192 33.717 16.5192C34.9143 16.5192 36.0631 16.9922 36.9132 17.8353C37.736 18.7556 38.1908 19.9467 38.1908 21.1811C38.1908 22.4156 37.736 23.6067 36.9132 24.5269V24.528ZM39.5834 15.4675C37.9867 13.9923 35.8926 13.173 33.7186 13.173C31.5447 13.173 29.4506 13.9923 27.8539 15.4675L27.8465 15.4728C27.0966 16.2232 26.5018 17.114 26.0963 18.0944C25.6908 19.0747 25.4825 20.1254 25.4832 21.1863C25.4838 22.2472 25.6936 23.2976 26.1004 24.2774C26.5071 25.2573 27.103 26.1473 27.8539 26.8968C29.4396 28.394 31.5378 29.228 33.7186 29.228C35.8995 29.228 37.9977 28.394 39.5834 26.8968V26.8894C41.098 25.3748 41.9489 23.3205 41.9489 21.1785C41.9489 19.0365 41.098 16.9822 39.5834 15.4675V15.4675ZM36.9132 24.528C36.8817 24.5627 36.8481 24.5941 36.8156 24.6277C35.9676 25.4492 34.828 25.9001 33.6476 25.8814C32.4671 25.8627 31.3424 25.3759 30.5208 24.528C29.6978 23.6077 29.2428 22.4163 29.2428 21.1817C29.2428 19.947 29.6978 18.7556 30.5208 17.8353C31.371 16.9922 32.5198 16.5192 33.717 16.5192C34.9143 16.5192 36.0631 16.9922 36.9132 17.8353C37.736 18.7556 38.1908 19.9467 38.1908 21.1811C38.1908 22.4156 37.736 23.6067 36.9132 24.5269V24.528ZM39.5834 15.4675C37.9867 13.9923 35.8926 13.173 33.7186 13.173C31.5447 13.173 29.4506 13.9923 27.8539 15.4675L27.8465 15.4728C27.0966 16.2232 26.5018 17.114 26.0963 18.0944C25.6908 19.0747 25.4825 20.1254 25.4832 21.1863C25.4838 22.2472 25.6936 23.2976 26.1004 24.2774C26.5071 25.2573 27.103 26.1473 27.8539 26.8968C29.4396 28.394 31.5378 29.228 33.7186 29.228C35.8995 29.228 37.9977 28.394 39.5834 26.8968V26.8894C41.098 25.3748 41.9489 23.3205 41.9489 21.1785C41.9489 19.0365 41.098 16.9822 39.5834 15.4675V15.4675ZM36.9132 24.528C36.8817 24.5627 36.8481 24.5941 36.8156 24.6277C35.9676 25.4492 34.828 25.9001 33.6476 25.8814C32.4671 25.8627 31.3424 25.3759 30.5208 24.528C29.6978 23.6077 29.2428 22.4163 29.2428 21.1817C29.2428 19.947 29.6978 18.7556 30.5208 17.8353C31.371 16.9922 32.5198 16.5192 33.717 16.5192C34.9143 16.5192 36.0631 16.9922 36.9132 17.8353C37.736 18.7556 38.1908 19.9467 38.1908 21.1811C38.1908 22.4156 37.736 23.6067 36.9132 24.5269V24.528ZM39.5834 15.4675C37.9867 13.9923 35.8926 13.173 33.7186 13.173C31.5447 13.173 29.4506 13.9923 27.8539 15.4675L27.8465 15.4728C27.0966 16.2232 26.5018 17.114 26.0963 18.0944C25.6908 19.0747 25.4825 20.1254 25.4832 21.1863C25.4838 22.2472 25.6936 23.2976 26.1004 24.2774C26.5071 25.2573 27.103 26.1473 27.8539 26.8968C29.4396 28.394 31.5378 29.228 33.7186 29.228C35.8995 29.228 37.9977 28.394 39.5834 26.8968V26.8894C41.098 25.3748 41.9489 23.3205 41.9489 21.1785C41.9489 19.0365 41.098 16.9822 39.5834 15.4675V15.4675ZM36.9132 24.528C36.8817 24.5627 36.8481 24.5941 36.8156 24.6277C35.9676 25.4492 34.828 25.9001 33.6476 25.8814C32.4671 25.8627 31.3424 25.3759 30.5208 24.528C29.6978 23.6077 29.2428 22.4163 29.2428 21.1817C29.2428 19.947 29.6978 18.7556 30.5208 17.8353C31.371 16.9922 32.5198 16.5192 33.717 16.5192C34.9143 16.5192 36.0631 16.9922 36.9132 17.8353C37.736 18.7556 38.1908 19.9467 38.1908 21.1811C38.1908 22.4156 37.736 23.6067 36.9132 24.5269V24.528ZM39.5834 15.4675C37.9867 13.9923 35.8926 13.173 33.7186 13.173C31.5447 13.173 29.4506 13.9923 27.8539 15.4675L27.8465 15.4728C27.0966 16.2232 26.5018 17.114 26.0963 18.0944C25.6908 19.0747 25.4825 20.1254 25.4832 21.1863C25.4838 22.2472 25.6936 23.2976 26.1004 24.2774C26.5071 25.2573 27.103 26.1473 27.8539 26.8968C29.4396 28.394 31.5378 29.228 33.7186 29.228C35.8995 29.228 37.9977 28.394 39.5834 26.8968V26.8894C41.098 25.3748 41.9489 23.3205 41.9489 21.1785C41.9489 19.0365 41.098 16.9822 39.5834 15.4675V15.4675ZM36.9132 24.528C36.8817 24.5627 36.8481 24.5941 36.8156 24.6277C35.9676 25.4492 34.828 25.9001 33.6476 25.8814C32.4671 25.8627 31.3424 25.3759 30.5208 24.528C29.6978 23.6077 29.2428 22.4163 29.2428 21.1817C29.2428 19.947 29.6978 18.7556 30.5208 17.8353C31.371 16.9922 32.5198 16.5192 33.717 16.5192C34.9143 16.5192 36.0631 16.9922 36.9132 17.8353C37.736 18.7556 38.1908 19.9467 38.1908 21.1811C38.1908 22.4156 37.736 23.6067 36.9132 24.5269V24.528Z" fill="#FF4C34"/>
<path d="M135.944 22.0416L136.018 21.6279C136.018 21.6279 136.093 20.8015 136.093 20.3878C136.173 18.4626 135.514 16.5795 134.251 15.1242C133.631 14.4654 132.878 13.9466 132.041 13.6026C131.204 13.2585 130.303 13.0971 129.399 13.1292C127.526 13.0927 125.705 13.7476 124.284 14.9688C124.117 15.1116 123.954 15.2638 123.799 15.4224C122.355 16.9833 121.585 19.0496 121.654 21.1743C121.624 22.2479 121.816 23.3164 122.217 24.3127C122.618 25.3091 123.221 26.2119 123.987 26.965L123.993 26.9724C124.764 27.7218 125.676 28.3104 126.676 28.7039C127.677 29.0974 128.745 29.288 129.82 29.2645C131.998 29.2627 134.099 28.4608 135.724 27.0112L136.025 26.7099L133.715 24.3999C132.66 25.2836 131.339 25.7883 129.963 25.8331C128.805 25.8608 127.683 25.4281 126.843 24.6298C126.127 23.9402 125.674 23.0234 125.561 22.0364L135.944 22.0416ZM125.759 18.9966C125.941 18.3897 126.265 17.8348 126.704 17.3775C126.764 17.3145 126.826 17.2515 126.891 17.1927C127.587 16.6152 128.469 16.308 129.373 16.3275C129.753 16.3225 130.13 16.3969 130.479 16.5459C130.829 16.6949 131.143 16.9152 131.403 17.1927C131.854 17.697 132.143 18.3257 132.231 18.9966H125.759Z" fill="#FF4C34"/>
<path d="M89.4629 21.6299C89.4629 21.6299 89.5763 20.8046 89.5763 20.392C89.638 18.4688 88.9815 16.5916 87.7346 15.1262C87.1066 14.4676 86.3463 13.9494 85.5037 13.6055C84.6612 13.2617 83.7553 13.1001 82.8458 13.1312C80.9729 13.0934 79.1532 13.7558 77.7428 14.9887C77.5843 15.1262 77.4278 15.2732 77.2818 15.4244C75.8275 16.9808 75.0438 19.0469 75.1 21.1763C75.0787 22.2488 75.2742 23.3146 75.675 24.3097C76.0757 25.3048 76.6733 26.2087 77.432 26.9671V26.9744C78.2034 27.7234 79.1159 28.3117 80.1164 28.7054C81.1169 29.099 82.1856 29.2901 83.2606 29.2676C85.448 29.2588 87.558 28.4571 89.1994 27.0112L89.4629 26.7109L87.1592 24.4071C86.1104 25.2993 84.7873 25.8049 83.4107 25.8393C82.2534 25.8605 81.1336 25.4287 80.2901 24.636C79.6012 23.9269 79.1533 23.0187 79.0102 22.0405H89.3884L89.4629 21.6299ZM79.1992 19.0049C79.3938 18.4056 79.7162 17.8556 80.1441 17.3931C80.205 17.3273 80.2677 17.263 80.3321 17.2C81.0161 16.6419 81.8717 16.337 82.7545 16.3369H82.8143C83.2001 16.3273 83.5835 16.3992 83.9396 16.548C84.2956 16.6967 84.6163 16.9189 84.8807 17.2C85.3044 17.7178 85.5776 18.3422 85.6703 19.0049H79.1992Z" fill="#FF4C34"/>
<path d="M165.044 13.4714L163.527 17.4614C163.526 17.4642 163.526 17.467 163.527 17.4698L159.305 28.583L159.165 28.9264L158.249 31.1787C157.866 32.2579 157.172 33.1996 156.254 33.8855C155.355 34.5597 154.258 34.9168 153.134 34.9009L152.21 31.4789C152.875 31.4526 153.53 31.3146 154.149 31.0705C154.569 30.7026 154.894 30.2381 155.094 29.717L155.658 28.3626L150.805 17.1265C150.773 17.0404 150.721 16.9631 150.654 16.9007C150.603 16.8708 150.543 16.8579 150.485 16.864C150.416 16.8494 150.345 16.8462 150.275 16.8545H149.522L148.616 13.4798H152.835C153.016 13.501 153.188 13.5698 153.333 13.6792C153.479 13.7885 153.593 13.9346 153.664 14.1025C153.666 14.1065 153.668 14.1107 153.669 14.1151L153.688 14.1676L153.851 14.6012L157.269 23.7362L157.412 23.3519L159.307 18.2689L159.357 18.1324L159.45 17.8846L160.844 14.1487C160.844 14.1487 160.844 14.1413 160.844 14.1371C160.844 14.1329 160.856 14.1056 160.862 14.0909C160.934 13.9174 161.053 13.7669 161.205 13.6559C161.356 13.5448 161.535 13.4775 161.723 13.4609L165.044 13.4714Z" fill="#FF4C34"/>
<path d="M148.289 16.8598H146.563C146.471 16.8602 146.38 16.8668 146.289 16.8798C146.229 16.8882 146.169 16.8998 146.111 16.9113C145.482 17.0808 144.902 17.3967 144.418 17.8332C143.75 18.4243 143.267 19.1959 143.028 20.055C142.9 20.4462 142.812 20.8493 142.764 21.2583C142.757 21.3391 142.75 21.421 142.743 21.5019C142.713 21.8347 142.689 22.1665 142.689 22.4994V28.9275H142.197H138.927V16.1941C138.926 15.9211 138.818 15.6594 138.624 15.4665C138.431 15.2735 138.17 15.1651 137.897 15.1651L137.442 13.4736H140.241C140.862 13.4331 141.477 13.6197 141.972 13.9986C142.169 14.1749 142.328 14.3903 142.438 14.631C142.548 14.8717 142.607 15.1326 142.611 15.3972C142.715 14.9003 142.941 14.4368 143.267 14.0477C143.593 13.6585 144.01 13.3558 144.481 13.1662C144.953 12.9766 145.463 12.9062 145.968 12.9609C146.473 13.0156 146.956 13.1938 147.376 13.4799H147.382L147.786 14.9845L148.289 16.8598Z" fill="#FF4C34"/>
<path d="M20.2729 18.8622V18.8076C21.0003 18.4097 21.602 17.8164 22.0101 17.0947C22.4183 16.373 22.6167 15.5515 22.5829 14.7231C22.5829 11.5783 20.1101 9.80487 16.6703 9.80487H10.1666V28.8876H16.7512C20.2981 28.8876 23.3347 27.1677 23.3347 23.3499C23.3872 22.3696 23.1159 21.3992 22.5626 20.5883C22.0094 19.7773 21.2048 19.1708 20.2729 18.8622V18.8622ZM13.6883 12.7879H16.6451C16.9624 12.7609 17.2818 12.8036 17.581 12.9129C17.8801 13.0222 18.1518 13.1955 18.377 13.4207C18.6022 13.6459 18.7755 13.9175 18.8848 14.2167C18.994 14.5158 19.0367 14.8352 19.0097 15.1525C19.0376 15.4692 18.9981 15.7882 18.8937 16.0885C18.7894 16.3888 18.6225 16.6636 18.4043 16.8947C18.186 17.1259 17.9213 17.3081 17.6275 17.4295C17.3337 17.5509 17.0175 17.6087 16.6997 17.5991H13.6894L13.6883 12.7879ZM17.021 25.9035H14.2795C14.1998 25.9119 14.1192 25.9024 14.0436 25.8757C13.9681 25.849 13.8994 25.8057 13.8428 25.749C13.7861 25.6923 13.7428 25.6238 13.7161 25.5482C13.6894 25.4727 13.6799 25.3921 13.6883 25.3124V20.3941H17.021C17.7423 20.4082 18.4292 20.7046 18.9344 21.2197C19.4395 21.7348 19.7224 22.4274 19.7224 23.1489C19.7224 23.8703 19.4395 24.5629 18.9344 25.0779C18.4292 25.593 17.7423 25.8894 17.021 25.9035V25.9035Z" fill="#FF4C34"/>
<path d="M103.256 7.85107H99.4946V11.6122H103.256V7.85107Z" fill="#FF4C34"/>
<path d="M103.256 13.4673H99.4946V28.9233H103.256V13.4673Z" fill="#FF4C34"/>
<path d="M69.0275 7.79626V14.4889C67.9185 13.5757 66.5164 13.095 65.0805 13.1355C64.1156 13.1182 63.1585 13.3111 62.2756 13.7005C61.3926 14.09 60.6048 14.6667 59.967 15.3909C58.6633 17.0337 57.984 19.0854 58.0497 21.1816C57.9712 23.279 58.6221 25.3388 59.8914 27.0102V27.0102C60.5038 27.7353 61.2707 28.3142 62.1359 28.7044C63.001 29.0947 63.9426 29.2864 64.8915 29.2656C65.6977 29.2865 66.4997 29.144 67.2494 28.8466C67.999 28.5492 68.6806 28.1031 69.2532 27.5352V28.9275H72.7906V7.79626H69.0275ZM68.1255 24.6025C67.807 25.0021 67.4 25.3222 66.9366 25.5374C66.4732 25.7526 65.9661 25.8571 65.4554 25.8426C64.9617 25.8514 64.473 25.7436 64.0287 25.5282C63.5845 25.3127 63.1973 24.9956 62.8986 24.6025C62.2363 23.5913 61.8836 22.4088 61.8836 21.2C61.8836 19.9913 62.2363 18.8087 62.8986 17.7975C63.2073 17.4057 63.602 17.0902 64.052 16.8752C64.502 16.6602 64.9955 16.5515 65.4942 16.5575C65.9852 16.5416 66.4729 16.6423 66.9173 16.8515C67.3618 17.0607 67.7503 17.3723 68.051 17.7608C68.7751 18.7504 69.1449 19.9551 69.101 21.1806C69.1736 22.3988 68.83 23.6054 68.1265 24.6025H68.1255Z" fill="#FF4C34"/>
</g>
<defs>
<clipPath id="clip0_1_321">
<rect width="164.681" height="42" fill="white" transform="translate(0.36377)"/>
</clipPath>
</defs>
</svg>
