<svg width="160" height="24" viewBox="0 0 160 24" fill="none" xmlns="http://www.w3.org/2000/svg">
<path d="M9.83849 14.8905H6.22862C6.08241 14.9156 5.9325 14.9083 5.78938 14.8693C5.64626 14.8302 5.51337 14.7602 5.39999 14.6643C5.28662 14.5684 5.1955 14.4488 5.13299 14.3139C5.07048 14.179 5.03809 14.032 5.03809 13.8832C5.03809 13.7345 5.07048 13.5875 5.13299 13.4526C5.1955 13.3177 5.28662 13.1981 5.39999 13.1022C5.51337 13.0062 5.64626 12.9363 5.78938 12.8972C5.9325 12.8581 6.08241 12.8509 6.22862 12.8759H9.83849C9.9847 12.8509 10.1346 12.8581 10.2777 12.8972C10.4208 12.9363 10.5537 13.0062 10.6671 13.1022C10.7805 13.1981 10.8716 13.3177 10.9341 13.4526C10.9966 13.5875 11.029 13.7345 11.029 13.8832C11.029 14.032 10.9966 14.179 10.9341 14.3139C10.8716 14.4488 10.7805 14.5684 10.6671 14.6643C10.5537 14.7602 10.4208 14.8302 10.2777 14.8693C10.1346 14.9083 9.9847 14.9156 9.83849 14.8905Z" fill="#191717"/>
<path d="M10.2164 6.97838H4.71423C4.444 6.97838 4.18484 6.87072 3.99375 6.67907C3.80267 6.48743 3.69531 6.2275 3.69531 5.95648C3.69531 5.68545 3.80267 5.42553 3.99375 5.23389C4.18484 5.04224 4.444 4.93457 4.71423 4.93457H10.2164C10.4866 4.93457 10.7458 5.04224 10.9369 5.23389C11.1279 5.42553 11.2353 5.68545 11.2353 5.95648C11.2353 6.2275 11.1279 6.48743 10.9369 6.67907C10.7458 6.87072 10.4866 6.97838 10.2164 6.97838Z" fill="#191717"/>
<path d="M3.14408 3.00778H0.989802C0.724646 3.00018 0.472895 2.88916 0.288063 2.69834C0.10323 2.50751 -0.000108208 2.25192 8.5027e-08 1.98588C8.5027e-08 1.7226 0.104278 1.47009 0.289902 1.28393C0.475526 1.09776 0.72729 0.993164 0.989802 0.993164H3.14408C3.40934 0.993056 3.66419 1.09671 3.85446 1.28208C4.04473 1.46746 4.15542 1.71995 4.163 1.98588C4.163 2.2569 4.05565 2.51682 3.86456 2.70847C3.67348 2.90011 3.41431 3.00778 3.14408 3.00778Z" fill="#191717"/>
<path d="M7.01516 3.00724H6.54938C6.28423 2.99963 6.03247 2.88862 5.84764 2.69779C5.66281 2.50696 5.55946 2.25137 5.55957 1.98533C5.55957 1.72205 5.66386 1.46955 5.84948 1.28338C6.03511 1.09721 6.28687 0.992617 6.54938 0.992617H7.01516C7.14758 0.988709 7.27943 1.0115 7.4029 1.05964C7.52637 1.10778 7.63894 1.18027 7.73396 1.27285C7.82898 1.36542 7.9045 1.47619 7.95605 1.59857C8.0076 1.72096 8.03414 1.85247 8.03408 1.98533C8.03408 2.25636 7.92673 2.51628 7.73565 2.70792C7.54457 2.89957 7.2854 3.00724 7.01516 3.00724Z" fill="#191717"/>
<path d="M16.6215 3.00778H10.4498C10.1846 3.00018 9.93286 2.88916 9.74802 2.69834C9.56319 2.50751 9.45985 2.25192 9.45996 1.98588C9.45996 1.7226 9.56424 1.47009 9.74986 1.28393C9.93549 1.09776 10.1873 0.993164 10.4498 0.993164H16.6215C16.8867 0.993056 17.1416 1.09671 17.3319 1.28208C17.5221 1.46746 17.6328 1.71995 17.6404 1.98588C17.6404 2.2569 17.533 2.51682 17.342 2.70847C17.1509 2.90011 16.8917 3.00778 16.6215 3.00778Z" fill="#191717"/>
<path d="M14.1763 8.75977H9.28552C9.02025 8.75966 8.7654 8.86331 8.57513 9.04868C8.38486 9.23406 8.27418 9.48654 8.2666 9.75247C8.2666 10.0235 8.37395 10.2834 8.56503 10.4751C8.75612 10.6667 9.01528 10.7744 9.28552 10.7744H14.1763V8.75977Z" fill="#191717"/>
<path d="M14.1768 4.74014e-05V8.75923H15.3703C15.6461 8.76153 15.9195 8.70846 16.1745 8.60316C16.4295 8.49786 16.6609 8.34245 16.8551 8.14609C18.4562 6.59863 20.4067 3.91248 24.2495 4.55482C28.0922 5.19716 29.9845 8.14609 29.9845 9.75194V8.99281C29.9845 7.80941 29.7516 6.63763 29.2992 5.54467C28.8468 4.45171 28.1837 3.45906 27.348 2.62362C26.5123 1.78819 25.5204 1.1264 24.4292 0.676188C23.338 0.22598 22.1689 -0.00379483 20.9889 4.74014e-05H14.1768Z" fill="#191717"/>
<path d="M23.9292 4.74014e-05H20.9889C22.1689 -0.00379483 23.338 0.22598 24.4292 0.676188C25.5204 1.1264 26.5123 1.78819 27.348 2.62362C28.1837 3.45906 28.8468 4.45171 29.2992 5.54467C29.7516 6.63763 29.9845 7.80941 29.9845 8.99282V9.75194C29.9845 11.3578 28.3251 14.2775 24.2495 14.9491C20.1738 15.6206 18.4562 12.9052 16.8551 11.3578C16.6609 11.1614 16.4295 11.006 16.1745 10.9007C15.9195 10.7954 15.6461 10.7424 15.3703 10.7447H14.1768V19.5038H23.9292C26.5107 19.4961 28.9838 18.4622 30.8065 16.6287C32.6291 14.7952 33.6526 12.3118 33.6526 9.72275C33.6373 7.14382 32.607 4.67533 30.786 2.85446C28.965 1.03359 26.5007 0.00769993 23.9292 4.74014e-05Z" fill="#191717"/>
<path d="M34.9639 13.0218C34.9639 11.0948 35.5752 9.51816 36.827 8.32107C38.0788 7.12399 39.7091 6.54004 41.6305 6.54004C43.5519 6.54004 45.0366 7.15319 46.2302 8.35027C46.8031 8.9408 47.2528 9.64012 47.5527 10.4072C47.8526 11.1743 47.9968 11.9937 47.9769 12.8175C47.9769 13.2554 47.9478 13.635 47.9478 14.0145H38.6029C38.6611 15.4744 39.942 16.4379 41.8925 16.4379C42.4466 16.4486 42.9972 16.3482 43.5121 16.1427C44.027 15.9371 44.4958 15.6305 44.891 15.2408L47.0162 17.2846C46.3371 18.0078 45.5153 18.5812 44.603 18.9683C43.6908 19.3554 42.7082 19.5476 41.7178 19.5328C39.68 19.5328 38.0497 18.9489 36.827 17.781C35.5752 16.6131 34.9639 15.0656 34.9639 13.1386V13.0218ZM44.3088 11.6204C44.3088 10.4817 43.1152 9.57656 41.6305 9.57656C40.1458 9.57656 38.7484 10.4817 38.6611 11.6204H44.3088Z" fill="#191717"/>
<path d="M49.8105 19.2414V2.13184H53.4495V19.2414H49.8105Z" fill="#191717"/>
<path d="M57.6998 1.66406C58.1086 1.66406 58.5082 1.78564 58.8481 2.01343C59.188 2.24121 59.4529 2.56497 59.6094 2.94376C59.7658 3.32255 59.8067 3.73937 59.727 4.14149C59.6472 4.54362 59.4504 4.91299 59.1613 5.20291C58.8722 5.49282 58.504 5.69025 58.103 5.77024C57.7021 5.85023 57.2865 5.80918 56.9088 5.65228C56.5311 5.49538 56.2083 5.22968 55.9812 4.88877C55.754 4.54787 55.6328 4.14707 55.6328 3.73707C55.6328 3.46484 55.6863 3.19527 55.7902 2.94376C55.894 2.69225 56.0463 2.46372 56.2382 2.27123C56.4301 2.07873 56.658 1.92603 56.9088 1.82186C57.1595 1.71768 57.4283 1.66406 57.6998 1.66406ZM55.8948 19.2408V6.86118H59.5338V19.2408H55.8948Z" fill="#191717"/>
<path d="M67.743 19.9709L60.6396 6.86133H64.4824L67.743 13.1095L71.0326 6.86133H74.8462L67.743 19.9709Z" fill="#191717"/>
<path d="M74.8457 13.0218C74.8457 11.0948 75.4571 9.51816 76.7089 8.32107C77.9607 7.12399 79.5909 6.54004 81.5123 6.54004C83.4337 6.54004 84.9184 7.15319 86.112 8.35027C86.685 8.9408 87.1346 9.64012 87.4345 10.4072C87.7345 11.1743 87.8787 11.9937 87.8587 12.8175C87.8587 13.2554 87.8296 13.635 87.8296 14.0145H78.4847C78.572 15.4744 79.8238 16.4379 81.7743 16.4379C82.3284 16.4486 82.8791 16.3482 83.394 16.1427C83.9089 15.9371 84.3777 15.6305 84.7729 15.2408L86.898 17.2846C86.2189 18.0078 85.3971 18.5812 84.4849 18.9683C83.5727 19.3554 82.5901 19.5476 81.5997 19.5328C79.5618 19.5328 77.9316 18.9489 76.7089 17.781C75.4571 16.6131 74.8457 15.0656 74.8457 13.1386V13.0218ZM84.1906 11.6204C84.1906 10.4817 82.997 9.57656 81.5123 9.57656C80.0276 9.57656 78.6303 10.4817 78.5429 11.6204H84.1906Z" fill="#191717"/>
<path d="M89.7217 19.2411V6.86141H93.3607V8.55485C93.9429 7.29937 95.2529 6.59863 96.9414 6.59863L97.9021 6.65703V10.1023C97.4984 10.0303 97.0894 9.99129 96.6794 9.98552C94.6125 9.98552 93.3607 11.1534 93.3607 13.1972V19.2411H89.7217Z" fill="#191717"/>
<path d="M103.986 19.4746L98.833 6.86133H102.618L105.907 15.1242L109.226 6.86133H113.04L105.762 24.0001H102.006L103.986 19.4746Z" fill="#191717"/>
<path d="M119.532 19.2414V2.13184H123.317V15.7962H129.983V19.2414H119.532Z" fill="#191717"/>
<path d="M140.493 8.4956V6.86055H144.132V19.2402H140.493V17.6343C140.115 18.7146 138.688 19.4738 136.825 19.4738C136.005 19.4935 135.189 19.3399 134.432 19.023C133.675 18.7061 132.992 18.2329 132.429 17.6343C131.273 16.3933 130.646 14.7484 130.683 13.0504C130.642 11.3602 131.27 9.72255 132.429 8.4956C132.986 7.88724 133.667 7.40568 134.425 7.08335C135.184 6.76102 136.002 6.6054 136.825 6.62697C138.688 6.62697 140.115 7.4153 140.493 8.4956ZM139.765 15.2694C140.065 14.9838 140.302 14.6393 140.462 14.2575C140.623 13.8756 140.703 13.4647 140.697 13.0504C140.702 12.6405 140.622 12.234 140.461 11.857C140.301 11.48 140.064 11.1406 139.765 10.8606C139.463 10.5618 139.103 10.3275 138.708 10.172C138.313 10.0164 137.89 9.94276 137.466 9.95546C137.055 9.94617 136.646 10.0217 136.266 10.1774C135.885 10.3331 135.54 10.5657 135.253 10.8606C134.958 11.142 134.726 11.4824 134.57 11.8595C134.415 12.2367 134.34 12.6424 134.351 13.0504C134.341 13.4625 134.417 13.8722 134.572 14.2539C134.727 14.6357 134.959 14.9813 135.253 15.2694C135.546 15.5549 135.892 15.7794 136.272 15.9297C136.652 16.0801 137.057 16.1534 137.466 16.1453C138.317 16.1688 139.144 15.854 139.765 15.2694Z" fill="#191717"/>
<path d="M146.578 19.2414V2.13184H150.217V8.49684C150.595 7.41654 152.022 6.62822 153.885 6.62822C154.704 6.60703 155.518 6.76295 156.271 7.08539C157.025 7.40784 157.7 7.88923 158.251 8.49684C159.411 9.7238 160.039 11.3615 159.998 13.0516C160.034 14.7496 159.408 16.3946 158.251 17.6356C157.694 18.2334 157.017 18.7063 156.264 19.0233C155.512 19.3403 154.701 19.4942 153.885 19.475C152.022 19.475 150.595 18.7159 150.217 17.6356V19.2414H146.578ZM155.457 15.2706C155.751 14.9825 155.983 14.6369 156.138 14.2552C156.293 13.8734 156.368 13.4638 156.359 13.0516C156.37 12.6436 156.295 12.238 156.139 11.8608C155.984 11.4836 155.751 11.1433 155.457 10.8618C155.166 10.5632 154.817 10.3286 154.431 10.1728C154.045 10.0169 153.631 9.94336 153.215 9.9567C152.791 9.94568 152.369 10.0201 151.974 10.1756C151.579 10.331 151.219 10.5644 150.915 10.8618C150.617 11.1418 150.38 11.4812 150.219 11.8582C150.059 12.2353 149.979 12.6417 149.984 13.0516C149.978 13.4659 150.058 13.8768 150.218 14.2587C150.379 14.6405 150.616 14.9851 150.915 15.2706C151.54 15.8499 152.364 16.1639 153.215 16.1465C153.628 16.1585 154.04 16.0871 154.425 15.9367C154.81 15.7862 155.161 15.5597 155.457 15.2706Z" fill="#191717"/>
<path opacity="0.5" d="M29.6928 6.74457C29.6011 6.31293 29.4645 5.89213 29.2852 5.48909C29.0501 4.95846 28.7676 4.45029 28.441 3.97083L28.2081 3.62046C28.0397 3.38381 27.8549 3.1594 27.655 2.94893C26.7834 1.978 25.7102 1.21057 24.5109 0.700733C24.1031 0.528826 23.685 0.382557 23.2591 0.262774L22.3566 0.0875972L21.4541 0H19.1543C23.8413 0.934313 28.7903 1.98542 29.8966 8.99277V9.13875C29.8966 9.25554 29.9257 9.34313 29.9257 9.45992C29.9498 9.55526 29.9596 9.65366 29.9548 9.75189V8.99277C29.9696 8.23492 29.8815 7.47857 29.6928 6.74457Z" fill="#191717"/>
<path opacity="0.5" d="M16.8551 12.2339C18.4562 13.8106 20.4067 16.4675 24.2495 15.8544C28.0922 15.2412 29.9845 12.2631 29.9845 10.6281V9.81055C29.9554 11.4164 28.3251 14.3069 24.2495 14.9785C20.1738 15.65 18.4562 12.9347 16.8551 11.3872C16.6609 11.1908 16.4295 11.0354 16.1745 10.9301C15.9195 10.8248 15.6461 10.7718 15.3703 10.7741H14.1768V11.6208H15.3703C15.9249 11.6286 16.4558 11.8478 16.8551 12.2339Z" fill="#191717"/>
</svg>
