<svg width="24" height="24" viewBox="0 0 24 24" fill="none" xmlns="http://www.w3.org/2000/svg">
<path d="M20.6667 8.88898H19.3334V7.11124C19.3334 6.13126 18.5356 5.3335 17.5556 5.3335H3.77813C2.79815 5.3335 2.00039 6.13126 2.00039 7.11124V14.6666C2.00039 15.6466 2.79815 16.4444 3.77813 16.4444H9.01359L8.74692 17.7777H7.77805C7.53361 17.7777 7.33362 17.9777 7.33362 18.2221C7.33362 18.4666 7.53361 18.6666 7.77805 18.6666H13.5557C13.8002 18.6666 14.0002 18.4666 14.0002 18.2221C14.0002 17.9777 13.8002 17.7777 13.5557 17.7777H12.5868L12.3202 16.4444H15.3335V17.3333C15.3335 18.0688 15.9312 18.6666 16.6668 18.6666H20.6667C21.4022 18.6666 22 18.0688 22 17.3333V10.2223C22 9.48675 21.4022 8.88898 20.6667 8.88898ZM9.65357 17.7777L9.92024 16.4444H11.4135L11.6802 17.7777H9.65357V17.7777ZM15.3335 15.5555H3.77813C3.28703 15.5555 2.88926 15.1578 2.88926 14.6666V14.2222H15.3335V15.5555ZM15.3335 10.2223V13.3333H2.88926V7.11124C2.88926 6.62014 3.28703 6.22237 3.77813 6.22237H17.5556C18.0467 6.22237 18.4445 6.62014 18.4445 7.11124V8.88898H16.6668C15.9312 8.88898 15.3335 9.48675 15.3335 10.2223ZM21.1111 17.3333C21.1111 17.5777 20.9111 17.7777 20.6667 17.7777H16.6668C16.4223 17.7777 16.2223 17.5777 16.2223 17.3333V16.6666H21.1111V17.3333ZM21.1111 15.7777H16.2223V11.7778H21.1111V15.7777ZM21.1111 10.8889H16.2223V10.2223C16.2223 9.97785 16.4223 9.77785 16.6668 9.77785H20.6667C20.9111 9.77785 21.1111 9.97785 21.1111 10.2223V10.8889Z" fill="#777473"/>
</svg>
