<svg width="556" height="564" viewBox="0 0 556 564" fill="none" xmlns="http://www.w3.org/2000/svg">
<g clip-path="url(#clip0_2_9355)">
<path d="M532.57 381.669C478.639 508.861 334.979 580.113 210.395 560.893C190.124 557.766 134.547 548.448 85.3409 504.496C-9.38171 419.887 -29.6392 252.347 46.7726 134.277C102.386 48.3446 202.078 -0.368516 296.806 2.06663C317.211 2.59047 395.408 5.82655 464.131 62.5854C474.225 70.9223 496.488 90.7332 516.553 122.16C563.669 195.958 567.718 298.775 532.57 381.669Z" fill="#FF7A5A"/>
<g opacity="0.3">
<path d="M343.151 85.0745C342.051 85.03 341.195 84.0996 341.241 82.9973C341.328 80.8555 341.326 78.6792 341.229 76.5252C341.181 75.435 342.012 74.5128 343.095 74.444C343.107 74.444 343.121 74.444 343.133 74.442C344.234 74.3934 345.165 75.2469 345.213 76.3492C345.314 78.6145 345.318 80.9081 345.225 83.1612C345.183 84.1927 344.367 85.0078 343.361 85.0725C343.293 85.0765 343.222 85.0785 343.151 85.0745ZM340.046 66.0787C339.658 63.9611 339.177 61.8374 338.614 59.7704C338.325 58.7065 338.951 57.6083 340.013 57.317C341.082 57.0298 342.172 57.6548 342.463 58.7207C343.054 60.8969 343.561 63.1298 343.969 65.3587C344.167 66.4448 343.45 67.4844 342.366 67.6826C342.287 67.6968 342.208 67.7069 342.132 67.7109C341.136 67.7736 340.229 67.0839 340.046 66.0767V66.0787ZM335.159 49.8498C334.313 47.8758 333.372 45.9159 332.358 44.0208C331.839 43.048 332.205 41.8364 333.176 41.3167C334.147 40.7969 335.355 41.1629 335.876 42.1358C336.942 44.13 337.933 46.195 338.824 48.2742C339.258 49.2875 338.79 50.4626 337.778 50.8975C337.562 50.9905 337.34 51.0411 337.118 51.0552C336.3 51.1078 335.5 50.6467 335.159 49.8498V49.8498ZM326.771 35.1236C325.505 33.3862 324.148 31.6853 322.738 30.0652C322.015 29.2339 322.102 27.9719 322.932 27.2458C323.764 26.5217 325.022 26.6087 325.747 27.4399C327.231 29.1449 328.659 30.9369 329.992 32.7633C330.642 33.6532 330.448 34.9031 329.558 35.5544C329.238 35.787 328.875 35.9124 328.509 35.9346C327.851 35.9771 327.189 35.6919 326.771 35.1196V35.1236ZM315.315 22.6364C313.7 21.2287 312 19.8695 310.265 18.5994C309.377 17.9481 309.183 16.6982 309.833 15.8083C310.483 14.9163 311.731 14.7242 312.62 15.3754C314.445 16.7123 316.234 18.1423 317.934 19.6228C318.766 20.3469 318.853 21.6089 318.13 22.4402C317.767 22.8589 317.266 23.0894 316.751 23.1238C316.246 23.1562 315.727 22.9964 315.315 22.6364ZM301.386 12.9989C299.496 11.9816 297.54 11.035 295.571 10.1815C294.559 9.74465 294.095 8.56753 294.531 7.55626C294.967 6.54296 296.142 6.07777 297.154 6.51464C299.228 7.41265 301.288 8.40977 303.274 9.4797C304.244 10.0015 304.609 11.213 304.088 12.1859C303.749 12.8169 303.121 13.1911 302.455 13.2336C302.095 13.2558 301.726 13.183 301.386 12.9989V12.9989ZM227.329 12.0686C226.81 11.0957 227.178 9.88421 228.151 9.36644C230.142 8.30258 232.208 7.31153 234.288 6.42161C235.301 5.98878 236.472 6.46003 236.905 7.47333C237.337 8.48663 236.866 9.66173 235.855 10.0946C233.88 10.94 231.919 11.8805 230.029 12.8897C229.771 13.0273 229.494 13.1041 229.217 13.1203C228.46 13.1688 227.709 12.7805 227.329 12.0665V12.0686ZM285.68 6.69667C283.613 6.12631 281.496 5.63888 279.388 5.25055C278.304 5.05032 277.589 4.00668 277.789 2.9226C277.989 1.83649 279.029 1.12657 280.113 1.32074C282.332 1.73131 284.562 2.24504 286.739 2.84574C287.801 3.13901 288.425 4.23725 288.132 5.30314C287.9 6.14654 287.161 6.71488 286.335 6.76746C286.121 6.78162 285.899 6.75937 285.678 6.69869L285.68 6.69667ZM243.322 5.2465C243.035 4.18264 243.663 3.0844 244.727 2.7972C246.906 2.20864 249.137 1.70502 251.363 1.30051C252.447 1.09826 253.485 1.82435 253.681 2.91046C253.877 3.99657 253.158 5.03616 252.073 5.23235C249.959 5.61663 247.839 6.09395 245.769 6.6542C245.638 6.69061 245.505 6.71083 245.374 6.71892C244.447 6.77757 243.576 6.1789 243.324 5.2465H243.322ZM268.967 4.06938C266.826 3.97634 264.654 3.97634 262.507 4.06736C261.407 4.11388 260.476 3.25834 260.429 2.15605C260.383 1.06792 261.215 0.147658 262.295 0.0788913C262.309 0.0788913 262.323 0.0788913 262.338 0.0788913C264.595 -0.0181911 266.883 -0.0161686 269.136 0.0788913C270.237 0.127432 271.091 1.05781 271.043 2.16009C270.998 3.18957 270.182 4.00466 269.179 4.06736C269.108 4.0714 269.038 4.07343 268.965 4.06938H268.967Z" fill="#FFC59D"/>
<path d="M217.505 20.8125C217.897 20.7882 218.287 20.6467 218.618 20.3837C219.424 19.7426 220.256 19.1095 221.092 18.4987C221.982 17.8495 222.176 16.5975 221.528 15.7076C220.88 14.8157 219.63 14.6195 218.741 15.2728C217.863 15.9159 216.986 16.5813 216.138 17.2569C215.276 17.9425 215.131 19.2005 215.815 20.0642C216.237 20.5981 216.875 20.857 217.505 20.8166V20.8125Z" fill="#FFC59D"/>
</g>
<g opacity="0.3">
<path d="M188.43 74.3025C189.391 74.2418 190.192 73.4894 190.287 72.5004C190.384 71.475 190.505 70.4354 190.647 69.4079C190.796 68.3137 190.035 67.3065 188.942 67.1568C187.846 67.0051 186.844 67.7717 186.695 68.8639C186.548 69.9439 186.418 71.0401 186.315 72.1202C186.21 73.2184 187.014 74.1933 188.111 74.2985C188.218 74.3086 188.325 74.3106 188.43 74.3025V74.3025Z" fill="#FFC59D"/>
<path d="M266.667 159.586C265.566 159.602 264.66 158.72 264.643 157.616C264.627 156.514 265.508 155.607 266.608 155.589C268.704 155.559 270.833 155.44 272.959 155.231C274.049 155.122 275.031 155.929 275.138 157.027C275.245 158.126 274.443 159.102 273.347 159.21C272.426 159.299 271.507 159.373 270.592 159.432C269.286 159.515 267.965 159.568 266.669 159.586H266.667ZM281.666 155.939C281.412 154.865 282.076 153.789 283.146 153.534C285.204 153.045 287.263 152.464 289.267 151.807C290.311 151.461 291.439 152.036 291.783 153.083C292.126 154.131 291.554 155.26 290.508 155.603C288.398 156.295 286.232 156.908 284.065 157.422C283.952 157.448 283.841 157.464 283.73 157.472C282.779 157.533 281.892 156.9 281.664 155.939H281.666ZM255.813 158.995C253.61 158.722 251.389 158.352 249.212 157.895C248.134 157.668 247.443 156.609 247.671 155.529C247.898 154.449 248.956 153.759 250.034 153.985C252.102 154.422 254.21 154.772 256.302 155.031C257.394 155.167 258.172 156.164 258.038 157.258C257.919 158.227 257.126 158.947 256.187 159.007C256.066 159.015 255.94 159.011 255.813 158.997V158.995ZM297.917 150.592C297.435 149.6 297.845 148.403 298.834 147.92C300.732 146.991 302.612 145.972 304.423 144.888C305.37 144.322 306.594 144.631 307.157 145.578C307.723 146.524 307.414 147.75 306.469 148.316C304.561 149.457 302.582 150.533 300.583 151.51C300.34 151.627 300.088 151.694 299.836 151.71C299.052 151.761 298.281 151.342 297.915 150.592H297.917ZM238.764 154.928C236.676 154.177 234.592 153.328 232.569 152.4C231.568 151.941 231.127 150.757 231.584 149.752C232.042 148.749 233.225 148.306 234.227 148.765C236.149 149.645 238.13 150.454 240.111 151.166C241.149 151.538 241.686 152.683 241.315 153.72C241.038 154.495 240.333 154.991 239.564 155.039C239.299 155.055 239.029 155.021 238.764 154.926V154.928ZM223.018 147.214C221.14 146.023 219.29 144.736 217.521 143.393C216.643 142.726 216.471 141.474 217.136 140.594C217.802 139.714 219.052 139.54 219.93 140.208C221.612 141.484 223.369 142.706 225.154 143.838C226.085 144.429 226.362 145.663 225.772 146.595C225.417 147.157 224.827 147.481 224.213 147.519C223.807 147.546 223.389 147.446 223.022 147.212L223.018 147.214ZM209.323 136.246C207.748 134.672 206.221 133.014 204.788 131.319C204.075 130.477 204.18 129.217 205.02 128.503C205.862 127.789 207.12 127.894 207.831 128.736C209.194 130.348 210.644 131.921 212.14 133.418C212.919 134.197 212.921 135.463 212.142 136.244C211.785 136.602 211.326 136.796 210.858 136.826C210.307 136.86 209.743 136.668 209.321 136.246H209.323ZM198.344 122.547C197.151 120.666 196.024 118.712 194.996 116.74C194.485 115.763 194.865 114.556 195.84 114.044C196.816 113.534 198.021 113.913 198.532 114.889C199.509 116.762 200.578 118.617 201.712 120.403C202.304 121.333 202.029 122.569 201.099 123.16C200.806 123.346 200.481 123.447 200.158 123.467C199.455 123.512 198.75 123.182 198.346 122.545L198.344 122.547ZM190.635 106.759C189.888 104.665 189.219 102.513 188.648 100.361C188.365 99.2956 188.999 98.2014 190.063 97.9183C191.125 97.6371 192.22 98.2702 192.502 99.3361C193.044 101.381 193.68 103.426 194.391 105.414C194.762 106.451 194.223 107.596 193.185 107.968C193.005 108.033 192.822 108.071 192.638 108.082C191.774 108.136 190.942 107.618 190.635 106.761V106.759ZM186.578 89.6784C186.376 88.0523 186.22 86.4019 186.115 84.7697C186.077 84.1791 186.047 83.5885 186.023 82.9999C185.976 81.8976 186.816 80.947 187.933 80.9208C189.033 80.8742 189.962 81.7318 190.009 82.8341C190.033 83.3923 190.061 83.9546 190.098 84.5168C190.196 86.0681 190.344 87.6376 190.536 89.1829C190.673 90.2771 189.898 91.2762 188.805 91.4117C188.765 91.4158 188.722 91.4218 188.682 91.4238C187.638 91.4906 186.709 90.7321 186.578 89.6784Z" fill="#FFC59D"/>
<path d="M314.318 142.509C314.714 142.485 315.105 142.341 315.439 142.074C316.281 141.397 317.125 140.691 317.947 139.973C318.776 139.247 318.863 137.985 318.138 137.154C317.413 136.322 316.155 136.235 315.324 136.961C314.542 137.643 313.74 138.314 312.941 138.958C312.083 139.647 311.943 140.905 312.632 141.765C313.054 142.293 313.69 142.548 314.316 142.509H314.318Z" fill="#FFC59D"/>
</g>
<path d="M318.086 108.469C318.318 108.145 318.318 107.711 318.086 107.385L311.515 98.1217C313.534 93.215 314.786 87.9503 315.146 82.5015L325.115 77.0932C325.464 76.9031 325.656 76.5127 325.592 76.1204L323.364 62.6745C323.3 62.2821 322.993 61.9726 322.601 61.9059L311.422 60.0108C309.326 54.9686 306.445 50.3915 302.953 46.401L306.186 35.5096C306.299 35.1273 306.158 34.7168 305.835 34.4842L294.767 26.5517C294.444 26.3191 294.01 26.3191 293.685 26.5517L284.436 33.1331C279.538 31.1106 274.281 29.8566 268.842 29.4966L263.442 19.5112C263.252 19.1613 262.862 18.9692 262.471 19.0339L249.044 21.2648C248.653 21.3295 248.344 21.6369 248.277 22.0293L246.385 33.2261C241.351 35.3256 236.781 38.2117 232.797 41.7087L221.923 38.4706C221.542 38.3574 221.132 38.4989 220.9 38.8225L212.98 49.9081C212.748 50.2317 212.748 50.6666 212.98 50.9922L219.551 60.2555C217.531 65.1622 216.28 70.4269 215.92 75.8756L205.951 81.2839C205.602 81.4741 205.41 81.8644 205.474 82.2568L207.702 95.7047C207.766 96.0971 208.073 96.4065 208.465 96.4733L219.644 98.3684C221.74 103.411 224.621 107.988 228.113 111.978L224.88 122.87C224.767 123.252 224.908 123.662 225.231 123.895L236.299 131.827C236.622 132.06 237.056 132.06 237.381 131.827L246.629 125.246C251.528 127.269 256.784 128.523 262.224 128.883L267.624 138.868C267.814 139.218 268.203 139.41 268.595 139.343L282.021 137.112C282.413 137.048 282.722 136.74 282.789 136.348L284.681 125.151C289.715 123.052 294.285 120.165 298.269 116.668L309.142 119.907C309.524 120.02 309.934 119.878 310.166 119.555L318.086 108.469V108.469Z" fill="#FFC59D"/>
<path d="M264.399 92.8406C256.883 92.2136 251.276 85.5816 251.9 78.0517C252.203 74.405 253.905 71.0941 256.693 68.7297C259.482 66.3654 263.022 65.2287 266.665 65.5341C274.181 66.1611 279.788 72.7951 279.164 80.323C278.595 87.1734 273.062 92.4381 266.408 92.8628C265.748 92.9053 265.078 92.8992 264.399 92.8426V92.8406ZM258.755 71.1689C256.617 72.9811 255.312 75.5194 255.08 78.3166C254.602 84.089 258.901 89.1757 264.664 89.655C270.429 90.1364 275.505 85.8284 275.984 80.056C276.462 74.2837 272.163 69.197 266.4 68.7176C265.877 68.6751 265.358 68.6691 264.845 68.7014C262.614 68.843 260.494 69.6945 258.755 71.1669V71.1689Z" fill="#FF8967"/>
<path d="M267.382 112.627C268.524 112.554 269.669 112.423 270.816 112.233C271.176 112.172 271.537 112.107 271.895 112.036C273.662 111.684 275.398 111.191 277.078 110.566C277.1 110.558 277.125 110.55 277.147 110.54C277.211 110.515 277.276 110.491 277.341 110.465C277.466 110.416 277.593 110.368 277.718 110.317C278.047 110.188 278.243 109.86 278.221 109.524C278.215 109.443 278.197 109.361 278.167 109.28C278.005 108.869 277.541 108.669 277.131 108.831C275.023 109.666 272.809 110.279 270.556 110.653C259.355 112.516 248.528 108.287 241.452 100.397C237.514 96.0077 234.74 90.4841 233.708 84.2445C233.526 83.1503 233.401 82.0561 233.332 80.9639C232.868 73.616 234.924 66.3915 239.259 60.3218C244.239 53.3501 251.631 48.7387 260.074 47.337C277.51 44.4428 294.034 56.2888 296.924 73.7455C297.101 74.8215 297.225 75.9035 297.293 76.9856C297.59 81.6739 296.859 86.3743 295.137 90.747C295.092 90.8603 295.076 90.9776 295.082 91.0909C295.1 91.3902 295.288 91.6673 295.585 91.7846C295.995 91.9444 296.459 91.7462 296.621 91.3336C298.428 86.7424 299.197 81.8073 298.886 76.8865C298.816 75.7518 298.687 74.6152 298.499 73.4866C295.464 55.1603 278.106 42.7236 259.813 45.7615C250.951 47.2339 243.191 52.0759 237.963 59.3935C233.411 65.7645 231.253 73.349 231.741 81.063C231.814 82.2098 231.945 83.3586 232.135 84.5075C233.605 93.3864 238.439 101.159 245.745 106.395C252.108 110.954 259.682 113.116 267.386 112.627H267.382Z" fill="#FF8967"/>
<g opacity="0.3">
<path d="M414.616 133.292C415.147 133.258 415.615 132.879 415.739 132.331C415.969 131.31 416.173 130.266 416.34 129.233C416.449 128.561 415.995 127.926 415.323 127.815C414.65 127.702 414.018 128.161 413.907 128.834C413.746 129.819 413.554 130.814 413.334 131.789C413.184 132.453 413.6 133.114 414.265 133.264C414.382 133.29 414.501 133.298 414.614 133.29L414.616 133.292Z" fill="#FFC59D"/>
<path d="M415.72 123.883C415.04 123.856 414.511 123.284 414.537 122.602C414.602 120.883 414.581 119.142 414.472 117.427C414.45 117.065 414.422 116.703 414.392 116.339C414.335 115.661 414.838 115.062 415.516 115.006C416.159 114.977 416.791 115.453 416.847 116.132C416.879 116.513 416.908 116.893 416.932 117.271C417.045 119.069 417.069 120.895 417.001 122.7C416.976 123.337 416.472 123.844 415.85 123.883C415.807 123.885 415.767 123.885 415.722 123.883H415.72ZM413.485 110.137C413.059 108.097 412.502 106.064 411.831 104.096C411.611 103.451 411.954 102.751 412.599 102.531C413.239 102.312 413.943 102.654 414.164 103.299C414.868 105.362 415.45 107.492 415.898 109.632C416.037 110.299 415.611 110.953 414.945 111.092C414.886 111.104 414.828 111.112 414.769 111.114C414.168 111.153 413.614 110.744 413.487 110.135L413.485 110.137ZM409.442 98.3035C408.532 96.4327 407.494 94.5982 406.357 92.8528C405.985 92.2824 406.147 91.5179 406.716 91.1457C407.288 90.7736 408.049 90.9334 408.421 91.5037C409.614 93.3341 410.702 95.2576 411.658 97.2194C411.956 97.8323 411.702 98.5705 411.09 98.8698C410.941 98.9427 410.785 98.9831 410.628 98.9912C410.145 99.0215 409.669 98.7647 409.442 98.3015V98.3035ZM402.621 87.8267C401.278 86.235 399.823 84.71 398.298 83.3003C397.797 82.8371 397.767 82.0564 398.229 81.5568C398.69 81.0573 399.469 81.0249 399.97 81.4881C401.569 82.9686 403.094 84.5644 404.503 86.235C404.941 86.7548 404.877 87.5335 404.358 87.9744C404.148 88.1503 403.897 88.2454 403.643 88.2616C403.267 88.2859 402.886 88.1382 402.623 87.8267H402.621ZM393.452 79.3361C391.762 78.1185 389.983 76.996 388.161 75.9968C387.565 75.6692 387.345 74.9208 387.672 74.3222C388 73.7235 388.747 73.503 389.344 73.8327C391.255 74.8804 393.121 76.0575 394.891 77.3317C395.443 77.7302 395.57 78.5008 395.172 79.0529C394.948 79.3644 394.605 79.5424 394.249 79.5646C393.975 79.5828 393.694 79.508 393.452 79.3361ZM382.503 73.3311C380.571 72.5626 378.574 71.9093 376.564 71.3874C375.906 71.2176 375.51 70.542 375.682 69.8847C375.854 69.2253 376.522 68.8309 377.184 68.9988C379.29 69.5449 381.386 70.2326 383.414 71.0375C384.046 71.2904 384.355 72.0063 384.104 72.6394C383.923 73.0985 383.497 73.3877 383.036 73.4161C382.861 73.4282 382.679 73.4019 382.503 73.3311V73.3311ZM370.426 70.1921C368.37 69.9231 366.272 69.7795 364.186 69.7674C363.506 69.7633 362.958 69.2071 362.963 68.5255C362.967 67.8439 363.52 67.3059 364.202 67.2979C366.389 67.312 368.59 67.4617 370.745 67.7448C371.419 67.8338 371.896 68.4527 371.807 69.1283C371.73 69.7229 371.242 70.1618 370.664 70.2002C370.585 70.2043 370.507 70.2022 370.426 70.1921V70.1921ZM350.294 70.3175C350.132 69.6561 350.538 68.9887 351.198 68.8269C353.028 68.3799 354.914 68.026 356.798 67.7752C357.084 67.7347 357.369 67.7003 357.656 67.666C358.326 67.5669 358.944 68.0725 359.021 68.75C359.1 69.4276 358.615 70.0384 357.939 70.1173C357.67 70.1476 357.401 70.182 357.129 70.2204C355.326 70.4611 353.526 70.7989 351.782 71.2236C351.709 71.2418 351.638 71.2519 351.568 71.256C350.982 71.2924 350.437 70.9061 350.294 70.3175V70.3175Z" fill="#FFC59D"/>
</g>
<g opacity="0.3">
<path d="M366.458 173.821C364.313 173.93 362.145 173.906 360.01 173.756C359.332 173.708 358.821 173.119 358.869 172.438C358.918 171.758 359.512 171.252 360.186 171.295C362.221 171.439 364.291 171.461 366.337 171.358C367.015 171.323 367.595 171.847 367.629 172.527C367.663 173.202 367.148 173.779 366.478 173.821C366.478 173.821 366.466 173.821 366.462 173.821H366.458ZM371.448 172.1C371.332 171.428 371.783 170.791 372.453 170.676C374.47 170.328 376.486 169.855 378.446 169.268C379.095 169.076 379.785 169.444 379.979 170.098C380.175 170.751 379.803 171.437 379.151 171.633C377.097 172.248 374.985 172.743 372.871 173.107C372.827 173.115 372.782 173.119 372.738 173.123C372.118 173.162 371.557 172.729 371.448 172.1V172.1ZM353.611 172.905C351.503 172.49 349.403 171.944 347.368 171.281C346.721 171.07 346.366 170.373 346.578 169.725C346.788 169.076 347.481 168.724 348.131 168.935C350.071 169.568 352.075 170.09 354.086 170.486C354.754 170.617 355.188 171.267 355.057 171.934C354.946 172.496 354.471 172.893 353.926 172.929C353.823 172.935 353.716 172.929 353.611 172.909V172.905ZM383.585 168.769C383.313 168.146 383.596 167.418 384.22 167.143C386.093 166.319 387.935 165.373 389.694 164.327C390.279 163.981 391.035 164.174 391.382 164.758C391.729 165.345 391.535 166.101 390.952 166.449C389.108 167.545 387.176 168.538 385.211 169.402C385.076 169.46 384.934 169.495 384.795 169.503C384.292 169.535 383.802 169.254 383.589 168.767L383.585 168.769ZM341.37 168.91C339.428 168.002 337.522 166.967 335.702 165.83C335.125 165.47 334.949 164.708 335.308 164.129C335.668 163.551 336.427 163.373 337.007 163.735C338.741 164.819 340.561 165.808 342.414 166.673C343.03 166.961 343.297 167.695 343.01 168.314C342.814 168.736 342.406 168.995 341.97 169.024C341.772 169.036 341.566 169.001 341.372 168.91H341.37ZM330.444 162.09C328.772 160.741 327.167 159.277 325.674 157.74C325.2 157.252 325.21 156.472 325.699 155.996C326.185 155.521 326.965 155.531 327.441 156.019C328.865 157.483 330.397 158.879 331.993 160.167C332.522 160.594 332.605 161.372 332.179 161.902C331.952 162.181 331.629 162.337 331.296 162.359C330.999 162.378 330.694 162.291 330.446 162.088L330.444 162.09ZM321.462 152.845C320.16 151.132 318.952 149.324 317.872 147.473C317.529 146.885 317.726 146.128 318.314 145.785C318.902 145.441 319.655 145.641 319.998 146.227C321.028 147.993 322.179 149.716 323.421 151.349C323.833 151.891 323.728 152.665 323.187 153.078C322.987 153.232 322.754 153.312 322.52 153.329C322.122 153.353 321.721 153.187 321.46 152.845H321.462Z" fill="#FFC59D"/>
<path d="M395.665 163.041C395.901 163.027 396.137 162.942 396.339 162.786C397.173 162.141 397.991 161.467 398.772 160.784C399.285 160.337 399.338 159.556 398.892 159.042C398.443 158.531 397.666 158.476 397.153 158.923C396.408 159.574 395.626 160.217 394.831 160.834C394.292 161.251 394.195 162.026 394.611 162.566C394.871 162.901 395.269 163.067 395.665 163.043V163.041Z" fill="#FFC59D"/>
</g>
<path d="M398.934 139.782C399.089 139.566 399.089 139.274 398.934 139.056L394.538 132.857C395.889 129.574 396.727 126.051 396.967 122.404L403.639 118.786C403.873 118.659 404 118.398 403.958 118.135L402.468 109.136C402.425 108.874 402.219 108.667 401.957 108.623L394.475 107.355C393.074 103.981 391.146 100.917 388.807 98.2471L390.97 90.9578C391.047 90.703 390.952 90.4259 390.736 90.2722L383.329 84.965C383.113 84.8093 382.822 84.8093 382.604 84.965L376.415 89.3681C373.138 88.015 369.62 87.1756 365.979 86.935L362.367 80.2525C362.24 80.0178 361.979 79.8904 361.717 79.9329L352.733 81.4255C352.47 81.47 352.264 81.6743 352.22 81.9372L350.954 89.4308C347.586 90.8344 344.526 92.766 341.861 95.1081L334.583 92.9399C334.329 92.8631 334.052 92.9581 333.899 93.1745L328.6 100.593C328.445 100.81 328.445 101.101 328.6 101.319L332.996 107.518C331.645 110.801 330.807 114.324 330.567 117.971L323.895 121.589C323.661 121.717 323.534 121.978 323.576 122.241L325.067 131.239C325.111 131.502 325.315 131.708 325.577 131.753L333.059 133.021C334.46 136.394 336.389 139.459 338.727 142.128L336.564 149.418C336.488 149.672 336.583 149.95 336.799 150.103L344.205 155.41C344.421 155.566 344.712 155.566 344.93 155.41L351.119 151.007C354.397 152.36 357.914 153.2 361.555 153.44L365.168 160.123C365.295 160.358 365.555 160.485 365.818 160.442L374.802 158.95C375.064 158.905 375.27 158.701 375.314 158.438L376.581 150.947C379.949 149.543 383.008 147.611 385.673 145.269L392.951 147.435C393.205 147.512 393.482 147.417 393.635 147.201L398.934 139.782Z" fill="#FFC59D"/>
<path d="M362.997 129.487C360.515 129.281 358.264 128.12 356.656 126.217C355.049 124.315 354.276 121.898 354.484 119.413C354.91 114.286 359.415 110.467 364.542 110.884C369.663 111.31 373.481 115.831 373.055 120.958C372.849 123.442 371.69 125.699 369.79 127.309C368.245 128.617 366.363 129.374 364.38 129.499C363.924 129.528 363.463 129.523 362.999 129.485L362.997 129.487ZM356.937 119.617C356.786 121.445 357.353 123.223 358.536 124.623C359.72 126.022 361.375 126.876 363.201 127.028C365.026 127.177 366.799 126.611 368.197 125.426C369.594 124.243 370.446 122.582 370.597 120.756C370.91 116.984 368.102 113.659 364.336 113.345C363.996 113.317 363.659 113.315 363.33 113.335C359.996 113.547 357.222 116.187 356.937 119.617Z" fill="#FF8967"/>
<path d="M365.073 143.259C365.85 143.211 366.632 143.119 367.417 142.99C368.976 142.731 370.509 142.315 371.979 141.748C372.045 141.722 372.11 141.696 372.177 141.671C372.685 141.469 372.986 140.968 372.954 140.448C372.946 140.322 372.918 140.195 372.869 140.069C372.619 139.436 371.904 139.129 371.27 139.376C369.903 139.918 368.471 140.314 367.013 140.555C366.932 140.569 366.854 140.581 366.773 140.593C363.32 141.133 359.865 140.79 356.66 139.641C354.92 139.018 353.254 138.154 351.703 137.064C351.691 137.056 351.679 137.046 351.665 137.038C351.626 137.009 351.588 136.983 351.55 136.955C347.044 133.725 344.064 128.931 343.157 123.458C343.04 122.75 342.959 122.04 342.915 121.335C342.614 116.578 343.945 111.899 346.752 107.97C349.976 103.457 354.762 100.472 360.226 99.5639C365.689 98.6598 371.183 99.934 375.69 103.162C380.195 106.392 383.176 111.185 384.082 116.658C384.197 117.354 384.278 118.056 384.323 118.756C384.514 121.792 384.042 124.834 382.925 127.665C382.857 127.839 382.83 128.019 382.842 128.195C382.871 128.656 383.161 129.085 383.62 129.265C384.254 129.514 384.969 129.204 385.219 128.569C386.467 125.402 386.996 121.998 386.782 118.602C386.732 117.817 386.643 117.035 386.515 116.256C385.502 110.13 382.166 104.768 377.126 101.156C372.086 97.5434 365.945 96.1094 359.827 97.1288C353.712 98.1441 348.357 101.483 344.751 106.534C341.611 110.929 340.122 116.161 340.458 121.484C340.508 122.275 340.597 123.068 340.728 123.861C342.693 135.719 353.345 144.003 365.073 143.257V143.259Z" fill="#FF8967"/>
<path d="M551.78 261.026C551.749 259.24 551.004 257.541 549.712 256.31C548.42 255.078 546.689 254.416 544.906 254.473L400.638 259.091C396.967 259.208 394.082 262.28 394.191 265.959L401.309 505.275C401.418 508.908 404.406 511.784 408.033 511.749L549.401 510.372C551.176 510.354 552.872 509.628 554.11 508.354C555.348 507.079 556.028 505.362 555.996 503.582L551.778 261.026H551.78Z" fill="#FF4D35"/>
<g opacity="0.43">
<path d="M536.73 272.73H408.259C407.009 272.73 406.008 273.398 406.02 274.585L406.143 285.82C406.155 287.012 407.187 288.298 408.439 288.3L537.275 288.403C538.551 288.403 539.539 287.018 539.496 285.814L539.105 274.613C539.064 273.416 538 272.73 536.728 272.73H536.73Z" fill="white"/>
<path d="M537.564 296.94L408.534 296.726C407.278 296.724 406.274 297.923 406.288 299.12L406.411 310.602C406.424 311.804 407.457 312.944 408.715 312.948L538.115 313.306C539.395 313.31 540.395 312.166 540.355 310.952L539.961 299.367C539.92 298.16 538.842 296.944 537.566 296.942L537.564 296.94Z" fill="white"/>
<path d="M538.434 322.821L408.82 322.38C407.56 322.376 406.545 322.958 406.557 324.166L406.682 335.747C406.696 336.96 407.73 337.877 408.994 337.883L538.961 338.461C540.248 338.467 541.259 337.551 541.219 336.327L540.821 324.639C540.779 323.422 539.718 322.825 538.436 322.821H538.434Z" fill="white"/>
<path d="M539.284 348.062L409.101 347.398C407.835 347.392 406.817 348.214 406.831 349.433L406.957 361.115C406.971 362.339 408.007 363.029 409.275 363.037L539.816 363.842C541.108 363.85 542.132 363.166 542.089 361.933L541.687 350.141C541.645 348.911 540.573 348.072 539.282 348.064L539.284 348.062Z" fill="white"/>
<path d="M540.141 373.524L409.382 372.632C408.11 372.624 407.092 373.69 407.104 374.917L407.231 386.703C407.245 387.937 408.293 389.273 409.568 389.284L540.704 390.325C542.002 390.335 543.01 389.002 542.968 387.757L542.562 375.86C542.519 374.62 541.433 373.53 540.139 373.522L540.141 373.524Z" fill="white"/>
<path d="M541.005 399.212L409.666 398.09C408.39 398.08 407.368 399.392 407.381 400.632L407.508 412.523C407.522 413.769 408.572 414.877 409.852 414.889L541.572 416.163C542.877 416.176 543.896 415.075 543.854 413.819L543.446 401.817C543.404 400.565 542.303 399.223 541.003 399.212H541.005Z" fill="white"/>
<path d="M541.905 426.026L409.963 424.66C408.681 424.646 407.647 425.322 407.661 426.574L407.791 438.569C407.805 439.825 408.857 440.703 410.143 440.719L542.451 442.232C543.761 442.246 544.793 441.385 544.751 440.117L544.339 428.006C544.296 426.744 543.214 426.04 541.907 426.026H541.905Z" fill="white"/>
<path d="M542.786 452.179L410.254 450.575C408.966 450.559 407.93 451.484 407.944 452.746L408.075 464.849C408.089 466.117 409.143 466.758 410.436 466.776L543.337 468.53C544.654 468.548 545.698 467.927 545.655 466.647L545.239 454.426C545.197 453.152 544.1 452.195 542.788 452.179H542.786Z" fill="white"/>
<path d="M543.672 478.566L410.545 476.719C409.25 476.701 408.215 477.878 408.227 479.15L408.358 491.362C408.372 492.64 409.438 493.955 410.737 493.973L544.258 495.982C545.58 496.002 546.608 494.708 546.564 493.417L546.144 481.086C546.099 479.799 544.991 478.584 543.672 478.566V478.566Z" fill="white"/>
</g>
<path d="M227.476 507.017C227.476 507.017 275.142 214.049 153.102 4.13445C151.511 1.39794 147.638 1.1977 145.804 3.77848C116.85 44.5409 -54.7671 309.695 227.476 507.015V507.017Z" fill="#FF9471"/>
<path opacity="0.52" d="M142.182 89.5085C142.182 89.5085 142.006 91.1185 141.76 94.1503C141.507 97.1821 141.188 101.634 140.867 107.305C140.524 112.976 140.257 119.869 140.029 127.777C139.963 131.733 139.833 135.94 139.829 140.38C139.811 142.598 139.793 144.874 139.773 147.204C139.781 149.534 139.789 151.916 139.799 154.351C139.795 156.787 139.831 159.27 139.884 161.803C139.93 164.335 139.977 166.913 140.023 169.537C140.11 172.16 140.197 174.828 140.286 177.534C140.33 178.889 140.375 180.252 140.421 181.628C140.486 183.001 140.552 184.384 140.617 185.778C140.752 188.563 140.889 191.386 141.029 194.244C141.186 197.102 141.396 199.99 141.58 202.913C141.919 208.758 142.428 214.72 142.907 220.784C143.121 223.818 143.472 226.866 143.757 229.942C144.068 233.016 144.338 236.115 144.686 239.226C145.051 242.334 145.417 245.461 145.786 248.606C145.97 250.178 146.156 251.753 146.34 253.333C146.556 254.909 146.774 256.486 146.99 258.068C147.426 261.231 147.864 264.406 148.302 267.594C148.74 270.779 149.298 273.957 149.792 277.148C150.315 280.336 150.78 283.542 151.353 286.731C151.933 289.919 152.512 293.11 153.094 296.302L153.954 301.089C154.245 302.685 154.592 304.267 154.909 305.857C155.558 309.032 156.204 312.203 156.85 315.369C157.46 318.542 158.227 321.673 158.94 324.808C159.661 327.941 160.38 331.064 161.094 334.174C162.619 340.373 164.253 346.494 165.799 352.557C167.534 358.57 169.246 364.508 170.932 370.352C172.78 376.144 174.595 381.84 176.372 387.416C178.309 392.937 180.203 398.342 182.047 403.6C183.989 408.822 186 413.859 187.878 418.755C188.357 419.977 188.811 421.194 189.298 422.388C189.805 423.573 190.305 424.746 190.804 425.909C191.798 428.237 192.775 430.518 193.73 432.755C194.685 434.992 195.622 437.183 196.537 439.323C197.524 441.43 198.49 443.489 199.429 445.497C201.308 449.514 203.092 453.325 204.768 456.905C206.575 460.42 208.265 463.71 209.83 466.754C210.611 468.275 211.363 469.736 212.079 471.131C212.798 472.525 213.463 473.866 214.181 475.089C219.749 484.988 222.929 490.645 222.929 490.645L222.937 490.661C223.056 490.873 222.981 491.142 222.769 491.262C222.559 491.379 222.295 491.308 222.174 491.102C222.174 491.102 218.874 485.497 213.103 475.688C212.362 474.472 211.675 473.138 210.934 471.752C210.193 470.365 209.42 468.914 208.612 467.4C206.997 464.372 205.25 461.099 203.382 457.6C201.646 454.035 199.798 450.242 197.849 446.244C196.882 444.241 195.889 442.186 194.873 440.083C193.934 437.943 192.975 435.755 191.994 433.52C191.012 431.285 190.013 429.004 188.991 426.678C188.48 425.515 187.965 424.342 187.446 423.156C186.947 421.963 186.479 420.745 185.986 419.526C184.054 414.631 181.988 409.595 179.987 404.369C178.087 399.106 176.134 393.702 174.137 388.174C172.322 382.586 170.468 376.878 168.584 371.072C166.874 365.212 165.135 359.254 163.376 353.225C161.803 347.143 160.145 341.002 158.595 334.785C157.866 331.664 157.135 328.531 156.402 325.39C155.677 322.245 154.897 319.104 154.275 315.921C153.617 312.745 152.959 309.564 152.298 306.378C151.975 304.785 151.622 303.197 151.325 301.597L150.447 296.794C149.869 293.59 149.292 290.386 148.714 287.184C148.149 283.983 147.692 280.765 147.178 277.563C146.693 274.357 146.142 271.168 145.714 267.97C145.283 264.773 144.853 261.585 144.427 258.41C144.215 256.822 144.001 255.236 143.789 253.657C143.609 252.071 143.428 250.489 143.248 248.914C142.889 245.759 142.531 242.62 142.174 239.499C141.834 236.376 141.572 233.265 141.271 230.183C140.994 227.096 140.651 224.038 140.447 220.992C139.999 214.907 139.474 208.928 139.197 203.06C139.042 200.128 138.86 197.229 138.729 194.364C138.618 191.496 138.507 188.664 138.398 185.869C138.345 184.471 138.293 183.084 138.24 181.706C138.208 180.329 138.176 178.96 138.145 177.603C138.083 174.886 138.02 172.213 137.959 169.581C137.937 166.95 137.915 164.363 137.895 161.825C137.867 159.286 137.854 156.795 137.881 154.355C137.875 144.595 138.159 135.649 138.46 127.727C138.814 119.804 139.191 112.901 139.625 107.224C140.025 101.545 140.465 97.0931 140.776 94.0572C141.087 91.0234 141.299 89.4054 141.299 89.4054V89.4013C141.332 89.1606 141.552 88.9907 141.794 89.0211C142.032 89.0514 142.2 89.2678 142.174 89.5065L142.182 89.5085Z" fill="white"/>
<path d="M184.276 535.654C184.276 535.654 183.224 193.776 22.1435 93.1828C19.2842 91.3969 15.5101 92.7621 14.4318 95.9598C1.89207 133.152 -51.514 335.082 184.276 535.654Z" fill="#FF9471"/>
<path opacity="0.52" d="M35.61 153.202C35.61 153.202 37.0114 159.26 39.7899 169.795C41.1751 175.062 42.9016 181.447 44.9633 188.749C47.0008 196.056 49.4239 204.266 52.1277 213.203C54.8619 222.131 57.8625 231.793 61.1923 241.96C62.8279 247.053 64.6029 252.255 66.3657 257.588C68.1972 262.897 70.0125 268.342 71.9612 273.841C73.8956 279.347 75.8584 284.945 77.9241 290.586C79.9474 296.241 82.0737 301.935 84.2202 307.675C84.7553 309.109 85.2925 310.549 85.8296 311.989C86.3809 313.425 86.9321 314.861 87.4854 316.301C88.592 319.181 89.7006 322.067 90.8112 324.963C93.0587 330.742 95.3748 336.518 97.6949 342.293C100.078 348.041 102.406 353.813 104.825 359.521C106.041 362.37 107.254 365.216 108.464 368.054C109.072 369.472 109.677 370.887 110.281 372.301C110.901 373.707 111.521 375.11 112.139 376.512C114.631 382.108 117.034 387.689 119.552 393.137C122.054 398.594 124.454 404.017 126.971 409.279C128.21 411.919 129.442 414.534 130.66 417.127C131.264 418.425 131.865 419.718 132.463 421.002C133.077 422.28 133.689 423.55 134.299 424.817C136.746 429.869 139.082 434.838 141.461 439.624C142.652 442.016 143.83 444.375 144.987 446.699C146.132 449.029 147.258 451.324 148.367 453.583C150.647 458.065 152.848 462.398 154.962 466.556C157.052 470.728 159.172 474.664 161.153 478.426C163.134 482.188 164.955 485.788 166.754 489.126C170.365 495.794 173.511 501.607 176.102 506.394C178.741 511.157 180.813 514.899 182.226 517.449C183.628 520.008 184.375 521.375 184.375 521.375L184.379 521.383C184.512 521.628 184.423 521.935 184.179 522.071C183.941 522.202 183.644 522.119 183.504 521.891C183.504 521.891 182.695 520.56 181.178 518.064C179.674 515.56 177.469 511.889 174.66 507.215C173.232 504.891 171.768 502.252 170.137 499.4C168.511 496.544 166.752 493.456 164.875 490.155C161.187 483.517 157.042 476.013 152.733 467.717C150.578 463.569 148.335 459.248 146.01 454.777C144.88 452.524 143.733 450.234 142.565 447.908C141.412 445.576 140.243 443.208 139.056 440.807C134.399 431.161 129.487 420.988 124.709 410.323C119.889 399.678 115.059 388.611 110.307 377.301C107.882 371.668 105.619 365.914 103.218 360.19C100.851 354.452 98.5774 348.651 96.2471 342.875C93.9855 337.07 91.7259 331.264 89.4744 325.483C88.3719 322.583 87.2714 319.689 86.1749 316.802C85.6257 315.36 85.0784 313.918 84.5312 312.48C83.9981 311.036 83.465 309.596 82.934 308.158C80.8056 302.408 78.6975 296.7 76.6903 291.035C74.6428 285.384 72.6962 279.774 70.7799 274.258C68.8494 268.747 67.0482 263.292 65.2349 257.972C63.4903 252.629 61.7294 247.419 60.112 242.316C56.8145 232.13 53.8421 222.452 51.1363 213.507C48.4708 204.551 46.0598 196.331 44.0062 189.022C41.9384 181.716 40.2059 175.327 38.8186 170.054C36.034 159.515 34.6246 153.437 34.6246 153.437C34.56 153.164 34.7296 152.893 35.0002 152.828C35.2728 152.763 35.5434 152.933 35.608 153.204L35.61 153.202Z" fill="#FF9471"/>
<path d="M463.604 190.75C463.569 189.215 462.901 187.763 461.76 186.737C460.619 185.712 459.103 185.206 457.576 185.338L303.258 198.727C300.389 198.976 298.097 201.381 298.097 204.267V514.983C298.097 518.053 300.76 520.31 303.826 520.31H465.421C466.915 520.31 468.347 519.823 469.391 518.753C470.435 517.683 471.004 516.294 470.97 514.797L463.604 190.75V190.75Z" fill="#FF5D41"/>
<g opacity="0.68">
<path d="M328.661 214.052L316.882 214.851C315.592 214.936 314.93 216.129 314.93 217.519V500.945C314.93 502.362 315.218 504.047 316.523 504.047H328.816C330.129 504.047 331.207 502.625 331.207 501.203L331.031 216.556C331.031 215.162 329.961 213.969 328.663 214.054L328.661 214.052Z" fill="white"/>
<path opacity="0.7" d="M357.236 212.174L344.914 212.983C343.606 213.068 342.346 214.286 342.348 215.681L342.642 501.192C342.642 502.62 343.921 504.044 345.243 504.044H357.698C359.029 504.044 359.913 502.614 359.909 501.182L359.433 214.702C359.431 213.301 358.552 212.087 357.236 212.172V212.174Z" fill="white"/>
<path d="M386.182 210.273L373.701 211.092C372.376 211.179 371.613 212.37 371.615 213.776L372.221 501.176C372.223 502.612 373 504.044 374.339 504.044H386.958C388.304 504.044 389.722 502.608 389.718 501.166L388.926 212.783C388.922 211.371 387.515 210.186 386.18 210.273H386.182Z" fill="white"/>
<path d="M415.508 208.346L402.861 209.178C401.519 209.267 400.539 210.478 400.543 211.894L401.46 501.161C401.464 502.607 402.464 504.047 403.821 504.047H416.607C417.972 504.047 419.195 502.603 419.189 501.151L418.081 210.887C418.075 209.465 416.857 208.259 415.506 208.348L415.508 208.346Z" fill="white"/>
<path d="M445.222 206.394L432.408 207.236C431.049 207.325 429.845 208.558 429.851 209.984L431.089 501.142C431.095 502.599 432.323 504.045 433.698 504.045H446.656C448.039 504.045 449.063 502.592 449.055 501.13L447.621 208.961C447.615 207.531 446.591 206.305 445.222 206.394V206.394Z" fill="white"/>
</g>
<path d="M342.786 255.349C342.764 253.725 342.087 252.18 340.91 251.063C339.733 249.947 338.156 249.354 336.536 249.419L213.447 254.362C211.334 254.447 209.679 256.213 209.729 258.33L215.977 521.895L340.439 520.374C342.035 520.354 343.557 519.7 344.67 518.556C345.782 517.411 346.396 515.87 346.374 514.272L342.786 255.351V255.349Z" fill="#FF4D35"/>
<g opacity="0.5">
<path d="M243.653 303.926L223.846 303.932L223.612 270.024H243.463L243.653 303.926Z" fill="white"/>
<path d="M272.087 303.864L252.352 303.87L252.18 270.024H271.957L272.087 303.864Z" fill="white"/>
<path d="M301.984 303.797L282.328 303.803L282.221 270.024H301.921L301.984 303.797Z" fill="white"/>
<path d="M331.813 303.811L311.816 303.777L311.36 270.024H331.813V303.811Z" fill="white"/>
<path d="M243.923 352.072L224.179 352.177L223.945 318.52L243.736 318.457L243.923 352.072Z" fill="white"/>
<path d="M272.268 351.92L252.596 352.025L252.425 318.429L272.141 318.366L272.268 351.92Z" fill="white"/>
<path d="M302.073 351.76L282.478 351.865L282.373 318.333L302.01 318.272L302.073 351.76Z" fill="white"/>
<path d="M331.813 351.604L311.876 351.709L312.042 318.242L331.813 318.18V351.604Z" fill="white"/>
<path d="M244.202 401.428L224.52 401.598L224.288 368.155L244.014 368.027L244.202 401.428Z" fill="white"/>
<path d="M272.456 401.184L252.847 401.354L252.677 367.972L272.329 367.845L272.456 401.184Z" fill="white"/>
<path d="M302.166 400.929L282.633 401.097L282.528 367.78L302.103 367.654L302.166 400.929Z" fill="white"/>
<path d="M331.813 400.681L311.939 400.849L312.105 367.594L331.813 367.471V400.681Z" fill="white"/>
<path d="M244.475 449.681L224.853 449.912L224.629 417.472L244.291 417.282L244.475 449.681Z" fill="white"/>
<path d="M272.638 449.352L253.091 449.581L252.927 417.2L272.517 417.012L272.638 449.352Z" fill="white"/>
<path d="M302.255 449.005L282.783 449.233L282.682 416.913L302.194 416.725L302.255 449.005Z" fill="white"/>
<path d="M331.813 448.664L312 448.893L312.165 416.635L331.813 416.447V448.664Z" fill="white"/>
<path d="M244.747 498.419L225.191 498.712L224.969 466.476L244.568 466.224L244.747 498.419Z" fill="white"/>
<path d="M272.823 497.998L253.337 498.291L253.174 466.114L272.7 465.863L272.823 497.998Z" fill="white"/>
<path d="M302.346 497.557L282.936 497.848L282.835 465.732L302.287 465.483L302.346 497.557Z" fill="white"/>
<path d="M331.813 497.13L312.06 497.419L312.228 465.364L331.813 465.115V497.13Z" fill="white"/>
</g>
<path d="M243.215 232.615H57.4041C54.9874 232.615 53.0283 234.578 53.0283 236.998V365.533C53.0283 367.954 54.9874 369.916 57.4041 369.916H243.215C245.631 369.916 247.59 367.954 247.59 365.533V236.998C247.59 234.578 245.631 232.615 243.215 232.615Z" fill="url(#paint0_linear_2_9355)"/>
<path d="M250.777 232.615H64.9664C62.5497 232.615 60.5906 234.578 60.5906 236.998V365.533C60.5906 367.954 62.5497 369.916 64.9664 369.916H250.777C253.194 369.916 255.153 367.954 255.153 365.533V236.998C255.153 234.578 253.194 232.615 250.777 232.615Z" fill="#FF4C34"/>
<path d="M116.125 351.838C114.629 351.838 113.365 351.82 112.363 351.8C110.653 351.765 109.251 350.505 109.033 348.802C108.813 347.087 109.861 345.506 111.521 345.036C120.412 342.541 130.106 338.299 137.245 334.865C103.202 332.086 96.4046 314.573 95.0921 306.561C91.7785 286.36 109.284 263.501 134.113 255.605C159.451 247.554 185.118 250.454 199.511 263C207.16 269.668 215.456 282.435 211.544 305.409C204.228 348.394 137.299 351.838 116.125 351.838V351.838ZM161.676 328.803L150.891 334.827C150.324 335.142 140.829 340.417 129.285 345.253C155.568 343.665 200.032 336.228 205.454 304.369C208.204 288.199 204.842 275.849 195.457 267.668C180.896 254.974 155.097 255.429 135.983 261.501C114.334 268.386 98.3997 288.559 101.188 305.556C103.718 320.986 121.262 329.617 149.332 329.028L161.678 328.801L161.676 328.803Z" fill="white"/>
<path d="M245.587 71.1738H59.7769C57.3602 71.1738 55.4011 73.1361 55.4011 75.5567V204.092C55.4011 206.512 57.3602 208.475 59.7769 208.475H245.587C248.004 208.475 249.963 206.512 249.963 204.092V75.5567C249.963 73.1361 248.004 71.1738 245.587 71.1738Z" fill="#EA615A"/>
<path d="M253.123 71.8516H67.3128C64.8961 71.8516 62.937 73.8138 62.937 76.2344V204.769C62.937 207.19 64.8961 209.152 67.3128 209.152H253.123C255.54 209.152 257.499 207.19 257.499 204.769V76.2344C257.499 73.8138 255.54 71.8516 253.123 71.8516Z" fill="#FF4C34"/>
<path d="M202.918 189.023H111.214C103.7 189.023 97.5859 182.901 97.5859 175.373V104.438C97.5859 96.9124 103.698 90.7881 111.214 90.7881H202.918C210.432 90.7881 216.546 96.9103 216.546 104.438V175.373C216.546 182.899 210.434 189.023 202.918 189.023V189.023ZM111.214 95.5229C106.307 95.5229 102.313 99.5215 102.313 104.438V175.373C102.313 180.288 106.305 184.289 111.214 184.289H202.918C207.825 184.289 211.819 180.29 211.819 175.373V104.438C211.819 99.5235 207.827 95.5229 202.918 95.5229H111.214Z" fill="url(#paint1_linear_2_9355)"/>
<path d="M156.852 140.162L101.574 98.6252L104.411 94.8369L156.931 134.301L210.781 96.0424L213.515 99.9034L156.852 140.162Z" fill="url(#paint2_linear_2_9355)"/>
<path d="M179.817 121.262L175.7 123.589L210.084 184.635L214.201 182.309L179.817 121.262Z" fill="url(#paint3_linear_2_9355)"/>
<path d="M133.949 120.4L100.152 181.772L104.291 184.059L138.088 122.687L133.949 120.4Z" fill="url(#paint4_linear_2_9355)"/>
<path d="M243.215 397.829H57.4041C54.9874 397.829 53.0283 399.791 53.0283 402.212V530.747C53.0283 533.168 54.9874 535.13 57.4041 535.13H243.215C245.631 535.13 247.59 533.168 247.59 530.747V402.212C247.59 399.791 245.631 397.829 243.215 397.829Z" fill="#EA615A"/>
<path d="M250.777 397.829H64.9664C62.5497 397.829 60.5906 399.791 60.5906 402.212V530.747C60.5906 533.168 62.5497 535.13 64.9664 535.13H250.777C253.194 535.13 255.153 533.168 255.153 530.747V402.212C255.153 399.791 253.194 397.829 250.777 397.829Z" fill="#FF4C34"/>
<path d="M188.318 515.442C180.73 515.442 171.811 511.879 161.726 504.808C155.059 500.132 125.959 470.985 121.29 464.306C112.878 452.268 109.439 441.886 111.069 433.448C112.123 427.993 115.356 423.362 120.418 420.053L124.844 417.159C128.126 415.019 132.564 415.927 134.737 419.191L146.961 437.56C149.475 441.332 148.553 446.35 144.863 448.983L144.779 449.04L142.67 450.409C140.76 451.653 139.549 453.672 139.351 455.947C139.153 458.22 139.997 460.417 141.665 461.972L141.725 462.031L164.055 484.398C165.608 486.069 167.802 486.912 170.07 486.718C172.342 486.52 174.359 485.308 175.601 483.393L177.025 481.201C179.652 477.501 184.663 476.577 188.431 479.097L206.769 491.34C210.028 493.518 210.938 497.963 208.798 501.248L205.908 505.684C202.605 510.754 197.981 513.992 192.535 515.048C191.178 515.311 189.77 515.442 188.316 515.442H188.318ZM164.436 500.931C175.367 508.594 184.522 511.782 191.638 510.4C195.858 509.583 199.328 507.126 201.951 503.097L204.84 498.661C205.571 497.539 205.26 496.022 204.148 495.278L185.81 483.035C184.191 481.953 182.047 482.339 180.904 483.907L179.567 485.97C177.523 489.117 174.212 491.107 170.48 491.433C166.765 491.754 163.176 490.379 160.626 487.655L138.412 465.404C135.694 462.85 134.319 459.256 134.642 455.534C134.967 451.797 136.954 448.48 140.096 446.435L142.156 445.096C143.72 443.949 144.106 441.801 143.028 440.181L130.803 421.814C130.062 420.702 128.544 420.391 127.425 421.121L122.999 424.015C118.976 426.642 116.523 430.119 115.707 434.344C114.33 441.476 117.51 450.642 125.159 461.588C129.543 467.858 158.175 496.536 164.436 500.927V500.931Z" fill="url(#paint5_linear_2_9355)"/>
<path d="M386.717 392.438C386.645 392.442 386.572 392.444 386.497 392.444L291.068 392.347C288.709 392.347 286.799 390.393 286.801 387.988C286.803 385.581 288.725 383.593 291.078 383.637L386.509 383.735C388.868 383.735 390.778 385.688 390.776 388.093C390.774 390.423 388.975 392.326 386.719 392.44L386.717 392.438Z" fill="#050100"/>
<path d="M254.111 296.967C254.145 297.034 254.177 297.101 254.208 297.167L294.361 385.605C295.355 387.792 294.428 390.383 292.291 391.396C290.155 392.409 287.58 391.467 286.625 389.268L246.472 300.83C245.478 298.644 246.405 296.051 248.542 295.04C250.611 294.061 253.057 294.922 254.111 296.965V296.967Z" fill="#050100"/>
<path d="M395.895 534.584C395.895 534.584 396.731 539.229 397.06 544.745C397.201 547.095 395.463 549.136 393.122 549.364C384.977 550.155 366.434 551.617 354.594 549.906C352.937 549.666 352.276 547.627 353.504 546.482C358.387 541.927 370.175 533.065 389.581 531.127L395.895 534.585V534.584Z" fill="#050100"/>
<path d="M399.943 524.113L395.824 534.224C395.259 535.609 393.855 536.471 392.371 536.315C391.364 536.21 390.168 536.016 389.007 535.662C386.683 534.956 385.372 532.488 386.067 530.156L389.175 519.742L399.941 524.113H399.943Z" fill="url(#paint6_linear_2_9355)"/>
<path d="M470.358 542.638C470.358 542.638 462.111 549.549 458.897 558.416C458.012 560.855 459.88 563.423 462.471 563.423H479.443C481.926 563.423 483.831 561.184 483.398 558.735C482.318 552.613 479.2 542.664 470.358 542.64V542.638Z" fill="#050100"/>
<path d="M480.576 533.642C480.576 533.642 478.91 541.028 477.63 545.909C477.397 546.795 476.454 547.28 475.592 546.973C473.024 546.052 470.934 545.646 469.415 545.85C468.712 545.945 468.101 545.358 468.09 544.649L467.931 532.382L480.578 533.642H480.576Z" fill="url(#paint7_linear_2_9355)"/>
<path d="M436.713 367.457L386.548 520.744C386.548 520.744 396.169 527.056 400.753 526.793L460.336 403.604C460.336 403.604 470.762 479.51 465.712 534.003L482.779 535.308C482.779 535.308 510.53 396.047 489.511 348.35L436.713 367.461V367.457Z" fill="#050100"/>
<path d="M460.015 402.276C460.035 402.276 460.056 402.276 460.076 402.272C460.342 402.238 460.53 401.995 460.498 401.728L458.551 386.252C458.519 385.985 458.277 385.801 458.008 385.829C457.741 385.863 457.554 386.106 457.586 386.373L459.533 401.85C459.563 402.096 459.773 402.276 460.013 402.276H460.015Z" fill="#050100"/>
<path d="M427.307 232.573C427.307 232.573 467.949 236.188 462.2 265.193C462.2 265.193 484.667 307.541 495.169 357.425C495.51 359.049 494.426 360.631 492.792 360.912L425.108 372.52C423.24 372.839 421.441 371.674 420.966 369.836L404.794 307.234L398.492 336.34L378.469 331.114L395.325 245.586C395.325 245.586 397.678 233.107 427.305 232.571L427.307 232.573Z" fill="url(#paint8_linear_2_9355)"/>
<path d="M404.453 304.435C404.487 304.435 404.523 304.431 404.56 304.423C404.832 304.364 405.004 304.095 404.945 303.822L399.303 277.875C399.245 277.602 398.978 277.432 398.704 277.488C398.431 277.547 398.259 277.816 398.318 278.089L403.96 304.036C404.012 304.273 404.22 304.433 404.453 304.433V304.435Z" fill="url(#paint9_linear_2_9355)"/>
<path d="M408.538 381.647C410.67 380.472 413.166 380.148 415.526 380.737L420.235 381.91C421.237 382.159 422.228 381.469 422.344 380.441L427.216 336.997C433.31 339.895 442.1 339.55 445 339.337L433.783 390.556H394.534L408.538 381.647V381.647Z" fill="url(#paint10_linear_2_9355)"/>
<path d="M304.252 287.41L305.439 283.46C306.122 281.187 307.8 279.349 309.997 278.465L331.453 269.822C331.453 269.822 331.777 267.066 326.92 265.193C322.064 263.32 323.199 257.871 323.199 257.871C323.199 257.871 329.836 260.903 339.549 265.713C345.106 268.463 348.222 273.319 349.875 276.974L398.494 336.34L392.785 340.268C385.28 345.433 374.955 342.895 370.69 334.837L344.351 284.249C331.126 288.228 317.747 288.988 304.25 287.41H304.252Z" fill="url(#paint11_linear_2_9355)"/>
<path d="M414.141 204.879L426.642 239.922C426.642 239.922 415.573 248.59 407.496 245.66L401.195 225.572C401.195 225.572 406.007 201.022 414.141 204.879Z" fill="url(#paint12_linear_2_9355)"/>
<path d="M376.833 192.294C376.833 192.834 388.874 226.436 388.874 226.436L407.883 219.141L401.195 185.595C401.195 185.595 376.833 183.253 376.833 192.294V192.294Z" fill="url(#paint13_linear_2_9355)"/>
<path d="M397.862 193.769L402.762 211.152C402.825 211.375 402.857 211.599 402.857 211.832C402.857 213.25 402.508 218.128 397.547 217.465C393.046 216.862 388.926 216.381 386.309 217.614C385.134 218.169 384.571 219.524 385.011 220.749C386.105 223.801 388.7 230.636 391.858 236.228C392.498 237.363 393.906 237.804 395.089 237.264C398.659 235.637 406.094 231.995 411.389 227.66C412.106 227.074 412.451 226.15 412.279 225.237C411.445 220.79 408.964 207.265 408.855 203.39C408.752 199.751 412.829 196.974 414.622 195.931C415.209 195.589 415.629 195.025 415.787 194.363C416.35 192.021 416.829 186.722 410.078 185.553C408.665 185.308 407.744 183.955 408.031 182.548C408.602 179.746 408.418 175.626 403.11 174.107C397.712 172.564 394.318 175.819 392.589 178.314C391.891 179.324 390.584 179.651 389.465 179.15C388.827 178.864 388.058 178.852 387.232 179.55C386.117 180.491 384.421 180.205 383.601 178.998C382.028 176.678 379.169 174.362 374.329 175.93C365.741 178.713 366.151 188.631 369.299 194.023C372.447 199.416 381.586 195.868 385.914 192.294C389.203 189.578 394.213 191.202 396.424 192.138C397.125 192.434 397.648 193.036 397.854 193.769H397.862Z" fill="#050100"/>
<path d="M410.579 209.737C410.579 209.737 405.497 200.105 408.857 197.082C412.219 194.058 417.913 194.551 417.76 202.083C417.57 211.452 410.579 209.737 410.579 209.737Z" fill="url(#paint14_linear_2_9355)"/>
<path d="M441.056 339.99C443.831 339.99 445.81 339.78 446.024 339.756L446.385 339.715L461.184 270.605C461.243 270.332 461.069 270.063 460.797 270.006C460.522 269.945 460.258 270.121 460.199 270.394L445.553 338.789C443.35 338.983 431.59 339.766 425.381 335.359L438.201 275.315L435.525 270.265C435.394 270.018 435.089 269.925 434.843 270.055C434.597 270.186 434.504 270.492 434.633 270.736L437.137 275.463L424.258 335.783L424.514 335.978C429.001 339.353 436.226 339.992 441.054 339.992L441.056 339.99Z" fill="url(#paint15_linear_2_9355)"/>
<path d="M360.081 400.546C360.469 401.861 397.426 515.584 406.795 544.416C407.875 547.739 404.859 551.001 400.715 551.001C397.825 551.001 395.305 549.367 394.607 547.039L353.581 410.566L360.081 400.546V400.546Z" fill="#FF6C4E"/>
<path d="M339.842 400.546C339.454 401.861 302.497 515.584 293.127 544.416C292.047 547.739 295.064 551.001 299.208 551.001C302.097 551.001 304.617 549.367 305.316 547.039L346.342 410.566L339.842 400.546V400.546Z" fill="#FF6C4E"/>
<path d="M338.303 396.007H361.321V414.521C361.321 417.183 359.192 419.339 356.567 419.339H353.409V460.925C353.409 462.939 351.798 464.571 349.811 464.571C347.824 464.571 346.213 462.939 346.213 460.925V419.339H344.611C341.128 419.339 338.303 416.475 338.303 412.944V396.005V396.007Z" fill="#FF6C4E"/>
<path d="M431.64 391.56H270.586C268.335 391.56 266.37 392.791 265.807 394.555L263.557 401.604C262.747 404.14 265.126 406.609 268.365 406.593L433.623 405.825C436.826 405.81 439.164 403.369 438.381 400.857L436.424 394.577C435.871 392.803 433.9 391.56 431.638 391.56H431.64Z" fill="#FF6C4E"/>
</g>
<defs>
<linearGradient id="paint0_linear_2_9355" x1="438.399" y1="-102.709" x2="338.305" y2="37.1953" gradientUnits="userSpaceOnUse">
<stop stop-color="#E1473D"/>
<stop offset="1" stop-color="#E9605A"/>
</linearGradient>
<linearGradient id="paint1_linear_2_9355" x1="97.588" y1="139.906" x2="216.546" y2="139.906" gradientUnits="userSpaceOnUse">
<stop stop-color="#DAE3FE"/>
<stop offset="1" stop-color="#E9EFFD"/>
</linearGradient>
<linearGradient id="paint2_linear_2_9355" x1="101.574" y1="117.5" x2="213.515" y2="117.5" gradientUnits="userSpaceOnUse">
<stop stop-color="#DAE3FE"/>
<stop offset="1" stop-color="#E9EFFD"/>
</linearGradient>
<linearGradient id="paint3_linear_2_9355" x1="175.71" y1="152.935" x2="214.216" y2="152.935" gradientUnits="userSpaceOnUse">
<stop stop-color="#DAE3FE"/>
<stop offset="1" stop-color="#E9EFFD"/>
</linearGradient>
<linearGradient id="paint4_linear_2_9355" x1="100.146" y1="152.235" x2="138.083" y2="152.235" gradientUnits="userSpaceOnUse">
<stop stop-color="#DAE3FE"/>
<stop offset="1" stop-color="#E9EFFD"/>
</linearGradient>
<linearGradient id="paint5_linear_2_9355" x1="110.675" y1="465.72" x2="209.959" y2="465.72" gradientUnits="userSpaceOnUse">
<stop stop-color="#DAE3FE"/>
<stop offset="1" stop-color="#E9EFFD"/>
</linearGradient>
<linearGradient id="paint6_linear_2_9355" x1="391.454" y1="539.051" x2="395.161" y2="510.116" gradientUnits="userSpaceOnUse">
<stop stop-color="#FEBBBA"/>
<stop offset="1" stop-color="#FF928E"/>
</linearGradient>
<linearGradient id="paint7_linear_2_9355" x1="472.216" y1="548.969" x2="475.828" y2="520.774" gradientUnits="userSpaceOnUse">
<stop stop-color="#FEBBBA"/>
<stop offset="1" stop-color="#FF928E"/>
</linearGradient>
<linearGradient id="paint8_linear_2_9355" x1="-2376.74" y1="-3630.63" x2="-2280.31" y2="-3495.85" gradientUnits="userSpaceOnUse">
<stop stop-color="#FF928E"/>
<stop offset="1" stop-color="#FE7062"/>
</linearGradient>
<linearGradient id="paint9_linear_2_9355" x1="398.306" y1="290.957" x2="404.957" y2="290.957" gradientUnits="userSpaceOnUse">
<stop stop-color="#E1473D"/>
<stop offset="1" stop-color="#E9605A"/>
</linearGradient>
<linearGradient id="paint10_linear_2_9355" x1="445.002" y1="363.778" x2="394.536" y2="363.778" gradientUnits="userSpaceOnUse">
<stop stop-color="#FEBBBA"/>
<stop offset="1" stop-color="#FF928E"/>
</linearGradient>
<linearGradient id="paint11_linear_2_9355" x1="398.496" y1="300.413" x2="304.254" y2="300.413" gradientUnits="userSpaceOnUse">
<stop stop-color="#FEBBBA"/>
<stop offset="1" stop-color="#FF928E"/>
</linearGradient>
<linearGradient id="paint12_linear_2_9355" x1="432.424" y1="247.472" x2="399.572" y2="213.819" gradientUnits="userSpaceOnUse">
<stop stop-color="#FEBBBA"/>
<stop offset="1" stop-color="#FF928E"/>
</linearGradient>
<linearGradient id="paint13_linear_2_9355" x1="384.857" y1="192.53" x2="425.834" y2="246.649" gradientUnits="userSpaceOnUse">
<stop stop-color="#FEBBBA"/>
<stop offset="1" stop-color="#FF928E"/>
</linearGradient>
<linearGradient id="paint14_linear_2_9355" x1="444.748" y1="235.439" x2="411.896" y2="201.789" gradientUnits="userSpaceOnUse">
<stop stop-color="#FEBBBA"/>
<stop offset="1" stop-color="#FF928E"/>
</linearGradient>
<linearGradient id="paint15_linear_2_9355" x1="424.26" y1="304.992" x2="461.195" y2="304.992" gradientUnits="userSpaceOnUse">
<stop stop-color="#E1473D"/>
<stop offset="1" stop-color="#E9605A"/>
</linearGradient>
<clipPath id="clip0_2_9355">
<rect width="556" height="564" fill="white"/>
</clipPath>
</defs>
</svg>
