<svg width="80" height="42" viewBox="0 0 80 42" fill="none" xmlns="http://www.w3.org/2000/svg">
<g clip-path="url(#clip0_1_313)">
<path d="M0 24.1117H6.04851L9.40959 7.39342H3.36029L0 24.1117ZM3.69354 5.39941H9.76739L10.7656 0.397376H4.69411L3.69354 5.39941ZM8.40111 28.8161H14.4504L18.1463 10.7537H22.6829L23.3518 7.39342H18.9023L19.0709 6.63745C19.3226 5.2126 19.8269 3.6128 22.0948 3.6128C23.4405 3.6128 24.6999 3.69671 25.9593 4.28486L26.6321 0.756757C25.2286 0.261519 23.7517 0.00570406 22.2634 0C17.3904 0 14.0309 2.85683 12.7699 7.39342H10.6698L9.99774 10.7537H12.0978L8.40111 28.8161Z" fill="#FF4C34"/>
<path d="M27.5556 24.4479C34.6965 24.4479 39.6534 17.9783 39.6534 12.6857C39.6534 8.7373 36.0406 7.05676 32.5125 7.05676C24.6972 7.05676 20.4147 14.0338 20.4147 18.8189C20.4147 22.7674 24.1114 24.4479 27.5556 24.4479ZM46.712 24.4479C53.8529 24.4479 58.8098 17.9783 58.8098 12.6857C58.8098 8.7373 55.1131 7.05676 51.5842 7.05676C43.7712 7.05676 39.4872 14.0298 39.4872 18.8189C39.4872 22.7674 43.2678 24.4479 46.712 24.4479M68.6389 24.1115H74.6035L79.475 0.339355H73.4264L71.9976 7.39635L69.4772 7.14462C63.5965 7.14462 58.2201 14.7051 58.2201 20.0823C58.2201 22.2663 59.6449 24.4511 62.0846 24.4511C65.5288 24.4511 67.9653 22.7705 68.9714 21.09H69.307L68.6389 24.1115ZM49.9868 36.6296C45.2918 40.5197 39.2615 42.4192 33.1846 41.9222C25.203 41.4179 19.4901 35.2847 18.4824 28.8159H18.8181C20.6664 32.853 25.1191 36.6296 30.5802 37.217C36.1213 37.8891 42.762 35.3694 46.374 31.9244L42.3416 28.8159H54.5234L51.832 41.7544L50.0675 36.7135L49.9868 36.6296Z" fill="#FF4C34"/>
</g>
<defs>
<clipPath id="clip0_1_313">
<rect width="79.4753" height="42" fill="white"/>
</clipPath>
</defs>
</svg>
