<svg width="40" height="40" viewBox="0 0 40 40" fill="none" xmlns="http://www.w3.org/2000/svg">
<path d="M25.7471 22.8735H14.2529C14.1004 22.8735 13.9543 22.9341 13.8465 23.0419C13.7387 23.1497 13.6782 23.2958 13.6782 23.4483V25.6534L12.558 29.0138C12.5413 29.0676 12.5324 29.1235 12.5316 29.1799C12.5316 29.1856 12.5316 29.1896 12.5316 29.1954V29.7701C12.5329 30.1718 12.6397 30.5662 12.8415 30.9136C13.0432 31.2609 13.3327 31.5492 13.681 31.7494V37.2414C13.681 37.3938 13.7416 37.54 13.8494 37.6477C13.9571 37.7555 14.1033 37.8161 14.2557 37.8161H25.7471C25.8995 37.8161 26.0457 37.7555 26.1535 37.6477C26.2613 37.54 26.3218 37.3938 26.3218 37.2414V31.7494C26.6701 31.5492 26.9596 31.2609 27.1614 30.9136C27.3631 30.5662 27.47 30.1718 27.4713 29.7701V29.1954C27.4713 29.1896 27.4684 29.1856 27.4684 29.1799C27.4676 29.1235 27.4587 29.0676 27.442 29.0138L26.3218 25.6534V23.4483C26.3218 23.2958 26.2613 23.1497 26.1535 23.0419C26.0457 22.9341 25.8995 22.8735 25.7471 22.8735ZM13.6782 29.7701H15.977C15.977 30.0749 15.8559 30.3673 15.6403 30.5829C15.4248 30.7984 15.1324 30.9195 14.8276 30.9195C14.5227 30.9195 14.2304 30.7984 14.0148 30.5829C13.7993 30.3673 13.6782 30.0749 13.6782 29.7701ZM14.6672 26.3218H14.9879L15.7546 28.6207H13.9006L14.6672 26.3218ZM22.6511 28.6207H20.7971L21.5638 26.3218H21.8845L22.6511 28.6207ZM23.0965 26.3218H23.8L23.4483 27.3776L23.0965 26.3218ZM20 27.3776L19.6483 26.3218H20.3517L20 27.3776ZM19.2029 28.6207H17.3488L18.1155 26.3218H18.4362L19.2029 28.6207ZM16.5517 27.3776L16.2 26.3218H16.9034L16.5517 27.3776ZM19.4253 29.7701C19.4253 30.0749 19.3042 30.3673 19.0886 30.5829C18.8731 30.7984 18.5807 30.9195 18.2759 30.9195C17.971 30.9195 17.6787 30.7984 17.4631 30.5829C17.2475 30.3673 17.1264 30.0749 17.1264 29.7701H19.4253ZM22.8736 29.7701C22.8736 30.0749 22.7525 30.3673 22.5369 30.5829C22.3213 30.7984 22.029 30.9195 21.7241 30.9195C21.4193 30.9195 21.1269 30.7984 20.9114 30.5829C20.6958 30.3673 20.5747 30.0749 20.5747 29.7701H22.8736ZM25.0121 26.3218H25.3328L26.0994 28.6207H24.2454L25.0121 26.3218ZM14.8276 24.023H25.1724V25.1724H14.8276V24.023ZM19.4253 36.6666V34.3678H20.5747V36.6666H19.4253ZM25.1724 36.6666H21.7241V33.7931C21.7241 33.6407 21.6636 33.4945 21.5558 33.3867C21.448 33.2789 21.3018 33.2184 21.1494 33.2184H18.8506C18.6981 33.2184 18.552 33.2789 18.4442 33.3867C18.3364 33.4945 18.2759 33.6407 18.2759 33.7931V36.6666H14.8276V32.0689C15.1551 32.0679 15.4786 31.9964 15.7761 31.8594C16.0735 31.7223 16.3381 31.5229 16.5517 31.2747C16.7647 31.5238 17.0291 31.7238 17.3267 31.8609C17.6243 31.998 17.9482 32.069 18.2759 32.069C18.6036 32.069 18.9274 31.998 19.225 31.8609C19.5226 31.7238 19.787 31.5238 20 31.2747C20.213 31.5238 20.4773 31.7238 20.775 31.8609C21.0726 31.998 21.3964 32.069 21.7241 32.069C22.0518 32.069 22.3757 31.998 22.6733 31.8609C22.9709 31.7238 23.2353 31.5238 23.4483 31.2747C23.6619 31.5229 23.9265 31.7223 24.2239 31.8594C24.5214 31.9964 24.8449 32.0679 25.1724 32.0689V36.6666ZM25.1724 30.9195C24.8676 30.9195 24.5752 30.7984 24.3596 30.5829C24.1441 30.3673 24.023 30.0749 24.023 29.7701H26.3218C26.3218 30.0749 26.2007 30.3673 25.9852 30.5829C25.7696 30.7984 25.4773 30.9195 25.1724 30.9195ZM36.6374 9.47354L35.5172 6.1132V3.90803C35.5172 3.7556 35.4567 3.60942 35.3489 3.50164C35.2411 3.39386 35.0949 3.33331 34.9425 3.33331H23.4483C23.2958 3.33331 23.1497 3.39386 23.0419 3.50164C22.9341 3.60942 22.8736 3.7556 22.8736 3.90803V6.1132L21.7534 9.47354C21.7367 9.52735 21.7278 9.58329 21.727 9.63964C21.727 9.64538 21.7241 9.64941 21.7241 9.65515V10.2299C21.7254 10.6316 21.8323 11.0259 22.034 11.3733C22.2357 11.7207 22.5253 12.009 22.8736 12.2092V17.7011C22.8736 17.8536 22.9341 17.9997 23.0419 18.1075C23.1497 18.2153 23.2958 18.2758 23.4483 18.2758H34.9425C35.0949 18.2758 35.2411 18.2153 35.3489 18.1075C35.4567 17.9997 35.5172 17.8536 35.5172 17.7011V12.2092C35.8655 12.009 36.1551 11.7207 36.3568 11.3733C36.5585 11.0259 36.6654 10.6316 36.6667 10.2299V9.65515C36.6667 9.64941 36.6638 9.64538 36.6638 9.63964C36.663 9.58329 36.6541 9.52735 36.6374 9.47354V9.47354ZM22.8736 10.2299H25.1724C25.1724 10.5347 25.0513 10.8271 24.8358 11.0426C24.6202 11.2582 24.3278 11.3793 24.023 11.3793C23.7181 11.3793 23.4258 11.2582 23.2102 11.0426C22.9947 10.8271 22.8736 10.5347 22.8736 10.2299ZM23.8626 6.78159H24.1833L24.95 9.08044H23.096L23.8626 6.78159ZM31.8465 9.08044H29.9925L30.7592 6.78159H31.0799L31.8465 9.08044ZM32.292 6.78159H32.9954L32.6437 7.83734L32.292 6.78159ZM29.1954 7.83734L28.8437 6.78159H29.5471L29.1954 7.83734ZM28.3983 9.08044H26.5443L27.3109 6.78159H27.6316L28.3983 9.08044ZM25.7471 7.83734L25.3954 6.78159H26.0988L25.7471 7.83734ZM28.6207 10.2299C28.6207 10.5347 28.4996 10.8271 28.284 11.0426C28.0685 11.2582 27.7761 11.3793 27.4713 11.3793C27.1664 11.3793 26.8741 11.2582 26.6585 11.0426C26.4429 10.8271 26.3218 10.5347 26.3218 10.2299H28.6207ZM32.069 10.2299C32.069 10.5347 31.9479 10.8271 31.7323 11.0426C31.5167 11.2582 31.2244 11.3793 30.9195 11.3793C30.6147 11.3793 30.3223 11.2582 30.1068 11.0426C29.8912 10.8271 29.7701 10.5347 29.7701 10.2299H32.069ZM34.2075 6.78159H34.5282L35.2948 9.08044H33.4408L34.2075 6.78159ZM24.023 4.48274H34.3678V5.63216H24.023V4.48274ZM28.6207 17.1264V14.8276H29.7701V17.1264H28.6207ZM34.3678 17.1264H30.9195V14.2529C30.9195 14.1004 30.859 13.9543 30.7512 13.8465C30.6434 13.7387 30.4972 13.6781 30.3448 13.6781H28.046C27.8936 13.6781 27.7474 13.7387 27.6396 13.8465C27.5318 13.9543 27.4713 14.1004 27.4713 14.2529V17.1264H24.023V12.5287C24.3505 12.5277 24.674 12.4562 24.9715 12.3191C25.2689 12.1821 25.5335 11.9827 25.7471 11.7345C25.9601 11.9835 26.2245 12.1835 26.5221 12.3206C26.8197 12.4578 27.1436 12.5288 27.4713 12.5288C27.799 12.5288 28.1228 12.4578 28.4204 12.3206C28.7181 12.1835 28.9824 11.9835 29.1954 11.7345C29.4084 11.9835 29.6727 12.1835 29.9704 12.3206C30.268 12.4578 30.5918 12.5288 30.9195 12.5288C31.2472 12.5288 31.5711 12.4578 31.8687 12.3206C32.1663 12.1835 32.4307 11.9835 32.6437 11.7345C32.8573 11.9827 33.1219 12.1821 33.4193 12.3191C33.7168 12.4562 34.0403 12.5277 34.3678 12.5287V17.1264ZM34.3678 11.3793C34.063 11.3793 33.7706 11.2582 33.555 11.0426C33.3395 10.8271 33.2184 10.5347 33.2184 10.2299H35.5172C35.5172 10.5347 35.3961 10.8271 35.1806 11.0426C34.965 11.2582 34.6727 11.3793 34.3678 11.3793ZM3.33333 10.2299C3.3346 10.6316 3.44146 11.0259 3.6432 11.3733C3.84494 11.7207 4.13447 12.009 4.48275 12.2092V17.7011C4.48275 17.8536 4.5433 17.9997 4.65108 18.1075C4.75886 18.2153 4.90504 18.2758 5.05747 18.2758H16.5517C16.7041 18.2758 16.8503 18.2153 16.9581 18.1075C17.0659 17.9997 17.1264 17.8536 17.1264 17.7011V12.2092C17.4747 12.009 17.7642 11.7207 17.966 11.3733C18.1677 11.0259 18.2746 10.6316 18.2759 10.2299V9.65515C18.2759 9.64941 18.2759 9.64538 18.2759 9.63964C18.2751 9.58329 18.2662 9.52735 18.2494 9.47354L17.1264 6.1132V3.90803C17.1264 3.7556 17.0659 3.60942 16.9581 3.50164C16.8503 3.39386 16.7041 3.33331 16.5517 3.33331H5.05747C4.90504 3.33331 4.75886 3.39386 4.65108 3.50164C4.5433 3.60942 4.48275 3.7556 4.48275 3.90803V6.1132L3.36264 9.47354C3.34589 9.52735 3.33699 9.58329 3.3362 9.63964C3.3362 9.64538 3.3362 9.64941 3.3362 9.65515L3.33333 10.2299ZM5.47183 6.78159H5.79252L6.55919 9.08044H4.70517L5.47183 6.78159ZM16.904 9.08044H15.05L15.8167 6.78159H16.1374L16.904 9.08044ZM10.2299 10.2299C10.2299 10.5347 10.1088 10.8271 9.89322 11.0426C9.67766 11.2582 9.3853 11.3793 9.08046 11.3793C8.77561 11.3793 8.48325 11.2582 8.26769 11.0426C8.05213 10.8271 7.93103 10.5347 7.93103 10.2299H10.2299ZM13.6782 10.2299C13.6782 10.5347 13.5571 10.8271 13.3415 11.0426C13.1259 11.2582 12.8336 11.3793 12.5287 11.3793C12.2239 11.3793 11.9315 11.2582 11.716 11.0426C11.5004 10.8271 11.3793 10.5347 11.3793 10.2299H13.6782ZM14.2529 7.83734L13.9011 6.78159H14.6046L14.2529 7.83734ZM13.4557 9.08044H11.6017L12.3684 6.78159H12.6891L13.4557 9.08044ZM10.8046 7.83734L10.4529 6.78159H11.1563L10.8046 7.83734ZM10.0075 9.08044H8.15344L8.92011 6.78159H9.2408L10.0075 9.08044ZM7.35632 7.83734L7.00459 6.78159H7.70804L7.35632 7.83734ZM5.05747 10.2299H6.7816C6.7816 10.5347 6.6605 10.8271 6.44495 11.0426C6.22939 11.2582 5.93703 11.3793 5.63218 11.3793C5.32733 11.3793 5.03497 11.2582 4.81941 11.0426C4.60385 10.8271 4.48275 10.5347 4.48275 10.2299H5.05747ZM10.2299 17.1264V14.8276H11.3793V17.1264H10.2299ZM15.977 17.1264H12.5287V14.2529C12.5287 14.1004 12.4682 13.9543 12.3604 13.8465C12.2526 13.7387 12.1064 13.6781 11.954 13.6781H9.65517C9.50274 13.6781 9.35656 13.7387 9.24878 13.8465C9.14101 13.9543 9.08046 14.1004 9.08046 14.2529V17.1264H5.63218V12.5287C5.9597 12.5277 6.28317 12.4562 6.58065 12.3191C6.87813 12.1821 7.14266 11.9827 7.35632 11.7345C7.56927 11.9835 7.83367 12.1835 8.1313 12.3206C8.42894 12.4578 8.75275 12.5288 9.08046 12.5288C9.40816 12.5288 9.73197 12.4578 10.0296 12.3206C10.3272 12.1835 10.5916 11.9835 10.8046 11.7345C11.0175 11.9835 11.2819 12.1835 11.5796 12.3206C11.8772 12.4578 12.201 12.5288 12.5287 12.5288C12.8564 12.5288 13.1802 12.4578 13.4779 12.3206C13.7755 12.1835 14.0399 11.9835 14.2529 11.7345C14.4665 11.9827 14.7311 12.1821 15.0285 12.3191C15.326 12.4562 15.6495 12.5277 15.977 12.5287V17.1264ZM15.977 11.3793C15.6722 11.3793 15.3798 11.2582 15.1642 11.0426C14.9487 10.8271 14.8276 10.5347 14.8276 10.2299H17.1264C17.1264 10.5347 17.0053 10.8271 16.7898 11.0426C16.5742 11.2582 16.2819 11.3793 15.977 11.3793ZM5.63218 4.48274H15.977V5.63216H5.63218V4.48274ZM30.3448 19.4253C30.3439 20.1871 30.0409 20.9175 29.5022 21.4562C28.9635 21.9949 28.2331 22.2979 27.4713 22.2988V23.4483C28.5379 23.447 29.5604 23.0228 30.3146 22.2686C31.0688 21.5144 31.493 20.4919 31.4943 19.4253H30.3448ZM12.5287 22.2988C11.7669 22.2979 11.0365 21.9949 10.4978 21.4562C9.95912 20.9175 9.65608 20.1871 9.65517 19.4253H8.50574C8.50696 20.4919 8.9312 21.5144 9.68539 22.2686C10.4396 23.0228 11.4621 23.447 12.5287 23.4483V22.2988Z" fill="#FF4C34"/>
</svg>
