<svg width="40" height="40" viewBox="0 0 40 40" fill="none" xmlns="http://www.w3.org/2000/svg">
<path fill-rule="evenodd" clip-rule="evenodd" d="M13.3333 6.25C13.1037 6.25 12.9167 6.43702 12.9167 6.66667V13.3333C12.9167 14.0237 12.357 14.5833 11.6667 14.5833C10.9763 14.5833 10.4167 14.0237 10.4167 13.3333V6.66667C10.4167 5.05631 11.723 3.75 13.3333 3.75H26.6667C28.277 3.75 29.5833 5.05631 29.5833 6.66667V13.3333C29.5833 14.0237 29.0237 14.5833 28.3333 14.5833C27.643 14.5833 27.0833 14.0237 27.0833 13.3333V6.66667C27.0833 6.43702 26.8963 6.25 26.6667 6.25H13.3333Z" fill="#FF4C34"/>
<path fill-rule="evenodd" clip-rule="evenodd" d="M8.33333 14.5833C7.18202 14.5833 6.25 15.5154 6.25 16.6667V25C6.25 26.1513 7.18202 27.0833 8.33333 27.0833H11.6667C12.357 27.0833 12.9167 27.643 12.9167 28.3333C12.9167 29.0237 12.357 29.5833 11.6667 29.5833H8.33333C5.80131 29.5833 3.75 27.532 3.75 25V16.6667C3.75 14.1346 5.80131 12.0833 8.33333 12.0833H31.6667C34.1987 12.0833 36.25 14.1346 36.25 16.6667V25C36.25 27.532 34.1987 29.5833 31.6667 29.5833H28.3333C27.643 29.5833 27.0833 29.0237 27.0833 28.3333C27.0833 27.643 27.643 27.0833 28.3333 27.0833H31.6667C32.818 27.0833 33.75 26.1513 33.75 25V16.6667C33.75 15.5154 32.818 14.5833 31.6667 14.5833H8.33333Z" fill="#FF4C34"/>
<path fill-rule="evenodd" clip-rule="evenodd" d="M10.4167 23C10.4167 22.3096 10.9763 21.75 11.6667 21.75H28.3333C29.0237 21.75 29.5833 22.3096 29.5833 23V33.3333C29.5833 34.9437 28.277 36.25 26.6667 36.25H13.3333C11.723 36.25 10.4167 34.9437 10.4167 33.3333V23ZM12.9167 24.25V33.3333C12.9167 33.563 13.1037 33.75 13.3333 33.75H26.6667C26.8963 33.75 27.0833 33.563 27.0833 33.3333V24.25H12.9167Z" fill="#FF4C34"/>
<path fill-rule="evenodd" clip-rule="evenodd" d="M10.4167 18.3333C10.4167 17.643 10.9763 17.0833 11.6667 17.0833H13.3333C14.0237 17.0833 14.5833 17.643 14.5833 18.3333C14.5833 19.0237 14.0237 19.5833 13.3333 19.5833H11.6667C10.9763 19.5833 10.4167 19.0237 10.4167 18.3333Z" fill="#FF4C34"/>
</svg>
