<svg width="24" height="24" viewBox="0 0 24 24" fill="none" xmlns="http://www.w3.org/2000/svg">
<path d="M21.9166 7.05185H15.6898C15.658 7.05185 15.6342 7.07635 15.6342 7.10903V12.5774C15.6342 12.6101 15.6103 12.6346 15.5786 12.6346H14.8002C14.7962 12.6183 14.7923 12.6019 14.7962 12.5938C15.1775 11.8954 15.1775 11.1521 14.9471 10.4211C14.4905 8.9468 13.7955 7.5991 12.763 6.45968C12.4413 6.10438 12.2229 5.87159 11.7622 5.70007C11.6391 5.65514 11.5557 5.67148 11.4565 5.76132C10.5907 6.27182 6.27007 8.25253 5.12636 8.77119C5.07474 8.77936 4.85235 9.31027 4.9278 9.59615C4.97943 9.79218 5.04297 9.95145 5.12636 10.0862C5.12636 10.0862 5.12636 10.0821 5.13034 10.0821C5.13034 10.0862 5.12636 10.0862 5.12636 10.0903C5.13034 10.0944 5.13034 10.0985 5.13431 10.1066C5.0112 10.3353 4.88412 10.5967 4.7769 10.8581H3.12091V13.2839H4.13754C4.03428 14.0517 4.02634 14.8073 4.14548 15.4484C4.14945 15.4811 4.13356 15.5097 4.10179 15.5179C3.71262 15.624 3.34727 15.7752 3.02957 16.0365C2.7079 16.302 2.5014 16.6491 2.33461 17.0493C2.3227 17.0779 2.33461 17.1106 2.36241 17.1269C2.40212 17.1474 2.44183 17.1678 2.48552 17.1841C4.10577 17.8539 5.66645 18.6462 7.17153 19.5528C7.28273 19.6181 7.40583 19.6549 7.53688 19.6549C9.71707 19.659 11.8973 19.659 14.0775 19.659C14.137 19.659 14.1966 19.659 14.2601 19.659C14.2879 19.659 14.3078 19.6753 14.3157 19.7039C14.3396 19.8019 14.3634 19.8918 14.3912 19.9857C14.7327 21.1905 15.8446 22.0318 17.0598 21.9991C18.3068 21.9664 19.383 21.0761 19.653 19.8387C19.6848 19.6876 19.7444 19.6508 19.8794 19.6549C20.1097 19.6631 20.3361 19.659 20.5743 19.659C20.6061 19.659 20.6299 19.6345 20.6339 19.6018C20.6657 18.9892 20.5942 18.4052 20.4552 17.8294C20.2249 16.8942 19.8238 16.0569 19.0971 15.4158C18.549 14.9298 17.9057 14.6643 17.1948 14.5704C17.1392 14.5622 17.0837 14.5541 17.0281 14.5459C17.0042 14.5418 16.9844 14.5214 16.9804 14.4969C16.9288 14.015 17.1829 13.6801 17.6595 13.6147C17.7746 13.5984 17.8898 13.5984 18.005 13.5984C19.2599 13.5984 20.5108 13.5984 21.7657 13.5984C21.8213 13.5984 21.8769 13.5984 21.9404 13.5984C21.9722 13.5984 22 13.5739 22 13.5412V7.11311C21.9722 7.08044 21.9484 7.05185 21.9166 7.05185ZM3.59348 12.798V11.34H4.55848L4.50289 11.6218C4.38375 12.0016 4.28844 12.3977 4.21299 12.798H3.59348ZM9.93946 18.7156C9.21273 18.7156 8.486 18.7156 7.75927 18.7156C7.65602 18.7156 7.54085 18.687 7.45349 18.6339C6.30581 17.9519 5.12636 17.3393 3.91515 16.7839C3.87941 16.7675 3.84764 16.7512 3.8119 16.7349C3.77218 16.7185 3.76821 16.6655 3.79998 16.6369C4.35198 16.1672 5.37258 16.3673 6.17873 17.1188C6.19859 17.1392 6.23036 17.1392 6.25419 17.1188C6.44877 16.9513 6.64733 16.7798 6.87369 16.5879C6.90149 16.5634 6.90149 16.5225 6.87369 16.498C6.6791 16.3265 6.49643 16.155 6.29787 16.0039C5.98017 15.7588 5.62276 15.5873 5.22962 15.5138C5.11048 15.4893 5.07077 15.4362 5.05091 15.3259C4.7769 13.9905 5.24153 11.9077 5.89281 10.6457C5.9762 10.6702 6.06357 10.6906 6.15491 10.7111C6.08342 11.2665 6.01194 12.4957 6.06357 12.9613C6.2105 14.3294 6.7625 15.4852 7.78707 16.3877C8.27553 16.8206 8.8315 17.1229 9.46689 17.274C9.52646 17.2862 9.59397 17.3597 9.61382 17.421C9.64956 17.5149 9.82827 18.2541 9.93946 18.7033H9.93549C9.93549 18.7074 9.93549 18.7115 9.93946 18.7156ZM8.60514 13.6025C8.82355 14.4438 9.04991 15.281 9.2723 16.1223C9.28421 16.1672 9.2445 16.204 9.20082 16.1958C8.62499 16.0488 7.7553 15.1748 7.36215 14.3335C6.96503 13.48 6.94517 11.7361 7.05637 10.7764H7.06034C7.06034 10.7723 7.06034 10.7682 7.06431 10.7682C7.08417 10.7682 7.10402 10.7682 7.12388 10.7682C7.8387 10.7723 10.1063 10.2945 10.4081 10.0862C10.4359 10.0658 10.4756 10.0781 10.4915 10.1107C10.6304 10.3966 10.7694 10.6825 10.9084 10.9724C10.9243 11.001 10.9124 11.0378 10.8846 11.0541C10.3763 11.3155 9.87989 11.5728 9.38349 11.826C8.6647 12.1935 8.39863 12.802 8.60514 13.6025ZM11.7344 18.7115C11.4485 18.7115 10.8727 18.7033 10.8727 18.7033C10.7734 18.3031 10.4716 17.0738 10.412 16.8533C10.1063 15.7016 9.80047 14.55 9.49469 13.3983C9.38349 12.9858 9.451 12.8388 9.82032 12.6509C10.5391 12.2793 11.2579 11.9117 11.9767 11.5401C12.0164 11.5197 12.0561 11.4993 12.1038 11.4707C12.1316 11.4543 12.1435 11.4217 12.1276 11.3931C11.6987 10.515 11.2778 9.64107 10.8449 8.75077C10.829 8.7181 10.7893 8.70993 10.7615 8.72627C10.4954 8.90596 10.2413 9.08157 9.98314 9.25718C9.70119 9.44913 8.4582 9.8371 8.12065 9.84118C7.67985 9.84527 7.23507 9.8616 6.79427 9.84527C6.56791 9.8371 6.33758 9.78809 6.11916 9.72683C5.95635 9.67783 5.82927 9.56756 5.74587 9.38787C5.72999 9.35111 5.72204 9.26943 5.76176 9.26535C5.96032 9.23676 11.5319 6.72922 11.5756 6.69655C11.5955 6.68021 11.6272 6.68021 11.6471 6.69655C11.7384 6.77006 11.8377 6.83948 11.9171 6.92525C13.0211 8.06058 13.728 9.43279 14.141 10.9684C14.1807 11.1235 14.1886 11.291 14.1847 11.4503C14.1608 12.1241 13.8193 12.5366 13.176 12.6714C12.3659 12.8429 11.5518 13.0062 10.7377 13.1737C10.698 13.1818 10.6582 13.19 10.6066 13.2023C10.5749 13.2104 10.555 13.2431 10.5629 13.2717C10.8528 14.6194 11.3969 17.1188 11.7424 18.7115C11.7384 18.7115 11.7384 18.7115 11.7344 18.7115ZM18.7158 19.7202C18.6007 20.4308 17.7468 21.0802 16.9407 21.0475C16.1504 21.0189 15.3324 20.3573 15.2688 19.7162C15.2648 19.6794 15.2926 19.6508 15.3244 19.6508H18.6562C18.692 19.6508 18.7198 19.6835 18.7158 19.7202ZM17.0042 15.4729C18.3108 15.6363 19.0573 16.4572 19.4545 17.6824C19.5537 17.9846 19.6093 18.299 19.6888 18.6339C19.6967 18.6707 19.6729 18.7033 19.6371 18.7074C19.5776 18.7115 19.5299 18.7156 19.4862 18.7156C17.7548 18.7156 14.3356 18.7115 12.6716 18.7115C12.3897 17.4087 11.8893 15.1013 11.651 13.9986C11.6431 13.966 11.663 13.9333 11.6947 13.9292C11.9965 13.8679 12.2944 13.8026 12.5883 13.7413C12.7789 13.7005 12.9695 13.6638 13.1601 13.627C13.315 13.5984 13.4738 13.5821 13.6327 13.578C14.419 13.5739 15.2053 13.5739 15.9916 13.5739C16.0273 13.5739 16.067 13.5739 16.0988 13.5739C16.1345 13.5739 16.1623 13.6066 16.1544 13.6433C16.1147 13.9251 16.075 14.1988 16.0313 14.4683C16.0273 14.501 15.9757 14.5459 15.9399 14.5541C14.5262 14.8113 13.7002 15.767 13.1482 17.0453C13.0767 17.2086 13.0211 17.3801 12.9615 17.5517C12.9576 17.5598 12.9536 17.5721 12.9536 17.5843C12.9457 17.6129 12.9655 17.6415 12.9933 17.6538C13.2395 17.7395 13.4818 17.8212 13.7359 17.9111C13.7637 17.9192 13.7955 17.907 13.8074 17.8743C13.8273 17.8212 13.8471 17.7681 13.867 17.7232C14.0377 17.3679 14.1807 16.9922 14.3912 16.6614C15.0067 15.6894 15.9042 15.3341 17.0042 15.4729ZM21.0112 12.6346H16.6111C16.5793 12.6346 16.5555 12.6101 16.5555 12.5774V8.04833C16.5555 8.01566 16.5793 7.99116 16.6111 7.99116H18.3028C18.3346 7.99116 18.3584 8.01566 18.3584 8.04833V9.77584C18.3584 9.80851 18.3822 9.83302 18.414 9.83302H19.2082C19.24 9.83302 19.2638 9.80851 19.2638 9.77584V8.05242C19.2638 8.01974 19.2877 7.99524 19.3194 7.99524H20.9993C21.031 7.99524 21.0549 8.01974 21.0549 8.05242V12.5774H21.0668C21.0668 12.6101 21.0429 12.6346 21.0112 12.6346ZM9.49866 6.19831C10.6304 6.19831 11.5438 5.26308 11.5438 4.10324C11.5438 2.93115 10.6304 1.99593 9.48674 2.00001C8.36687 2.0041 7.46143 2.93932 7.45746 4.09508C7.44952 5.25083 8.36686 6.19831 9.49866 6.19831ZM9.49866 2.93524C10.134 2.93524 10.6384 3.45798 10.6344 4.11141C10.6304 4.75259 10.1221 5.26308 9.49071 5.26308C8.86724 5.26308 8.35892 4.73625 8.36289 4.09508C8.36686 3.44981 8.87121 2.93524 9.49866 2.93524ZM5.13431 20.9985C4.71336 21.1006 4.30433 21.0475 3.91912 20.8474C3.0256 20.39 2.75159 19.512 3.11694 18.2786C2.86675 18.1398 2.61259 17.9968 2.33461 17.8416C1.9216 18.6993 1.87395 19.5569 2.28696 20.4063C2.80321 21.4559 3.66496 21.9991 4.8047 21.9746C5.9206 21.946 6.71484 21.3538 7.22713 20.3206C6.93723 20.1858 6.67116 20.0674 6.39715 19.9408C6.12711 20.488 5.71807 20.8597 5.13431 20.9985Z" fill="#777473"/>
<path d="M20.5387 10.315H17.1592V11.0256H20.5387V10.315Z" fill="#777473"/>
<path d="M20.5387 11.3196H17.1592V12.0302H20.5387V11.3196Z" fill="#777473"/>
<path d="M8.10499 17.4782C8.01762 17.4782 7.94614 17.5517 7.94614 17.6415V18.3726C7.94614 18.4624 8.01762 18.5359 8.10499 18.5359C8.19236 18.5359 8.26384 18.4624 8.26384 18.3726V17.6415C8.26384 17.5517 8.19236 17.4782 8.10499 17.4782ZM7.69596 17.4782C7.60859 17.4782 7.53711 17.5517 7.53711 17.6415V18.3726C7.53711 18.4624 7.60859 18.5359 7.69596 18.5359C7.78332 18.5359 7.85481 18.4624 7.85481 18.3726V17.6415C7.85481 17.5517 7.78332 17.4782 7.69596 17.4782ZM8.93894 17.4782C8.85158 17.4782 8.7801 17.5517 8.7801 17.6415V18.3726C8.7801 18.4624 8.85158 18.5359 8.93894 18.5359C9.02631 18.5359 9.09779 18.4624 9.09779 18.3726V17.6415C9.09779 17.5517 9.02631 17.4782 8.93894 17.4782ZM9.34003 17.4782C9.25267 17.4782 9.18119 17.5517 9.18119 17.6415V18.3726C9.18119 18.4624 9.25267 18.5359 9.34003 18.5359C9.4274 18.5359 9.49888 18.4624 9.49888 18.3726V17.6415C9.49888 17.5517 9.4274 17.4782 9.34003 17.4782ZM8.52991 17.4782C8.44254 17.4782 8.37106 17.5517 8.37106 17.6415V18.3726C8.37106 18.4624 8.44254 18.5359 8.52991 18.5359C8.61728 18.5359 8.68876 18.4624 8.68876 18.3726V17.6415C8.68876 17.5517 8.61728 17.4782 8.52991 17.4782Z" fill="#777473"/>
</svg>
