<svg width="24" height="24" viewBox="0 0 24 24" fill="none" xmlns="http://www.w3.org/2000/svg">
<path d="M10.5999 15.8V15.05C10.1857 15.05 9.84988 15.3858 9.84988 15.8H10.5999ZM14.1999 15.8H14.9499C14.9499 15.3858 14.6141 15.05 14.1999 15.05V15.8ZM14.1999 19.4V20.15C14.6141 20.15 14.9499 19.8142 14.9499 19.4H14.1999ZM10.5999 19.4H9.84988C9.84988 19.8142 10.1857 20.15 10.5999 20.15V19.4ZM8.19988 18.65C7.78566 18.65 7.44988 18.9858 7.44988 19.4C7.44988 19.8142 7.78566 20.15 8.19988 20.15V18.65ZM16.5999 20.15C17.0141 20.15 17.3499 19.8142 17.3499 19.4C17.3499 18.9858 17.0141 18.65 16.5999 18.65V20.15ZM18.9999 15.05H5.79988V16.55H18.9999V15.05ZM5.79988 15.05C5.61031 15.05 5.51062 14.9901 5.46021 14.9397C5.40979 14.8893 5.34988 14.7896 5.34988 14.6H3.84988C3.84988 15.1304 4.02996 15.6307 4.39955 16.0003C4.76913 16.3699 5.26944 16.55 5.79988 16.55V15.05ZM5.34988 14.6V6.2H3.84988V14.6H5.34988ZM5.34988 6.2C5.34988 6.01044 5.40979 5.91075 5.46021 5.86033C5.51062 5.80991 5.61031 5.75 5.79988 5.75V4.25C5.26944 4.25 4.76913 4.43009 4.39955 4.79967C4.02996 5.16925 3.84988 5.66956 3.84988 6.2H5.34988ZM5.79988 5.75H18.9999V4.25H5.79988V5.75ZM18.9999 5.75C19.1894 5.75 19.2891 5.80991 19.3395 5.86033C19.39 5.91075 19.4499 6.01044 19.4499 6.2H20.9499C20.9499 5.66956 20.7698 5.16925 20.4002 4.79967C20.0306 4.43009 19.5303 4.25 18.9999 4.25V5.75ZM19.4499 6.2V14.6H20.9499V6.2H19.4499ZM19.4499 14.6C19.4499 14.7896 19.39 14.8893 19.3395 14.9397C19.2891 14.9901 19.1894 15.05 18.9999 15.05V16.55C19.5303 16.55 20.0306 16.3699 20.4002 16.0003C20.7698 15.6307 20.9499 15.1304 20.9499 14.6H19.4499ZM10.5999 16.55H14.1999V15.05H10.5999V16.55ZM13.4499 15.8V19.4H14.9499V15.8H13.4499ZM14.1999 18.65H10.5999V20.15H14.1999V18.65ZM11.3499 19.4V15.8H9.84988V19.4H11.3499ZM8.19988 20.15H16.5999V18.65H8.19988V20.15ZM3.99988 14.15H19.5999V12.65H3.99988V14.15Z" fill="#777473"/>
</svg>
