<svg width="40" height="40" viewBox="0 0 40 40" fill="none" xmlns="http://www.w3.org/2000/svg">
<path fill-rule="evenodd" clip-rule="evenodd" d="M31.6371 3.75002C32.0144 3.74578 32.3823 3.91288 32.6272 4.21883L32.6425 4.23796C32.8706 4.52283 32.9543 4.87838 32.9014 5.21434V23.4042L32.9166 24.988C32.9198 25.3216 32.7896 25.6426 32.5548 25.8796C32.3201 26.1167 32.0003 26.25 31.6667 26.25H24.1667C23.0161 26.25 22.0833 25.3173 22.0833 24.1667V18.857C22.0833 14.8429 23.057 11.1483 24.6967 8.41551C26.3194 5.71085 28.7343 3.7547 31.6371 3.75002ZM30.4014 6.45785C29.1297 6.88309 27.8844 7.96174 26.8404 9.70175C25.4709 11.9842 24.5833 15.2181 24.5833 18.857V23.75H30.4014V23.4163L30.3976 23.0262C30.3972 22.9889 30.3985 22.952 30.4014 22.9155V6.45785Z" fill="#FF4C34"/>
<path fill-rule="evenodd" clip-rule="evenodd" d="M25.4167 25C25.4167 24.3097 25.9763 23.75 26.6667 23.75H31.6667C32.357 23.75 32.9167 24.3097 32.9167 25V32.5C32.9167 34.5711 31.2377 36.25 29.1667 36.25C27.0956 36.25 25.4167 34.5711 25.4167 32.5V25ZM29.1667 33.75C29.857 33.75 30.4167 33.1904 30.4167 32.5V26.25H27.9167V32.5C27.9167 33.1904 28.4763 33.75 29.1667 33.75Z" fill="#FF4C34"/>
<path fill-rule="evenodd" clip-rule="evenodd" d="M12.5 16.0834C13.1904 16.0834 13.75 16.643 13.75 17.3334V21.6667C13.75 22.3571 13.1904 22.9167 12.5 22.9167C11.8097 22.9167 11.25 22.3571 11.25 21.6667V17.3334C11.25 16.643 11.8097 16.0834 12.5 16.0834Z" fill="#FF4C34"/>
<path fill-rule="evenodd" clip-rule="evenodd" d="M8.75001 24.1667C8.75001 22.0956 10.4289 20.4167 12.5 20.4167C14.5711 20.4167 16.25 22.0956 16.25 24.1667V32.5C16.25 34.5711 14.5711 36.25 12.5 36.25C10.4289 36.25 8.75001 34.5711 8.75001 32.5V24.1667ZM12.5 22.9167C11.8097 22.9167 11.25 23.4763 11.25 24.1667V32.5C11.25 33.1904 11.8097 33.75 12.5 33.75C13.1904 33.75 13.75 33.1904 13.75 32.5V24.1667C13.75 23.4763 13.1904 22.9167 12.5 22.9167Z" fill="#FF4C34"/>
<path fill-rule="evenodd" clip-rule="evenodd" d="M12.5 4.16668C13.1904 4.16668 13.75 4.72632 13.75 5.41668V12.5C13.75 13.1904 13.1904 13.75 12.5 13.75C11.8097 13.75 11.25 13.1904 11.25 12.5V5.41668C11.25 4.72632 11.8097 4.16668 12.5 4.16668Z" fill="#FF4C34"/>
<path fill-rule="evenodd" clip-rule="evenodd" d="M8.33334 3.75001C9.0237 3.75001 9.58334 4.30965 9.58334 5.00001V14C9.58334 15.1506 10.5161 16.0833 11.6667 16.0833H13.3333C14.4839 16.0833 15.4167 15.1506 15.4167 14V5.00001C15.4167 4.30965 15.9763 3.75001 16.6667 3.75001C17.357 3.75001 17.9167 4.30965 17.9167 5.00001V14C17.9167 16.5313 15.8646 18.5833 13.3333 18.5833H11.6667C9.13537 18.5833 7.08334 16.5313 7.08334 14V5.00001C7.08334 4.30965 7.64299 3.75001 8.33334 3.75001Z" fill="#FF4C34"/>
<path fill-rule="evenodd" clip-rule="evenodd" d="M7.08334 12.5C7.08334 11.8097 7.64299 11.25 8.33334 11.25H16.6667C17.357 11.25 17.9167 11.8097 17.9167 12.5C17.9167 13.1904 17.357 13.75 16.6667 13.75H8.33334C7.64299 13.75 7.08334 13.1904 7.08334 12.5Z" fill="#FF4C34"/>
</svg>
