<svg width="800" height="800" viewBox="0 0 800 800" fill="none" xmlns="http://www.w3.org/2000/svg">
<path d="M233.895 521.982H148.08C144.604 522.578 141.041 522.406 137.639 521.477C134.236 520.548 131.077 518.885 128.382 516.605C125.687 514.324 123.521 511.481 122.035 508.274C120.549 505.067 119.779 501.573 119.779 498.037C119.779 494.5 120.549 491.006 122.035 487.799C123.521 484.592 125.687 481.749 128.382 479.468C131.077 477.188 134.236 475.525 137.639 474.596C141.041 473.667 144.604 473.495 148.08 474.091H233.895C237.371 473.495 240.935 473.667 244.337 474.596C247.739 475.525 250.898 477.188 253.594 479.468C256.289 481.749 258.455 484.592 259.941 487.799C261.427 491.006 262.197 494.5 262.197 498.037C262.197 501.573 261.427 505.067 259.941 508.274C258.455 511.481 256.289 514.324 253.594 516.605C250.898 518.885 247.739 520.548 244.337 521.477C240.935 522.406 237.371 522.578 233.895 521.982Z" fill="#FF4C34"/>
<path d="M242.878 333.892H112.08C105.656 333.892 99.4948 331.333 94.9523 326.777C90.4098 322.221 87.8577 316.042 87.8577 309.599C87.8577 303.156 90.4098 296.977 94.9523 292.422C99.4948 287.866 105.656 285.306 112.08 285.306H242.878C249.302 285.306 255.463 287.866 260.006 292.422C264.548 296.977 267.1 303.156 267.1 309.599C267.1 316.042 264.548 322.221 260.006 326.777C255.463 331.333 249.302 333.892 242.878 333.892Z" fill="#FF4C34"/>
<path d="M74.742 239.502H23.5299C17.2265 239.321 11.2418 236.682 6.84792 232.146C2.45403 227.609 -0.00257234 221.533 2.02128e-06 215.209C2.02128e-06 208.95 2.47892 202.948 6.89163 198.522C11.3043 194.096 17.2894 191.61 23.5299 191.61H74.742C81.048 191.607 87.1064 194.071 91.6295 198.478C96.1526 202.885 98.7838 208.887 98.964 215.209C98.964 221.652 96.4121 227.831 91.8696 232.387C87.3271 236.942 81.1661 239.502 74.742 239.502Z" fill="#FF4C34"/>
<path d="M166.767 239.489H155.694C149.391 239.308 143.406 236.669 139.012 232.133C134.618 227.596 132.161 221.52 132.164 215.196C132.164 208.937 134.643 202.935 139.056 198.509C143.468 194.083 149.453 191.597 155.694 191.597H166.767C169.914 191.504 173.049 192.046 175.984 193.19C178.919 194.334 181.595 196.058 183.854 198.258C186.113 200.459 187.908 203.092 189.134 206.002C190.359 208.911 190.99 212.038 190.989 215.196C190.989 221.639 188.437 227.818 183.894 232.374C179.352 236.929 173.191 239.489 166.767 239.489Z" fill="#FF4C34"/>
<path d="M395.131 239.502H248.415C242.112 239.321 236.127 236.682 231.733 232.146C227.339 227.609 224.883 221.533 224.885 215.209C224.885 208.95 227.364 202.948 231.777 198.522C236.189 194.096 242.174 191.61 248.415 191.61H395.131C401.437 191.607 407.495 194.071 412.018 198.478C416.541 202.885 419.173 208.887 419.353 215.209C419.353 221.652 416.801 227.831 412.258 232.387C407.716 236.942 401.555 239.502 395.131 239.502Z" fill="#FF4C34"/>
<path d="M336.992 376.24H220.727C214.421 376.237 208.362 378.701 203.839 383.108C199.316 387.515 196.685 393.517 196.505 399.839C196.505 406.282 199.056 412.461 203.599 417.017C208.141 421.572 214.302 424.132 220.727 424.132H336.992V376.24Z" fill="#FF4C34"/>
<path d="M337.014 168.001V376.227H365.389C371.944 376.282 378.443 375.02 384.505 372.517C390.566 370.014 396.067 366.319 400.684 361.651C438.747 324.865 485.114 261.009 576.466 276.279C667.817 291.549 712.801 361.651 712.801 399.826V381.78C712.801 353.648 707.265 325.792 696.51 299.81C685.754 273.827 669.992 250.23 650.125 230.37C630.259 210.509 606.679 194.777 580.738 184.075C554.798 173.372 527.005 167.91 498.955 168.001H337.014Z" fill="#FF4C34"/>
<path d="M568.853 168.001L498.955 168.001C527.005 167.91 554.798 173.372 580.738 184.075C606.679 194.777 630.259 210.509 650.125 230.37C669.992 250.23 685.754 273.827 696.51 299.81C707.265 325.792 712.801 353.648 712.801 381.78V399.826C712.801 438.001 673.354 507.41 576.466 523.374C479.578 539.338 438.747 474.787 400.684 438.001C396.067 433.333 390.566 429.638 384.505 427.135C378.443 424.632 371.944 423.371 365.389 423.425H337.014V631.651H568.853C630.221 631.467 689.012 606.889 732.341 563.303C775.67 519.717 800 460.68 800 399.132C799.635 337.825 775.143 279.143 731.854 235.857C688.565 192.571 629.982 168.183 568.853 168.001Z" fill="#FF4C34"/>
</svg>
