<svg width="24" height="24" viewBox="0 0 24 24" fill="none" xmlns="http://www.w3.org/2000/svg">
<path d="M14.6526 19.9175L14.763 21.6036C14.7721 21.7432 14.664 21.8662 14.5136 21.887C13.975 21.962 13.4236 22 12.8754 22C12.3277 22 11.7766 21.962 11.2373 21.887C11.0869 21.8662 10.9786 21.7432 10.9878 21.6036L11.0823 20.1559C9.93053 19.9436 8.85279 19.5328 7.87165 18.932L6.82569 20.0172C6.72484 20.1216 6.55377 20.1385 6.43147 20.0554C5.54664 19.4562 4.7672 18.7394 4.11469 17.9251C4.02438 17.8125 4.04235 17.6553 4.15624 17.5625L5.33597 16.6009C4.68266 15.699 4.23585 14.7079 4.00488 13.6483L2.43093 13.7354C2.28088 13.7439 2.14562 13.6444 2.12264 13.506C2.04133 13.011 2 12.5043 2 11.9997C2 11.4952 2.04133 10.9884 2.12264 10.4934C2.14541 10.355 2.27897 10.2533 2.43093 10.264L4.00526 10.3511C4.23623 9.29189 4.68287 8.30072 5.33619 7.39873L4.15624 6.43693C4.04256 6.34412 4.02438 6.18689 4.11452 6.07435C4.76631 5.2608 5.5457 4.54412 6.4313 3.944C6.55377 3.86103 6.72484 3.87783 6.82552 3.98228L7.87187 5.06752C8.85891 4.46459 9.97853 4.04166 11.1386 3.83349L11.0119 2.39846C10.9994 2.25662 11.1085 2.13021 11.2616 2.10928C12.326 1.96357 13.4247 1.96357 14.4891 2.10928C14.6422 2.13021 14.7512 2.25666 14.7388 2.39846L14.5903 4.07818C14.5773 4.22705 14.4338 4.33791 14.2736 4.32568C14.1117 4.31353 13.9912 4.18314 14.0044 4.03439L14.1303 2.61006C13.2987 2.51697 12.4521 2.51697 11.6204 2.61006L11.7462 4.03428C11.7586 4.17459 11.6516 4.30025 11.5007 4.32295C10.2469 4.51123 9.03422 4.96873 7.99378 5.64591C7.87131 5.72564 7.7033 5.70759 7.60419 5.60466L6.56626 4.52803C5.88695 5.01381 5.27744 5.57423 4.7497 6.19837L5.92043 7.15271C6.03257 7.24419 6.0519 7.39861 5.96541 7.51115C5.23058 8.46583 4.74991 9.53224 4.5367 10.6808C4.51125 10.8167 4.37748 10.9134 4.22939 10.905L2.66733 10.8186C2.61453 11.2087 2.58793 11.605 2.58793 11.9997C2.58793 12.3946 2.61453 12.7908 2.66733 13.1809L4.22884 13.0945C4.37697 13.0853 4.51091 13.1829 4.53615 13.3187C4.74953 14.4676 5.23041 15.5341 5.96524 16.4886C6.05173 16.6011 6.0324 16.7555 5.92026 16.847L4.74991 17.8011C5.27807 18.4259 5.88754 18.9862 6.5663 19.4714L7.60424 18.3948C7.70334 18.2916 7.87136 18.2737 7.99383 18.3534C9.03236 19.0292 10.192 19.4712 11.441 19.6673C11.5887 19.6905 11.6938 19.8123 11.6848 19.9499L11.591 21.3862C12.4412 21.4836 13.3115 21.4836 14.1598 21.3862L14.0659 19.95C14.0561 19.8009 14.1795 19.6729 14.3416 19.6639C14.5029 19.6559 14.6428 19.7686 14.6526 19.9175ZM20.9621 8.2215C21.433 8.2215 21.8163 8.57388 21.8163 9.00701C21.8163 9.44013 21.433 9.79251 20.9621 9.79251C20.8539 9.79251 20.7511 9.772 20.6558 9.7381L19.8565 10.4992C19.8011 10.5519 19.7249 10.5817 19.6451 10.5817H15.5617C15.3994 10.5817 15.2677 10.4608 15.2677 10.3115C15.2677 10.1622 15.3994 10.0412 15.5617 10.0412H19.5203L20.2148 9.37978C20.1487 9.26833 20.1078 9.14263 20.1078 9.00704C20.1079 8.57384 20.4911 8.2215 20.9621 8.2215ZM20.6957 9.00701C20.6957 9.14204 20.8151 9.25193 20.9621 9.25193C21.1091 9.25193 21.2284 9.14204 21.2284 9.00701C21.2284 8.87197 21.109 8.76208 20.9621 8.76208C20.8151 8.76204 20.6957 8.87193 20.6957 9.00701ZM17.77 7.5106L18.8595 6.06982C18.7495 5.93759 18.6814 5.77435 18.6814 5.59537C18.6814 5.16224 19.0647 4.80986 19.5357 4.80986C20.0066 4.80986 20.3899 5.16224 20.3899 5.59537C20.3899 6.02849 20.0066 6.38087 19.5357 6.38087C19.4734 6.38087 19.413 6.37392 19.3544 6.36224L18.165 7.93525C18.11 8.00783 18.0199 8.05122 17.9237 8.05122H14.6906C14.5284 8.05122 14.3967 7.93025 14.3967 7.78095C14.3967 7.63166 14.5284 7.51068 14.6906 7.51068H17.77V7.5106ZM19.2693 5.59537C19.2693 5.73041 19.3887 5.84029 19.5356 5.84029C19.6826 5.84029 19.802 5.73041 19.802 5.59537C19.802 5.46033 19.6826 5.35045 19.5356 5.35045C19.3887 5.35041 19.2693 5.46029 19.2693 5.59537ZM20.3191 18.4042C20.3191 18.8373 19.9358 19.1897 19.4649 19.1897C18.9939 19.1897 18.6106 18.8373 18.6106 18.4042C18.6106 18.1925 18.7032 18.0007 18.8519 17.8593L17.77 16.4284H14.6906C14.5284 16.4284 14.3967 16.3075 14.3967 16.1582C14.3967 16.0089 14.5284 15.8879 14.6906 15.8879H17.9237C18.0199 15.8879 18.1101 15.9313 18.165 16.0039L19.3912 17.6256C19.4159 17.6236 19.4396 17.6188 19.4649 17.6188C19.9358 17.6187 20.3191 17.9711 20.3191 18.4042ZM19.7313 18.4042C19.7313 18.2692 19.6119 18.1593 19.4649 18.1593C19.3179 18.1593 19.1986 18.2692 19.1986 18.4042C19.1986 18.5393 19.318 18.6491 19.4649 18.6491C19.6119 18.6491 19.7313 18.5393 19.7313 18.4042ZM21.7455 15.0677C21.7455 15.5009 21.3622 15.8532 20.8913 15.8532C20.4203 15.8532 20.037 15.5009 20.037 15.0677C20.037 14.8991 20.0963 14.7437 20.195 14.6156L19.5203 13.9731H15.5617C15.3994 13.9731 15.2677 13.8521 15.2677 13.7028C15.2677 13.5535 15.3994 13.4325 15.5617 13.4325H19.6451C19.7249 13.4325 19.801 13.4624 19.8565 13.5151L20.6883 14.3071C20.7537 14.2924 20.8209 14.2823 20.8912 14.2823C21.3622 14.2822 21.7455 14.6346 21.7455 15.0677ZM21.1576 15.0677C21.1576 14.9327 21.0382 14.8228 20.8913 14.8228C20.7444 14.8228 20.6249 14.9327 20.6249 15.0677C20.6249 15.2028 20.7444 15.3127 20.8913 15.3127C21.0382 15.3127 21.1576 15.2028 21.1576 15.0677ZM22 12.007C22 12.4402 21.6167 12.7925 21.1458 12.7925C20.7785 12.7925 20.4673 12.5771 20.3468 12.2772H13.9038V17.0551C13.9038 18.0341 13.0377 18.8306 11.9729 18.8306C11.1931 18.8306 10.5069 18.4104 10.203 17.7663C10.1908 17.7666 10.1787 17.7666 10.1667 17.7666C9.10194 17.7666 8.23584 16.9702 8.23584 15.9912C8.23584 15.9443 8.23796 15.8974 8.24196 15.8507C7.78346 15.7663 7.34927 15.5493 6.99447 15.2229C6.53903 14.8042 6.28835 14.2476 6.28835 13.6555C6.28835 13.0634 6.53903 12.5067 6.99447 12.0881C7.02858 12.0567 7.0669 12.0292 7.10326 11.9998C7.0669 11.9704 7.02858 11.9428 6.99447 11.9115C6.53903 11.4927 6.28835 10.9361 6.28835 10.3441C6.28835 9.75197 6.53903 9.19533 6.99447 8.77661C7.34927 8.45021 7.78346 8.23326 8.24196 8.14888C8.23792 8.10216 8.23584 8.05529 8.23584 8.00837C8.23584 7.02931 9.10194 6.23283 10.1667 6.23283C10.1787 6.23283 10.1908 6.23291 10.203 6.23318C10.5069 5.58916 11.1931 5.16896 11.9729 5.16896C13.0377 5.16896 13.9038 5.96545 13.9038 6.94443V11.7367H20.3469C20.4674 11.437 20.7785 11.2216 21.1458 11.2216C21.6167 11.2216 22 11.5739 22 12.007ZM7.41014 11.5292C7.4917 11.6042 7.58436 11.67 7.68253 11.7295H13.3159V6.94435C13.3159 6.26337 12.7135 5.70947 11.973 5.70947C11.4792 5.70947 11.0397 5.95142 10.8051 6.33236C11.0429 6.40892 11.2638 6.52822 11.4547 6.68552C11.457 6.68736 11.4578 6.68998 11.4599 6.69185C11.5694 6.64482 11.6903 6.61662 11.8189 6.61662C12.2899 6.61662 12.6732 6.969 12.6732 7.40201C12.6732 7.83513 12.2899 8.18751 11.8189 8.18751C11.348 8.18751 10.9647 7.83513 10.9647 7.40201C10.9647 7.2849 10.9946 7.17474 11.0448 7.07482C10.801 6.8806 10.4903 6.7733 10.1667 6.7733C9.42611 6.7733 8.82373 7.32732 8.82373 8.0083C8.82373 8.04728 8.82764 8.08603 8.83159 8.12474C9.17981 8.15783 9.51298 8.25888 9.81315 8.42431C9.9448 8.34798 10.0994 8.30204 10.2662 8.30204C10.7372 8.30204 11.1205 8.65443 11.1205 9.08755C11.1205 9.5206 10.7372 9.87294 10.2662 9.87294C9.79527 9.87294 9.41196 9.52056 9.41196 9.08755C9.41196 9.0081 9.4287 8.93286 9.45266 8.86052C9.18809 8.7265 8.89378 8.65329 8.58673 8.6524C8.15993 8.67392 7.74226 8.85326 7.41014 9.15872C7.06588 9.47536 6.87624 9.89626 6.87624 10.344C6.87624 10.7917 7.06592 11.2126 7.41014 11.5292ZM9.99981 9.08759C9.99981 9.22263 10.1192 9.33243 10.2662 9.33243C10.4132 9.33243 10.5325 9.22263 10.5325 9.08759C10.5325 8.95255 10.4131 8.84267 10.2662 8.84267C10.1192 8.84263 9.99981 8.95251 9.99981 9.08759ZM11.8189 7.64697C11.9659 7.64697 12.0852 7.53708 12.0852 7.40205C12.0852 7.26701 11.9658 7.1572 11.8189 7.1572C11.6719 7.1572 11.5525 7.26701 11.5525 7.40205C11.5525 7.53708 11.6719 7.64697 11.8189 7.64697ZM13.3159 17.0551V12.27H7.6773C7.58066 12.3288 7.4909 12.396 7.41018 12.4702C7.06592 12.7868 6.87629 13.2077 6.87629 13.6554C6.87629 14.1032 7.06592 14.5241 7.41018 14.8407C7.7423 15.1462 8.15997 15.3255 8.58677 15.347C8.8889 15.3461 9.17913 15.2757 9.4406 15.1456C9.42369 15.0841 9.41201 15.0207 9.41201 14.9545C9.41201 14.5213 9.79531 14.169 10.2663 14.169C10.7372 14.169 11.1205 14.5213 11.1205 14.9545C11.1205 15.3876 10.7372 15.74 10.2663 15.74C10.083 15.74 9.91404 15.6855 9.77475 15.5948C9.48452 15.7482 9.16519 15.843 8.83168 15.8747C8.82773 15.9134 8.82382 15.9522 8.82382 15.9912C8.82382 16.6722 9.42624 17.2261 10.1668 17.2261C10.4837 17.2261 10.7876 17.1229 11.029 16.9365C10.9881 16.8449 10.9648 16.745 10.9648 16.6399C10.9648 16.2068 11.3481 15.8544 11.819 15.8544C12.29 15.8544 12.6733 16.2068 12.6733 16.6399C12.6733 17.0731 12.29 17.4254 11.819 17.4254C11.6773 17.4254 11.5456 17.3905 11.4278 17.3341C11.243 17.4809 11.0322 17.594 10.8052 17.667C11.0398 18.0481 11.4793 18.29 11.973 18.29C12.7135 18.29 13.3159 17.7361 13.3159 17.0551ZM11.8189 16.8849C11.9659 16.8849 12.0852 16.775 12.0852 16.64C12.0852 16.5049 11.9658 16.395 11.8189 16.395C11.6719 16.395 11.5525 16.5049 11.5525 16.64C11.5525 16.775 11.6719 16.8849 11.8189 16.8849ZM10.2662 15.1994C10.4132 15.1994 10.5326 15.0895 10.5326 14.9545C10.5326 14.8195 10.4132 14.7096 10.2662 14.7096C10.1192 14.7096 9.99986 14.8195 9.99986 14.9545C9.99986 14.9998 10.0142 15.0417 10.0376 15.0782C10.0425 15.0834 10.048 15.0879 10.0525 15.0936C10.0572 15.0997 10.0603 15.1063 10.0645 15.1126C10.1133 15.1652 10.1851 15.1994 10.2662 15.1994ZM21.4122 12.007C21.4122 11.872 21.2927 11.7621 21.1458 11.7621C20.9989 11.7621 20.8794 11.872 20.8794 12.007C20.8794 12.1421 20.9989 12.252 21.1458 12.252C21.2927 12.252 21.4122 12.1421 21.4122 12.007Z" fill="#777473" stroke="#777473" stroke-width="0.3"/>
</svg>
