<svg width="118" height="42" viewBox="0 0 118 42" fill="none" xmlns="http://www.w3.org/2000/svg">
<g clip-path="url(#clip0_1_337)">
<path d="M111.256 21.2063H117.979C117.99 20.9312 118 20.6547 118 20.3767C117.994 14.9781 115.848 9.80201 112.032 5.9826C108.217 2.16318 103.043 0.0118688 97.6445 0V6.71623C101.264 6.72169 104.733 8.16339 107.29 10.7247C109.847 13.286 111.283 16.7575 111.282 20.3767C111.284 20.6525 111.273 20.9312 111.256 21.2063V21.2063Z" fill="#FF4C34"/>
<path d="M33.8392 31.4008C33.2913 31.28 32.7566 31.1059 32.2426 30.8808C31.851 30.7016 31.4702 30.4983 31.1035 30.2725C30.8412 30.1158 30.5927 29.9374 30.3602 29.7392L30.1397 29.5187L31.477 27.5382L31.663 27.7264C31.828 27.8726 32.0016 28.0084 32.183 28.1336C32.4576 28.3339 32.7473 28.5122 33.0499 28.6669C33.8744 29.0577 34.7741 29.2647 35.6865 29.2731C36.7449 29.3711 37.7994 29.0467 38.6197 28.3706C38.9379 28.0182 39.1818 27.6055 39.3372 27.1568C39.4926 26.7082 39.556 26.2326 39.524 25.7588V24.6955C39.4763 24.7629 39.4259 24.8284 39.3731 24.8919C39.2272 25.0551 39.0704 25.208 38.9034 25.3494C38.6571 25.5724 38.3875 25.7679 38.099 25.9326C37.7232 26.1295 37.3236 26.2779 36.9104 26.374C36.3878 26.5091 35.8499 26.5748 35.3102 26.5701C33.6638 26.6334 32.0585 26.0466 30.8414 24.9361C30.2371 24.3231 29.7688 23.5894 29.4681 22.7829C29.1675 21.9763 29.0412 21.1151 29.0968 20.2561C29.0622 19.4056 29.2025 18.557 29.5091 17.7628C29.8156 16.9686 30.2816 16.2458 30.8787 15.639C31.4503 15.0618 32.1336 14.607 32.8869 14.3028C33.6401 13.9985 34.4477 13.851 35.2599 13.8693C36.0829 13.8562 36.8997 14.0119 37.6602 14.3268C38.204 14.5244 38.7013 14.8324 39.1203 15.2315L39.5175 15.6728V14.0643H42.1958V25.3045C42.1958 29.5124 40.0665 31.6163 35.8072 31.6163H35.7806C35.1273 31.6179 34.4762 31.5457 33.8392 31.4008V31.4008ZM32.7964 17.3003C32.0908 18.111 31.7231 19.1619 31.77 20.2357C31.7264 21.3054 32.1034 22.3497 32.8208 23.1445C33.178 23.5198 33.6117 23.8143 34.092 24.0085C34.5724 24.2027 35.0884 24.2919 35.6061 24.2703C36.1387 24.2943 36.6706 24.209 37.1689 24.0193C37.6672 23.8295 38.1216 23.5394 38.5034 23.1671C38.8728 22.7766 39.1595 22.3158 39.3466 21.8118C39.5336 21.3078 39.6167 20.7712 39.5915 20.2342C39.6133 19.6951 39.5258 19.1571 39.3344 18.6527C39.1429 18.1483 38.8516 17.6877 38.4775 17.2989C38.0977 16.9225 37.6443 16.6285 37.1459 16.4348C36.6476 16.2411 36.1145 16.152 35.5802 16.173C35.062 16.149 34.5454 16.2373 34.0648 16.4323C33.5841 16.6273 33.1513 16.9242 32.7964 17.3025V17.3003ZM0.326172 31.3477V14.0643H3.00012V15.7234C3.03395 15.6734 3.08817 15.6046 3.16172 15.5126C3.31436 15.3466 3.47976 15.1929 3.65658 15.053C3.91698 14.8342 4.19909 14.6429 4.49905 14.4827C4.89353 14.2862 5.30881 14.1338 5.73655 14.0277C6.26412 13.8858 6.80767 13.8147 7.354 13.8166C8.16603 13.7882 8.97545 13.9314 9.72844 14.2367C10.4814 14.542 11.1614 15.0025 11.7244 15.5884C12.3007 16.2158 12.7476 16.9507 13.0387 17.7513C13.3299 18.5519 13.4594 19.4022 13.4208 20.2533C13.4707 21.1229 13.3466 21.9939 13.0553 22.8148C12.7639 23.6357 12.3113 24.3901 11.7244 25.0338C11.1398 25.6158 10.4408 26.0706 9.6717 26.369C8.90257 26.6673 8.07981 26.8028 7.2556 26.7672C6.72139 26.7703 6.18883 26.7035 5.67191 26.5686C5.24664 26.466 4.8385 26.3037 4.45883 26.0863C4.17564 25.917 3.90276 25.7304 3.64221 25.5279C3.45787 25.393 3.29165 25.2353 3.14736 25.0582L3.00012 24.8596V31.3462L0.326172 31.3477ZM4.01569 17.2849C3.27 18.1097 2.87871 19.1944 2.92543 20.3053C2.89478 20.8599 2.97511 21.4151 3.16244 21.9379C3.34976 22.4607 3.63986 22.9407 4.01569 23.3495C4.40244 23.7285 4.86395 24.0233 5.37026 24.2154C5.87657 24.4074 6.41672 24.4925 6.95754 24.4653C7.47204 24.4886 7.98576 24.3975 8.46078 24.1985C8.9358 23.9994 9.36054 23.6975 9.70474 23.3143C10.4046 22.4818 10.7669 21.4171 10.7203 20.3305C10.7664 19.2223 10.3902 18.138 9.6674 17.2967C9.31803 16.9087 8.88781 16.6023 8.40691 16.3989C7.92601 16.1956 7.40603 16.1002 6.88428 16.1199C6.35042 16.0994 5.81824 16.1932 5.32358 16.395C4.82891 16.5968 4.38288 16.9022 4.01569 17.2902V17.2849ZM98.2287 26.8459C95.9684 26.8459 94.2233 26.2555 92.9936 25.0744C92.3636 24.4374 91.8742 23.6755 91.5564 22.8378C91.2386 22.0002 91.0996 21.1051 91.1485 20.2105C91.1156 19.3291 91.2661 18.4506 91.5902 17.6303C91.9143 16.81 92.4045 16.0657 93.031 15.4448C93.6586 14.833 94.4037 14.3544 95.2208 14.0374C96.038 13.7204 96.9103 13.5718 97.7863 13.6004C98.6923 13.5516 99.5984 13.6988 100.442 14.032C101.286 14.3652 102.048 14.8764 102.677 15.531C103.924 17.0127 104.558 18.9158 104.446 20.8498V21.4933H95.0844C95.0866 21.5782 95.0992 21.6623 95.1224 21.7439C95.1829 21.9249 95.262 22.0991 95.358 22.2639C95.4901 22.5122 95.6612 22.7381 95.8643 22.9326C96.1393 23.1707 96.4583 23.3521 96.8038 23.4659C97.2763 23.6307 97.7744 23.7098 98.2747 23.6997C98.8957 23.7022 99.5109 23.5803 100.084 23.3409C100.543 23.1715 100.971 22.9246 101.347 22.6112L101.714 22.2399L103.747 24.6147C103.698 24.6794 103.626 24.7617 103.536 24.8632C103.336 25.0574 103.121 25.2355 102.893 25.3958C102.55 25.6543 102.185 25.882 101.802 26.0766C101.309 26.3125 100.791 26.4912 100.258 26.6092C99.6017 26.7661 98.9298 26.8452 98.2553 26.8451L98.2287 26.8459ZM96.5926 16.9408C96.2898 17.0584 96.0192 17.2448 95.8011 17.4856C95.6306 17.6842 95.4807 17.8999 95.3544 18.1291C95.2557 18.2973 95.1892 18.4825 95.1576 18.675L95.1073 18.8955H100.481C100.465 18.8344 100.45 18.7485 100.434 18.6617C100.381 18.4814 100.31 18.3069 100.223 18.141C100.105 17.8961 99.9508 17.6708 99.765 17.4727C99.535 17.2517 99.2658 17.0753 98.9714 16.9527C98.5967 16.7899 98.1911 16.7098 97.7827 16.7185H97.7217C97.3346 16.7191 96.9512 16.7955 96.5933 16.943L96.5926 16.9408ZM66.1816 26.1901C65.9699 25.9843 65.8016 25.7381 65.6867 25.4661C65.5719 25.1942 65.5127 24.9017 65.5129 24.6064C65.5127 24.3109 65.5719 24.0184 65.6867 23.746C65.8016 23.4736 65.9698 23.2271 66.1816 23.021C66.3976 22.8105 66.6537 22.6452 66.9343 22.5347C67.2149 22.4242 67.5141 22.3708 67.8155 22.3774C68.1172 22.3713 68.4175 22.425 68.6982 22.5354C68.979 22.6459 69.235 22.811 69.4517 23.021C69.6629 23.2274 69.8306 23.474 69.9451 23.7464C70.0595 24.0187 70.1178 24.311 70.1174 24.6064C70.1175 24.9015 70.0588 25.1935 69.9444 25.4654C69.8299 25.7374 69.6627 25.9839 69.4517 26.1901C69.0081 26.6043 68.4232 26.8344 67.8163 26.8336C67.2099 26.8347 66.626 26.6055 66.1823 26.1923L66.1816 26.1901ZM49.8398 26.7916C49.0225 26.8224 48.207 26.6916 47.4402 26.407C46.6735 26.1224 45.9704 25.6898 45.371 25.1332C44.7645 24.5069 44.2957 23.7602 43.9956 22.9416C43.6955 22.123 43.5707 21.2504 43.6286 20.3804C43.5901 19.5165 43.728 18.6538 44.0344 17.8451C44.3408 17.0364 44.8092 16.2986 45.4105 15.6771C45.9803 15.0965 46.663 14.6387 47.4165 14.3322C48.1701 14.0257 48.9784 13.8771 49.7917 13.8952C50.6147 13.8821 51.4322 14.0378 52.1927 14.3527C52.7361 14.5507 53.2327 14.8579 53.6529 15.2552L54.0493 15.7022V14.1168H56.7219V26.5959H54.0472V24.8865C54.0141 24.9366 53.9661 25.0058 53.8999 25.0955C53.7574 25.2628 53.6001 25.4167 53.4295 25.5552C53.1807 25.7707 52.9114 25.9611 52.6251 26.1237C52.2486 26.3231 51.8495 26.4768 51.4364 26.5812C50.9308 26.7213 50.4083 26.7924 49.8836 26.7923L49.8398 26.7916ZM47.3282 17.3358C46.6164 18.1664 46.2478 19.2371 46.2983 20.3298C46.2534 21.4264 46.6307 22.4988 47.3519 23.3262C47.703 23.7117 48.1341 24.0154 48.6153 24.2164C49.0964 24.4174 49.6154 24.5109 50.1365 24.4897C50.672 24.5169 51.2079 24.4315 51.7086 24.2398C52.2094 24.048 52.6641 23.754 53.0445 23.3761C53.4169 22.9649 53.7041 22.4838 53.8892 21.9609C54.0743 21.4379 54.1541 20.8836 54.1233 20.3298C54.1475 19.7814 54.0607 19.2339 53.8691 18.7195C53.6774 18.2052 53.3843 17.7347 53.0072 17.3358C52.6298 16.9558 52.1777 16.6581 51.6792 16.4621C51.1807 16.2661 50.6472 16.1759 50.112 16.1971C49.593 16.1727 49.0745 16.2622 48.5937 16.4593C48.1129 16.6563 47.6815 16.9564 47.3289 17.338L47.3282 17.3358ZM20.7776 26.7916C19.9605 26.8229 19.1453 26.6923 18.3787 26.4077C17.6121 26.1231 16.9097 25.6902 16.311 25.1332C15.7043 24.5068 15.2356 23.7601 14.9349 22.9416C14.6341 22.1231 14.5081 21.2506 14.565 20.3804C14.5264 19.5165 14.6644 18.6538 14.9708 17.8451C15.2772 17.0364 15.7455 16.2986 16.3469 15.6771C16.9168 15.0967 17.5994 14.6394 18.3529 14.333C19.1064 14.0265 19.9148 13.8774 20.728 13.8952C21.5518 13.8818 22.3693 14.0376 23.1305 14.3527C23.6732 14.5516 24.1701 14.8587 24.5907 15.2552L24.9857 15.7022V14.1168H27.6596V26.5959H24.9857V24.8865C24.9381 24.9572 24.8889 25.027 24.8384 25.0955C24.6961 25.2627 24.539 25.4166 24.3687 25.5552C24.1199 25.7707 23.8499 25.9611 23.5636 26.1237C23.187 26.3228 22.7886 26.4764 22.3757 26.5812C21.8698 26.7213 21.3471 26.7924 20.8221 26.7923L20.7776 26.7916ZM18.2638 17.3358C17.5523 18.1664 17.1856 19.2374 17.2382 20.3298C17.1926 21.4261 17.5685 22.4985 18.289 23.3262C18.6399 23.7119 19.0711 24.0158 19.5523 24.2168C20.0335 24.4178 20.5532 24.5112 21.0742 24.4897C21.6097 24.5166 22.145 24.4311 22.6457 24.2394C23.1464 24.0477 23.6017 23.7538 23.9823 23.3761C24.3547 22.965 24.6415 22.4838 24.8262 21.9609C25.011 21.4379 25.0898 20.8835 25.0582 20.3298C25.0828 19.7815 24.9968 19.2339 24.8054 18.7195C24.614 18.2051 24.3213 17.7347 23.9443 17.3358C23.5669 16.9557 23.1147 16.6581 22.6163 16.4621C22.1178 16.2661 21.5836 16.1757 21.0484 16.1971C20.5291 16.1724 20.0111 16.2618 19.53 16.4589C19.049 16.656 18.6165 16.9561 18.2638 17.338V17.3358ZM86.4707 26.5952V18.7992C86.4707 17.4955 85.9916 16.8439 85.0335 16.8439C83.845 16.8439 83.2511 17.71 83.2516 19.4428V26.5981H79.4888V18.8021C79.4888 17.4984 79.0102 16.8467 78.0531 16.8467C76.8646 16.8467 76.2707 17.7129 76.2712 19.4456V26.6009H72.5091V13.8776H76.2712V15.536C76.305 15.486 76.3447 15.4212 76.3969 15.3374C76.5055 15.1817 76.6257 15.0341 76.756 14.896C76.9436 14.6833 77.1554 14.4928 77.3866 14.3283C77.6756 14.1342 77.9911 13.9836 78.3239 13.8812C78.731 13.7471 79.1572 13.6807 79.5858 13.6848C80.0144 13.6794 80.4417 13.7425 80.8506 13.8711C81.1748 13.9678 81.4799 14.119 81.7534 14.3182C81.9539 14.4708 82.1406 14.6405 82.3115 14.8257C82.4368 14.9601 82.5454 15.1095 82.6339 15.2706L82.7072 15.4433C82.7388 15.3933 82.7848 15.3331 82.8437 15.2559C82.9718 15.1084 83.1078 14.968 83.2516 14.8357C83.464 14.6316 83.6963 14.4492 83.9447 14.2909C84.2543 14.1067 84.5874 13.9655 84.9351 13.8711C85.3525 13.745 85.7862 13.6813 86.2222 13.6826C88.8963 13.6826 90.2335 15.2258 90.2335 18.3123V26.607L86.4707 26.5952ZM58.8284 26.5952V14.0923H61.5024V16.3451C61.53 16.2509 61.5672 16.1597 61.613 16.0729C61.7331 15.859 61.8657 15.6526 62.0101 15.4545C62.2056 15.1695 62.4377 14.9118 62.7011 14.6881C63.0264 14.4366 63.3911 14.2398 63.7798 14.1056C64.2546 13.9312 64.7607 13.8599 65.2651 13.8966L65.0446 16.7929C64.5787 16.7177 64.1014 16.7513 63.6506 16.8909C63.1997 17.0305 62.7873 17.2724 62.4454 17.5976C62.1211 17.9472 61.8711 18.3587 61.7099 18.8075C61.5488 19.2563 61.4802 19.7331 61.5081 20.2091V26.5959L58.8284 26.5952Z" fill="#FF4C34"/>
<path d="M5.29232 36.1701V40.0137C5.30519 40.2838 5.25925 40.5535 5.15767 40.8042C5.05608 41.0549 4.90128 41.2805 4.70396 41.4655C4.27103 41.8374 3.71189 42.029 3.14184 42.0009C2.57173 42.0304 2.01179 41.8416 1.57603 41.4728C1.37896 41.2855 1.22494 41.0576 1.12462 40.8049C1.0243 40.5522 0.980083 40.2807 0.995024 40.0092V36.1701H1.99084V40.0173C1.96874 40.3388 2.07447 40.656 2.28502 40.8999C2.39985 41.0072 2.53562 41.0897 2.68383 41.1421C2.83203 41.1945 2.98946 41.2157 3.14625 41.2044C3.91505 41.2044 4.29945 40.7989 4.29945 39.9879V36.1701H5.29232ZM7.84879 36.1701L9.50799 40.5785L11.1628 36.1701H12.4542V41.9214H11.4584V40.0254L11.557 37.4895L9.8588 41.9214H9.14394L7.45237 37.4932L7.55093 40.0254V41.9214H6.55511V36.1701H7.84879ZM17.0494 40.5829H14.8217L14.3554 41.9214H13.3162L15.4888 36.1701H16.3853L18.5652 41.9214H17.5223L17.0494 40.5829ZM15.1019 39.7739H16.7692L15.9359 37.3881L15.1019 39.7739ZM24.9784 39.351H22.6161V41.1205H25.377V41.9214H21.6166V36.1701H25.3498V36.9791H22.6161V38.567H24.9784V39.351ZM27.6812 36.1672L29.3404 40.5755L30.9945 36.1701H32.286V41.9214H31.2887V40.0254L31.3872 37.4895L29.692 41.9214H28.9771L27.2856 37.4932L27.3841 40.0254V41.9214H26.3883V36.1701L27.6812 36.1672ZM34.6622 39.782V41.9214H33.6628V36.1701H35.8633C36.4181 36.1405 36.9641 36.3194 37.3937 36.6717C37.5802 36.8368 37.7277 37.0411 37.8258 37.27C37.9238 37.4989 37.9699 37.7467 37.9608 37.9955C37.9742 38.2426 37.9311 38.4895 37.8349 38.7175C37.7387 38.9454 37.5919 39.1485 37.4055 39.3113C36.9602 39.649 36.4086 39.8158 35.8507 39.7812L34.6622 39.782ZM34.6622 38.9803H35.8633C36.1561 39.0006 36.4461 38.9112 36.6767 38.7295C36.7734 38.6364 36.8486 38.5232 36.897 38.3979C36.9454 38.2727 36.9658 38.1384 36.9569 38.0044C36.9633 37.8674 36.9414 37.7306 36.8924 37.6025C36.8434 37.4744 36.7685 37.3578 36.6723 37.2601C36.4594 37.0657 36.1785 36.9629 35.8905 36.974H34.6622V38.9803ZM41.1409 39.7033H40.0267V41.9214H39.0272V36.1701H41.0497C41.5983 36.135 42.1418 36.2929 42.5861 36.6166C42.77 36.7754 42.9148 36.9747 43.009 37.1987C43.1033 37.4227 43.1446 37.6654 43.1296 37.908C43.1416 38.2513 43.0439 38.5896 42.8509 38.8737C42.6537 39.1422 42.3847 39.3497 42.075 39.4724L43.365 41.87V41.9214H42.2941L41.1409 39.7033ZM40.0267 38.906H41.0563C41.3422 38.9233 41.6242 38.8324 41.8462 38.6516C41.9418 38.5633 42.0169 38.4551 42.0661 38.3346C42.1153 38.2141 42.1374 38.0843 42.1309 37.9544C42.139 37.8235 42.1199 37.6924 42.0747 37.5693C42.0295 37.4463 41.9592 37.3339 41.8683 37.2395C41.6499 37.0556 41.3693 36.9624 41.0843 36.9791H40.0296L40.0267 38.906ZM47.6314 39.3561H45.2691V41.1257H48.03V41.9214H44.2696V36.1701H48.0028V36.9791H45.2691V38.567H47.6314V39.3561ZM52.0441 40.4424C52.0501 40.3307 52.0289 40.2191 51.9824 40.1173C51.9359 40.0155 51.8655 39.9265 51.7772 39.8577C51.4814 39.6677 51.1564 39.5276 50.8152 39.4429C50.4289 39.3358 50.0581 39.179 49.712 38.9767C49.4765 38.8527 49.2789 38.6673 49.1401 38.4403C49.0013 38.2132 48.9265 37.9528 48.9236 37.6867C48.9205 37.4644 48.9703 37.2446 49.0689 37.0453C49.1675 36.8461 49.312 36.6732 49.4906 36.5408C49.9145 36.226 50.4341 36.067 50.9615 36.0907C51.3304 36.0838 51.6962 36.1592 52.0324 36.3113C52.3317 36.4484 52.5866 36.6668 52.7678 36.9416C52.9456 37.2104 53.0391 37.5262 53.0363 37.8485H52.0441C52.0516 37.7171 52.0302 37.5856 51.9814 37.4634C51.9326 37.3411 51.8576 37.2311 51.7617 37.1409C51.5336 36.9575 51.2448 36.8667 50.9527 36.8865C50.683 36.87 50.4154 36.9437 50.1922 37.0961C50.1034 37.1646 50.0325 37.2535 49.9853 37.3553C49.9382 37.4571 49.9164 37.5687 49.9216 37.6808C49.9226 37.7863 49.95 37.8898 50.0014 37.982C50.0528 38.0741 50.1265 38.1518 50.2158 38.2081C50.5138 38.3946 50.8391 38.5333 51.18 38.6192C51.5577 38.7229 51.92 38.8763 52.2574 39.0752C52.5014 39.218 52.7063 39.4188 52.8539 39.6599C52.9844 39.8959 53.0499 40.1625 53.0436 40.4321C53.051 40.6531 53.0047 40.8725 52.9088 41.0717C52.8129 41.2708 52.6701 41.4438 52.4928 41.5758C52.056 41.8795 51.5303 42.0289 50.999 42.0001C50.6046 42.0045 50.2137 41.9259 49.8517 41.7692C49.5276 41.6347 49.2463 41.4142 49.0383 41.1316C48.8429 40.8546 48.7411 40.5224 48.7478 40.1835H49.7488C49.7408 40.3263 49.7659 40.469 49.822 40.6005C49.8781 40.732 49.9638 40.8488 50.0724 40.9418C50.3404 41.1368 50.6683 41.2318 50.999 41.2102C51.2762 41.2301 51.552 41.1557 51.7816 40.9992C51.8662 40.9332 51.9342 40.8483 51.9798 40.7511C52.0254 40.654 52.0475 40.5475 52.0441 40.4402V40.4424ZM57.3343 40.5844H55.1066L54.6403 41.9214H53.6011L55.7744 36.1701H56.6709L58.8472 41.9214H57.8043L57.3343 40.5844ZM55.3868 39.7754H57.0541L56.2208 37.3903L55.3868 39.7754ZM64.9081 40.4373C64.914 40.3255 64.8928 40.214 64.8463 40.1122C64.7999 40.0104 64.7295 39.9213 64.6411 39.8526C64.3454 39.6625 64.0204 39.5224 63.6791 39.4378C63.2928 39.3306 62.922 39.1739 62.576 38.9715C62.3412 38.8474 62.1442 38.6623 62.0059 38.4357C61.8675 38.209 61.7928 37.9492 61.7897 37.6837C61.7866 37.4614 61.8364 37.2416 61.935 37.0424C62.0336 36.8431 62.1782 36.6702 62.3568 36.5379C62.7807 36.2231 63.3002 36.0641 63.8277 36.0878C64.1966 36.0809 64.5624 36.1563 64.8985 36.3084C65.1979 36.4454 65.4527 36.6638 65.634 36.9387C65.8118 37.2075 65.9053 37.5232 65.9024 37.8455H64.9081C64.9152 37.7145 64.8937 37.5835 64.8449 37.4616C64.7961 37.3398 64.7213 37.2301 64.6257 37.1402C64.3975 36.9568 64.1087 36.866 63.8167 36.8857C63.5469 36.8692 63.2794 36.943 63.0562 37.0953C62.9674 37.1638 62.8964 37.2528 62.8493 37.3545C62.8022 37.4563 62.7803 37.568 62.7856 37.68C62.7865 37.7855 62.814 37.8891 62.8654 37.9812C62.9168 38.0733 62.9905 38.1511 63.0797 38.2074C63.3777 38.3939 63.703 38.5326 64.0439 38.6185C64.4212 38.7226 64.783 38.8761 65.1199 39.0752C65.3639 39.218 65.5688 39.4188 65.7164 39.6599C65.8469 39.8959 65.9124 40.1625 65.9061 40.4321C65.9137 40.6529 65.8676 40.8723 65.7719 41.0715C65.6763 41.2706 65.5338 41.4436 65.3567 41.5758C64.9195 41.8798 64.3933 42.0292 63.8615 42.0001C63.4671 42.0045 63.0762 41.9259 62.7142 41.7692C62.3901 41.6347 62.1088 41.4142 61.9008 41.1316C61.7054 40.8546 61.6036 40.5224 61.6103 40.1835H62.6098C62.6018 40.3263 62.6269 40.469 62.683 40.6005C62.7391 40.732 62.8248 40.8488 62.9334 40.9418C63.2018 41.1371 63.5303 41.2321 63.8615 41.2102C64.1392 41.2304 64.4155 41.156 64.6455 40.9992C64.7302 40.9332 64.7981 40.8483 64.8437 40.7511C64.8894 40.654 64.9114 40.5475 64.9081 40.4402V40.4373ZM71.1345 36.9733H69.3407V41.9214H68.3493V36.9755H66.5717V36.1665H71.1316L71.1345 36.9733ZM76.563 39.1936C76.5732 39.7035 76.4728 40.2096 76.2688 40.677C76.0944 41.0799 75.8041 41.4217 75.4348 41.6589C75.0594 41.8905 74.6254 42.0092 74.1845 42.0009C73.7448 42.0082 73.3122 41.8895 72.9379 41.6589C72.567 41.424 72.2732 41.0854 72.0928 40.6851C71.8862 40.2273 71.783 39.7296 71.7905 39.2274V38.906C71.7804 38.395 71.8823 37.8879 72.0891 37.4204C72.2665 37.0162 72.5592 36.6734 72.9305 36.4349C73.3046 36.2036 73.7374 36.0849 74.1771 36.0929C74.6163 36.0847 75.0487 36.2018 75.4237 36.4305C75.7928 36.664 76.0845 37.0015 76.2622 37.4006C76.4683 37.8647 76.5707 38.3681 76.5622 38.8759L76.563 39.1936ZM75.5635 38.8958C75.5961 38.3817 75.47 37.8701 75.2024 37.43C75.0885 37.2651 74.9347 37.1318 74.7552 37.0426C74.5757 36.9535 74.3766 36.9114 74.1764 36.9203C73.9784 36.9127 73.7817 36.9553 73.6045 37.044C73.4274 37.1327 73.2755 37.2647 73.1629 37.4278C72.894 37.8566 72.7635 38.3578 72.7893 38.8634V39.1951C72.7574 39.7099 72.8859 40.222 73.157 40.6609C73.2706 40.8262 73.4242 40.9601 73.6035 41.0501C73.7827 41.1401 73.9818 41.1833 74.1823 41.1757C74.3817 41.1853 74.5803 41.1441 74.7594 41.0558C74.9385 40.9676 75.0922 40.8352 75.206 40.6712C75.4722 40.2271 75.5969 39.7125 75.5635 39.1958V38.8958ZM82.315 41.9214H81.3155L78.7517 37.8411V41.9214H77.7522V36.1701H78.7517L81.3258 40.2667V36.1701H82.315V41.9214ZM87.0514 39.3539H84.6898V41.1235H87.4507V41.9214H83.6903V36.1701H87.4235V36.9791H84.6898V38.567H87.0514V39.3539ZM95.0532 40.049C95.0266 40.5982 94.7833 41.1145 94.3766 41.4846C93.9327 41.8448 93.3714 42.0282 92.8005 41.9994C92.3742 42.0081 91.9543 41.895 91.5899 41.6736C91.2353 41.4506 90.954 41.1283 90.7809 40.7469C90.5833 40.3077 90.483 39.8311 90.4867 39.3495V38.8126C90.4766 38.3192 90.575 37.8296 90.775 37.3785C90.95 36.9848 91.2379 36.652 91.6024 36.4224C91.9773 36.196 92.4089 36.081 92.8468 36.0907C93.4043 36.0634 93.9516 36.2472 94.3795 36.6055C94.7845 36.9885 95.0258 37.5131 95.0532 38.0698H94.0603C94.0481 37.7385 93.9203 37.4219 93.6992 37.1748C93.4614 36.9762 93.1558 36.8779 92.8468 36.9004C92.6535 36.8905 92.4607 36.9287 92.2858 37.0118C92.111 37.0949 91.9595 37.2201 91.8451 37.3763C91.5841 37.7938 91.4592 38.2821 91.4877 38.7737V39.2833C91.4562 39.78 91.5724 40.2749 91.8216 40.7057C91.9283 40.8649 92.0744 40.9937 92.2457 41.0795C92.417 41.1654 92.6076 41.2053 92.799 41.1955C93.1157 41.2187 93.4299 41.1245 93.6816 40.9308C93.9081 40.6909 94.0412 40.3778 94.0566 40.0482L95.0532 40.049ZM100.73 39.1958C100.74 39.7057 100.64 40.2118 100.436 40.6792C100.262 41.0808 99.9733 41.4217 99.6057 41.6589C99.2304 41.8905 98.7964 42.0092 98.3554 42.0009C97.917 42.0075 97.4858 41.8888 97.1125 41.6589C96.7416 41.424 96.4478 41.0854 96.2674 40.6851C96.0608 40.2273 95.9576 39.7296 95.9652 39.2274V38.906C95.955 38.395 96.0569 37.8879 96.2638 37.4204C96.4411 37.0162 96.7338 36.6734 97.1051 36.4349C97.4792 36.2036 97.912 36.0849 98.3517 36.0929C98.7909 36.0847 99.2233 36.2018 99.5983 36.4305C99.9679 36.6643 100.26 37.0024 100.438 37.402C100.644 37.8661 100.746 38.3696 100.738 38.8774L100.73 39.1958ZM99.7307 38.8958C99.7633 38.3817 99.6373 37.8701 99.3696 37.43C99.2561 37.2656 99.1029 37.1326 98.9241 37.0435C98.7453 36.9544 98.5469 36.912 98.3473 36.9203C98.1493 36.9127 97.9526 36.9553 97.7755 37.044C97.5983 37.1327 97.4464 37.2647 97.3339 37.4278C97.0649 37.8566 96.9345 38.3578 96.9602 38.8634V39.1951C96.9284 39.7099 97.0568 40.222 97.328 40.6609C97.4416 40.8262 97.5952 40.9601 97.7744 41.0501C97.9537 41.1401 98.1528 41.1833 98.3532 41.1757C98.5525 41.1852 98.751 41.1439 98.9299 41.0557C99.1089 40.9674 99.2625 40.8351 99.3762 40.6712C99.6429 40.2265 99.7676 39.711 99.7337 39.1936L99.7307 38.8958ZM101.944 40.9102C102.02 40.9054 102.096 40.9165 102.167 40.9427C102.239 40.9689 102.304 41.0097 102.359 41.0624C102.407 41.113 102.445 41.1727 102.47 41.2381C102.496 41.3035 102.508 41.3733 102.506 41.4434C102.508 41.5124 102.496 41.5811 102.47 41.6453C102.445 41.7095 102.407 41.7679 102.359 41.817C102.303 41.8684 102.238 41.908 102.166 41.9333C102.095 41.9586 102.019 41.9691 101.944 41.9641C101.87 41.9679 101.795 41.9568 101.726 41.9315C101.656 41.9063 101.592 41.8673 101.537 41.817C101.488 41.7681 101.449 41.7095 101.424 41.6449C101.399 41.5803 101.387 41.5112 101.39 41.4419C101.388 41.3718 101.4 41.302 101.425 41.2366C101.45 41.1712 101.488 41.1115 101.537 41.0609C101.591 41.0088 101.656 40.9685 101.726 40.9426C101.797 40.9166 101.872 40.9056 101.947 40.9102H101.944Z" fill="#FF4C34"/>
</g>
<defs>
<clipPath id="clip0_1_337">
<rect width="117.674" height="42" fill="white" transform="translate(0.326172)"/>
</clipPath>
</defs>
</svg>
