<svg width="40" height="40" viewBox="0 0 40 40" fill="none" xmlns="http://www.w3.org/2000/svg">
<path fill-rule="evenodd" clip-rule="evenodd" d="M23.8375 5.06666C21.5807 3.31029 18.4203 3.31082 16.1626 5.06658ZM23.8375 5.06666L33.837 12.8446C35.3603 14.0285 36.25 15.85 36.25 17.7783V30C36.25 33.452 33.452 36.25 30 36.25H10C6.54798 36.25 3.75 33.452 3.75 30V17.7783C3.75 15.85 4.63918 14.0289 6.16254 12.845L16.1626 5.06658M17.6974 7.04006V7.04006L7.69746 14.8183C6.78446 15.5277 6.25 16.6202 6.25 17.7783V30C6.25 32.0713 7.92869 33.75 10 33.75H30C32.0713 33.75 33.75 32.0713 33.75 30V17.7783C33.75 16.6202 33.216 15.5281 32.303 14.8187L22.3025 7.03999C20.9493 5.98665 19.0529 5.98599 17.6974 7.04006Z" fill="#FF4C34"/>
<path fill-rule="evenodd" clip-rule="evenodd" d="M12.4499 22.8457C12.9382 22.3577 13.7297 22.3581 14.2176 22.8465C17.4091 26.0409 22.5874 26.0415 25.7828 22.8461C26.2709 22.3579 27.0624 22.3579 27.5506 22.8461C28.0387 23.3342 28.0387 24.1257 27.5506 24.6138C23.3793 28.7851 16.6175 28.7857 12.4491 24.6134C11.9611 24.1251 11.9615 23.3336 12.4499 22.8457Z" fill="#FF4C34"/>
</svg>
