<svg width="101" height="42" viewBox="0 0 101 42" fill="none" xmlns="http://www.w3.org/2000/svg">
<path fill-rule="evenodd" clip-rule="evenodd" d="M77.8053 16.5805C77.6689 17.3213 77.4534 18.1766 77.1642 19.1192C76.8736 20.0619 76.5012 21.0564 76.0619 22.0645C75.5845 23.0808 75.0892 24.0317 74.5927 24.8884C74.1016 25.7369 73.6105 26.4667 73.1398 27.0574C72.6801 27.6331 72.2531 28.0587 71.8739 28.3234C71.5874 28.5225 71.4278 28.5444 71.3732 28.5444C71.3475 28.5444 71.3268 28.5403 71.305 28.5305C71.257 28.5088 71.0976 28.4022 71.0281 27.8961C70.9626 27.4323 70.9982 26.8225 71.1304 26.0845C71.2668 25.3246 71.481 24.4611 71.7715 23.5239C72.058 22.5867 72.4304 21.5922 72.8765 20.5705C73.3186 19.5569 73.8015 18.6115 74.3144 17.7589C74.8246 16.9076 75.3211 16.186 75.7918 15.613C76.2488 15.0537 76.6758 14.6349 77.0605 14.3662C77.3483 14.167 77.5066 14.1452 77.5611 14.1452C77.5887 14.1452 77.6091 14.1493 77.6279 14.1591C77.6759 14.1797 77.8353 14.2873 77.9062 14.7934C77.9703 15.2573 77.9361 15.8575 77.8053 16.5805M58.6549 16.5805C58.5185 17.3213 58.303 18.1766 58.0137 19.1192C57.7218 20.0673 57.3494 21.0605 56.9115 22.0645C56.4326 23.0836 55.9375 24.0344 55.4423 24.8884C54.9498 25.7382 54.46 26.4681 53.9894 27.0574C53.5297 27.6331 53.104 28.0587 52.7221 28.3234C52.4356 28.5225 52.2774 28.5444 52.2228 28.5444C52.1971 28.5444 52.1764 28.5403 52.1546 28.5309C52.1066 28.5093 51.9472 28.4027 51.8776 27.8966C51.8121 27.4342 51.8463 26.8257 51.9799 26.085C52.115 25.3265 52.3306 24.4657 52.6211 23.5244C52.9076 22.5858 53.28 21.5927 53.7261 20.5709C54.1695 19.5546 54.6537 18.6093 55.1626 17.7594C55.6755 16.9068 56.1721 16.1851 56.6413 15.6135C57.0997 15.0542 57.5281 14.634 57.91 14.3666C58.1965 14.1675 58.3561 14.1457 58.4107 14.1457C58.4383 14.1457 58.4586 14.1497 58.4775 14.1591C58.5255 14.1797 58.6862 14.2873 58.7558 14.7934C58.82 15.2573 58.7857 15.8575 58.6549 16.5805M37.9057 16.3895C37.8212 17.1426 37.6575 18.002 37.4187 18.946C37.1786 19.8873 36.8512 20.8777 36.4433 21.8926C36.0367 22.9021 35.6043 23.8516 35.1555 24.7138C34.7162 25.5568 34.2729 26.2757 33.835 26.8514C33.4093 27.4108 33.0096 27.8282 32.6454 28.0915C32.3767 28.2866 32.2266 28.3084 32.1761 28.3084C32.1529 28.3084 32.1323 28.3043 32.1106 28.2945C32.0616 28.2728 31.8924 28.1621 31.805 27.6479C31.7232 27.1772 31.7164 26.5702 31.7818 25.8417C31.85 25.1023 32.0042 24.2524 32.2415 23.3166C32.4789 22.3794 32.8077 21.3876 33.2169 20.37C33.6289 19.3468 34.0627 18.3987 34.5061 17.5475C34.9426 16.7058 35.3873 15.9787 35.828 15.3852C36.2509 14.8123 36.6519 14.3894 37.0148 14.1261C37.2835 13.931 37.4336 13.9092 37.4854 13.9092C37.5087 13.9092 37.5293 13.9133 37.5482 13.9231C37.6 13.9447 37.776 14.0595 37.8838 14.5806C37.9793 15.0445 37.9861 15.6529 37.9046 16.3909M79.8625 10.1334C80.8652 10.1334 81.7274 10.4403 82.4258 11.0474C83.0997 11.6326 83.5813 12.4689 83.8555 13.5316C84.1215 14.5615 84.1761 15.807 84.0192 17.2353C83.8623 18.6459 83.4503 20.2556 82.7914 22.0195C82.1707 23.6865 81.4586 25.153 80.6783 26.3767C80.3004 26.9715 79.9116 27.5281 79.5174 28.0424C79.4669 28.1078 79.5423 28.1938 79.6142 28.1543C79.8434 28.0301 80.0712 27.8951 80.2963 27.7477C80.8092 27.4162 81.3017 27.0588 81.7696 26.6809C83.0752 25.6237 84.0233 24.194 84.4844 22.587C84.76 21.6198 85.0655 20.6608 85.3984 19.7154C85.944 18.1589 86.5265 16.706 87.1309 15.3964C87.7311 14.0909 88.2304 13.1141 88.6151 12.4907C89.0516 11.7813 89.6628 11.3393 90.4363 11.1756C91.1593 11.0229 91.8509 11.0337 92.4866 11.2055C93.1374 11.3829 93.6694 11.7048 94.0664 12.1659C94.4988 12.6693 94.5929 13.2422 94.3365 13.8234C94.2601 14.0239 94.0596 14.4823 93.7403 15.1876C93.4197 15.8969 93.0596 16.725 92.6408 17.7236C92.2384 18.6826 91.825 19.7207 91.413 20.8066C91.0106 21.8734 90.6955 22.8693 90.4772 23.7669C90.2644 24.64 90.1812 25.3657 90.2289 25.9237C90.2753 26.4571 90.4786 26.4571 90.5891 26.4571C90.7446 26.4571 91.0202 26.3834 91.4485 26.0342C91.8605 25.6931 92.2957 25.2825 92.7445 24.8078C93.1933 24.3317 93.6244 23.8187 94.0227 23.284C94.387 22.797 94.6994 22.3659 94.9531 22.0017C95.1741 21.6838 95.5261 21.5024 95.9176 21.5024C96.3309 21.5024 96.732 21.7097 96.9407 22.0303C97.144 22.344 97.1385 22.7178 96.923 23.0534C96.6528 23.475 96.1808 24.1816 95.4796 25.217C94.7853 26.2402 93.9545 27.2947 93.0105 28.3533C92.0501 29.4269 91.001 30.3804 89.8892 31.1867C88.7201 32.0366 87.5388 32.4663 86.3806 32.4663C85.3329 32.4663 84.5512 32.1034 84.056 31.3858C83.6059 30.7311 83.3767 29.8525 83.3767 28.7748V28.6029C83.3795 28.4747 83.2294 28.4024 83.1298 28.4829C82.9101 28.6589 82.6837 28.8335 82.4532 29.0054C81.0915 30.019 79.52 30.8784 77.7793 31.5618C76.2255 32.173 74.5134 32.4827 72.6909 32.4827L72.3198 32.4786L71.9474 32.4662C70.706 32.4634 69.7852 32.0746 69.2081 31.3066C69.1059 31.1716 69.0117 31.0324 68.9285 30.8892C68.8617 30.7746 68.6884 30.7937 68.6502 30.9217C68.4633 31.5451 68.286 32.1467 68.1223 32.7224C67.7676 33.9597 67.4647 35.0306 67.1987 35.9964C66.9313 36.965 66.6994 37.8476 66.5084 38.6238C66.3243 39.3714 66.196 39.9771 66.1306 40.4259L66.1264 40.4425C65.9586 41.2924 65.3843 41.5912 64.93 41.6935C64.7281 41.7384 64.5181 41.7617 64.3052 41.7617C63.9205 41.7617 63.514 41.6867 63.0979 41.5407C62.465 41.317 61.8961 40.931 61.405 40.3921C60.8961 39.8328 60.6383 39.133 60.6383 38.3117C60.6383 38.1453 60.6806 37.7811 61.0067 36.4401C61.2508 35.451 61.5796 34.2205 61.9875 32.7813C62.2631 31.8059 62.5768 30.7446 62.9247 29.6096C62.9655 29.4732 62.8101 29.36 62.6928 29.4404C61.48 30.2658 60.1199 30.9792 58.6357 31.5617C57.0806 32.1729 55.3699 32.4826 53.5473 32.4826C53.3017 32.4826 53.0508 32.4769 52.8025 32.4661C51.5625 32.4633 50.6416 32.0745 50.0632 31.3065C49.9609 31.1715 49.8681 31.0337 49.7849 30.8891C49.7168 30.7745 49.5448 30.7949 49.5066 30.9215C49.3184 31.5463 49.141 32.1493 48.9773 32.7223C48.6213 33.9637 48.3184 35.0359 48.0552 35.9963C47.7878 36.9649 47.5545 37.8475 47.3635 38.6237C47.1793 39.3726 47.0525 39.9783 46.9856 40.4258L46.9829 40.4424C46.8151 41.2923 46.2394 41.5911 45.7852 41.6934C45.5833 41.7382 45.3745 41.7616 45.1617 41.7616C44.777 41.7616 44.3705 41.6865 43.9531 41.5406C43.3201 41.3169 42.7526 40.9308 42.2615 40.3919C41.7526 39.8326 41.4948 39.1328 41.4948 38.3116C41.4948 38.1438 41.5356 37.7795 41.8632 36.4399C42.1088 35.4413 42.4375 34.2108 42.8426 32.7812C43.0828 31.9313 43.3488 31.0255 43.6475 30.0474C43.6913 29.9 43.5111 29.7882 43.3965 29.8932C42.8877 30.357 42.3638 30.7895 41.8263 31.1851C40.6736 32.035 39.5004 32.466 38.3408 32.466C37.2932 32.466 36.5101 32.1032 36.0163 31.3856C35.8172 31.0962 35.6617 30.762 35.5485 30.3869C35.4489 30.0526 35.0205 29.9503 34.7777 30.2027C34.4366 30.5574 34.0615 30.8807 33.6591 31.1658C33.1352 31.5369 32.55 31.8479 31.917 32.0907C31.2649 32.339 30.5597 32.4659 29.8203 32.4659C28.8203 32.4659 27.9432 32.1616 27.2147 31.56C26.5053 30.9789 25.9801 30.1549 25.6513 29.1086C25.3321 28.095 25.2148 26.8495 25.3021 25.4049C25.3894 23.9779 25.7141 22.3764 26.268 20.6425C27.448 17.0465 28.9868 14.3768 30.8434 12.703C32.7342 10.9977 34.6522 10.1328 36.5443 10.1328C37.3451 10.1328 38.0231 10.2938 38.5565 10.6103C39.0817 10.924 39.4869 11.3388 39.7611 11.8435C39.9438 12.1832 40.0776 12.5474 40.1594 12.9349C40.1742 13.0031 40.2672 13.0167 40.3013 12.9555C40.3968 12.7836 40.4882 12.6295 40.5741 12.4889C41.0107 11.7823 41.6137 11.3403 42.3681 11.1752C43.0733 11.0224 43.7636 11.032 44.4171 11.2041C45.0869 11.3815 45.6284 11.7047 46.0268 12.1658C46.4592 12.6692 46.5534 13.2422 46.2955 13.8233C46.2205 14.0211 46.0268 14.4686 45.7007 15.1875C45.3829 15.8914 45.0118 16.744 44.6012 17.7235C44.1946 18.6934 43.7813 19.7316 43.3734 20.8065C42.9696 21.8733 42.6545 22.8706 42.4376 23.7668C42.2248 24.6413 42.1416 25.367 42.1894 25.9236C42.2358 26.457 42.439 26.457 42.5482 26.457C42.7051 26.457 42.9806 26.3833 43.4076 26.0341C43.6436 25.839 43.8892 25.6194 44.1402 25.3779C45.1128 24.4407 45.7649 23.4176 46.2001 22.1448C46.7785 20.456 47.3869 18.7889 48.0117 17.1819C48.6788 15.4726 49.3295 13.9379 49.9461 12.6201C50.2681 11.938 50.7783 11.4783 51.4576 11.2573C52.0947 11.0499 52.7482 11.0063 53.3907 11.1277C54.0319 11.2505 54.5939 11.5056 55.0604 11.8876C55.2678 12.0567 55.4328 12.2395 55.5556 12.4319C55.5881 12.4837 55.6266 12.4892 55.6716 12.4468C56.2227 11.938 56.8311 11.4715 57.4873 11.0554C58.4477 10.4429 59.5349 10.1332 60.719 10.1332C61.7204 10.1332 62.5839 10.4401 63.281 11.0472C63.9562 11.6338 64.4378 12.4687 64.712 13.5314C64.978 14.56 65.0326 15.8068 64.8757 17.2351C64.7188 18.6443 64.3055 20.2554 63.6479 22.0193C63.0259 23.6877 62.3138 25.1542 61.5335 26.3765C61.1556 26.9713 60.7668 27.5279 60.3725 28.0422C60.322 28.1077 60.3982 28.1936 60.4708 28.1541C60.6986 28.0299 60.9264 27.8949 61.1529 27.7475C61.5198 27.5101 61.8759 27.2591 62.2196 26.9972C63.5265 26.0041 64.5019 24.6454 65.0217 23.0984L65.2263 22.494C65.8402 20.6797 66.4895 18.8926 67.1553 17.1819C67.8237 15.4699 68.4744 13.9352 69.091 12.6201C69.4116 11.938 69.9204 11.4796 70.6025 11.2573C71.2396 11.0499 71.8931 11.0063 72.5356 11.1277C73.1767 11.2505 73.7374 11.5056 74.204 11.8862C74.4114 12.0567 74.5764 12.2395 74.6992 12.4319C74.732 12.4837 74.7701 12.4892 74.8151 12.4468C75.3662 11.938 75.9747 11.4714 76.6308 11.0554C77.5925 10.4428 78.6798 10.1331 79.8625 10.1331V10.1334ZM17.1184 1.63591C18.5562 1.63591 19.9968 1.80234 21.4019 2.12836C22.8166 2.45849 24.1003 2.9605 25.2148 3.62077C26.343 4.28922 27.2693 5.12818 27.9677 6.11449C28.6798 7.11853 29.04 8.29582 29.04 9.61361C29.04 11.0324 28.7235 12.3638 28.0987 13.5697C27.4793 14.7634 26.6267 15.8534 25.5668 16.8097C24.5163 17.7591 23.2708 18.5967 21.8644 19.2979C20.7048 19.8764 19.473 20.3702 18.1934 20.7672C18.1115 20.7929 18.0829 20.8354 18.0869 20.9172C18.1143 21.5447 18.1592 22.1654 18.2234 22.7629C18.2957 23.4491 18.3911 24.1176 18.5085 24.7519C18.6231 25.3753 18.7622 25.9824 18.9191 26.5567C19.0419 27.0014 19.1783 27.4339 19.3243 27.8445C19.417 28.1064 19.5153 28.3629 19.6149 28.603C19.8154 29.0873 20.0364 29.5511 20.271 29.9808C20.5016 30.4037 20.7512 30.8048 21.0132 31.1731C21.2683 31.5319 21.5425 31.8688 21.8276 32.1771C22.1059 32.4773 22.4005 32.7528 22.7034 32.9984C22.998 33.2371 23.3091 33.454 23.6269 33.6396C23.9366 33.8223 24.2613 33.9806 24.5928 34.1116C24.9188 34.2398 25.2558 34.3435 25.5954 34.4185C25.9365 34.4935 26.2871 34.5413 26.6418 34.5645C26.9951 34.5861 27.3634 34.582 27.7304 34.5495C28.1042 34.517 28.4861 34.4568 28.8654 34.3681C29.2542 34.2781 29.6498 34.1594 30.044 34.0134C30.4478 33.8634 30.8557 33.6805 31.2582 33.4745C31.4123 33.3954 31.5678 33.3108 31.722 33.2235C32.224 32.9371 32.8652 33.0735 33.2021 33.5373C33.5405 34.0011 33.4654 34.6423 33.0289 35.0188C32.8147 35.203 32.5992 35.383 32.3864 35.5549C31.8693 35.9723 31.3509 36.3598 30.8448 36.7049C30.3647 37.0323 29.8763 37.3379 29.3933 37.6094C29.1519 37.7458 28.8982 37.8795 28.6403 38.0077C28.1451 38.256 27.6445 38.4743 27.1493 38.6571C26.6568 38.8385 26.1616 38.9899 25.6787 39.1045C25.1971 39.2191 24.7115 39.3023 24.2381 39.3501C23.8998 39.3841 23.5615 39.4019 23.2313 39.4019C23.0976 39.4019 22.9639 39.3991 22.8302 39.3924C22.3719 39.3731 21.9162 39.3202 21.4743 39.2342C21.256 39.1919 21.035 39.14 20.8194 39.08C20.6107 39.0241 20.3966 38.9572 20.1824 38.8795C19.7717 38.7323 19.3639 38.5509 18.9737 38.3394C18.5917 38.1321 18.2152 37.8934 17.8578 37.6287C17.5686 37.4145 17.2848 37.1785 17.0161 36.9289C16.6928 36.6288 16.3777 36.2945 16.0789 35.9399C15.7842 35.5893 15.5019 35.21 15.2399 34.813C14.9767 34.4174 14.7284 33.9945 14.4992 33.558C14.2713 33.1214 14.0545 32.6576 13.858 32.1802C13.6629 31.7068 13.4815 31.2048 13.3164 30.685C13.1541 30.1748 13.0054 29.6346 12.8744 29.078C12.7448 28.5228 12.6316 27.9471 12.5375 27.366C12.4529 26.8517 12.382 26.3183 12.326 25.7767C12.3095 25.613 12.0737 25.5912 12.0259 25.7509C11.8213 26.4576 11.6358 27.1424 11.472 27.7972C11.2661 28.6184 11.0764 29.366 10.9045 30.0372C10.7368 30.6947 10.6181 31.224 10.5499 31.6101C10.4134 32.2949 9.95917 32.7273 9.2307 32.8678C8.60454 32.9906 7.932 32.9388 7.239 32.7178C6.55418 32.4982 5.93211 32.1176 5.3878 31.5842C4.81757 31.0249 4.52837 30.3223 4.52837 29.4943C4.52837 28.8204 4.70027 27.7549 5.05222 26.2393C5.39597 24.7592 5.89119 23.0048 6.52689 21.0227C7.15715 19.0569 7.92245 16.8892 8.79962 14.5838C9.55265 12.603 10.3984 10.6085 11.3152 8.64138C11.6153 7.99749 12.236 7.55414 12.9522 7.47229C14.5715 7.28677 15.9766 7.33313 17.1675 7.60871C17.8851 7.77515 18.2698 8.54317 17.9696 9.2048C17.2016 10.8937 16.4936 12.5784 15.8606 14.2182C15.349 15.5455 14.858 16.8592 14.3941 18.1375C14.3493 18.2643 14.4801 18.3817 14.6028 18.3257C15.2208 18.046 15.8306 17.7159 16.4268 17.3394C17.4035 16.7214 18.293 15.9834 19.0719 15.1472C19.8468 14.3109 20.4825 13.3683 20.9613 12.3438C21.4333 11.3288 21.6734 10.2266 21.6734 9.06428C21.6734 7.5705 21.2532 6.46688 20.4252 5.78615C19.5862 5.09724 18.4048 4.74664 16.9124 4.74664C15.3231 4.74664 13.8703 5.11772 12.5948 5.85027C11.2852 6.60057 10.1529 7.52275 9.22933 8.59227C8.29896 9.66997 7.56503 10.8213 7.05073 12.015C6.54055 13.1977 6.28134 14.2345 6.28134 15.098C6.28134 15.716 5.94986 16.1621 5.34824 16.3545C4.8203 16.5236 4.2378 16.4991 3.64028 16.2794C3.06596 16.0693 2.53393 15.6533 2.05783 15.0449C1.579 14.4337 1.33618 13.6056 1.33618 12.5839C1.33618 11.6917 1.67993 10.6413 2.3866 9.37259C3.07415 8.13528 4.09183 6.93071 5.40826 5.79162C6.72333 4.65525 8.38218 3.66895 10.3439 2.86136C12.3165 2.0483 14.596 1.63632 17.1184 1.63632L17.1184 1.63591ZM95.3774 0.691895C97.5778 0.691895 99.3608 2.45169 99.3608 4.62074C99.3608 6.78979 97.5778 8.54958 95.3774 8.54958C93.177 8.54958 91.394 6.78979 91.394 4.62074C91.394 2.45169 93.177 0.691895 95.3774 0.691895V0.691895Z" fill="#FF441F"/>
</svg>
