<?xml version="1.0" standalone="no"?>
<!DOCTYPE svg PUBLIC "-//W3C//DTD SVG 20010904//EN"
 "http://www.w3.org/TR/2001/REC-SVG-20010904/DTD/svg10.dtd">
<svg version="1.0" xmlns="http://www.w3.org/2000/svg"
 width="700.000000pt" height="700.000000pt" viewBox="0 0 700.000000 700.000000"
 preserveAspectRatio="xMidYMid meet">
<metadata>
Created by potrace 1.14, written by Peter Selinger 2001-2017
</metadata>
<g transform="translate(0.000000,700.000000) scale(0.100000,-0.100000)"
fill="#000000" stroke="none">
<path d="M2950 5427 l0 -103 -412 0 c-400 -1 -414 -2 -454 -22 -149 -76 -153
-283 -7 -369 l47 -27 411 -1 410 0 3 -598 2 -597 -237 0 c-863 -1 -815 1 -870
-25 -72 -33 -123 -110 -123 -185 0 -84 69 -178 147 -199 24 -7 223 -11 561
-11 l522 0 0 210 0 209 153 0 c164 0 186 3 250 28 75 29 126 72 326 272 266
267 393 368 576 459 148 74 275 112 420 127 354 36 774 -84 1071 -305 279
-210 484 -531 489 -769 4 -217 -109 -459 -312 -667 -187 -192 -430 -326 -723
-400 -165 -42 -262 -53 -440 -49 -147 2 -178 6 -282 34 -65 17 -125 35 -135
40 -10 6 -48 24 -84 40 -170 78 -315 196 -593 484 -269 278 -298 293 -576 292
l-135 0 -3 -911 -2 -911 1097 2 c604 1 1121 5 1148 9 357 52 617 146 888 324
476 311 813 837 893 1392 27 191 26 476 -2 612 -3 15 -7 40 -9 57 -10 79 -81
319 -122 411 -95 216 -180 354 -316 518 -274 330 -640 562 -1052 667 -246 63
-254 63 -1442 64 l-1083 1 0 -103z"/>
<path d="M170 5318 c-106 -18 -176 -110 -167 -216 7 -75 48 -139 111 -171 49
-25 51 -25 309 -26 318 -1 344 6 410 104 52 75 36 192 -35 258 -54 51 -86 56
-345 57 -133 1 -260 -2 -283 -6z"/>
<path d="M1324 5319 c-202 -42 -225 -317 -34 -397 65 -27 201 -23 264 8 153
73 151 304 -2 372 -46 21 -168 30 -228 17z"/>
<path d="M949 4499 c-172 -25 -240 -242 -113 -361 66 -61 50 -60 710 -60 419
0 614 4 643 12 61 16 126 85 140 148 23 110 -25 206 -124 248 -36 15 -97 17
-626 18 -322 1 -606 -2 -630 -5z"/>
<path d="M1198 2843 c-156 -46 -200 -251 -75 -360 19 -17 50 -36 69 -42 22 -7
186 -10 493 -8 l460 2 40 23 c79 46 122 139 103 226 -13 61 -44 105 -99 138
l-45 29 -453 2 c-319 1 -465 -1 -493 -10z"/>
</g>
</svg>
