<svg width="700" height="415" viewBox="0 0 700 415" fill="none" xmlns="http://www.w3.org/2000/svg">
<g clip-path="url(#clip0_2_1989)">
<g clip-path="url(#clip1_2_1989)">
<path d="M639.05 279.33H534.9V199H639.05V279.33Z" fill="#F5F5F5"/>
<path d="M612.95 278.76C612.81 278.76 612.69 260.85 612.69 238.77C612.69 216.69 612.81 198.78 612.95 198.78C613.09 198.78 613.21 216.68 613.21 238.77C613.21 260.86 613.09 278.76 612.95 278.76Z" fill="#EBEBEB"/>
<path d="M630.21 270.08H622.23V261.05H630.21V270.08Z" fill="#FAFAFA"/>
<path d="M566.67 199.2H578.5V216.34H566.67V199.2Z" fill="#EBEBEB"/>
<path d="M566.67 261.95H578.5V279.09H566.67V261.95Z" fill="#EBEBEB"/>
<path d="M495.2 280.46H667.14V413.07H495.2V280.46Z" fill="#EBEBEB"/>
<path d="M538.28 412.14C538.47 412.14 538.62 382.58 538.62 346.13C538.62 309.68 538.47 280.11 538.28 280.11C538.09 280.11 537.94 309.66 537.94 346.13C537.94 382.6 538.09 412.14 538.28 412.14Z" fill="#E0E0E0"/>
<path d="M509.79 382.89H522.97V397.79H509.79V382.89Z" fill="#FAFAFA"/>
<path d="M595.16 280.8H614.69V309.1H595.16V280.8Z" fill="#E0E0E0"/>
<path d="M595.16 384.38H614.69V412.68H595.16V384.38Z" fill="#E0E0E0"/>
<path d="M308.4 63.92C308.4 63.92 316.16 59.62 323.77 77.98C331.38 96.34 333.99 106.78 333.99 106.78C333.99 106.78 336.08 110.66 338.81 108.45C341.54 106.23 345.56 99.65 349.78 101.22C354.16 102.85 355.24 107.97 353.81 115.24C352.38 122.52 349.83 138.57 349.6 140.03C349.38 141.46 350.03 143.63 352.14 142.42C354.24 141.21 366.72 129.33 372 135.59C377.28 141.85 369.96 161.46 369.2 163.62C368.44 165.78 368.8 166.76 369.8 167.38C370.8 168.01 374.62 163.62 378.31 160.39C382 157.16 386.84 154.06 389.58 157.92C392.32 161.79 392.11 176.92 375.86 200.25L367.62 210.57L354.48 208.8C326.58 203.3 315.92 192.56 315.21 187.87C314.5 183.18 320.14 182.05 325.03 181.82C329.93 181.59 335.72 182.09 336.01 180.94C336.3 179.79 335.88 178.84 333.83 177.81C331.78 176.78 312.9 167.75 312.35 159.58C311.8 151.41 329.03 151.29 331.38 150.7C333.73 150.11 332.69 148.09 331.54 147.22C330.37 146.33 317.38 136.55 311.3 132.31C305.22 128.07 302.44 123.64 304.46 119.42C306.4 115.36 313.87 117.3 317.37 117C320.87 116.7 319.68 112.46 319.68 112.46C319.68 112.46 314.3 103.13 307.03 84.64C299.76 66.15 308.55 63.84 308.55 63.84" fill="#EBEBEB"/>
<path d="M367.17 207.84C361.78 194.28 354.17 175.61 345.7 155.01C337.23 134.42 329.58 115.77 324.11 102.24C321.39 95.4898 319.18 90.0198 317.65 86.2098C316.89 84.3298 316.3 82.8698 315.89 81.8498C315.69 81.3698 315.53 80.9898 315.42 80.7198C315.31 80.4698 315.25 80.3398 315.25 80.3398C315.25 80.3398 315.29 80.4798 315.38 80.7398C315.48 81.0198 315.62 81.3998 315.81 81.8898C316.2 82.9098 316.77 84.3898 317.49 86.2798C318.96 90.0898 321.12 95.5798 323.82 102.36C329.21 115.92 336.82 134.59 345.29 155.18C353.76 175.78 361.42 194.43 366.88 207.96" fill="#E0E0E0"/>
<path d="M344.52 110.66C344.52 110.66 344.35 110.96 344.11 111.52C343.87 112.09 343.55 112.91 343.17 113.94C342.41 116 341.42 118.86 340.4 122.05C339.41 125.19 338.51 128.02 337.82 130.21C337.51 131.18 337.24 132 337.03 132.68C336.84 133.26 336.75 133.59 336.78 133.6C336.81 133.61 336.96 133.3 337.2 132.74C337.44 132.17 337.76 131.34 338.13 130.31C338.88 128.25 339.82 125.37 340.84 122.18C341.85 119.05 342.77 116.23 343.48 114.04C343.8 113.07 344.07 112.25 344.29 111.57C344.48 110.99 344.56 110.66 344.53 110.65L344.52 110.66Z" fill="#E0E0E0"/>
<path d="M335.54 133.75C335.58 133.63 329.76 131.34 322.54 128.64C315.31 125.93 309.42 123.84 309.38 123.95C309.34 124.07 315.16 126.36 322.38 129.06C329.6 131.77 335.5 133.86 335.54 133.75Z" fill="#E0E0E0"/>
<path d="M349.98 164.79C349.98 164.79 349.64 164.71 349.01 164.66C348.29 164.6 347.41 164.54 346.37 164.46C344.14 164.29 341.06 164.03 337.68 163.64C334.29 163.25 331.24 162.79 329.03 162.44C328 162.28 327.13 162.14 326.41 162.03C325.79 161.94 325.45 161.9 325.44 161.93C325.44 161.96 325.77 162.06 326.38 162.2C326.99 162.34 327.88 162.54 328.98 162.75C331.18 163.18 334.24 163.69 337.63 164.08C341.03 164.48 344.12 164.68 346.36 164.77C347.48 164.81 348.39 164.84 349.01 164.83C349.64 164.83 349.98 164.81 349.98 164.78V164.79Z" fill="#E0E0E0"/>
<path d="M362.7 145.69C362.7 145.69 362.47 145.92 362.12 146.38C361.77 146.84 361.28 147.52 360.68 148.36C359.48 150.04 357.84 152.39 356.06 154.99C354.28 157.59 352.68 159.97 351.55 161.7C350.98 162.56 350.53 163.27 350.23 163.76C349.93 164.25 349.77 164.53 349.8 164.55C349.83 164.57 350.03 164.32 350.38 163.86C350.73 163.4 351.22 162.72 351.82 161.88C353.02 160.2 354.66 157.85 356.44 155.25C358.22 152.65 359.82 150.28 360.95 148.55C361.52 147.69 361.97 146.98 362.27 146.49C362.57 146 362.73 145.72 362.7 145.7V145.69Z" fill="#E0E0E0"/>
<path d="M378.92 171.47C378.92 171.47 378.64 171.77 378.19 172.36C377.7 173.03 377.08 173.88 376.33 174.89C374.78 177.04 372.66 180.03 370.34 183.34C368.02 186.66 365.95 189.67 364.46 191.87C363.76 192.92 363.18 193.79 362.72 194.48C362.32 195.1 362.11 195.46 362.13 195.47C362.16 195.49 362.41 195.17 362.86 194.58C363.35 193.91 363.97 193.06 364.72 192.05C366.27 189.9 368.39 186.91 370.71 183.6C373.03 180.29 375.1 177.27 376.59 175.07C377.29 174.02 377.87 173.15 378.33 172.46C378.73 171.84 378.94 171.48 378.92 171.47Z" fill="#E0E0E0"/>
<path d="M362.38 194.8C362.38 194.8 361.95 194.7 361.16 194.61C360.29 194.51 359.16 194.38 357.82 194.23C355 193.91 351.11 193.45 346.82 192.83C342.53 192.21 338.67 191.56 335.88 191.06C334.55 190.83 333.44 190.63 332.57 190.48C331.79 190.35 331.35 190.29 331.34 190.32C331.34 190.35 331.76 190.47 332.53 190.65C333.3 190.84 334.42 191.09 335.82 191.37C338.6 191.94 342.47 192.65 346.76 193.27C351.05 193.89 354.96 194.3 357.79 194.54C359.21 194.66 360.35 194.74 361.15 194.78C361.94 194.82 362.38 194.83 362.39 194.8H362.38Z" fill="#E0E0E0"/>
<path d="M183.23 76.6998V118.02C183.23 118.91 182.51 119.63 181.62 119.63H94.98C94.08 119.63 93.36 118.9 93.37 118L93.57 102.87C93.57 102.53 93.69 102.2 93.89 101.93L106.32 85.3198C106.62 84.9198 107.09 84.6798 107.6 84.6698L121.92 84.5598C122.8 84.5598 123.52 83.8298 123.52 82.9498V76.6998C123.52 75.8098 124.24 75.0898 125.13 75.0898H181.63C182.52 75.0898 183.24 75.8098 183.24 76.6998H183.23Z" fill="#F5F5F5"/>
<path d="M119.48 88.1597V101.42C119.48 101.94 119.06 102.35 118.54 102.34L99.41 102C98.68 101.99 98.25 101.17 98.66 100.56L107.6 87.3697C107.78 87.1097 108.07 86.9597 108.39 86.9697L118.57 87.2397C119.07 87.2497 119.47 87.6597 119.47 88.1597H119.48Z" fill="#EBEBEB"/>
<path d="M91.65 120.89H184.98V123.77H91.65V120.89Z" fill="#F5F5F5"/>
<path d="M156.815 128.514C153.211 124.909 153.211 119.065 156.815 115.461C160.42 111.856 166.264 111.856 169.868 115.461C173.473 119.065 173.473 124.909 169.868 128.514C166.264 132.118 160.42 132.118 156.815 128.514Z" fill="#EBEBEB"/>
<path d="M157.91 121.99C157.91 124.99 160.34 127.42 163.34 127.42C166.34 127.42 168.77 124.99 168.77 121.99C168.77 118.99 166.34 116.56 163.34 116.56C160.34 116.56 157.91 118.99 157.91 121.99V121.99Z" fill="#FAFAFA"/>
<path d="M123.58 119.63C123.81 119.63 124 109.66 124 97.3598C124 85.0598 123.81 75.0898 123.58 75.0898C123.35 75.0898 123.16 85.0598 123.16 97.3598C123.16 109.66 123.35 119.63 123.58 119.63Z" fill="#EBEBEB"/>
<path d="M106.518 128.516C102.913 124.912 102.913 119.068 106.518 115.463C110.122 111.859 115.966 111.859 119.571 115.463C123.175 119.068 123.175 124.912 119.571 128.516C115.966 132.121 110.122 132.121 106.518 128.516Z" fill="#EBEBEB"/>
<path d="M107.6 121.99C107.6 124.99 110.03 127.42 113.03 127.42C116.03 127.42 118.46 124.99 118.46 121.99C118.46 118.99 116.03 116.56 113.03 116.56C110.03 116.56 107.6 118.99 107.6 121.99V121.99Z" fill="#FAFAFA"/>
<path d="M113.01 104.96C113.01 105.19 114.33 105.38 115.96 105.38C117.59 105.38 118.91 105.19 118.91 104.96C118.91 104.73 117.59 104.54 115.96 104.54C114.33 104.54 113.01 104.73 113.01 104.96Z" fill="#EBEBEB"/>
<path d="M6.10352e-05 413.07C6.10352e-05 413.21 156.73 413.33 350.02 413.33C543.31 413.33 700.07 413.21 700.07 413.07C700.07 412.93 543.37 412.81 350.02 412.81C156.67 412.81 6.10352e-05 412.93 6.10352e-05 413.07Z" fill="#263238"/>
<path d="M560.27 408.67C546.8 399.33 543.69 381.91 544.16 366.24C544.24 363.62 543.94 360.87 545.18 358.57C546.42 356.27 549.31 354.69 551.66 355.79C553.61 356.7 554.46 358.95 555.55 360.82C557 363.3 559.17 365.35 561.7 366.66C563.37 367.52 565.43 368.04 567.07 367.13C569.32 365.88 569.58 362.76 569.55 360.16C569.5 355.31 569.46 350.46 569.41 345.62C569.38 343.02 569.37 340.36 570.17 337.89C570.97 335.42 572.75 333.12 575.22 332.42C577.69 331.72 580.76 333.13 581.29 335.68C581.51 336.74 581.29 337.84 581.38 338.92C581.46 340 581.96 341.19 582.99 341.49C584.03 341.79 585.07 341.05 585.84 340.29C588.52 337.65 590.33 334.26 592.02 330.89C593.71 327.52 595.35 324.07 597.78 321.2C600.21 318.33 603.57 316.04 607.29 315.82C611.02 315.6 614.99 317.88 615.95 321.54C616.91 325.2 614.78 328.93 612.46 331.91C609.02 336.33 604.95 340.24 600.41 343.48C599.59 344.06 598.71 344.7 598.4 345.66C597.84 347.4 599.49 349.11 601.2 349.68C603.14 350.32 605.24 350.11 607.27 350.34C609.3 350.57 611.5 351.46 612.27 353.37C613.34 356.03 611.13 358.82 608.95 360.65C604.58 364.32 599.59 367.23 594.26 369.2C592.35 369.91 590.34 370.53 588.8 371.88C587.26 373.23 586.34 375.57 587.28 377.4C588.22 379.23 590.61 379.81 592.62 379.43C594.62 379.05 596.41 377.96 598.32 377.23C601.89 375.87 606.51 376.1 608.81 379.18C610.32 381.21 610.46 384.03 609.71 386.46C608.96 388.88 607.42 390.97 605.79 392.9C600.08 399.64 592.77 405.08 584.48 407.98C576.2 410.88 568.52 411.69 560.26 408.7" fill="#FF4C34"/>
<path d="M561.16 413.08C561.71 406.87 561.99 406.74 564.28 398.83C566.56 390.91 569.78 382.45 573.44 373.7C574.37 371.52 575.28 369.36 576.18 367.24C577.08 365.12 577.98 363.02 578.99 361.02C580.98 357.01 583.2 353.3 585.42 349.85C587.64 346.4 589.87 343.2 591.97 340.23C594.08 337.26 596.11 334.53 598.06 332.12C601.95 327.28 605.53 323.76 608.1 321.44C609.38 320.28 610.4 319.41 611.1 318.82C611.44 318.54 611.7 318.33 611.9 318.16C612.08 318.01 612.18 317.94 612.18 317.95C612.18 317.95 612.1 318.04 611.93 318.2C611.74 318.37 611.48 318.6 611.16 318.89C610.48 319.49 609.48 320.39 608.22 321.57C605.7 323.93 602.16 327.48 598.32 332.33C596.39 334.75 594.39 337.48 592.3 340.46C590.21 343.44 587.99 346.64 585.79 350.09C583.59 353.54 581.39 357.24 579.41 361.23C578.41 363.22 577.53 365.31 576.62 367.43C575.72 369.55 574.81 371.71 573.88 373.89C570.21 382.63 566.99 391.07 564.7 398.95C562.39 406.83 562.08 406.92 561.5 413.1" fill="#263238"/>
<path d="M579.13 361C579.13 361 579.01 360.61 578.87 359.89C578.73 359.17 578.56 358.13 578.38 356.83C578 354.24 577.6 350.65 577.18 346.69C576.76 342.72 576.31 339.15 575.89 336.57C575.69 335.28 575.51 334.24 575.38 333.52C575.25 332.8 575.2 332.4 575.23 332.39C575.26 332.39 575.38 332.77 575.56 333.48C575.75 334.19 575.97 335.22 576.22 336.51C576.72 339.08 577.23 342.67 577.65 346.63C578.06 350.54 578.43 354.08 578.71 356.78C578.85 358 578.96 359.03 579.05 359.85C579.13 360.58 579.16 360.98 579.12 360.99L579.13 361Z" fill="#263238"/>
<path d="M612.55 354.63C612.55 354.63 612.08 354.72 611.22 354.79C610.36 354.87 609.12 354.98 607.59 355.16C604.53 355.5 600.31 356.12 595.7 357.01C591.08 357.91 586.94 358.89 583.96 359.7C582.47 360.09 581.27 360.44 580.44 360.67C579.61 360.91 579.15 361.03 579.14 360.99C579.13 360.96 579.57 360.78 580.39 360.49C581.2 360.2 582.39 359.8 583.88 359.37C586.84 358.48 590.99 357.44 595.62 356.54C600.25 355.65 604.49 355.08 607.57 354.83C609.11 354.69 610.36 354.63 611.22 354.61C612.08 354.59 612.56 354.6 612.56 354.63H612.55Z" fill="#263238"/>
<path d="M564.69 398.22C564.69 398.22 564.6 398.09 564.46 397.81C564.3 397.48 564.11 397.08 563.88 396.6C563.38 395.55 562.71 394.01 561.89 392.1C560.26 388.27 558.18 382.92 555.97 376.98C553.75 371.04 551.72 365.67 550.18 361.82C549.42 359.95 548.8 358.41 548.34 357.26C548.14 356.76 547.98 356.35 547.85 356.02C547.74 355.73 547.69 355.58 547.71 355.57C547.73 355.57 547.8 355.7 547.94 355.98C548.1 356.31 548.29 356.7 548.52 357.19C549.02 358.24 549.69 359.78 550.51 361.69C552.14 365.52 554.22 370.87 556.44 376.81C558.66 382.75 560.69 388.12 562.23 391.97C562.99 393.84 563.61 395.38 564.07 396.53C564.27 397.03 564.43 397.44 564.56 397.77C564.67 398.06 564.72 398.21 564.7 398.22H564.69Z" fill="#263238"/>
<path d="M609.08 383.74C609.08 383.74 608.93 383.82 608.64 383.92C608.29 384.04 607.87 384.18 607.35 384.36C606.16 384.75 604.55 385.28 602.6 385.92C598.59 387.24 593.06 389.12 586.96 391.21C580.86 393.3 575.31 395.13 571.27 396.37C569.25 396.99 567.61 397.47 566.47 397.78C565.94 397.92 565.51 398.04 565.16 398.13C564.86 398.2 564.7 398.24 564.69 398.22C564.69 398.2 564.84 398.14 565.13 398.04C565.48 397.92 565.9 397.78 566.42 397.6C567.61 397.21 569.22 396.68 571.17 396.04C575.18 394.72 580.71 392.84 586.81 390.75C592.91 388.66 598.45 386.83 602.5 385.59C604.52 384.97 606.16 384.49 607.3 384.18C607.83 384.04 608.26 383.92 608.62 383.83C608.92 383.75 609.08 383.72 609.09 383.74H609.08Z" fill="#263238"/>
<path d="M397.89 413.07H537.06C553.88 412.99 568.09 398.65 568.02 381.84L566.54 31.3299C566.47 14.4999 552.77 0.919863 535.94 0.999863L396.13 1.64986C379.31 1.72986 365.74 15.4199 365.82 32.2299L367.3 382.74C367.37 399.56 381.07 413.14 397.9 413.07H397.89Z" fill="#263238"/>
<path d="M396.33 14.9696L423.44 14.8496C427.07 14.8296 430.04 17.8996 430.05 21.6996L430.07 26.6196C430.08 30.4196 433.05 33.4896 436.68 33.4696L489.52 33.2296C493.15 33.2096 496.09 30.1196 496.07 26.3196L496.05 21.3996C496.03 17.5996 498.97 14.4996 502.6 14.4896L512.13 14.4496L535.86 14.3396C547.64 14.2896 557.24 23.7996 557.29 35.5796L558.74 377.71C558.79 389.49 549.29 399.08 537.51 399.13L397.98 399.77C386.2 399.82 376.6 390.31 376.55 378.53L375.1 36.3996C375.05 24.6196 384.55 15.0396 396.33 14.9796V14.9696Z" fill="#F5F5F5"/>
<path d="M455.55 335.1C455.71 339.23 455.86 343.11 455.99 346.33H435.95L438.4 334.02L455.55 335.11V335.1Z" fill="#F5F5F5"/>
<path d="M537 340.25L536.83 346.32H457.98C457.85 342.91 457.7 339.12 457.55 335.22L537 340.25V340.25Z" fill="#F5F5F5"/>
<path d="M437.39 333.95L434.92 346.33H397.97L398.41 331.49L437.39 333.95Z" fill="#F5F5F5"/>
<path d="M453.54 160.96L446.56 120.45L464.86 119.09V160.96H453.54Z" fill="#F5F5F5"/>
<path d="M538.65 317.76L558.51 325.54L558.57 339.61L538.06 338.31L538.65 317.76Z" fill="#F5F5F5"/>
<path d="M538.74 314.6L539.83 276.87H539.84V263.56L558.26 265.51L558.5 322.32L538.75 314.58L538.74 314.6Z" fill="#F5F5F5"/>
<path d="M539.84 233.86L558.12 231.45L558.25 262.5L539.84 260.55V233.86Z" fill="#F5F5F5"/>
<path d="M403.66 264.12L404.43 274.94L426.01 277.26L424.34 285.82L399.84 283.97L400.21 271.7L398.25 263.58L403.66 264.12Z" fill="#F5F5F5"/>
<path d="M442.55 287.19L425.34 285.9L429.09 266.69L444.11 268.21L442.55 287.19Z" fill="#F5F5F5"/>
<path d="M442.39 289.19L441.07 305.2L438.74 327.16L437.78 331.97L398.47 329.49L399.78 285.97L442.39 289.19Z" fill="#F5F5F5"/>
<path d="M510.04 213.58L508.53 216.17L538.84 233.85V275.79L506.85 273.53L445.19 267.31L447.45 239.82L506.36 232.12L505.97 229.15L447.7 236.76L451.52 190.23L509.19 195.78L509.38 193.79L451.68 188.24L453.67 163.96H509.15L557.87 172.83L558.11 228.43L539.66 230.86L510.04 213.59V213.58ZM535.74 271.79C535.74 271.79 535.51 237.21 535.74 235.91L511 222.75L507.79 270.02L535.73 271.79H535.74Z" fill="#F5F5F5"/>
<path d="M405.68 264.33L428.09 266.59L426.39 275.29L406.3 273.13L405.68 264.33Z" fill="#F5F5F5"/>
<path d="M455.26 327.69C455.33 329.51 455.4 331.31 455.47 333.09L438.79 332.03L439.65 327.73L455.27 327.69H455.26Z" fill="#F5F5F5"/>
<path d="M491.19 160.96L488.25 147.64H465.86V119.02L535.88 113.83V140.7L557.75 145.65L557.86 169.77L509.42 160.96H491.19Z" fill="#F5F5F5"/>
<path d="M444.47 81.3296L445.07 78.8796L418.33 68.2996L435.72 33.3896C436.03 33.4396 436.35 33.4696 436.68 33.4696L466.23 33.3296L465.43 82.1896L444.47 81.3296V81.3296Z" fill="#F5F5F5"/>
<path d="M403.94 62.5999L403.97 14.9299L423.43 14.8399C427.06 14.8199 430.03 17.8899 430.04 21.6899L430.06 26.6099C430.06 28.9599 431.2 31.0199 432.92 32.2499L415.52 67.1899L403.94 62.6099V62.5999Z" fill="#F5F5F5"/>
<path d="M504.46 64.6496L506.71 14.4596L512.13 14.4296L533.28 14.3296L542.29 59.2196L504.46 64.6496ZM509.28 19.5396L508.56 60.4196L536.67 56.3096L530.51 19.5496H509.28V19.5396Z" fill="#F5F5F5"/>
<path d="M503.44 64.7997V65.2298C503.39 69.1498 503.31 76.1997 503.25 83.7397L466.42 82.2397L467.22 33.3297L489.51 33.2297C493.14 33.2097 496.08 30.1197 496.06 26.3197L496.04 21.3997C496.02 17.5997 498.96 14.5097 502.59 14.4897H505.71L503.45 64.8097H503.44V64.7997Z" fill="#F5F5F5"/>
<path d="M545.27 58.7898L536.35 14.3398C547.91 14.5498 557.24 23.9398 557.29 35.5598L557.38 57.7198L557.29 57.0698L545.27 58.7998V58.7898Z" fill="#F5F5F5"/>
<path d="M538.88 113.61L557.61 112.22L557.74 142.57L538.88 138.3V113.61Z" fill="#F5F5F5"/>
<path d="M545.47 59.7696L557.38 58.0596L557.59 107.21L555.03 107.4L545.47 59.7696Z" fill="#F5F5F5"/>
<path d="M507.63 314.03L507.32 274.57L538.83 276.8L537.72 315.45L507.63 314.03Z" fill="#F5F5F5"/>
<path d="M501.84 304.92L457.21 326.3C456.68 312.33 456.2 299.27 456.25 298.43L455.28 298.38L454.81 297.44C454.39 297.653 454.29 300.933 454.51 307.28C454.7 312.59 454.96 319.66 455.23 326.74H439.8L442.08 305.3L445.12 268.31L503.43 274.19L501.85 304.92H501.84Z" fill="#F5F5F5"/>
<path d="M392.45 239.44L392.95 234.23L446.44 239.8L444.19 267.21L398.01 262.55L392.45 239.44Z" fill="#F5F5F5"/>
<path d="M465.86 150.64H485.84L488.12 160.96H465.86V150.64Z" fill="#F5F5F5"/>
<path d="M400.71 154.12L450.76 150.66L452.8 162.48L450.69 188.14L397.91 183.06L400.71 154.11V154.12ZM448.91 162.46L446.22 155L402.75 157.75L400.23 179.1L447.43 184.7L448.9 162.47L448.91 162.46Z" fill="#F5F5F5"/>
<path d="M395.52 207.75L397.71 185.06L450.52 190.13L448.54 214.29L395.52 207.75Z" fill="#F5F5F5"/>
<path d="M538 340.32L558.49 341.61L558.58 340.28L558.6 346.33H537.83L538 340.32Z" fill="#F5F5F5"/>
<path d="M375.46 51.3297L375.16 52.0897L375.09 36.3797C375.04 24.5997 384.54 15.0197 396.32 14.9597L402.97 14.9297L402.94 62.1997L375.46 51.3297Z" fill="#F5F5F5"/>
<path d="M457.25 327.39L502.8 305.57L504.41 274.3L506.32 274.49L506.64 314.98L537.69 316.45L537.66 317.35V317.37L537.06 338.25L457.47 333.22C457.4 331.28 457.32 329.33 457.25 327.39V327.39ZM535.74 319.03L492.28 315.98L464.01 329.1L535.74 332.98V319.03Z" fill="#F5F5F5"/>
<path d="M388.41 103.84L386.55 92.7895C402.89 86.9595 404.02 69.9295 403.97 64.7695L414.63 68.9895L398.57 101.22L388.41 103.85V103.84Z" fill="#F5F5F5"/>
<path d="M446.69 236.81L424.48 234.5L428.86 214.88L448.29 217.28L446.69 236.81Z" fill="#F5F5F5"/>
<path d="M400.63 120.78H442.11L445.55 120.52L450.24 147.69L401 151.09L402.14 139.28L397.3 121.84L400.63 120.78Z" fill="#F5F5F5"/>
<path d="M401.64 115.78L401.12 102.81L417.42 70.0796L442.7 80.0796L434.01 115.77H401.64V115.78ZM418.41 74.0696L403.47 102.49L405.63 111.35L431.19 110.39L437.58 83.5096L418.41 74.0796V74.0696Z" fill="#F5F5F5"/>
<path d="M395.19 272.22L394.43 297.69L376.45 296.68L376.4 297.68L394.4 298.69L393.48 329.17L376.49 328.09L376.36 330.09L393.42 331.17L392.97 346.33H376.41L376.05 261.34L392.98 263.05L395.19 272.22Z" fill="#F5F5F5"/>
<path d="M504.43 65.6597L542.49 60.1997L552.01 107.62L504.27 111.16C504.08 103.86 504.25 81.4597 504.44 65.6697L504.43 65.6597Z" fill="#F5F5F5"/>
<path d="M441.83 115.78H436.08L444.23 82.3198L465.41 83.1898L464.9 114.08L441.83 115.78Z" fill="#F5F5F5"/>
<path d="M558.7 370.67L558.73 377.69C558.73 377.91 558.71 378.12 558.7 378.33V370.67V370.67Z" fill="#F5F5F5"/>
<path d="M503.29 111.23L465.9 114L466.41 83.23L503.25 84.74C503.17 95.15 503.14 106.25 503.3 111.24L503.29 111.23Z" fill="#F5F5F5"/>
<path d="M395.23 210.74L427.86 214.76L423.48 234.39L393.24 231.25L395.23 210.74Z" fill="#F5F5F5"/>
<path d="M386.38 91.7796L384.29 79.3796L375.28 80.0796L375.17 53.3696L402.96 64.3696C403.53 83.1696 391.72 89.7796 386.38 91.7896V91.7796Z" fill="#F5F5F5"/>
<path d="M397.08 139.73L395.94 151.44L375.59 152.85L375.49 128.72L392.53 123.34L397.08 139.73Z" fill="#F5F5F5"/>
<path d="M387.39 239.79L392.74 262.02L376.05 260.34L375.95 237.03C381.07 235.68 385.54 234.58 387.95 234.12L387.4 239.8L387.39 239.79Z" fill="#F5F5F5"/>
<path d="M398.66 116.16L375.46 123.49L375.41 110.3L398.19 104.41L398.66 116.16Z" fill="#F5F5F5"/>
<path d="M388.24 231.06C386.37 231.34 382.83 232.09 375.94 233.91L375.72 182.94L392.74 184.58L388.24 231.06V231.06Z" fill="#F5F5F5"/>
<path d="M392.93 182.59L375.71 180.93L375.6 155.86L395.65 154.47L392.93 182.59Z" fill="#F5F5F5"/>
<path d="M384.46 92.4195C381.2 93.4095 378.16 94.1795 375.35 94.7395L375.3 82.0895L382.63 81.5195L384.47 92.4195H384.46Z" fill="#F5F5F5"/>
<path d="M386.47 104.34L375.4 107.2L375.35 95.7599C378.21 95.1899 381.3 94.4099 384.63 93.3999L386.47 104.33V104.34Z" fill="#F5F5F5"/>
<path d="M538 340.32L537.83 346.33H536.83L537 340.26L457.55 335.23C457.7 339.13 457.85 342.92 457.98 346.33H455.98C455.85 343.11 455.7 339.23 455.54 335.1L438.39 334.01L435.94 346.32H434.92L437.39 333.94L398.42 331.47L397.97 346.31H392.97L393.43 331.15L376.37 330.07L376.5 328.07L393.49 329.14L394.4 298.66L376.4 297.65L376.46 296.65L394.43 297.66L395.19 272.19L392.98 263.01L376.04 261.3V260.29L392.73 261.97L387.38 239.74L387.93 234.06C385.53 234.52 381.06 235.62 375.93 236.97V233.85C382.81 232.04 386.35 231.29 388.22 231L392.72 184.52L375.7 182.88V180.87L392.91 182.53L395.63 154.41L375.58 155.8V152.79L395.92 151.38L397.05 139.66L392.5 123.28L375.46 128.66L375.44 123.42L398.63 116.1L398.16 104.35L375.38 110.24V107.15L386.44 104.29L384.6 93.3598C381.28 94.3698 378.19 95.1498 375.32 95.7198V94.6898C378.13 94.1298 381.17 93.3598 384.43 92.3698L382.59 81.4698L375.26 82.0398V80.0298L384.26 79.3298L386.35 91.7298C391.68 89.7198 403.49 83.1098 402.93 64.3098L375.14 53.3098V52.0398L375.44 51.2798L402.92 62.1498L402.95 14.8798H403.95L403.92 62.5498L415.5 67.1298L432.9 32.1898C433.72 32.7798 434.66 33.1698 435.69 33.3198L418.3 68.2298L445.04 78.8098L444.44 81.2598L465.4 82.1198L466.2 33.2598H467.2L466.4 82.1698L503.23 83.6698C503.29 76.1298 503.37 69.0798 503.42 65.1598V64.7298H503.44L505.7 14.3998H506.7L504.45 64.5898L542.28 59.1598L533.27 14.2698H535.85C536.01 14.2598 536.17 14.2698 536.34 14.2798L545.26 58.7298L557.28 56.9998L557.37 57.6498V57.9898L545.45 59.6998L555.01 107.32L557.58 107.13L557.6 112.14L538.87 113.53V138.23L557.73 142.5V145.58L535.87 140.63V113.76L465.85 118.95V147.57H488.24L491.18 160.89H509.41L557.84 169.7V172.75L509.13 163.88H453.65L451.66 188.16L509.36 193.71L509.17 195.7L451.5 190.15L447.68 236.68L505.95 229.07L506.34 232.04L447.43 239.74L445.17 267.23L506.83 273.45L538.82 275.71V233.77L508.51 216.09L510.02 213.5L539.64 230.77L558.09 228.34V231.36L539.83 233.77V260.46L558.23 262.41V265.43L539.83 263.48V276.79H539.82L538.73 314.52V314.5L558.49 322.24V325.47L538.64 317.69L538.05 338.24L558.56 339.54V340.21L558.48 341.54L537.99 340.24L538 340.32ZM455.46 333.1C455.39 331.32 455.32 329.51 455.25 327.7L439.63 327.74L438.77 332.04L455.45 333.1H455.46ZM437.77 331.98L438.73 327.17L441.06 305.21L442.37 289.2L399.76 285.99L398.45 329.5L437.76 331.99L437.77 331.98ZM428.08 266.6L405.67 264.34L406.3 273.14L426.39 275.31L428.09 266.61L428.08 266.6ZM429.08 266.7L425.33 285.9L442.54 287.2L444.1 268.21L429.08 266.69V266.7ZM399.83 283.98L424.33 285.83L426 277.27L404.42 274.94L403.65 264.13L398.25 263.58L400.2 271.71L399.83 283.98V283.98ZM428.85 214.89L424.47 234.5L446.68 236.81L448.28 217.28L428.84 214.88L428.85 214.89ZM423.47 234.4L427.85 214.77L395.22 210.75L393.23 231.26L423.47 234.41V234.4ZM400.99 151.1L450.23 147.69L445.54 120.53L442.1 120.79H400.62L397.29 121.85L402.14 139.3L401 151.11L400.99 151.1ZM403.95 64.7698C404 69.9298 402.87 86.9598 386.53 92.7898L388.39 103.84L398.55 101.21L414.61 68.9798L403.95 64.7598V64.7698ZM417.41 70.0998L401.11 102.83L401.63 115.8H434L442.69 80.1098L417.41 70.1098V70.0998ZM444.21 82.3298L436.06 115.79H441.82L464.88 114.08L465.39 83.1898L444.21 82.3198V82.3298ZM466.39 83.2398L465.88 114.01L503.27 111.24C503.11 106.25 503.15 95.1498 503.22 84.7398L466.38 83.2298L466.39 83.2398ZM542.48 60.2098L504.42 65.6698C504.23 81.4698 504.06 103.86 504.25 111.16L551.99 107.62L542.47 60.1998L542.48 60.2098ZM446.55 120.46L453.54 160.97H464.85V119.1L446.55 120.46ZM485.83 150.65H465.85V160.97H488.11L485.83 150.65ZM452.78 162.5L450.74 150.68L400.69 154.14L397.89 183.09L450.67 188.17L452.78 162.51V162.5ZM397.7 185.08L395.5 207.78L448.52 214.31L450.5 190.16L397.69 185.08H397.7ZM446.43 239.82L392.94 234.26L392.44 239.46L398 262.57L444.19 267.23L446.44 239.82H446.43ZM442.06 305.32L439.78 326.76H455.21C454.94 319.69 454.68 312.62 454.49 307.3C454.27 300.953 454.37 297.673 454.79 297.46L455.26 298.4L456.23 298.45C456.19 299.28 456.66 312.35 457.19 326.32L501.82 304.94L503.4 274.21L445.09 268.33L442.05 305.32H442.06ZM507.31 274.59L507.62 314.05L537.7 315.48L538.81 276.83L507.3 274.6L507.31 274.59ZM537.65 317.4V317.38L537.68 316.48L506.63 315.01L506.31 274.52L504.4 274.33L502.79 305.6L457.24 327.42C457.31 329.36 457.39 331.31 457.46 333.25L537.05 338.28L537.65 317.4V317.4Z" fill="white"/>
<path d="M492.28 315.98L535.74 319.03V332.98L464.01 329.09L492.28 315.98Z" fill="#EBEBEB"/>
<path d="M402.76 157.75L446.23 155L448.91 162.46L447.44 184.69L400.24 179.09L402.76 157.75Z" fill="#EBEBEB"/>
<path d="M537.5 399.11L397.97 399.75C386.19 399.8 376.59 390.29 376.54 378.51L376.4 346.32H558.6L558.7 370.66V378.32C558.41 389.8 549.06 399.05 537.5 399.1V399.11Z" fill="#EBEBEB"/>
<path d="M508.56 60.4195L509.29 19.5396H530.52L536.68 56.3096L508.56 60.4195Z" fill="#EBEBEB"/>
<path d="M405.63 111.35L403.47 102.49L418.41 74.0698L437.59 83.5098L431.19 110.39L405.63 111.35Z" fill="#EBEBEB"/>
<path d="M535.74 235.92C535.51 237.21 535.74 271.8 535.74 271.8L507.8 270.03L511.01 222.76L535.75 235.92H535.74Z" fill="#EBEBEB"/>
<path d="M442.55 264L444.02 242.57L396.1 236.41V240.11L401.89 259.82L442.55 264Z" fill="#EBEBEB"/>
<path d="M478 86.2697C478 89.4897 480.61 92.1097 483.84 92.1097C487.07 92.1097 489.68 89.4997 489.68 86.2697C489.68 83.0397 487.07 80.4297 483.84 80.4297C480.61 80.4297 478 83.0397 478 86.2697Z" fill="#FF4C34"/>
<g opacity="0.6">
<path d="M478 86.0197C477.86 89.2397 480.36 91.9597 483.58 92.0997C486.8 92.2397 489.52 89.7397 489.66 86.5197C489.8 83.2997 487.3 80.5797 484.08 80.4397C480.86 80.2997 478.14 82.7997 478 86.0197Z" fill="white"/>
</g>
<path d="M483.83 89.9494C481.687 89.9494 479.95 88.2123 479.95 86.0695C479.95 83.9266 481.687 82.1895 483.83 82.1895C485.973 82.1895 487.71 83.9266 487.71 86.0695C487.71 88.2123 485.973 89.9494 483.83 89.9494Z" fill="#FF4C34"/>
<path d="M393.61 319.42C393.61 320.8 394.73 321.91 396.1 321.91C397.47 321.91 398.59 320.79 398.59 319.42C398.59 318.05 397.47 316.93 396.1 316.93C394.73 316.93 393.61 318.05 393.61 319.42Z" fill="#FF4C34"/>
<path d="M397.6 318.61L398.2 304.63L440.33 306.68C441.43 306.74 442.53 306.5 443.51 306L503.26 275.82C504.64 275.12 505.55 273.73 505.63 272.18L513.76 114.44C513.8 113.68 513.51 112.95 512.97 112.42C512.43 111.89 511.68 111.62 510.93 111.67L485.32 113.57V85.5698H482.32V113.95C482.32 114.68 482.63 115.39 483.16 115.88C483.7 116.38 484.42 116.63 485.15 116.58L510.74 114.68L502.63 272.01C502.61 272.48 502.33 272.91 501.9 273.13L442.15 303.31C441.63 303.57 441.05 303.7 440.46 303.67L397.98 301.6C397.26 301.57 396.59 301.81 396.06 302.29C395.53 302.77 395.23 303.42 395.2 304.14L394.58 318.47L397.58 318.6L397.6 318.61Z" fill="#FF4C34"/>
<path d="M508.88 190.49C504.705 190.49 501.32 187.105 501.32 182.93C501.32 178.754 504.705 175.37 508.88 175.37C513.055 175.37 516.44 178.754 516.44 182.93C516.44 187.105 513.055 190.49 508.88 190.49Z" fill="#FF4C34"/>
<path d="M508.88 188.18C505.98 188.18 503.63 185.829 503.63 182.93C503.63 180.03 505.98 177.68 508.88 177.68C511.779 177.68 514.13 180.03 514.13 182.93C514.13 185.829 511.779 188.18 508.88 188.18Z" fill="#FAFAFA"/>
<path d="M508.88 188.56C511.98 188.56 514.51 186.04 514.51 182.93C514.51 179.82 511.99 177.3 508.88 177.3C505.77 177.3 503.25 179.82 503.25 182.93C503.25 186.04 505.77 188.56 508.88 188.56ZM508.88 178.06C511.57 178.06 513.76 180.25 513.76 182.94C513.76 185.63 511.57 187.82 508.88 187.82C506.19 187.82 504 185.63 504 182.94C504 180.25 506.19 178.06 508.88 178.06Z" fill="#FF4C34"/>
<path d="M464.34 151.22H500.34C502.09 151.22 503.51 152.64 503.51 154.39V167.43C503.51 169.18 502.09 170.6 500.34 170.6H499.92V173.71L496.32 170.6H464.34C462.59 170.6 461.17 169.18 461.17 167.43V154.39C461.17 152.64 462.59 151.22 464.34 151.22V151.22Z" fill="#FF4C34"/>
<g opacity="0.4">
<path d="M464.34 151.22H500.34C502.09 151.22 503.51 152.64 503.51 154.39V167.43C503.51 169.18 502.09 170.6 500.34 170.6H499.92V173.71L496.32 170.6H464.34C462.59 170.6 461.17 169.18 461.17 167.43V154.39C461.17 152.64 462.59 151.22 464.34 151.22V151.22Z" fill="white"/>
</g>
<path d="M467.77 160.7C467.77 159.51 468.69 158.62 469.94 158.62C471.19 158.62 472.1 159.5 472.1 160.7C472.1 161.9 471.18 162.78 469.94 162.78C468.7 162.78 467.77 161.89 467.77 160.7ZM471.51 160.7C471.51 159.8 470.84 159.14 469.93 159.14C469.02 159.14 468.34 159.8 468.34 160.7C468.34 161.6 469.01 162.26 469.93 162.26C470.85 162.26 471.51 161.6 471.51 160.7Z" fill="white"/>
<path d="M476.099 161.199C476.099 162.139 475.439 162.779 474.539 162.779C474.089 162.779 473.689 162.609 473.439 162.259V162.749H472.899V158.439H473.459V160.139C473.719 159.809 474.099 159.649 474.539 159.649C475.439 159.649 476.099 160.279 476.099 161.219V161.199ZM475.539 161.199C475.539 160.539 475.089 160.119 474.499 160.119C473.909 160.119 473.469 160.539 473.469 161.199C473.469 161.859 473.919 162.289 474.499 162.289C475.079 162.289 475.539 161.859 475.539 161.199Z" fill="white"/>
<path d="M475.81 163.71L475.99 163.28C476.1 163.37 476.26 163.43 476.44 163.43C476.74 163.43 476.9 163.24 476.9 162.89V159.66H477.46V162.88C477.46 163.51 477.11 163.9 476.48 163.9C476.22 163.9 475.97 163.84 475.81 163.71V163.71ZM476.8 158.7C476.8 158.5 476.96 158.33 477.18 158.33C477.4 158.33 477.56 158.49 477.56 158.68C477.56 158.89 477.4 159.05 477.18 159.05C476.96 159.05 476.8 158.89 476.8 158.69V158.7Z" fill="white"/>
<path d="M481.299 161.38H478.799C478.869 161.92 479.31 162.28 479.92 162.28C480.28 162.28 480.58 162.16 480.81 161.91L481.12 162.27C480.84 162.6 480.42 162.77 479.9 162.77C478.91 162.77 478.24 162.11 478.24 161.19C478.24 160.27 478.9 159.62 479.79 159.62C480.68 159.62 481.31 160.26 481.31 161.21C481.31 161.26 481.309 161.33 481.299 161.38V161.38ZM478.799 160.98H480.78C480.72 160.46 480.33 160.1 479.79 160.1C479.25 160.1 478.859 160.46 478.799 160.98V160.98Z" fill="white"/>
<path d="M481.8 161.199C481.8 160.279 482.48 159.629 483.43 159.629C483.98 159.629 484.44 159.859 484.69 160.289L484.27 160.559C484.07 160.259 483.77 160.119 483.43 160.119C482.83 160.119 482.37 160.539 482.37 161.199C482.37 161.859 482.82 162.289 483.43 162.289C483.77 162.289 484.07 162.149 484.27 161.849L484.69 162.119C484.45 162.549 483.99 162.779 483.43 162.779C482.48 162.779 481.8 162.119 481.8 161.199V161.199Z" fill="white"/>
<path d="M487.17 162.56C487 162.71 486.75 162.77 486.5 162.77C485.88 162.77 485.52 162.43 485.52 161.81V160.12H485V159.66H485.52V158.99H486.08V159.66H486.96V160.12H486.08V161.79C486.08 162.12 486.25 162.31 486.56 162.31C486.72 162.31 486.88 162.26 487 162.16L487.17 162.56Z" fill="white"/>
<path d="M487.75 158.7C487.75 158.5 487.91 158.33 488.13 158.33C488.35 158.33 488.51 158.49 488.51 158.68C488.51 158.89 488.35 159.05 488.13 159.05C487.91 159.05 487.75 158.89 487.75 158.69V158.7ZM487.85 159.65H488.41V162.73H487.85V159.65Z" fill="white"/>
<path d="M492.199 159.66L490.849 162.74H490.279L488.929 159.66H489.509L490.569 162.13L491.649 159.66H492.199V159.66Z" fill="white"/>
<path d="M495.41 161.38H492.91C492.98 161.92 493.42 162.28 494.03 162.28C494.39 162.28 494.69 162.16 494.92 161.91L495.23 162.27C494.95 162.6 494.53 162.77 494.01 162.77C493.02 162.77 492.35 162.11 492.35 161.19C492.35 160.27 493.01 159.62 493.9 159.62C494.79 159.62 495.42 160.26 495.42 161.21C495.42 161.26 495.42 161.33 495.41 161.38V161.38ZM492.91 160.98H494.89C494.83 160.46 494.44 160.1 493.9 160.1C493.36 160.1 492.97 160.46 492.91 160.98V160.98Z" fill="white"/>
<path d="M476.23 66.6598C476.23 62.0498 480.39 58.4198 485.16 59.3098C488.16 59.8698 490.55 62.3198 491.08 65.3298C491.41 67.2098 491.02 68.9798 490.16 70.4398L490.14 70.4698C489.85 70.9498 489.49 71.2998 489.13 71.8098L484.78 77.5698C484.24 78.2898 483.16 78.2898 482.62 77.5698L478.35 71.9098C478.35 71.9098 477.55 70.9598 477.26 70.4698L477.24 70.4498C476.59 69.3398 476.21 68.0498 476.21 66.6698L476.23 66.6598ZM483.71 69.9198C485.53 69.9198 487 68.4498 487 66.6298C487 64.8098 485.53 63.3398 483.71 63.3398C481.89 63.3398 480.42 64.8098 480.42 66.6298C480.42 68.4498 481.89 69.9198 483.71 69.9198Z" fill="#FF4C34"/>
<path d="M421.781 361.53H420.391V361.02H423.761V361.53H422.371V365.09H421.791V361.53H421.781Z" fill="#263238"/>
<path d="M423.701 363.55C423.701 362.63 424.381 361.98 425.301 361.98C426.221 361.98 426.901 362.63 426.901 363.55C426.901 364.47 426.231 365.13 425.301 365.13C424.371 365.13 423.701 364.47 423.701 363.55ZM426.341 363.55C426.341 362.89 425.901 362.47 425.311 362.47C424.721 362.47 424.271 362.89 424.271 363.55C424.271 364.21 424.721 364.64 425.311 364.64C425.901 364.64 426.341 364.21 426.341 363.55Z" fill="#263238"/>
<path d="M429.411 364.91C429.241 365.06 428.991 365.13 428.741 365.13C428.121 365.13 427.761 364.79 427.761 364.16V362.47H427.241V362.01H427.761V361.34H428.321V362.01H429.201V362.47H428.321V364.14C428.321 364.47 428.491 364.66 428.801 364.66C428.961 364.66 429.121 364.61 429.241 364.51L429.411 364.91Z" fill="#263238"/>
<path d="M432.521 363.23V365.09H431.991V364.68C431.801 364.96 431.461 365.12 430.981 365.12C430.281 365.12 429.841 364.75 429.841 364.21C429.841 363.72 430.161 363.31 431.081 363.31H431.961V363.2C431.961 362.73 431.691 362.46 431.131 362.46C430.761 362.46 430.391 362.59 430.151 362.79L429.921 362.37C430.241 362.11 430.701 361.97 431.191 361.97C432.031 361.97 432.511 362.38 432.511 363.22L432.521 363.23ZM431.961 364.15V363.72H431.101C430.551 363.72 430.391 363.93 430.391 364.2C430.391 364.51 430.651 364.7 431.071 364.7C431.491 364.7 431.821 364.51 431.961 364.15V364.15Z" fill="#263238"/>
<path d="M433.561 360.78H434.121V365.09H433.561V360.78Z" fill="#263238"/>
<path d="M439.651 360.78V365.09H439.111V364.6C438.861 364.95 438.471 365.12 438.011 365.12C437.111 365.12 436.451 364.49 436.451 363.54C436.451 362.59 437.111 361.97 438.011 361.97C438.451 361.97 438.831 362.13 439.091 362.46V360.76H439.651V360.78ZM439.101 363.55C439.101 362.89 438.651 362.47 438.071 362.47C437.491 362.47 437.031 362.89 437.031 363.55C437.031 364.21 437.481 364.64 438.071 364.64C438.661 364.64 439.101 364.21 439.101 363.55Z" fill="#263238"/>
<path d="M440.611 361.06C440.611 360.86 440.771 360.69 440.991 360.69C441.211 360.69 441.371 360.85 441.371 361.05C441.371 361.26 441.211 361.42 440.991 361.42C440.771 361.42 440.611 361.26 440.611 361.06ZM440.711 362.01H441.271V365.09H440.711V362.01Z" fill="#263238"/>
<path d="M441.941 364.77L442.171 364.33C442.431 364.52 442.851 364.65 443.251 364.65C443.771 364.65 443.981 364.49 443.981 364.23C443.981 363.54 442.031 364.14 442.031 362.91C442.031 362.36 442.521 361.99 443.311 361.99C443.711 361.99 444.161 362.09 444.431 362.27L444.191 362.71C443.911 362.53 443.601 362.47 443.301 362.47C442.811 362.47 442.571 362.65 442.571 362.89C442.571 363.62 444.521 363.02 444.521 364.22C444.521 364.78 444.011 365.13 443.191 365.13C442.681 365.13 442.171 364.97 441.921 364.77H441.941Z" fill="#263238"/>
<path d="M446.981 364.91C446.811 365.06 446.561 365.13 446.311 365.13C445.691 365.13 445.331 364.79 445.331 364.16V362.47H444.811V362.01H445.331V361.34H445.891V362.01H446.771V362.47H445.891V364.14C445.891 364.47 446.061 364.66 446.371 364.66C446.531 364.66 446.691 364.61 446.811 364.51L446.981 364.91Z" fill="#263238"/>
<path d="M450.091 363.23V365.09H449.561V364.68C449.371 364.96 449.031 365.12 448.551 365.12C447.851 365.12 447.411 364.75 447.411 364.21C447.411 363.72 447.731 363.31 448.651 363.31H449.531V363.2C449.531 362.73 449.261 362.46 448.701 362.46C448.331 362.46 447.961 362.59 447.721 362.79L447.491 362.37C447.811 362.11 448.271 361.97 448.761 361.97C449.601 361.97 450.081 362.38 450.081 363.22L450.091 363.23ZM449.531 364.15V363.72H448.671C448.121 363.72 447.961 363.93 447.961 364.2C447.961 364.51 448.221 364.7 448.641 364.7C449.061 364.7 449.391 364.51 449.531 364.15V364.15Z" fill="#263238"/>
<path d="M454.051 363.32V365.09H453.491V363.38C453.491 362.78 453.191 362.48 452.661 362.48C452.071 362.48 451.681 362.83 451.681 363.5V365.09H451.121V362.01H451.661V362.47C451.891 362.16 452.281 361.98 452.771 361.98C453.521 361.98 454.051 362.41 454.051 363.32V363.32Z" fill="#263238"/>
<path d="M454.821 363.55C454.821 362.63 455.501 361.98 456.451 361.98C457.001 361.98 457.461 362.21 457.711 362.64L457.291 362.91C457.091 362.61 456.791 362.47 456.451 362.47C455.851 362.47 455.391 362.89 455.391 363.55C455.391 364.21 455.841 364.64 456.451 364.64C456.791 364.64 457.091 364.5 457.291 364.2L457.711 364.47C457.471 364.9 457.011 365.13 456.451 365.13C455.501 365.13 454.821 364.47 454.821 363.55Z" fill="#263238"/>
<path d="M461.151 363.74H458.651C458.721 364.28 459.161 364.64 459.771 364.64C460.131 364.64 460.431 364.52 460.661 364.27L460.971 364.63C460.691 364.96 460.271 365.13 459.751 365.13C458.761 365.13 458.091 364.47 458.091 363.55C458.091 362.63 458.751 361.98 459.641 361.98C460.531 361.98 461.161 362.62 461.161 363.57C461.161 363.62 461.161 363.69 461.151 363.74V363.74ZM458.651 363.34H460.631C460.571 362.82 460.181 362.46 459.641 362.46C459.101 362.46 458.711 362.82 458.651 363.34V363.34Z" fill="#263238"/>
<path d="M425.431 369.66V379.37H423.181V371.46H421.241V369.66H425.431V369.66Z" fill="#263238"/>
<path d="M429.751 378.12C429.751 378.48 429.691 378.74 429.381 379.51L428.591 381.51H427.221L427.831 379.31C427.371 379.13 427.081 378.7 427.081 378.13C427.081 377.33 427.661 376.8 428.431 376.8C429.201 376.8 429.761 377.34 429.761 378.13L429.751 378.12Z" fill="#263238"/>
<path d="M434.281 369.66V379.37H432.031V371.46H430.091V369.66H434.281V369.66Z" fill="#263238"/>
<path d="M435.971 374.51C435.971 371.31 437.751 369.49 440.131 369.49C442.511 369.49 444.291 371.31 444.291 374.51C444.291 377.71 442.531 379.53 440.131 379.53C437.731 379.53 435.971 377.71 435.971 374.51ZM442.031 374.51C442.031 372.3 441.251 371.39 440.131 371.39C439.011 371.39 438.241 372.31 438.241 374.51C438.241 376.71 439.021 377.63 440.131 377.63C441.241 377.63 442.031 376.71 442.031 374.51Z" fill="#263238"/>
<path d="M445.391 374.51C445.391 371.31 447.171 369.49 449.551 369.49C451.931 369.49 453.711 371.31 453.711 374.51C453.711 377.71 451.951 379.53 449.551 379.53C447.151 379.53 445.391 377.71 445.391 374.51ZM451.451 374.51C451.451 372.3 450.671 371.39 449.551 371.39C448.431 371.39 447.661 372.31 447.661 374.51C447.661 376.71 448.441 377.63 449.551 377.63C450.661 377.63 451.451 376.71 451.451 374.51Z" fill="#263238"/>
<path d="M471.801 375.09V379.36H469.641V375.42C469.641 374.21 469.101 373.66 468.231 373.66C467.261 373.66 466.581 374.28 466.581 375.62V379.37H464.421V375.43C464.421 374.22 463.911 373.67 463.011 373.67C462.051 373.67 461.371 374.29 461.371 375.63V379.38H459.211V371.92H461.281V372.78C461.831 372.14 462.671 371.81 463.621 371.81C464.661 371.81 465.551 372.21 466.071 373.03C466.671 372.27 467.641 371.81 468.761 371.81C470.541 371.81 471.811 372.84 471.811 375.11L471.801 375.09Z" fill="#263238"/>
<path d="M415.282 370.79C416.34 366.29 413.549 361.784 409.049 360.726C404.549 359.668 400.044 362.459 398.986 366.959C397.928 371.459 400.718 375.964 405.218 377.022C409.718 378.08 414.224 375.29 415.282 370.79Z" fill="#FF4C34"/>
<path d="M403.761 370.42C403.761 370.42 404.541 370.33 405.911 370.29C407.281 370.25 409.231 370.22 411.571 370.2L411.401 370.57C410.741 369.81 410.021 368.97 409.261 368.1L409.131 367.94L409.261 367.78C409.931 366.94 410.641 366.06 411.371 365.14L411.571 365.56C411.271 365.56 410.941 365.56 410.621 365.56C408.151 365.56 405.821 365.54 403.761 365.53L403.991 365.3C403.971 367.84 403.941 369.98 403.901 371.48C403.861 372.98 403.811 373.85 403.761 373.85C403.711 373.85 403.661 372.98 403.621 371.48C403.581 369.98 403.551 367.84 403.531 365.3V365.07H403.761C405.821 365.07 408.151 365.05 410.621 365.04C410.951 365.04 411.271 365.04 411.571 365.04H412.111L411.771 365.46C411.031 366.37 410.321 367.25 409.641 368.08V367.76C410.381 368.64 411.091 369.49 411.741 370.26L412.061 370.64H411.571C409.231 370.61 407.271 370.58 405.911 370.54C404.541 370.5 403.761 370.46 403.761 370.41V370.42Z" fill="#FAFAFA"/>
<path d="M542.56 354.61H517.25C514.58 354.61 512.41 356.78 512.41 359.45V379.37C512.41 382.04 514.58 384.21 517.25 384.21H517.89V388.96L523.4 384.21H542.56C545.23 384.21 547.4 382.04 547.4 379.37V359.45C547.4 356.78 545.23 354.61 542.56 354.61Z" fill="#FF4C34"/>
<path d="M519.66 363.75V373.97C519.66 374.19 519.84 374.37 520.06 374.37H541.48C541.7 374.37 541.88 374.19 541.88 373.97L541.83 370.23C541.83 370.15 541.8 370.06 541.75 370L538.68 365.89C538.61 365.79 538.49 365.73 538.36 365.73L534.82 365.7C534.6 365.7 534.43 365.52 534.43 365.3V363.76C534.43 363.54 534.25 363.36 534.03 363.36H520.06C519.84 363.36 519.66 363.54 519.66 363.76V363.75Z" fill="#FAFAFA"/>
<path d="M535.42 366.59V369.87C535.42 370 535.52 370.1 535.65 370.1L540.38 370.02C540.56 370.02 540.67 369.81 540.56 369.66L538.35 366.4C538.31 366.34 538.23 366.3 538.15 366.3L535.63 366.37C535.51 366.37 535.41 366.47 535.41 366.6L535.42 366.59Z" fill="#FF4C34"/>
<path d="M542.3 374.68H519.23V375.39H542.3V374.68Z" fill="#FAFAFA"/>
<path d="M526.86 374.95C526.86 376.21 525.84 377.23 524.58 377.23C523.32 377.23 522.3 376.21 522.3 374.95C522.3 373.69 523.32 372.67 524.58 372.67C525.84 372.67 526.86 373.69 526.86 374.95Z" fill="#FF4C34"/>
<path d="M525.93 374.95C525.93 375.69 525.33 376.29 524.59 376.29C523.85 376.29 523.25 375.69 523.25 374.95C523.25 374.21 523.85 373.61 524.59 373.61C525.33 373.61 525.93 374.21 525.93 374.95Z" fill="#FAFAFA"/>
<path d="M534.41 374.37C534.35 374.37 534.31 371.9 534.31 368.86C534.31 365.82 534.36 363.35 534.41 363.35C534.46 363.35 534.51 365.81 534.51 368.86C534.51 371.91 534.46 374.37 534.41 374.37Z" fill="#FF4C34"/>
<path d="M539.3 374.95C539.3 376.21 538.28 377.23 537.02 377.23C535.76 377.23 534.74 376.21 534.74 374.95C534.74 373.69 535.76 372.67 537.02 372.67C538.28 372.67 539.3 373.69 539.3 374.95Z" fill="#FF4C34"/>
<path d="M538.36 374.95C538.36 375.69 537.76 376.29 537.02 376.29C536.28 376.29 535.68 375.69 535.68 374.95C535.68 374.21 536.28 373.61 537.02 373.61C537.76 373.61 538.36 374.21 538.36 374.95Z" fill="#FAFAFA"/>
<path d="M537.02 370.74C537.02 370.8 536.69 370.84 536.29 370.84C535.89 370.84 535.56 370.79 535.56 370.74C535.56 370.69 535.89 370.64 536.29 370.64C536.69 370.64 537.02 370.69 537.02 370.74Z" fill="#FF4C34"/>
<path d="M170.8 203.01C170.8 203.01 154.67 205.74 153.37 206.08C152.07 206.43 146.96 208.85 146.7 210.41C146.44 211.97 146.7 216.56 146.7 216.56C146.7 216.56 147.62 217.31 148.2 215.81C148.78 214.31 148.69 211.34 148.69 211.34L151.55 210.24L149.99 213.01L149.73 219.5C149.73 219.5 151.73 219.32 152.11 217.76C152.5 216.21 152.49 214.47 152.49 214.47L154.57 212.7L153.01 214.81L152.48 219.49C152.48 219.49 154 219.98 154.48 218.94C154.96 217.9 155 214.81 155 214.81L160.88 212.76L164.77 214.93L172.04 210.82L170.78 203L170.8 203.01Z" fill="#FFBE9D"/>
<path d="M227.27 163.14C227.2 163.46 207.83 190.12 207.83 190.12L168.93 202.22L170.7 216.83L218.38 207.23L235.3 187.81L227.27 163.14V163.14Z" fill="#FF4C34"/>
<g opacity="0.2">
<path d="M227.27 163.14C227.2 163.46 207.83 190.12 207.83 190.12L168.93 202.22L170.7 216.83L218.38 207.23L235.3 187.81L227.27 163.14V163.14Z" fill="black"/>
</g>
<path d="M295.03 199.83H374.51C376.195 199.83 377.56 201.196 377.56 202.88V212.27C377.56 213.955 376.195 215.32 374.51 215.32H295.03C293.346 215.32 291.98 213.955 291.98 212.27V202.88C291.98 201.196 293.346 199.83 295.03 199.83Z" fill="#F5F5F5"/>
<path d="M295.03 215.32C295.03 215.32 294.86 215.32 294.53 215.25C294.21 215.18 293.71 215.05 293.2 214.64C292.7 214.25 292.18 213.56 292.08 212.62C292.04 211.68 292.08 210.56 292.08 209.32C292.08 208.07 292.09 206.69 292.1 205.17C292.1 204.41 292.1 203.62 292.11 202.8C292.13 202.01 292.49 201.21 293.14 200.66C293.46 200.38 293.85 200.18 294.27 200.07C294.69 199.95 295.14 199.97 295.62 199.97C296.57 199.97 297.54 199.97 298.54 199.97C300.55 199.97 302.67 199.98 304.89 199.99C322.72 200.01 347.33 200.04 374.5 200.07C375.28 200.07 376.05 200.41 376.56 200.98C377.09 201.56 377.34 202.32 377.29 203.13C377.29 204.81 377.29 206.48 377.29 208.13C377.29 208.96 377.29 209.78 377.29 210.6V211.83C377.29 212.25 377.29 212.61 377.19 212.98C377 213.7 376.5 214.33 375.85 214.69C375.53 214.87 375.17 214.98 374.8 215.02C374.45 215.05 374.02 215.03 373.62 215.04C367.21 215.04 361.03 215.05 355.14 215.06C343.37 215.08 332.76 215.1 323.84 215.12C314.95 215.15 307.75 215.18 302.74 215.2C300.27 215.22 298.34 215.24 297 215.25C296.36 215.26 295.87 215.27 295.51 215.28C295.17 215.28 295 215.31 295 215.31C295 215.31 295.17 215.33 295.51 215.34C295.87 215.34 296.36 215.35 297 215.37C298.33 215.38 300.26 215.4 302.74 215.42C307.74 215.44 314.95 215.47 323.84 215.5C332.75 215.52 343.36 215.53 355.14 215.56C361.03 215.56 367.21 215.56 373.62 215.58C374.03 215.58 374.4 215.6 374.85 215.56C375.28 215.51 375.71 215.38 376.09 215.17C376.86 214.75 377.45 214 377.68 213.15C377.8 212.73 377.8 212.26 377.8 211.87V210.64C377.8 209.82 377.8 208.99 377.8 208.17C377.8 206.51 377.8 204.85 377.8 203.17C377.86 202.31 377.56 201.33 376.94 200.67C376.33 199.99 375.41 199.58 374.49 199.59C347.32 199.62 322.71 199.65 304.88 199.67C302.65 199.67 300.53 199.68 298.53 199.69C297.53 199.69 296.55 199.69 295.61 199.69C295.15 199.69 294.65 199.67 294.19 199.81C293.73 199.94 293.3 200.16 292.95 200.47C292.24 201.08 291.85 201.96 291.84 202.82C291.84 203.64 291.84 204.43 291.84 205.19C291.84 206.7 291.86 208.09 291.86 209.34C291.88 210.59 291.86 211.68 291.91 212.66C292.04 213.65 292.59 214.35 293.12 214.75C293.66 215.16 294.17 215.27 294.5 215.33C294.84 215.38 295.01 215.35 295.01 215.35L295.03 215.32Z" fill="#263238"/>
<path d="M79.211 413.252C56.654 412.168 39.2464 393.004 40.3299 370.447C41.4133 347.89 60.5777 330.483 83.1346 331.566C105.692 332.649 123.099 351.814 122.016 374.371C120.932 396.928 101.768 414.335 79.211 413.252Z" fill="#263238"/>
<path d="M122.06 371.72C122.06 371.72 122.06 371.79 122.06 371.83C122.39 394.41 104.35 412.98 81.77 413.3C59.19 413.63 40.62 395.59 40.3 373.01C40.3 372.97 40.3 372.94 40.3 372.9L122.06 371.72Z" fill="#263238"/>
<path d="M109.88 372C110.11 387.85 97.4402 400.89 81.5902 401.12C65.7402 401.35 52.7002 388.68 52.4702 372.83C52.2402 356.98 64.9102 343.94 80.7602 343.71C96.6102 343.48 109.65 356.15 109.88 372Z" fill="#FAFAFA"/>
<path d="M80.7701 343.71C96.6201 343.48 109.66 356.15 109.89 372L52.4801 372.83C52.2501 356.98 64.9201 343.94 80.7701 343.71Z" fill="#E0E0E0"/>
<path d="M98.6602 372.17C98.8002 381.83 91.0802 389.77 81.4302 389.91C71.7702 390.05 63.8302 382.33 63.6902 372.68C63.5502 363.02 71.2702 355.08 80.9202 354.94C90.5802 354.8 98.5202 362.52 98.6602 372.17Z" fill="#263238"/>
<path d="M100.59 312.46C100.59 312.46 58.7303 299.8 41.4103 345.28L129.01 372.41L100.58 312.46H100.59Z" fill="#FF4C34"/>
<path d="M331.501 413.256C308.944 412.173 291.536 393.008 292.619 370.452C293.703 347.895 312.867 330.487 335.424 331.57C357.981 332.654 375.389 351.818 374.305 374.375C373.222 396.932 354.057 414.34 331.501 413.256Z" fill="#263238"/>
<path d="M374.34 371.72C374.34 371.72 374.34 371.79 374.34 371.83C374.67 394.41 356.63 412.98 334.05 413.3C311.47 413.63 292.9 395.59 292.58 373.01C292.58 372.97 292.58 372.94 292.58 372.9L374.34 371.72Z" fill="#263238"/>
<path d="M362.17 372C362.4 387.85 349.73 400.89 333.88 401.12C318.03 401.35 304.99 388.68 304.76 372.83C304.53 356.98 317.2 343.94 333.05 343.71C348.9 343.48 361.94 356.15 362.17 372Z" fill="#FAFAFA"/>
<path d="M333.05 343.71C348.9 343.48 361.94 356.15 362.17 372L304.76 372.83C304.53 356.98 317.2 343.94 333.05 343.71V343.71Z" fill="#E0E0E0"/>
<path d="M350.95 372.17C351.09 381.83 343.37 389.77 333.72 389.91C324.06 390.05 316.12 382.33 315.98 372.68C315.84 363.02 323.56 355.08 333.21 354.94C342.87 354.8 350.81 362.52 350.95 372.17Z" fill="#263238"/>
<path d="M275.31 356C275.54 356.12 296.83 352.71 296.83 352.71C299.16 355.75 302.72 357.61 306.54 357.79C315.74 358.23 324.73 358.64 332.52 358.98C339.78 359.3 345.41 365.45 345.11 372.71C344.82 379.59 339.31 385.08 332.44 385.35L287.16 387.13C279.71 387.42 269.82 382.9 265.17 377.07L275.32 355.98L275.31 356Z" fill="#455A64"/>
<path d="M386.55 337.91C386.55 337.91 388.5 298.06 351.05 289.76V284.65H219.86V296.83C219.86 296.83 239.12 320.02 232.83 339.27C226.54 358.53 224.58 360.49 224.58 360.49H149.92C149.92 360.49 140.88 349.09 140.49 332.2C140.1 315.3 147.12 286.41 152.36 267.94C157.13 251.15 160.14 237.1 160.14 237.1L137.74 229.63C137.74 229.63 96.2901 283.82 94.6001 286.87C92.9101 289.92 87.1501 297.03 88.5101 312.6C89.8701 328.17 127.11 376.26 136.93 381.67C146.75 387.09 155.55 387.43 164.36 388.78C172 389.96 228.53 389.18 243.31 388.95C248.45 388.87 253.52 387.56 257.91 384.9C262.33 382.22 265.66 377.78 269.33 370.5L277.12 355.26L386.58 337.9L386.55 337.91Z" fill="#FF4C34"/>
<path d="M376.51 335.14L393.04 361.02C395.16 364.33 391.73 368.5 388.13 366.94C386.38 366.18 384.5 365 382.59 363.18C375.03 355.99 361.56 337.05 361.56 337.05L376.52 335.14H376.51Z" fill="#455A64"/>
<path d="M258.02 339.8C258.02 339.8 258 339.67 257.92 339.42C257.84 339.15 257.73 338.79 257.59 338.33C257.31 337.37 256.97 335.94 256.72 334.06C256.3 330.33 256.49 324.64 259.28 318.44C260.64 315.35 262.65 312.19 265.37 309.29C268.1 306.41 271.47 303.75 275.41 301.63C279.33 299.5 283.77 297.82 288.51 296.75C293.26 295.68 298.31 295.2 303.48 295.2C308.65 295.2 313.69 295.66 318.53 296.3C323.37 296.95 328.01 297.75 332.39 298.75C341.14 300.72 348.75 303.63 354.64 306.98C360.55 310.31 364.74 313.95 367.36 316.68C368.68 318.04 369.63 319.17 370.26 319.95C370.56 320.32 370.79 320.62 370.97 320.84C371.13 321.04 371.22 321.14 371.23 321.13C371.23 321.13 370.11 319.33 367.51 316.54C364.93 313.75 360.75 310.05 354.83 306.66C348.93 303.24 341.28 300.28 332.5 298.28C328.11 297.27 323.46 296.45 318.6 295.79C313.75 295.14 308.68 294.67 303.48 294.67C298.28 294.67 293.19 295.16 288.4 296.24C283.61 297.32 279.14 299.02 275.18 301.19C271.21 303.34 267.8 306.05 265.05 308.98C262.31 311.93 260.29 315.14 258.94 318.28C256.17 324.57 256.03 330.33 256.52 334.07C256.8 335.96 257.17 337.4 257.49 338.35C257.65 338.8 257.78 339.16 257.87 339.42C257.96 339.66 258.01 339.78 258.02 339.78V339.8Z" fill="#263238"/>
<path d="M265.58 330.85C265.64 330.83 265.36 330.22 265.09 329.08C264.78 327.94 264.65 326.21 264.94 324.13C265.23 322.04 266.03 319.63 267.38 317.18C268.04 315.95 268.85 314.73 269.8 313.54C270.73 312.34 271.82 311.2 273.05 310.17C275.52 308.1 278.26 306.64 280.85 305.61C283.46 304.6 285.92 304 288.01 303.65C290.1 303.3 291.82 303.15 293 303.08C294.19 303.01 294.84 302.98 294.84 302.94C294.84 302.92 294.68 302.91 294.36 302.89C294.05 302.89 293.58 302.86 292.99 302.87C291.8 302.87 290.07 302.97 287.95 303.28C285.83 303.58 283.33 304.15 280.67 305.15C278.03 306.18 275.23 307.65 272.71 309.76C271.45 310.82 270.34 311.98 269.39 313.21C268.43 314.42 267.61 315.68 266.95 316.94C265.6 319.44 264.82 321.92 264.57 324.07C264.32 326.21 264.51 327.98 264.89 329.12C265.01 329.71 265.26 330.12 265.37 330.42C265.5 330.71 265.57 330.86 265.59 330.85H265.58Z" fill="#F5F5F5"/>
<g opacity="0.4">
<path d="M291.27 295.94C283.94 297.34 277.53 299.97 271.52 303.98C265.51 307.99 260.9 313.68 258.29 320.42C255.68 327.16 256.06 336.09 258.82 341.67L249.55 342.44C246.43 332.03 249.83 319.26 257.33 311.11C266.13 301.55 278.23 295.94 291.28 295.94" fill="black"/>
</g>
<path d="M294.23 214.54H375.32C380.059 214.54 383.9 218.381 383.9 223.12V276.07C383.9 280.809 380.059 284.65 375.32 284.65H294.23C289.492 284.65 285.65 280.809 285.65 276.07V223.12C285.65 218.381 289.492 214.54 294.23 214.54Z" fill="#455A64"/>
<path d="M285.64 230.18C285.64 230.32 307.73 230.44 334.97 230.44C362.21 230.44 384.31 230.32 384.31 230.18C384.31 230.04 362.22 229.92 334.97 229.92C307.72 229.92 285.64 230.04 285.64 230.18Z" fill="#263238"/>
<path d="M219.92 289.29C219.92 289.43 249.4 289.55 285.77 289.55C322.14 289.55 351.62 289.43 351.62 289.29C351.62 289.15 322.14 289.03 285.77 289.03C249.4 289.03 219.92 289.15 219.92 289.29Z" fill="#263238"/>
<path d="M219.86 284.65C219.86 284.65 217.7 282.07 217.49 278.77C217.28 275.47 218.79 271.36 222.33 271.36H267.63C274.97 271.36 280.92 277.31 280.92 284.65H219.86Z" fill="#455A64"/>
<path d="M160.13 237.1L168.01 220.67C170.16 216 168.45 210.45 164.03 207.82L140.47 193.77C139.24 193.04 137.83 192.65 136.4 192.65H131.31L129.27 225.86L137.12 228.86L132.15 236.94L160.13 237.1Z" fill="#FF4C34"/>
<path d="M131.23 193.85C131.23 193.85 123.17 195.7 122.16 208.12C121.15 220.55 129.27 224.41 129.27 224.41L131.24 193.84L131.23 193.85Z" fill="#EBEBEB"/>
<path d="M157.38 214.23C157.38 214.23 173.67 221.95 175.66 223.22C177.04 224.1 178.22 225.64 177.14 228.35C175.29 232.97 167.68 228.62 167.68 228.62L152.52 221.04C152.52 221.04 146.69 218.29 148.84 214.84C151.25 210.98 157.38 214.23 157.38 214.23Z" fill="#263238"/>
<path d="M180.44 211.42C180.44 211.42 165.14 214.04 163.84 214.39C162.54 214.74 157.43 217.16 157.17 218.72C156.91 220.28 157.17 224.87 157.17 224.87C157.17 224.87 158.09 225.62 158.67 224.12C159.25 222.62 159.16 219.65 159.16 219.65L162.02 218.55L160.46 221.32L160.2 227.81C160.2 227.81 162.2 227.63 162.58 226.07C162.97 224.52 162.96 222.78 162.96 222.78L165.04 221.01L163.48 223.12L162.95 227.8C162.95 227.8 164.47 228.29 164.95 227.25C165.43 226.21 165.47 223.12 165.47 223.12L171.35 221.07L175.24 223.24L181.36 219.89L180.42 211.41L180.44 211.42Z" fill="#FFBE9D"/>
<path d="M156.6 190.1C156.6 196.3 159.45 201.32 162.96 201.32C166.47 201.32 169.32 196.3 169.32 190.1C169.32 183.9 166.47 178.88 162.96 178.88C159.45 178.88 156.6 183.9 156.6 190.1Z" fill="#263238"/>
<path d="M161.92 197.81L158.43 209.92C156.87 209.13 156.54 207.57 156.8 206.34C157.68 202.19 158.17 199.24 159.14 195.6C159.26 195.23 161.93 197.8 161.93 197.8" fill="#263238"/>
<g opacity="0.4">
<path d="M231.1 344.45C231.45 343.45 231.8 342.43 232.13 341.38C232.44 340.4 232.81 339.39 233.07 338.42C233.55 336.68 233.83 334.89 233.94 333.86C239.84 357.88 230.83 374.79 215.37 375.98C192.78 377.72 165.23 378.98 154.09 376.06C133.78 370.73 126.33 353.8 124.55 351C122.77 348.21 106.62 318.68 116.52 290.25C126.42 261.82 143.68 231.63 143.68 231.63L160.13 237.11C160.13 237.11 157.12 251.15 152.35 267.95C147.11 286.42 140.09 315.31 140.48 332.21C140.87 349.11 149.91 360.5 149.91 360.5H224.57C224.57 360.5 226.17 358.9 231.1 344.45Z" fill="black"/>
</g>
<path d="M389.53 331.66L389 325.96L252.72 341.66C245.03 342.56 239.68 349.75 241.03 357.38L241.64 360.83L382.69 340.33C386.91 339.72 389.92 335.9 389.53 331.65V331.66Z" fill="#FF4C34"/>
<g opacity="0.6">
<path d="M389.53 331.66L389 325.96L252.72 341.66C245.03 342.56 239.68 349.75 241.03 357.38L241.64 360.83L382.69 340.33C386.91 339.72 389.92 335.9 389.53 331.65V331.66Z" fill="black"/>
</g>
<g opacity="0.3">
<path d="M124.56 369.78C124.56 369.78 94.5601 336.78 88.3701 310.84C86.2901 310.82 81.4501 311.03 79.0801 311.53C79.0801 311.53 96.8201 359.76 124.56 369.78Z" fill="black"/>
</g>
<path d="M88.8001 299.22C88.8001 299.22 88.7301 299.5 88.6401 300.05C88.5601 300.6 88.4001 301.41 88.3001 302.46C88.1101 304.56 87.9802 307.66 88.5302 311.42C89.0702 315.18 90.3601 319.56 92.4901 324.1C94.5701 328.66 97.4501 333.37 100.43 338.3C106.44 348.19 113.13 356.27 117.99 362.05C120.43 364.93 122.45 367.23 123.85 368.82C124.53 369.58 125.07 370.18 125.47 370.63C125.85 371.04 126.05 371.25 126.06 371.24C126.07 371.23 125.9 371 125.55 370.56C125.17 370.1 124.65 369.47 124 368.68C122.61 367.02 120.67 364.68 118.27 361.81C113.48 355.98 106.86 347.87 100.87 338.03C97.8801 333.1 95.0101 328.42 92.9201 323.9C90.7801 319.4 89.4701 315.08 88.8901 311.37C88.2901 307.65 88.3601 304.59 88.5001 302.49C88.5701 301.44 88.7001 300.63 88.7401 300.07C88.8001 299.52 88.8201 299.22 88.8001 299.22V299.22Z" fill="#263238"/>
<path d="M140.67 369.54C140.77 369.64 142.92 367.7 145.47 365.2C148.02 362.7 150.01 360.59 149.91 360.49C149.81 360.39 147.66 362.33 145.1 364.83C142.55 367.33 140.56 369.44 140.66 369.54H140.67Z" fill="#263238"/>
<path d="M229.7 368.53C229.82 368.47 229 366.46 227.5 364.26C226.01 362.05 224.44 360.54 224.35 360.64C224.24 360.74 225.61 362.38 227.07 364.56C228.55 366.73 229.57 368.6 229.7 368.54V368.53Z" fill="#263238"/>
<path d="M287.34 387.58C287.46 387.48 285.19 386.03 283.25 382.38C282.28 380.58 281.49 378.23 281.25 375.53C281 372.85 281.39 369.81 282.71 366.99C284.08 364.19 286.19 361.98 288.43 360.48C290.68 358.97 293 358.11 295.01 357.73C299.07 356.94 301.62 357.8 301.62 357.64C301.62 357.62 301.47 357.58 301.17 357.51C300.87 357.45 300.44 357.31 299.86 357.26C298.71 357.08 297 357.03 294.94 357.38C292.88 357.72 290.48 358.57 288.16 360.09C285.84 361.6 283.65 363.87 282.24 366.77C280.88 369.69 280.5 372.82 280.78 375.58C281.05 378.34 281.91 380.74 282.94 382.56C283.96 384.38 285.08 385.68 285.95 386.46C286.36 386.88 286.74 387.12 286.98 387.32C287.22 387.51 287.35 387.6 287.37 387.58H287.34Z" fill="#263238"/>
<path d="M337.11 377.13C337.25 377.13 337.47 374.98 337.6 372.32C337.73 369.66 337.71 367.5 337.57 367.49C337.43 367.49 337.21 369.63 337.08 372.3C336.95 374.96 336.97 377.12 337.11 377.13Z" fill="#263238"/>
<path d="M333.49 377.14C333.63 377.16 334.02 375.01 334.36 372.35C334.7 369.68 334.86 367.51 334.72 367.49C334.58 367.47 334.19 369.62 333.85 372.29C333.51 374.96 333.35 377.13 333.49 377.15V377.14Z" fill="#263238"/>
<path d="M277.29 284.65C277.29 284.79 293.86 284.91 314.29 284.91C334.72 284.91 351.3 284.79 351.3 284.65C351.3 284.51 334.73 284.39 314.29 284.39C293.85 284.39 277.29 284.51 277.29 284.65Z" fill="#263238"/>
<path d="M330.95 284.6C331.09 284.6 331.21 265.62 331.21 242.22C331.21 218.82 331.09 199.83 330.95 199.83C330.81 199.83 330.69 218.8 330.69 242.22C330.69 265.64 330.81 284.6 330.95 284.6Z" fill="#263238"/>
<path d="M341.09 284.53C341.23 284.53 340.52 265.56 339.51 242.17C338.49 218.78 337.55 199.82 337.41 199.83C337.27 199.83 337.98 218.8 338.99 242.19C340.01 265.58 340.95 284.53 341.09 284.53Z" fill="#263238"/>
<path d="M364.04 400.18C364.04 400.18 364.2 400.04 364.48 399.74C364.75 399.43 365.17 399 365.65 398.39C366.64 397.2 367.96 395.38 369.34 392.97C372.1 388.2 374.84 380.74 374.81 372.21C374.77 363.67 371.97 356.24 369.17 351.49C367.77 349.09 366.43 347.28 365.44 346.1C364.96 345.49 364.53 345.07 364.26 344.76C363.98 344.46 363.83 344.31 363.82 344.32C363.81 344.33 363.93 344.51 364.18 344.83C364.42 345.16 364.83 345.6 365.28 346.22C366.22 347.44 367.51 349.27 368.85 351.67C371.55 356.43 374.26 363.78 374.29 372.21C374.32 380.63 371.68 388.01 369.02 392.79C367.7 395.2 366.43 397.04 365.49 398.27C365.04 398.9 364.64 399.35 364.4 399.67C364.15 399.99 364.03 400.17 364.04 400.18V400.18Z" fill="#455A64"/>
<path d="M220.78 323.99L221.09 324.58L227.11 335.91L235.55 344.04L218.68 366.5L204.62 364.17C204.62 364.17 206.2 360.96 213.25 360.34L215.95 346.92L206.04 331.56" fill="#455A64"/>
<path d="M235.55 344.03L218.69 366.49L204.63 364.16L206.56 362.31L218.1 363.57L233.76 342.3L235.55 344.03Z" fill="#E0E0E0"/>
<path d="M214.38 354.16C214.46 354.32 215.35 354 216.43 354.21C217.52 354.39 218.23 355.01 218.37 354.88C218.52 354.8 217.87 353.82 216.55 353.59C215.23 353.34 214.28 354.03 214.39 354.16H214.38Z" fill="#263238"/>
<path d="M215.16 350.85C215.28 350.97 216.05 350.25 217.2 350.22C218.36 350.18 219.17 350.85 219.28 350.72C219.34 350.66 219.22 350.4 218.86 350.12C218.51 349.84 217.9 349.57 217.18 349.59C216.46 349.61 215.87 349.92 215.54 350.23C215.2 350.53 215.1 350.8 215.16 350.86V350.85Z" fill="#263238"/>
<path d="M215.79 346.54C215.93 346.64 216.55 345.91 217.58 345.73C218.61 345.54 219.44 346.02 219.54 345.87C219.59 345.81 219.44 345.58 219.08 345.37C218.72 345.16 218.13 344.99 217.47 345.11C216.82 345.23 216.32 345.58 216.05 345.9C215.78 346.22 215.72 346.48 215.79 346.53V346.54Z" fill="#263238"/>
<path d="M212.58 342.58C212.74 342.67 213.27 341.93 214.23 341.51C215.18 341.06 216.08 341.15 216.12 340.98C216.19 340.83 215.15 340.4 213.97 340.94C212.79 341.47 212.41 342.53 212.58 342.58Z" fill="#263238"/>
<path d="M211.23 339.39C211.29 339.45 211.85 338.96 212.7 338.12C213.18 337.63 213.67 337.13 214.17 336.63C214.43 336.33 214.76 336.09 215.01 335.6C215.13 335.35 215.17 335.04 215.07 334.73C214.98 334.41 214.61 334.15 214.3 334.15C213.67 334.14 213.28 334.4 212.87 334.61C212.48 334.85 212.14 335.14 211.85 335.44C211.28 336.06 210.95 336.75 210.78 337.35C210.44 338.57 210.72 339.35 210.78 339.32C210.89 339.32 210.78 338.56 211.2 337.49C211.41 336.96 211.75 336.37 212.27 335.84C212.53 335.58 212.84 335.34 213.18 335.14C213.51 334.95 213.94 334.75 214.24 334.77C214.38 334.79 214.44 334.84 214.48 334.94C214.52 335.05 214.51 335.21 214.45 335.34C214.32 335.63 214 335.93 213.74 336.23C213.27 336.77 212.82 337.29 212.37 337.81C211.6 338.72 211.16 339.32 211.22 339.38L211.23 339.39Z" fill="#263238"/>
<path d="M210.65 339.72C210.72 339.72 210.79 338.98 210.17 338.01C209.56 337.09 208.08 335.96 206.13 336.57C205.98 336.66 205.85 336.84 205.83 337.04C205.81 337.24 205.86 337.39 205.93 337.51C206.06 337.76 206.23 337.89 206.36 338.04C206.65 338.32 206.95 338.57 207.26 338.77C207.87 339.18 208.49 339.44 209.02 339.59C210.09 339.89 210.79 339.79 210.78 339.72C210.78 339.62 210.12 339.56 209.16 339.17C208.68 338.98 208.13 338.7 207.59 338.29C207.32 338.09 207.05 337.86 206.79 337.6C206.66 337.46 206.53 337.33 206.48 337.22C206.43 337.09 206.44 337.12 206.48 337.09C206.53 337.05 206.73 337.02 206.91 337.01C207.09 337 207.27 337 207.44 337.01C207.79 337.04 208.12 337.13 208.43 337.25C209.04 337.49 209.5 337.88 209.82 338.27C210.46 339.06 210.56 339.74 210.66 339.72H210.65Z" fill="#263238"/>
<path d="M224.41 341.74C224.26 342.66 224.88 343.53 225.8 343.69C226.72 343.84 227.59 343.22 227.75 342.3C227.9 341.38 227.28 340.51 226.36 340.35C225.44 340.2 224.57 340.82 224.41 341.74Z" fill="#E0E0E0"/>
<path d="M169.58 334.79L165.07 364.07L128.61 358.65C129.34 355.2 149.25 351.01 149.25 351.01L151.37 332.13L169.59 334.79H169.58Z" fill="#455A64"/>
<path d="M160.75 351.11C161.43 351.41 161.8 352.27 161.53 352.96C161.26 353.65 160.38 354.03 159.7 353.75C159.02 353.46 158.54 352.44 158.89 351.78C159.24 351.12 160.29 350.73 160.88 351.17" fill="#E0E0E0"/>
<path d="M165.07 364.07L165.41 361.1L130.32 357.01C130.32 357.01 128.59 357.47 128.6 358.65L165.06 364.07H165.07Z" fill="#E0E0E0"/>
<path d="M148.68 350.74C148.66 350.92 149.54 351.13 150.33 351.84C151.14 352.52 151.48 353.36 151.65 353.31C151.82 353.3 151.71 352.2 150.74 351.36C149.78 350.52 148.67 350.57 148.68 350.74V350.74Z" fill="#263238"/>
<path d="M144.62 351.75C144.55 351.92 145.28 352.33 145.77 353.18C146.29 354.01 146.32 354.85 146.5 354.86C146.66 354.91 146.94 353.89 146.31 352.85C145.69 351.81 144.65 351.58 144.62 351.75V351.75Z" fill="#263238"/>
<path d="M141.77 356C141.93 356.06 142.31 355.21 141.99 354.17C141.69 353.12 140.9 352.61 140.81 352.75C140.69 352.88 141.15 353.48 141.39 354.35C141.65 355.2 141.59 355.96 141.77 356.01V356Z" fill="#263238"/>
<path d="M149.64 346.49C149.69 346.66 150.54 346.54 151.54 346.76C152.54 346.96 153.27 347.41 153.39 347.27C153.51 347.16 152.85 346.38 151.67 346.14C150.5 345.89 149.58 346.33 149.64 346.49Z" fill="#263238"/>
<path d="M151.15 342.29C151.14 342.36 151.82 342.58 152.98 342.55C153.55 342.54 154.24 342.45 154.98 342.25C155.35 342.15 155.73 342.02 156.11 341.85C156.29 341.77 156.51 341.69 156.73 341.5C156.95 341.34 157.14 340.89 156.95 340.57C156.8 340.26 156.49 340.09 156.23 340.05C155.96 340 155.74 340.02 155.53 340.05C155.11 340.09 154.71 340.17 154.34 340.27C153.6 340.48 152.97 340.8 152.49 341.12C151.53 341.78 151.14 342.4 151.2 342.44C151.27 342.51 151.77 342.01 152.72 341.5C153.2 341.24 153.8 340.99 154.49 340.82C154.84 340.74 155.2 340.68 155.59 340.65C155.99 340.61 156.32 340.65 156.39 340.84C156.42 340.91 156.42 340.94 156.32 341.04C156.22 341.13 156.05 341.21 155.87 341.29C155.52 341.45 155.16 341.59 154.82 341.7C154.14 341.92 153.5 342.05 152.95 342.11C151.86 342.25 151.17 342.19 151.16 342.29H151.15Z" fill="#263238"/>
<path d="M151.35 342.58C151.41 342.62 151.86 342.03 152.09 340.89C152.21 340.32 152.25 339.62 152.14 338.85C152.08 338.47 151.99 338.07 151.84 337.67C151.68 337.28 151.49 336.76 150.81 336.57C150.45 336.5 150.11 336.74 149.97 336.97C149.81 337.2 149.76 337.41 149.68 337.61C149.55 338.03 149.5 338.44 149.5 338.84C149.5 339.63 149.72 340.33 150 340.84C150.57 341.89 151.28 342.21 151.31 342.16C151.38 342.08 150.81 341.64 150.4 340.65C150.2 340.16 150.05 339.54 150.08 338.85C150.09 338.51 150.15 338.15 150.27 337.8C150.38 337.42 150.58 337.13 150.72 337.19C150.9 337.21 151.17 337.55 151.27 337.88C151.41 338.23 151.51 338.59 151.58 338.94C151.71 339.63 151.72 340.28 151.66 340.81C151.55 341.89 151.26 342.53 151.35 342.57V342.58Z" fill="#263238"/>
<path d="M198.27 266.01L229.55 334.15L208.89 346.55L165.66 264.56" fill="#263238"/>
<path d="M146.71 348.1L169.15 351.7L182.58 271.56L248.93 276.37C250.69 276.48 252.46 276.33 254.16 275.86C272.8 270.75 270.27 247 268.48 243.19L176.67 240.55C166.71 240.26 158.13 247.51 156.75 257.38L146.72 348.09L146.71 348.1Z" fill="#263238"/>
<path d="M269.38 246.96L269.05 213.08C269.05 213.08 273.42 191.05 274.72 182.39C276.73 168.94 279.48 162.56 257.46 153L252.65 151.14L245.2 151.24C236.31 151.91 226.95 159.94 226.74 165.27L218.17 241.62L269.4 246.97L269.38 246.96Z" fill="#FF4C34"/>
<path d="M268 160.88C268 160.88 274.21 174.26 272.97 186.45L249.8 208.69C244.6 214.47 238.11 216.93 229.8 217.43L181.86 222.67L180.53 210.13L226.14 197.21C227.95 196.88 228.86 194.98 230.25 193.77L268 160.89" fill="#FF4C34"/>
<path d="M271.74 164.74C271.74 164.74 271.48 164.45 270.82 164.12C270.16 163.8 269.12 163.47 267.72 163.25C266.33 163.05 264.57 162.9 262.54 163.26C262.04 163.38 261.51 163.5 261.02 163.78C260.54 164.06 260.08 164.39 259.61 164.74C258.68 165.46 257.75 166.28 256.81 167.19C254.89 168.98 253.07 171.25 250.94 173.55C248.82 175.86 246.48 178.32 243.94 180.91C241.41 183.5 238.68 186.21 235.75 189.01C234.28 190.4 232.77 191.82 231.17 193.21C230.36 193.88 229.56 194.66 228.79 195.39C228.01 196.11 227.12 196.78 226.1 196.97H226.09H226.08C212.52 200.81 196.96 205.2 180.47 209.87L180.26 209.93L180.28 210.15C180.37 211.04 180.48 212 180.58 212.96C180.93 216.29 181.28 219.59 181.61 222.69L181.64 222.95L181.9 222.92C188.87 222.15 195.66 221.41 202.19 220.69C205.46 220.33 208.66 219.98 211.79 219.63C214.93 219.31 217.99 219 220.98 218.7C223.97 218.37 226.87 218.03 229.68 217.62C232.49 217.21 235.22 216.69 237.73 215.75C240.25 214.83 242.5 213.51 244.52 212.11C246.55 210.7 248.39 209.23 250.12 207.78C256.97 201.93 262 196.71 265.49 193.15C267.22 191.36 268.55 189.95 269.44 188.99C269.87 188.52 270.2 188.15 270.44 187.89C270.66 187.64 270.77 187.5 270.77 187.5C270.77 187.5 270.64 187.61 270.41 187.85C270.16 188.1 269.82 188.46 269.37 188.92C268.44 189.87 267.09 191.25 265.36 193.02C261.83 196.54 256.76 201.72 249.9 207.52C248.17 208.95 246.32 210.41 244.3 211.8C242.29 213.19 240.07 214.48 237.59 215.37C235.11 216.29 232.42 216.79 229.61 217.19C226.81 217.59 223.91 217.93 220.92 218.25C217.93 218.55 214.87 218.85 211.73 219.16C208.6 219.5 205.39 219.85 202.13 220.2C195.6 220.91 188.81 221.65 181.83 222.41L182.12 222.64C181.79 219.54 181.44 216.24 181.09 212.91C180.99 211.95 180.89 210.99 180.79 210.1L180.6 210.38C197.09 205.7 212.64 201.28 226.2 197.43H226.18C227.36 197.21 228.3 196.47 229.1 195.74C229.91 194.97 230.64 194.25 231.47 193.56C233.07 192.16 234.59 190.73 236.06 189.33C238.98 186.52 241.7 183.79 244.23 181.19C246.75 178.59 249.08 176.12 251.2 173.79C253.33 171.47 255.12 169.2 257.01 167.41C257.94 166.5 258.86 165.68 259.77 164.96C260.23 164.61 260.68 164.27 261.14 164C261.59 163.73 262.11 163.61 262.59 163.49C264.57 163.11 266.33 163.24 267.71 163.41C269.1 163.6 270.14 163.9 270.8 164.2C271.46 164.5 271.73 164.77 271.75 164.75L271.74 164.74Z" fill="#263238"/>
<path d="M259.78 121.76L257.45 154.74C257.07 160.12 252.59 164.3 247.19 164.3C241.25 164.3 236.54 159.27 236.93 153.34C237.14 150.2 237.32 147.63 237.32 147.63C237.32 147.63 229.34 146.39 229.24 138.41C229.18 133.8 229.98 123.34 230.66 115.32C231.12 109.9 235.66 105.74 241.1 105.74H245.92C254.23 106.23 260.49 113.47 259.78 121.76V121.76Z" fill="#FFBE9D"/>
<path d="M237.31 147.52C237.31 147.52 242.36 147.93 247.72 144.56C247.72 144.56 245.26 150.31 237.29 149.59L237.31 147.52Z" fill="#EB996E"/>
<path d="M232.46 125.58C232.44 126.18 232.93 126.7 233.56 126.73C234.19 126.76 234.71 126.3 234.74 125.7C234.76 125.1 234.27 124.58 233.64 124.55C233.01 124.52 232.48 124.98 232.46 125.58Z" fill="#263238"/>
<path d="M232.04 123.33C232.18 123.48 233.04 122.84 234.27 122.84C235.5 122.83 236.4 123.46 236.53 123.31C236.6 123.24 236.45 122.98 236.06 122.69C235.67 122.41 235.02 122.13 234.25 122.13C233.49 122.13 232.84 122.42 232.47 122.7C232.09 122.99 231.96 123.26 232.03 123.32L232.04 123.33Z" fill="#263238"/>
<path d="M243.98 125.58C243.96 126.18 244.45 126.7 245.08 126.73C245.71 126.76 246.23 126.3 246.26 125.7C246.28 125.1 245.79 124.58 245.16 124.55C244.53 124.52 244.01 124.98 243.98 125.58Z" fill="#263238"/>
<path d="M244.1 123.56C244.24 123.71 245.11 123.07 246.33 123.07C247.56 123.06 248.46 123.69 248.59 123.54C248.65 123.47 248.51 123.21 248.12 122.92C247.73 122.64 247.08 122.36 246.31 122.36C245.55 122.36 244.9 122.65 244.53 122.93C244.15 123.22 244.03 123.49 244.09 123.55L244.1 123.56Z" fill="#263238"/>
<path d="M239.65 132.66C239.65 132.59 238.89 132.46 237.66 132.3C237.35 132.27 237.05 132.21 237 131.99C236.93 131.76 237.06 131.43 237.21 131.06C237.5 130.3 237.81 129.51 238.14 128.67C239.43 125.27 240.36 122.48 240.22 122.43C240.08 122.38 238.93 125.09 237.64 128.49C237.33 129.33 237.03 130.13 236.75 130.89C236.63 131.25 236.43 131.65 236.59 132.12C236.67 132.35 236.9 132.52 237.1 132.58C237.3 132.64 237.48 132.64 237.63 132.65C238.87 132.72 239.65 132.72 239.65 132.65V132.66Z" fill="#263238"/>
<path d="M243.26 133.51C243.06 133.5 243.06 134.83 241.92 135.78C240.78 136.73 239.36 136.58 239.35 136.76C239.33 136.84 239.67 137.02 240.27 137.04C240.86 137.06 241.72 136.87 242.41 136.29C243.11 135.71 243.4 134.94 243.45 134.39C243.5 133.83 243.35 133.5 243.26 133.51V133.51Z" fill="#263238"/>
<path d="M243.78 118.75C243.9 119.08 245.13 118.93 246.56 119.1C248 119.24 249.16 119.67 249.35 119.37C249.44 119.23 249.23 118.91 248.76 118.59C248.3 118.27 247.55 117.96 246.69 117.86C245.83 117.77 245.03 117.9 244.51 118.12C243.98 118.33 243.72 118.59 243.77 118.75H243.78Z" fill="#263238"/>
<path d="M232.49 119.78C232.71 120.06 233.55 119.77 234.57 119.76C235.59 119.71 236.45 119.95 236.64 119.66C236.73 119.52 236.59 119.24 236.22 118.98C235.85 118.72 235.23 118.5 234.53 118.52C233.83 118.54 233.23 118.79 232.87 119.08C232.51 119.37 232.39 119.65 232.49 119.79V119.78Z" fill="#263238"/>
<path d="M257.09 127.76C257.23 127.7 262.57 126.14 262.4 131.6C262.23 137.06 256.78 135.76 256.78 135.6C256.78 135.44 257.09 127.76 257.09 127.76V127.76Z" fill="#FFBE9D"/>
<path d="M258.51 133.58C258.51 133.58 258.6 133.65 258.76 133.73C258.91 133.81 259.18 133.86 259.47 133.77C260.05 133.58 260.57 132.68 260.63 131.69C260.66 131.19 260.57 130.72 260.41 130.32C260.26 129.92 260.01 129.63 259.72 129.57C259.43 129.49 259.22 129.66 259.15 129.81C259.07 129.96 259.1 130.07 259.07 130.08C259.05 130.09 258.96 129.98 259.01 129.76C259.04 129.65 259.1 129.53 259.24 129.42C259.37 129.32 259.57 129.27 259.77 129.3C260.19 129.34 260.56 129.74 260.74 130.18C260.94 130.62 261.05 131.15 261.02 131.71C260.95 132.81 260.35 133.82 259.56 134.02C259.17 134.11 258.86 133.98 258.7 133.85C258.54 133.71 258.51 133.59 258.53 133.58H258.51Z" fill="#EB996E"/>
<path d="M260.12 127.57C259.29 127.37 257.85 128.14 257.49 128.92C257.13 129.7 257.06 130.58 256.7 131.36C256.35 132.14 255.55 132.84 254.71 132.65C254.14 132.51 253.72 131.98 253.57 131.4C253.42 130.83 253.48 130.23 253.55 129.64C253.87 127.09 254.41 124.56 254.51 122C254.61 119.43 254.25 116.77 252.9 114.58C251.55 112.39 249.08 110.78 246.52 110.99C244.82 111.13 243.27 112.01 241.58 112.25C239.58 112.53 237.47 111.82 236.04 110.4C235.86 110.22 235 109.66 235 109.66C235 109.53 235.12 108.39 235.57 107.97C238.91 104.88 244.94 104.02 249.35 105.13C253.77 106.24 257.91 109.36 259.81 113.5C261.71 117.64 261.15 123.39 260.1 127.58" fill="#263238"/>
<path d="M230.57 114.09C230.57 114.09 251.51 107.35 260.57 125.47C260.57 125.47 261.92 120.94 261.92 118.51C261.92 116.89 260.95 107.22 251 104.18C251 104.18 236.01 98.46 230.56 114.1L230.57 114.09Z" fill="#FF4C34"/>
<path d="M248.57 114.55C247.83 115.75 246.51 116.56 245.11 116.69C243.71 116.82 242.26 116.25 241.32 115.21C240.91 116.24 239.8 116.95 238.69 116.89C237.58 116.83 236.55 116.01 236.25 114.94C235.64 115.53 235.01 116.14 234.21 116.43C233.41 116.72 232.41 116.61 231.88 115.94C231.35 115.26 231.5 114.23 232.02 113.54C232.54 112.85 233.35 112.44 234.14 112.11C236.63 111.07 239.37 110.55 242.04 110.91C244.71 111.27 247.3 112.57 248.97 114.68" fill="#263238"/>
<g opacity="0.4">
<path d="M230.57 114.09C230.57 114.09 232.95 111.25 237.23 111.07C243.41 110.8 254.97 114.27 260.57 125.48C260.57 125.48 261.92 120.95 261.92 118.52C261.92 116.9 260.95 107.23 251 104.19C251 104.19 236.01 98.4698 230.56 114.11L230.57 114.09Z" fill="black"/>
</g>
<path d="M259.7 123.35C256.59 118.6 252.31 114.67 247.5 111.66C242.69 108.65 234.73 105.68 229.24 104.22C227.59 103.78 225.88 103.4 224.2 103.69C222.52 103.98 220.88 105.1 220.46 106.75C219.94 108.82 223.61 112.01 225.33 113.26C227.05 114.52 230.57 116.36 230.57 116.36C230.57 116.36 230.52 112.52 236.66 111.73C245.01 110.65 259.69 123.34 259.69 123.34L259.7 123.35Z" fill="#FF4C34"/>
<g opacity="0.3">
<path d="M267.07 191.4C264.91 196.61 262.73 203.04 259.6 207.73C256.47 212.42 252.29 216.58 247.08 218.76C240.55 221.49 232.82 221.94 226.32 219.13C225.79 218.9 224.75 218.61 224.85 218.04C224.85 218.04 227 217.8 227.67 217.69C240.81 215.47 242.23 213.85 248.52 208.88C252.44 205.78 261.13 196.41 267.07 191.4" fill="black"/>
</g>
<path d="M225.32 229.34C225.32 229.34 225.46 229.8 225.87 230.56C226.27 231.32 226.96 232.37 227.99 233.52C230.03 235.84 233.65 238.35 238.16 239.74C242.67 241.13 246.95 241.38 250 241.51C251.53 241.57 252.77 241.58 253.62 241.58C254.48 241.58 254.95 241.56 254.95 241.52C254.95 241.48 254.48 241.44 253.63 241.38C252.67 241.32 251.46 241.24 250.02 241.15C246.99 240.93 242.75 240.61 238.31 239.25C233.88 237.88 230.31 235.48 228.25 233.27C226.15 231.07 225.41 229.28 225.31 229.34H225.32Z" fill="#263238"/>
<path d="M168.74 354.09C168.74 354.09 168.78 353.99 168.82 353.78C168.87 353.54 168.93 353.24 169 352.86C169.15 352.02 169.37 350.83 169.64 349.31C170.18 346.19 170.96 341.74 171.91 336.25C173.78 325.19 176.36 309.96 179.21 293.14C180.48 285.53 181.69 278.24 182.8 271.59L182.54 271.79C194.19 272.64 204.16 273.37 211.25 273.89C214.75 274.13 217.54 274.32 219.49 274.45C220.42 274.5 221.15 274.55 221.69 274.58C221.92 274.58 222.11 274.6 222.26 274.6C222.39 274.6 222.45 274.6 222.45 274.6C222.45 274.6 222.39 274.58 222.26 274.56C222.11 274.54 221.92 274.52 221.7 274.5C221.17 274.45 220.44 274.38 219.51 274.29C217.56 274.12 214.77 273.89 211.28 273.59C204.2 273.03 194.24 272.23 182.59 271.3L182.37 271.28L182.33 271.5C181.21 278.14 179.98 285.43 178.7 293.04C175.91 309.87 173.38 325.11 171.55 336.18C170.66 341.68 169.94 346.14 169.44 349.26C169.21 350.78 169.02 351.97 168.89 352.82C168.84 353.21 168.79 353.51 168.76 353.75C168.73 353.96 168.72 354.07 168.73 354.07L168.74 354.09Z" fill="#455A64"/>
<path d="M175.84 264.42C175.75 264.54 177.49 266.04 179.48 268.06C181.47 270.07 182.94 271.85 183.06 271.75C183.17 271.67 181.87 269.73 179.85 267.69C177.84 265.64 175.92 264.31 175.84 264.41V264.42Z" fill="#455A64"/>
<path d="M237.13 154.05C237.13 154.05 237.07 154.16 237.01 154.38C236.94 154.6 236.88 154.93 236.82 155.36C236.72 156.22 236.77 157.52 237.31 159C237.85 160.46 238.9 162.1 240.6 163.33C242.29 164.56 244.63 165.2 247.02 165.04C249.42 164.88 251.62 163.98 253.25 162.71C254.9 161.45 256.03 159.93 256.79 158.58C257.54 157.21 257.94 156.02 258.14 155.18C258.24 154.76 258.31 154.43 258.34 154.21C258.37 153.99 258.38 153.87 258.36 153.86C258.25 153.82 258 155.77 256.46 158.4C255.68 159.69 254.55 161.14 252.95 162.33C251.37 163.53 249.26 164.37 246.97 164.53C244.69 164.68 242.48 164.08 240.86 162.94C239.23 161.81 238.2 160.26 237.63 158.87C237.08 157.47 236.96 156.22 237 155.38C237.03 154.53 237.16 154.07 237.11 154.06L237.13 154.05Z" fill="#263238"/>
<path d="M223.03 197.72C223.03 197.72 223.14 197.35 223.24 196.68C223.35 195.89 223.49 194.94 223.64 193.82C223.97 191.27 224.4 187.99 224.87 184.37C225.32 180.67 225.68 177.32 225.9 174.89C226.01 173.67 226.09 172.69 226.13 172.01C226.17 171.33 226.18 170.95 226.14 170.95C226.1 170.95 226.03 171.32 225.93 171.99C225.82 172.78 225.69 173.73 225.54 174.85C225.22 177.4 224.81 180.68 224.36 184.31C223.91 188 223.52 191.35 223.28 193.78C223.16 195 223.08 195.98 223.04 196.66C223 197.34 222.99 197.72 223.03 197.72V197.72Z" fill="#263238"/>
</g>
</g>
<defs>
<clipPath id="clip0_2_1989">
<rect width="700" height="415" fill="white"/>
</clipPath>
<clipPath id="clip1_2_1989">
<rect width="700.07" height="412.33" fill="white" transform="matrix(-1 0 0 1 700.07 1)"/>
</clipPath>
</defs>
</svg>
