<svg width="700" height="415" viewBox="0 0 700 415" fill="none" xmlns="http://www.w3.org/2000/svg">
<g opacity="0.5">
<path opacity="0.5" d="M498.137 106.384L495.215 273.248L482.468 363.087L454.334 362.805L444.791 362.735L399.614 362.277L395.811 307.501L390.389 132.681L438.031 116.875L498.137 106.384Z" fill="#EABCB5"/>
<path opacity="0.5" d="M589.125 363.967H567.752L506.518 363.334L507.398 270.397L509.511 47.771L581.766 94.2394L586.59 270.397L589.125 363.967Z" fill="#EABCB5"/>
<path opacity="0.5" d="M377.466 240.685V361.996L339.155 361.608L262.428 360.799L256.97 220.337L377.466 240.685Z" fill="#EABCB5"/>
<path opacity="0.5" d="M620.429 252.056V363.967H567.751L506.518 363.228L482.468 362.911L454.333 362.559L455.848 199.11L620.429 252.056Z" fill="#EABCB5"/>
<path opacity="0.5" d="M654.409 153.346V153.803L652.085 363.967H592.471L594.02 270.397L595.781 165.456L654.409 153.346Z" fill="#EABCB5"/>
<path opacity="0.5" d="M444.792 302.643V362.7L399.614 362.207L377.466 361.996L339.155 361.609V302.643H444.792Z" fill="#EABCB5"/>
<path opacity="0.5" d="M193.694 116.558L191.37 270.397L189.997 360.059L161.827 359.743L152.32 359.637L106.931 359.179L103.305 302.643L91.7903 122.507L113.023 121.24L167.391 118.107L193.694 116.558Z" fill="#EABCB5"/>
<path opacity="0.5" d="M296.548 361.151L265.386 360.834L234.963 360.552L221.159 360.412L221.934 282.119L223.836 88.3252L289.893 128.774L294.295 282.119L296.548 361.151Z" fill="#EABCB5"/>
<path opacity="0.5" d="M105.206 240.861V371.712L91.2623 371.536L72.7056 371.324L73.1633 309.367L73.6211 239.312L105.206 240.861Z" fill="#EABCB5"/>
<path opacity="0.5" d="M327.922 270.396V361.467L309.471 361.291L296.548 361.151L262.428 360.799L229.153 360.447L214.047 360.306L189.997 360.059L161.827 359.743V270.396H327.922Z" fill="#EABCB5"/>
<path opacity="0.5" d="M361.902 170.701V171.123L359.965 361.82L356.726 361.784L339.155 361.608L327.922 361.503L309.471 361.327L310.774 278L312.253 181.79L361.902 170.701Z" fill="#EABCB5"/>
<path opacity="0.5" d="M175.208 268.636V372.486L129.82 371.641L107.883 371.219L93.7627 370.937L74.9595 370.585L75.382 268.636H175.208Z" fill="#EABCB5"/>
<path opacity="0.5" d="M167.391 127.049H113.868L111.052 106.983H167.391V127.049Z" fill="#EABCB5"/>
<path opacity="0.5" d="M152.32 117.016H128.939V69.6674L154.01 67.9072L152.32 117.016Z" fill="#EABCB5"/>
<path opacity="0.5" d="M142.743 40.9766H138.517V88.3321H142.743V40.9766Z" fill="#EABCB5"/>
</g>
<path d="M350 414.378C528.388 414.378 673 397.404 673 376.464C673 355.525 528.388 338.55 350 338.55C171.612 338.55 27 355.525 27 376.464C27 397.404 171.612 414.378 350 414.378Z" fill="#F8634F"/>
<path d="M452.749 294.124C452.749 294.124 467.256 155.986 510.743 159.049C554.23 162.111 477.15 250.718 474.404 290.991L452.749 294.124Z" fill="#C54130"/>
<path d="M464.862 292.469C466.27 264.624 477.327 235.088 486.376 215.198C496.201 193.654 505.778 178.516 505.884 178.34L504.933 177.742C504.828 177.918 495.215 193.126 485.355 214.74C476.271 234.701 465.144 264.377 463.77 292.399L464.862 292.469Z" fill="white"/>
<path d="M605.991 288.879C579.758 296.377 586.871 336.368 556.025 330.911C525.18 325.455 527.609 323.343 513.877 337.459C513.877 337.459 509.053 350.59 497.151 353.512C450.108 365.023 380.353 298.982 427.431 256.914C430.847 253.886 435.988 252.443 441.692 251.141C472.714 244.17 483.418 257.935 505.672 219.352C527.926 180.769 564.934 231.497 585.815 228.223C606.696 224.949 624.83 217.451 642.682 238.608C660.535 259.765 632.224 281.345 605.991 288.879Z" fill="#FFAFA5"/>
<path d="M445.988 302.819L444.897 301.375C445.53 300.883 509.088 252.795 646.873 240.403L647.014 242.199C509.757 254.555 446.622 302.326 445.988 302.819Z" fill="white"/>
<path d="M528.314 243.818C509.018 228.645 504.969 215.867 504.792 215.339L506.518 214.811C506.553 214.916 510.638 227.625 529.441 242.41L528.314 243.818Z" fill="white"/>
<path d="M532.751 262.934C527.046 254.274 526.659 241.248 531.659 225.301C534.031 217.805 537.145 210.565 540.955 203.687L542.504 204.602C542.293 204.989 521.131 241.988 534.265 261.948L532.751 262.934Z" fill="white"/>
<path d="M568.878 257.406C566.589 255.752 565.321 254.625 565.286 254.59L566.483 253.252C566.73 253.499 593.069 276.627 629.407 273.107L629.583 274.902C600.287 277.719 577.399 263.637 568.878 257.406Z" fill="white"/>
<path d="M589.512 297.609C580.568 288.878 577.575 279.796 576.659 273.67C575.744 267.545 576.73 262.476 576.8 262.3L578.525 262.722C578.49 262.898 574.406 280.359 590.779 296.341L589.512 297.609Z" fill="white"/>
<path d="M204.856 125.042C227.146 147.115 197.92 183.515 232.005 195.026C266.09 206.538 264.893 203.088 270.914 224.914C270.914 224.914 268.555 240.791 278.943 250.331C320.035 287.893 426.868 259.801 402.642 191.365C400.882 186.437 396.48 182.177 391.41 177.706C363.98 153.557 345.564 161.478 344.472 110.292C343.381 59.1064 277.957 89.8389 258.696 75.0183C239.435 60.1977 225.315 42.596 195.596 54.1075C165.877 65.619 182.532 102.97 204.856 125.042Z" fill="#FFAFA5"/>
<path d="M356.162 227.449L358.063 226.639C357.711 225.794 323.36 144.516 191.209 55.9443L189.01 57.4101C320.667 145.63 355.81 226.639 356.162 227.449Z" fill="white"/>
<path d="M305.703 122.507C333.556 117.861 344.718 107.194 345.176 106.772L343.732 105.293C343.627 105.399 332.5 115.96 305.386 120.466L305.703 122.507Z" fill="white"/>
<path d="M290.703 139.334C301.232 133.737 308.802 120.818 312.57 101.984C314.314 93.1138 315.175 84.0929 315.14 75.0532L313.063 75.1236C313.098 75.6165 313.978 124.655 289.717 137.504L290.703 139.334Z" fill="white"/>
<path d="M257.322 113.812C259.061 113.624 260.789 113.342 262.498 112.967L262.005 110.961C261.617 111.066 222.286 119.867 187.531 96.2456L186.369 97.9354C214.363 116.98 245.279 115.396 257.322 113.812Z" fill="white"/>
<path d="M214.258 142.996C228.096 139.124 236.16 131.59 240.456 125.958C244.751 120.325 246.547 114.622 246.618 114.411L244.611 113.883C244.575 114.059 239.012 133.913 213.73 140.989L214.258 142.996Z" fill="white"/>
<path d="M463.489 182.248L456.024 181.227L455.601 167.075L463.489 166.547V182.248Z" fill="#EABCB5"/>
<path d="M541.307 142.538L533.842 141.517L533.42 127.365L541.307 126.837V142.538Z" fill="#EABCB5"/>
<path d="M523.841 102.266L516.376 101.21L515.954 87.0578L523.841 86.5298V102.266Z" fill="#EABCB5"/>
<path d="M463.489 286.766L456.024 285.745L455.601 271.593L463.489 271.065V286.766Z" fill="#EABCB5"/>
<path d="M449.439 255.682L441.974 254.661L441.552 240.509L449.439 239.981V255.682Z" fill="#EABCB5"/>
<path d="M287.71 168.588L280.245 167.568L279.822 153.381L287.71 152.853V168.588Z" fill="#EABCB5"/>
<path d="M449.087 358.757L290.245 363.017C278.766 363.017 268.484 355.167 268.484 343.69L275.386 55.9385C275.404 50.4263 277.603 45.1452 281.501 41.2475C285.4 37.3498 290.682 35.1519 296.196 35.1333H449.087C460.566 35.1333 476.939 41.4699 476.939 58.6843L469.897 337.952C469.888 343.467 467.692 348.754 463.791 352.653C459.891 356.553 454.603 358.748 449.087 358.757V358.757Z" fill="#732015"/>
<path d="M449.157 40.4136H296.161C287.604 40.4136 280.668 47.1726 280.668 55.4454L276.231 330.489C276.09 349.323 286.196 348.619 294.752 348.619L448.946 344.359C457.503 344.359 464.615 334.537 464.615 326.229L470.883 57.2408C470.883 48.9328 457.714 40.4136 449.157 40.4136V40.4136Z" fill="#F7F0F7"/>
<path d="M393.628 207.277C393.522 217.416 391.269 227.554 386.903 237.482C376.48 261.35 355.317 279.902 330.387 287.083C330.206 287.144 330.015 287.168 329.824 287.154C329.357 287.129 328.913 286.942 328.57 286.625C328.226 286.308 328.004 285.882 327.941 285.418C327.878 284.955 327.979 284.485 328.227 284.088C328.474 283.692 328.852 283.394 329.296 283.246C353.099 276.417 373.276 258.674 383.276 235.862C387.396 226.463 389.544 216.817 389.649 207.207C389.813 197.493 387.639 187.883 383.311 179.185C375.529 163.766 351.867 134.618 331.796 111.102C331.621 110.896 331.493 110.655 331.422 110.394C331.352 110.134 331.339 109.861 331.387 109.595C331.434 109.329 331.539 109.077 331.695 108.857C331.851 108.637 332.054 108.453 332.289 108.321V108.321C332.734 108.063 333.254 107.967 333.762 108.051C334.269 108.134 334.732 108.392 335.071 108.778L339.472 113.988C364.825 143.911 380.741 165.244 386.867 177.425C391.479 186.691 393.798 196.929 393.628 207.277V207.277Z" fill="#F28686"/>
<path d="M412.079 220.302C399.754 220.302 389.156 218.401 380.353 214.67C351.796 202.454 300.632 196.681 290.421 195.66C289.945 195.598 289.51 195.355 289.209 194.982C288.907 194.608 288.761 194.132 288.801 193.653V193.653C288.855 193.171 289.094 192.728 289.469 192.419C289.844 192.11 290.324 191.959 290.808 191.999C301.161 193.09 352.782 198.899 381.796 211.29C409.755 223.259 451.551 211.642 460.425 208.932C460.878 208.806 461.361 208.856 461.779 209.071C462.197 209.287 462.518 209.652 462.678 210.093V210.093C462.755 210.324 462.784 210.568 462.765 210.811C462.746 211.054 462.679 211.29 462.568 211.506C462.456 211.723 462.303 211.915 462.116 212.071C461.929 212.227 461.714 212.345 461.481 212.417C452.566 215.104 443.469 217.151 434.262 218.542C426.92 219.665 419.506 220.253 412.079 220.302V220.302Z" fill="#F28686"/>
<path d="M348.099 188.971C347.781 189.305 347.546 189.708 347.414 190.149C347.282 190.591 347.257 191.057 347.339 191.51C347.421 191.963 347.61 192.39 347.889 192.756C348.167 193.123 348.529 193.418 348.944 193.618C356.303 197.068 374.649 205.27 377.642 202.489C381.409 199.004 372.677 172.848 369.05 173.728C366.198 174.397 353.345 183.691 348.099 188.971Z" fill="#F9C7BB"/>
<path d="M444.157 141.834C442.833 142.745 441.402 143.49 439.896 144.052C430.283 147.572 392.642 162.322 397.677 175.735C399.156 179.642 401.656 201.504 401.48 207.418C401.304 213.332 452.854 205.622 458.242 200.483C460.284 198.547 459.228 155.247 459.016 138.314C458.981 135.357 455.882 133.632 453.594 135.251L444.157 141.834Z" fill="#F9C7BB"/>
<path d="M344.19 178.269L359.824 167.99C362.852 165.984 363.451 162.076 361.127 159.365L323.45 115.995C322.468 114.926 321.18 114.187 319.762 113.878C318.344 113.569 316.865 113.706 315.527 114.27L303.062 119.445C299.4 120.959 298.062 125.112 300.281 128.175L334.788 176.685C336.831 179.572 341.127 180.311 344.19 178.269Z" fill="#F9C7BB"/>
<path d="M291.302 181.579C291.322 182.831 291.786 184.035 292.611 184.976C293.437 185.917 294.57 186.535 295.809 186.718C305.95 188.162 330.035 191.365 330.88 189.218C333.979 181.332 302.429 134.477 293.45 137.997C290.844 139.018 291.09 169.856 291.302 181.579Z" fill="#F9C7BB"/>
<path d="M368.733 77.8346C368.733 77.8346 334.823 97.6189 336.901 100.787C338.978 103.955 356.021 132.787 362.535 131.379C369.05 129.971 399.79 112.827 397.712 108.708C395.635 104.589 374.824 73.223 368.733 77.8346Z" fill="#F9C7BB"/>
<path d="M394.156 131.414C394.156 131.414 370 144.404 371.902 146.587C373.803 148.77 380.705 158.028 383.944 157.606C387.184 157.183 412.22 143.454 411.058 141.13C409.896 138.807 396.761 130.006 394.156 131.414Z" fill="#F9C7BB"/>
<path d="M296.09 203.827C296.09 203.827 321.619 207.347 334.119 210.128C346.62 212.91 379.895 222.731 378.557 225.583C377.219 228.434 344.577 271.699 309.506 281.028C286.125 287.259 288.801 262.687 288.801 252.267C288.801 237.763 283.801 200.448 296.09 203.827Z" fill="#F9C7BB"/>
<path d="M343.627 301.059C343.627 301.059 445.249 303.277 449.404 296.799C458.981 281.943 456.164 233.75 455.848 231.391C454.967 224.914 414.544 228.962 409.192 233.116C403.839 237.27 392.114 275.29 369.296 283.211C335.739 294.828 332.781 301.094 343.627 301.059Z" fill="#F9C7BB"/>
<path d="M530.321 188.901C521.905 190.52 512.433 189.007 502.046 184.43C497.267 182.33 492.704 179.771 488.419 176.791L497.574 163.66L492.996 170.208L497.574 163.625C502.327 167.11 517.152 175.524 528.208 172.778C533.244 171.546 537.117 168.061 540.075 162.146L554.23 169.574C549.195 179.678 541.518 186.226 531.976 188.549L530.321 188.901Z" fill="#EA9A81"/>
<path d="M510.11 178.516C510.11 178.516 504.898 170.736 499.581 168.342C494.264 165.949 490.919 167.955 490.919 167.955L485.25 165.667C485.25 165.667 484.44 187.247 499.229 183.445C500.391 183.163 510.11 178.516 510.11 178.516Z" fill="#EA9A81"/>
<path d="M486.095 154.437L491.517 185.698C491.602 186.184 491.783 186.648 492.049 187.063C492.316 187.478 492.663 187.835 493.07 188.114C493.477 188.393 493.935 188.588 494.418 188.686C494.902 188.785 495.4 188.787 495.884 188.69L510.461 185.733C511.399 185.545 512.226 184.998 512.766 184.209C513.305 183.419 513.515 182.45 513.349 181.509L507.997 150.671C507.916 150.193 507.741 149.737 507.483 149.327C507.224 148.918 506.887 148.564 506.491 148.285C506.095 148.007 505.647 147.81 505.174 147.706C504.701 147.602 504.212 147.592 503.736 147.678L489.123 150.178C488.642 150.254 488.182 150.426 487.768 150.683C487.355 150.939 486.997 151.276 486.715 151.672C486.433 152.069 486.233 152.518 486.126 152.992C486.02 153.467 486.009 153.958 486.095 154.437V154.437Z" fill="#30262A"/>
<path d="M488.383 153.451C488.392 153.196 488.5 152.954 488.684 152.777C488.868 152.599 489.114 152.5 489.369 152.5C489.627 152.518 489.869 152.634 490.046 152.823C490.222 153.013 490.32 153.262 490.32 153.521C490.302 153.78 490.186 154.022 489.997 154.198C489.807 154.375 489.558 154.473 489.299 154.472C489.171 154.468 489.045 154.437 488.929 154.383C488.813 154.329 488.709 154.252 488.623 154.157C488.538 154.061 488.473 153.95 488.431 153.828C488.39 153.707 488.374 153.579 488.383 153.451Z" fill="#100B47"/>
<path d="M483.418 163.379C483.418 163.379 481.904 160.105 484.932 158.767C488.771 157.042 495.179 158.591 492.785 159.717C490.39 160.844 487.256 161.372 487.256 161.372C487.256 161.372 495.883 159.753 495.602 161.654C495.32 163.555 487.89 164.857 487.89 164.857C487.89 164.857 496.412 164.083 495.566 165.772C494.721 167.462 487.996 168.73 487.996 168.73C487.996 168.73 496.306 167.497 495.285 169.469C494.264 171.44 489.827 171.194 487.925 171.511C486.024 171.827 485.355 170.771 485.179 169.011C485.179 169.011 484.017 167.392 484.193 166.195C484.263 165.772 483.77 165.42 483.665 165.104C483.535 164.536 483.453 163.959 483.418 163.379V163.379Z" fill="#EA9A81"/>
<path d="M563.069 366.783C563.069 366.783 562.928 372.275 559.231 373.789C555.533 375.302 544.758 376.746 548.773 380.266C551.061 382.273 561.942 380.97 565.005 380.97C568.069 380.97 570.956 382.308 573.21 380.266C575.463 378.224 573.21 366.783 573.21 366.783C573.21 366.783 570.569 368.156 568.21 368.086C564.759 368.015 563.069 366.783 563.069 366.783Z" fill="#30262A"/>
<path d="M605.64 366.783C605.64 366.783 605.499 372.275 601.802 373.789C598.104 375.302 587.365 376.746 591.379 380.266C593.668 382.273 604.513 380.97 607.612 380.97C610.71 380.97 613.527 382.308 615.816 380.266C618.105 378.224 615.816 366.783 615.816 366.783C615.816 366.783 613.175 368.156 610.781 368.086C607.365 368.015 605.64 366.783 605.64 366.783Z" fill="#30262A"/>
<path d="M535.497 216.571C535.497 216.571 534.792 239.488 542.117 283.492C547.434 315.281 553.666 347.281 556.73 362.629C557.226 365.268 558.597 367.663 560.623 369.426C562.648 371.189 565.209 372.217 567.892 372.345L570.85 372.451C576.765 372.697 581.554 367.628 581.132 361.573L573.702 257.759L571.871 223.576L535.497 216.571Z" fill="#A74C3B"/>
<path d="M602.47 236.742C602.153 239.523 586.343 239.206 567.012 236.742C547.68 234.278 532.645 230.124 532.962 227.308C533.279 224.492 548.913 224.21 568.244 226.639C587.576 229.068 602.822 233.961 602.47 236.742Z" fill="#30262A"/>
<path d="M557.68 232.941L598.949 365.481C599.758 368.168 601.395 370.531 603.627 372.232C605.86 373.932 608.573 374.884 611.379 374.951H613.844C619.724 375.056 624.196 369.635 623.14 363.756L600.534 239.207C600.381 238.482 600.035 237.811 599.533 237.266C599.031 236.721 598.391 236.321 597.681 236.109C589.97 233.926 556.941 227.449 557.68 232.941Z" fill="#A74C3B"/>
<path d="M605.111 227.378L595.745 216.5C595.921 216.395 614.302 204.813 612.541 188.302C611.625 179.713 606.449 172.778 597.189 167.744C592.581 165.262 587.634 163.471 582.505 162.428L584.724 148.347C591.384 149.624 597.808 151.916 603.773 155.141C617.154 162.428 624.971 173.376 626.415 186.753C627.541 197.561 623.774 208.333 615.464 217.873C609.513 224.703 609.759 225.125 605.111 227.378Z" fill="#EA9A81"/>
<path d="M596.026 160.421C596.026 160.421 590.533 144.967 570.955 145.671C551.378 146.375 536.624 172.074 532.962 227.308C532.962 227.308 565.005 220.302 602.541 236.672C602.541 236.672 604.618 182.952 596.026 160.421Z" fill="#FF4C34"/>
<path d="M611.379 157.148L595.921 168.378C595.921 168.378 560.286 171.933 550.814 170.208C541.342 168.483 538.771 160.844 538.771 160.844C538.771 160.844 548.842 149.368 565.955 146.305C567.575 146.023 569.23 145.812 570.955 145.671C573.843 145.495 576.741 145.565 579.617 145.883C596.519 147.713 611.379 157.148 611.379 157.148Z" fill="#FF4C34"/>
<path d="M611.378 157.148C612.223 158.38 609.442 161.865 605.181 164.963C600.92 168.061 596.73 169.574 595.92 168.378C595.11 167.181 597.857 163.66 602.118 160.562C606.378 157.465 610.533 155.951 611.378 157.148Z" fill="#30262A"/>
<path d="M621.943 192.069C620.499 192.069 619.373 190.45 619.373 188.478C619.373 186.507 620.499 184.853 621.943 184.853C623.387 184.853 624.514 186.472 624.514 188.478C624.521 189.367 624.264 190.237 623.774 190.978C623.585 191.299 623.318 191.567 622.998 191.758C622.678 191.949 622.315 192.056 621.943 192.069V192.069ZM621.943 185.521C620.887 185.521 620.042 186.894 620.042 188.478C620.042 190.063 620.887 191.4 621.943 191.4C622.205 191.381 622.458 191.297 622.679 191.155C622.9 191.014 623.083 190.82 623.211 190.591C623.618 189.963 623.826 189.227 623.809 188.478V188.478C623.809 186.894 622.964 185.521 621.943 185.521Z" fill="#EF6343"/>
<path d="M579.582 145.882C578.557 145.772 577.58 145.391 576.751 144.779C575.921 144.166 575.27 143.344 574.864 142.397L572.223 136.342L571.483 134.582L567.047 124.268L567.821 134.969L568.279 141.376L568.385 143.242C568.447 143.961 568.235 144.676 567.79 145.245C567.346 145.813 566.703 146.192 565.99 146.305H565.955C565.18 147.607 564.089 150.212 567.328 151.269C571.166 152.465 577.399 149.473 579.617 145.882H579.582Z" fill="#EA9A81"/>
<path d="M603.315 211.713C603.315 211.713 597.505 206.397 592.927 206.89C588.35 207.383 582.857 211.396 585.744 211.713C588.632 212.03 592.47 211.396 592.47 211.396C592.47 211.396 584.371 213.121 585.603 214.846C586.836 216.571 593.843 214.987 593.843 214.987C593.843 214.987 584.371 217.803 586.061 219.071C587.751 220.338 594.899 218.12 594.899 218.12C594.899 218.12 586.202 221.077 588.209 222.485C590.216 223.893 595.357 219.986 596.59 221.711C597.822 223.436 600.111 230.124 605.287 227.308L603.315 211.713Z" fill="#EA9A81"/>
<path d="M576.132 292.187L567.258 265.222C565.306 259.204 561.191 254.124 555.709 250.964L556.061 250.366C561.695 253.609 565.923 258.827 567.927 265.01L576.801 291.976L576.132 292.187Z" fill="#020202"/>
<path d="M598.773 168.589C598.773 168.589 597.893 165.984 601.802 163.132C605.71 160.281 610.71 159.612 610.71 159.612L611.731 164.54L606.238 166.934L598.773 168.589Z" fill="#EA9A81"/>
<path d="M579.126 122.508C579.126 122.508 578.738 124.268 579.724 127.859C581.203 133.139 575.182 135.322 573.632 133.808C573.456 133.632 573.703 124.655 573.703 124.655L575.64 123.529L579.126 122.508Z" fill="#30262A"/>
<path d="M572.258 136.166C572.264 136.227 572.252 136.288 572.223 136.343C571.977 139.792 568.279 141.412 568.279 141.412L567.822 135.005C568.948 134.582 570.533 134.16 571.484 134.618C572.434 135.075 572.293 135.322 572.258 136.166Z" fill="#30262A"/>
<path d="M556.483 125.957C556.483 119.128 560.99 113.566 566.554 113.566C572.117 113.566 576.624 119.128 576.624 125.957C576.624 132.787 572.117 138.384 566.554 138.384C560.99 138.384 556.483 132.822 556.483 125.957Z" fill="#EA9A81"/>
<path d="M562.576 116.453C562.858 116.84 561.273 123.212 573.104 124.726C584.936 126.239 577.823 111.912 569.09 111.595C556.484 111.102 554.653 119.586 555.85 122.649C557.048 125.711 562.576 116.453 562.576 116.453Z" fill="#30262A"/>
<path d="M580.779 108.602C580.779 108.602 575.497 112.157 579.582 115.502C583.666 118.846 594.899 120.289 591.836 125.957C588.772 131.625 586.096 139.968 591.624 140.989C597.153 142.01 600.639 141.623 602.857 146.023C605.075 150.423 615.146 147.678 614.336 142.468C613.526 137.257 622.083 132.646 618.421 127.823C614.759 123 605.744 118.846 603.491 112.58C601.237 106.314 585.075 105.891 580.779 108.602Z" fill="#30262A"/>
<path d="M571.801 122.719C571.801 122.719 576.625 127.788 574.935 132.998C574.935 132.998 577.752 129.935 577.822 128.809C577.893 127.682 577.118 123.528 577.118 123.528L571.801 122.719Z" fill="#30262A"/>
<path d="M575.251 127.859C574.125 128.915 572.54 129.056 571.695 128.105C570.85 127.155 571.132 125.5 572.258 124.409C573.385 123.317 575.005 123.212 575.815 124.162C576.625 125.113 576.413 126.767 575.251 127.859Z" fill="#EA9A81"/>
<path d="M611.872 147.713H611.767C610.358 147.15 609.513 146.481 609.196 145.601C608.879 144.721 609.548 142.785 610.394 141.236C611.239 139.687 611.943 138.455 611.767 137.223C611.591 135.99 609.584 135.357 607.506 135.005C605.429 134.653 603.985 134.371 603.245 133.245C602.918 132.641 602.842 131.932 603.034 131.273C603.281 130.393 603.562 129.583 603.844 128.809C605.006 125.535 605.922 122.965 600.781 117.051C594.196 109.447 588.738 109.06 583.808 109.799C583.245 109.905 581.766 110.644 581.801 111.313C581.837 111.982 582.259 112.51 586.52 113.038C588.491 113.619 590.313 114.622 591.857 115.978C593.402 117.333 594.632 119.009 595.464 120.888C596.978 124.338 594.83 127.999 593.069 130.956C591.907 132.963 590.886 134.653 591.203 135.814C591.268 136.038 591.38 136.245 591.532 136.421C591.684 136.597 591.872 136.738 592.083 136.835C593.309 137.422 594.596 137.87 595.921 138.173C599.231 139.088 602.682 140.004 603.105 145.988C603.14 146.129 603.034 146.235 602.893 146.27C602.828 146.27 602.765 146.244 602.719 146.198C602.673 146.151 602.647 146.089 602.647 146.023C602.224 140.391 599.09 139.546 595.781 138.631C594.429 138.327 593.117 137.866 591.872 137.258C591.602 137.124 591.363 136.937 591.169 136.707C590.975 136.476 590.831 136.209 590.745 135.92C590.358 134.582 591.414 132.787 592.647 130.71C594.442 127.718 596.45 124.303 595.041 121.099C594.25 119.286 593.071 117.669 591.586 116.361C590.102 115.053 588.348 114.087 586.449 113.531C582.999 113.073 581.308 112.369 581.308 111.313C581.308 110.257 583.104 109.412 583.738 109.342C588.773 108.567 594.407 108.954 601.133 116.734C606.45 122.86 605.499 125.57 604.267 128.985C604.02 129.724 603.738 130.499 603.527 131.379C603.432 131.643 603.395 131.924 603.419 132.204C603.444 132.484 603.529 132.755 603.668 132.998C604.267 133.949 605.957 134.23 607.612 134.547C609.267 134.864 611.978 135.322 612.225 137.152C612.471 138.983 611.626 140.039 610.816 141.482C610.006 142.925 609.231 144.298 609.654 145.425C610.077 146.551 610.675 146.763 611.943 147.255C612.084 147.326 612.154 147.432 612.084 147.572C612.079 147.596 612.071 147.618 612.058 147.638C612.045 147.658 612.028 147.675 612.008 147.688C611.988 147.701 611.966 147.71 611.943 147.714C611.92 147.719 611.896 147.718 611.872 147.713Z" fill="white"/>
<path d="M573.173 120.959C568.631 120.888 566.378 117.297 566.272 117.157C566.241 117.099 566.231 117.032 566.244 116.968C566.257 116.904 566.291 116.846 566.342 116.805C566.4 116.774 566.467 116.764 566.531 116.776C566.595 116.789 566.653 116.824 566.694 116.875C566.694 116.91 568.913 120.395 573.173 120.501C573.239 120.501 573.302 120.527 573.348 120.573C573.394 120.619 573.42 120.682 573.42 120.747C573.411 120.806 573.382 120.86 573.336 120.899C573.291 120.938 573.233 120.959 573.173 120.959Z" fill="white"/>
<path d="M592.541 211.572L592.4 211.255C592.506 211.22 594.724 210.41 595.956 211.255L595.78 211.537C594.688 210.762 592.541 211.572 592.541 211.572Z" fill="#EF6343"/>
<path d="M593.913 215.163L593.772 214.846C593.878 214.811 596.026 213.966 597.962 214.846L597.822 215.163C596.026 214.353 593.913 215.163 593.913 215.163Z" fill="#EF6343"/>
<path d="M594.97 218.261L594.864 217.944C594.97 217.909 597.611 216.958 598.843 217.979L598.597 218.261C597.54 217.345 595.005 218.261 594.97 218.261Z" fill="#EF6343"/>
<path d="M535.849 229.843C535.849 229.843 544.828 228.575 558.314 229.561C571.362 230.583 584.297 232.726 596.977 235.968L590.322 237.059L548.807 238.714L540.426 231.849L535.849 229.843Z" fill="#A74C3B"/>
<path d="M560.99 134.019C563.324 134.009 565.642 133.629 567.856 132.893C567.856 132.893 568.138 136.272 564.441 136.483C562.258 136.624 560.99 134.019 560.99 134.019Z" fill="#E9633E"/>
<path d="M560.99 134.019C560.99 134.019 561.835 134.688 563.772 134.688C565.708 134.688 567.856 132.893 567.856 132.893C567.856 132.893 563.737 134.019 560.99 134.019Z" fill="white"/>
<path d="M565.568 126.098L565.427 125.957C565.402 125.901 565.399 125.837 565.418 125.778C565.438 125.72 565.479 125.671 565.533 125.641C566.037 125.416 566.601 125.359 567.14 125.48C567.679 125.6 568.165 125.891 568.525 126.31C568.546 126.332 568.561 126.358 568.571 126.387C568.58 126.416 568.583 126.446 568.58 126.476C568.577 126.506 568.567 126.535 568.551 126.561C568.536 126.587 568.515 126.609 568.49 126.626C568.42 126.732 568.279 126.697 568.173 126.626C567.437 126.173 566.567 125.986 565.709 126.098H565.568Z" fill="#080435"/>
<path d="M567.399 128.598C567.399 129.161 567.082 129.619 566.695 129.619C566.474 129.584 566.275 129.466 566.137 129.29C566 129.113 565.935 128.891 565.956 128.668C565.92 128.105 566.237 127.647 566.625 127.647C567.012 127.647 567.364 128.069 567.399 128.598Z" fill="#080435"/>
<path d="M557.398 127.295L557.222 127.225C557.2 127.205 557.182 127.181 557.17 127.153C557.157 127.126 557.151 127.096 557.151 127.066C557.151 127.036 557.157 127.007 557.17 126.979C557.182 126.952 557.2 126.928 557.222 126.908C557.258 126.837 558.384 125.535 560.215 126.38C560.241 126.391 560.264 126.408 560.283 126.428C560.302 126.448 560.317 126.472 560.327 126.498C560.337 126.525 560.341 126.553 560.34 126.581C560.339 126.609 560.332 126.636 560.321 126.661C560.285 126.802 560.145 126.802 560.004 126.802C559.158 126.672 558.293 126.82 557.539 127.225L557.398 127.295Z" fill="#080435"/>
<path d="M560.039 128.914C560.251 129.407 560.145 129.971 559.793 130.111C559.441 130.252 558.948 130.006 558.737 129.513C558.615 129.32 558.572 129.088 558.618 128.865C558.664 128.641 558.795 128.445 558.983 128.316C559.335 128.14 559.828 128.421 560.039 128.914Z" fill="#080435"/>
<path d="M549.376 160.103L544.75 168.728L545.172 168.954L549.798 160.329L549.376 160.103Z" fill="#30262A"/>
<path d="M431.023 134.794H430.988C429.988 134.788 429.003 134.561 428.101 134.129C427.2 133.697 426.406 133.07 425.776 132.294C417.325 121.944 397.818 95.9292 399.05 78.3275C399.649 69.2451 402.29 61.6059 406.621 56.1846C411.375 50.1648 418.1 46.8909 426.516 46.3981C436.023 45.7996 445.002 49.0031 451.763 55.4101C458.524 61.8171 462.96 71.5333 462.96 80.9325C462.96 88.3252 459.58 97.7597 452.96 108.954C447.432 118.248 440.812 126.802 436.234 132.329C435.603 133.101 434.807 133.722 433.906 134.148C433.005 134.574 432.02 134.795 431.023 134.794ZM426.551 46.9966C418.311 47.4894 411.762 50.6929 407.079 56.5366C402.396 62.3804 400.248 69.4211 399.649 78.3627C398.452 95.7531 417.854 121.592 426.234 131.907C426.811 132.61 427.536 133.177 428.358 133.566C429.18 133.956 430.078 134.158 430.988 134.16C431.902 134.178 432.808 133.988 433.638 133.604C434.468 133.219 435.199 132.651 435.777 131.942C443.77 122.261 462.326 97.9357 462.326 80.9325C462.326 71.7093 458.242 62.3452 451.375 55.8678C444.509 49.3904 435.882 46.4333 426.551 46.9966V46.9966ZM430.389 98.851H428.734C423.734 98.6398 419.227 96.774 415.987 93.5705C412.748 90.367 410.882 85.7906 410.882 80.8973C410.882 69.245 416.727 63.0493 429.861 60.8315C434.333 60.057 438.277 60.9371 441.516 63.4717C445.847 66.8512 448.77 73.1526 449.333 80.2989C449.756 86.037 448.418 90.5783 445.319 93.7818C442.22 96.9853 436.939 98.851 430.389 98.851V98.851ZM432.854 61.1483C431.886 61.1444 430.92 61.2268 429.967 61.3947C413.593 64.1758 411.48 73.2582 411.48 80.8621C411.48 85.6146 413.241 89.9446 416.41 93.0777C419.579 96.2108 423.945 98.0062 428.769 98.2174C435.917 98.499 441.481 96.8092 444.861 93.3241C448.242 89.839 449.122 85.861 448.699 80.3341C448.171 73.3286 445.319 67.2032 441.129 63.9293C438.768 62.0862 435.849 61.1049 432.854 61.1483V61.1483Z" fill="#30262A"/>
<path d="M444.157 332.601L295.633 336.72C294.909 336.739 294.189 336.612 293.514 336.348C292.84 336.084 292.226 335.688 291.707 335.183C291.189 334.677 290.776 334.073 290.495 333.406C290.214 332.739 290.069 332.022 290.069 331.298V317.323C290.069 316.611 290.21 315.906 290.482 315.248C290.755 314.59 291.154 313.993 291.658 313.489C292.161 312.986 292.759 312.587 293.417 312.314C294.075 312.042 294.78 311.901 295.492 311.901H444.016C445.455 311.901 446.834 312.473 447.851 313.489C448.868 314.506 449.439 315.885 449.439 317.323V327.18C449.439 328.593 448.888 329.951 447.901 330.964C446.914 331.977 445.571 332.564 444.157 332.601V332.601Z" fill="#F28686"/>
<path d="M442.502 323.483C442.504 323.863 442.43 324.239 442.285 324.589C442.14 324.94 441.926 325.258 441.657 325.525C441.108 326.082 440.361 326.398 439.579 326.405H299.33C298.752 326.403 298.187 326.229 297.708 325.905C297.229 325.582 296.856 325.123 296.637 324.588C296.419 324.053 296.364 323.465 296.48 322.899C296.595 322.332 296.876 321.813 297.287 321.406C297.555 321.137 297.873 320.923 298.223 320.778C298.574 320.633 298.95 320.559 299.33 320.562H439.579C440.354 320.562 441.098 320.869 441.646 321.417C442.194 321.965 442.502 322.708 442.502 323.483V323.483Z" fill="#EA4747"/>
<path d="M442.502 323.483C442.504 323.863 442.431 324.239 442.286 324.589C442.141 324.94 441.927 325.258 441.657 325.525C441.108 326.081 440.361 326.398 439.58 326.405H389.896L383.769 320.562H439.58C440.355 320.562 441.098 320.869 441.646 321.417C442.194 321.965 442.502 322.708 442.502 323.483V323.483Z" fill="#F7F0F7"/>
<path d="M170.665 112.932C169.573 112.915 168.486 112.773 167.425 112.509V112.369C173.235 113.882 176.475 110.925 176.475 110.89L176.581 110.996C176.581 110.996 174.503 112.932 170.665 112.932Z" fill="white"/>
<path d="M361.021 270.538C360.42 270.531 359.837 270.33 359.359 269.964C358.882 269.599 358.536 269.088 358.373 268.509C358.21 267.93 358.24 267.314 358.457 266.753C358.674 266.192 359.067 265.717 359.578 265.398C359.613 265.363 365 262.054 371.162 254.344C376.867 247.268 384.402 234.912 387.994 216.29C390.423 203.792 387.642 189.817 379.719 174.75C373.169 162.358 364.859 152.501 360.458 147.749C359.831 147.061 359.361 146.245 359.081 145.357C358.801 144.47 358.719 143.532 358.838 142.609C358.969 141.687 359.303 140.805 359.814 140.026C360.325 139.247 361.002 138.59 361.796 138.103L397.078 116.242C397.386 116.05 397.728 115.92 398.086 115.861C398.443 115.801 398.809 115.813 399.162 115.894C399.515 115.976 399.849 116.127 400.144 116.337C400.439 116.548 400.689 116.814 400.881 117.122C401.073 117.429 401.203 117.771 401.262 118.129C401.322 118.486 401.31 118.852 401.229 119.205C401.147 119.558 400.996 119.892 400.786 120.186C400.575 120.481 400.308 120.732 400.001 120.924L364.683 142.785C364.5 142.922 364.374 143.123 364.331 143.348C364.311 143.463 364.32 143.581 364.357 143.692C364.394 143.802 364.457 143.902 364.542 143.982C369.085 148.981 377.782 159.225 384.613 172.18C393.135 188.373 396.092 203.581 393.416 217.346C389.578 237.2 381.444 250.437 375.282 258.041C368.557 266.384 362.676 269.975 362.43 270.151C362.002 270.401 361.517 270.535 361.021 270.538V270.538Z" fill="#ED6B6C"/>
<path d="M403.639 121.259C404.82 118.381 403.443 115.09 400.564 113.91C397.685 112.73 394.395 114.106 393.214 116.984C392.033 119.862 393.41 123.152 396.289 124.333C399.167 125.513 402.458 124.137 403.639 121.259Z" fill="#30262A"/>
<path d="M420.882 47.8062C403.417 48.8623 394.86 61.9932 393.663 79.454C392.466 96.9149 411.128 121.909 420.354 133.209C420.956 133.951 421.716 134.551 422.577 134.964C423.439 135.378 424.381 135.596 425.337 135.603C426.293 135.61 427.238 135.405 428.106 135.003C428.973 134.602 429.741 134.013 430.354 133.28C439.263 122.437 456.974 98.8863 456.974 82.0591C456.974 64.563 442.572 46.5037 420.882 47.8062ZM423.1 99.6255C413.03 99.2383 405.494 92.0568 405.494 81.9887C405.494 71.9205 409.755 64.6686 424.227 62.2044C436.622 60.0922 442.572 71.3573 443.347 81.4254C444.298 93.6058 436.903 100.224 423.1 99.6255V99.6255Z" fill="#FF4C34"/>
<path d="M518.525 375.796C528.93 375.796 537.364 373.967 537.364 371.712C537.364 369.457 528.93 367.628 518.525 367.628C508.121 367.628 499.687 369.457 499.687 371.712C499.687 373.967 508.121 375.796 518.525 375.796Z" fill="#EA4747"/>
<path d="M349.648 267.616L367.078 260.012C367.431 259.858 367.821 259.813 368.2 259.881C368.578 259.95 368.927 260.13 369.203 260.398C369.479 260.666 369.669 261.011 369.748 261.387C369.827 261.763 369.793 262.155 369.649 262.511L361.902 281.908C361.834 282.059 361.721 282.184 361.579 282.269C361.437 282.353 361.273 282.393 361.108 282.381C360.944 282.37 360.786 282.308 360.658 282.205C360.529 282.101 360.435 281.961 360.388 281.803L359.472 273.495C359.015 271.523 358.768 270.96 356.796 270.361L349.754 269.094C349.592 269.057 349.446 268.97 349.338 268.843C349.229 268.717 349.164 268.56 349.153 268.394C349.141 268.228 349.183 268.063 349.272 267.923C349.361 267.783 349.493 267.675 349.648 267.616Z" fill="#30262A"/>
<path d="M363.979 46.5036C363.979 18.9746 339.507 0 312.253 0C272.745 0 259.188 22.3189 259.188 49.8127C259.188 77.3065 290.492 96.8443 317.746 96.8443C345 96.8443 363.979 74.0326 363.979 46.5036Z" fill="#F8634F"/>
<path d="M291.872 59.2626V59.8197C291.872 59.9839 291.854 60.1168 291.819 60.2184C291.784 60.3201 291.749 60.4061 291.713 60.4764L288.377 67.2668C288.318 67.3919 288.234 67.4974 288.125 67.5834C288.019 67.6655 287.879 67.7065 287.703 67.7065H286.794L290.195 61.0276C290.257 60.9064 290.32 60.797 290.382 60.6993C290.445 60.6015 290.515 60.5077 290.593 60.4178H286.377C286.299 60.4178 286.231 60.3885 286.172 60.3298C286.114 60.2673 286.084 60.1969 286.084 60.1187V59.2626H291.872ZM305.207 59.2626V67.7065H303.999V61.9189C303.999 61.8251 304.001 61.7235 304.005 61.614C304.013 61.5006 304.023 61.3873 304.035 61.2739L301.32 66.2875C301.214 66.4947 301.052 66.5983 300.833 66.5983H300.639C300.417 66.5983 300.254 66.4947 300.153 66.2875L297.397 61.2622C297.408 61.3755 297.416 61.4889 297.42 61.6023C297.428 61.7156 297.432 61.8212 297.432 61.9189V67.7065H296.224V59.2626H297.25C297.371 59.2626 297.465 59.2743 297.532 59.2978C297.598 59.3173 297.659 59.3818 297.713 59.4913L300.422 64.3993C300.481 64.5127 300.536 64.63 300.587 64.7512C300.641 64.8684 300.69 64.9896 300.733 65.1147C300.78 64.9896 300.829 64.8665 300.88 64.7453C300.935 64.6202 300.991 64.501 301.05 64.3876L303.718 59.4913C303.773 59.3818 303.833 59.3173 303.9 59.2978C303.966 59.2743 304.06 59.2626 304.181 59.2626H305.207ZM308.195 61.7254V67.7065H306.934V61.7254H308.195ZM308.406 59.9194C308.406 60.0327 308.382 60.1402 308.335 60.2419C308.292 60.3435 308.232 60.4334 308.153 60.5116C308.075 60.5859 307.983 60.6465 307.878 60.6934C307.776 60.7364 307.667 60.7579 307.55 60.7579C307.436 60.7579 307.329 60.7364 307.227 60.6934C307.129 60.6465 307.043 60.5859 306.969 60.5116C306.895 60.4334 306.834 60.3435 306.787 60.2419C306.744 60.1402 306.723 60.0327 306.723 59.9194C306.723 59.8021 306.744 59.6926 306.787 59.591C306.834 59.4893 306.895 59.4014 306.969 59.3271C307.043 59.2489 307.129 59.1883 307.227 59.1453C307.329 59.0984 307.436 59.075 307.55 59.075C307.667 59.075 307.776 59.0984 307.878 59.1453C307.983 59.1883 308.075 59.2489 308.153 59.3271C308.232 59.4014 308.292 59.4893 308.335 59.591C308.382 59.6926 308.406 59.8021 308.406 59.9194ZM310.957 62.517C311.086 62.3841 311.219 62.2649 311.356 62.1593C311.497 62.0499 311.645 61.9561 311.802 61.8779C311.958 61.7997 312.124 61.7391 312.3 61.6961C312.476 61.6531 312.668 61.6316 312.875 61.6316C313.203 61.6316 313.49 61.6863 313.737 61.7958C313.987 61.9052 314.196 62.0597 314.364 62.259C314.536 62.4584 314.665 62.6988 314.751 62.9803C314.837 63.2578 314.88 63.5647 314.88 63.9009V67.7065H313.625V63.9009C313.625 63.4983 313.531 63.1855 313.344 62.9627C313.16 62.7399 312.879 62.6285 312.499 62.6285C312.218 62.6285 311.956 62.693 311.714 62.822C311.475 62.951 311.25 63.1269 311.039 63.3497V67.7065H309.779V61.7254H310.541C310.713 61.7254 310.822 61.8056 310.869 61.9658L310.957 62.517ZM321.395 61.7254V67.7065H320.633C320.465 67.7065 320.358 67.6264 320.311 67.4661L320.217 66.9091C320.092 67.042 319.959 67.1632 319.818 67.2726C319.681 67.3821 319.535 67.4759 319.378 67.5541C319.222 67.6323 319.054 67.6929 318.874 67.7359C318.698 67.7789 318.508 67.8004 318.305 67.8004C317.977 67.8004 317.688 67.7456 317.437 67.6362C317.187 67.5267 316.976 67.3723 316.804 67.1729C316.636 66.9736 316.509 66.7351 316.423 66.4575C316.337 66.1761 316.294 65.8673 316.294 65.5311V61.7254H317.555V65.5311C317.555 65.9337 317.646 66.2464 317.83 66.4693C318.018 66.6921 318.301 66.8035 318.68 66.8035C318.958 66.8035 319.216 66.741 319.454 66.6159C319.697 66.4869 319.924 66.3109 320.135 66.0881V61.7254H321.395ZM324.844 67.8004C324.347 67.8004 323.964 67.6616 323.695 67.384C323.429 67.1026 323.296 66.7077 323.296 66.1995V62.7164H322.639C322.569 62.7164 322.508 62.6949 322.457 62.6519C322.407 62.605 322.381 62.5366 322.381 62.4467V61.9365L323.349 61.7958L323.624 60.066C323.644 59.9995 323.677 59.9467 323.724 59.9076C323.771 59.8646 323.833 59.8431 323.912 59.8431H324.557V61.8075H326.216V62.7164H324.557V66.1116C324.557 66.3266 324.609 66.4908 324.715 66.6041C324.82 66.7175 324.961 66.7742 325.137 66.7742C325.235 66.7742 325.319 66.7625 325.389 66.739C325.46 66.7116 325.52 66.6843 325.571 66.6569C325.622 66.6256 325.665 66.5983 325.7 66.5748C325.739 66.5475 325.776 66.5338 325.811 66.5338C325.882 66.5338 325.938 66.5729 325.982 66.6511L326.357 67.2668C326.161 67.4388 325.931 67.5717 325.665 67.6655C325.399 67.7554 325.125 67.8004 324.844 67.8004ZM329.75 61.6316C330.192 61.6316 330.59 61.7039 330.946 61.8486C331.306 61.9932 331.611 62.1984 331.861 62.4643C332.115 62.7301 332.31 63.0526 332.447 63.4318C332.584 63.811 332.653 64.2371 332.653 64.7101C332.653 65.1831 332.584 65.6092 332.447 65.9884C332.31 66.3676 332.115 66.6921 331.861 66.9618C331.611 67.2277 331.306 67.4329 330.946 67.5775C330.59 67.7222 330.192 67.7945 329.75 67.7945C329.304 67.7945 328.902 67.7222 328.542 67.5775C328.186 67.4329 327.881 67.2277 327.627 66.9618C327.373 66.6921 327.178 66.3676 327.041 65.9884C326.904 65.6092 326.836 65.1831 326.836 64.7101C326.836 64.2371 326.904 63.811 327.041 63.4318C327.178 63.0526 327.373 62.7301 327.627 62.4643C327.881 62.1984 328.186 61.9932 328.542 61.8486C328.902 61.7039 329.304 61.6316 329.75 61.6316ZM329.75 66.8094C330.289 66.8094 330.69 66.6296 330.952 66.2699C331.218 65.9063 331.351 65.3884 331.351 64.716C331.351 64.0436 331.218 63.5256 330.952 63.1621C330.69 62.7946 330.289 62.6109 329.75 62.6109C329.203 62.6109 328.796 62.7946 328.53 63.1621C328.264 63.5256 328.132 64.0436 328.132 64.716C328.132 65.3884 328.264 65.9063 328.53 66.2699C328.796 66.6296 329.203 66.8094 329.75 66.8094ZM337.435 62.8102C337.404 62.865 337.369 62.9041 337.329 62.9275C337.29 62.951 337.241 62.9627 337.183 62.9627C337.116 62.9627 337.044 62.9431 336.966 62.9041C336.888 62.8611 336.796 62.8141 336.69 62.7633C336.585 62.7125 336.46 62.6675 336.315 62.6285C336.174 62.5855 336.008 62.564 335.817 62.564C335.66 62.564 335.517 62.5835 335.388 62.6226C335.263 62.6578 335.156 62.7105 335.066 62.7809C334.98 62.8474 334.914 62.9275 334.867 63.0213C334.82 63.1112 334.796 63.209 334.796 63.3145C334.796 63.4553 334.839 63.5725 334.925 63.6664C335.011 63.7602 335.125 63.8423 335.265 63.9126C335.406 63.9791 335.566 64.0397 335.746 64.0944C335.926 64.1491 336.11 64.2078 336.297 64.2703C336.485 64.3329 336.669 64.4052 336.849 64.4873C337.028 64.5694 337.189 64.671 337.329 64.7922C337.47 64.9095 337.584 65.0541 337.67 65.2261C337.756 65.3942 337.799 65.5995 337.799 65.8418C337.799 66.1233 337.748 66.3833 337.646 66.6217C337.544 66.8602 337.396 67.0674 337.2 67.2433C337.005 67.4192 336.761 67.556 336.467 67.6538C336.178 67.7515 335.846 67.8004 335.471 67.8004C335.263 67.8004 335.062 67.7808 334.867 67.7417C334.675 67.7065 334.491 67.6577 334.315 67.5951C334.143 67.5287 333.981 67.4505 333.829 67.3606C333.68 67.2707 333.547 67.1729 333.43 67.0674L333.723 66.5865C333.758 66.5279 333.801 66.483 333.852 66.4517C333.907 66.4165 333.973 66.3989 334.052 66.3989C334.134 66.3989 334.214 66.4263 334.292 66.481C334.374 66.5318 334.468 66.5885 334.573 66.6511C334.683 66.7136 334.814 66.7722 334.966 66.827C335.119 66.8778 335.308 66.9032 335.535 66.9032C335.723 66.9032 335.885 66.8817 336.022 66.8387C336.159 66.7918 336.272 66.7292 336.362 66.6511C336.452 66.5729 336.518 66.4849 336.561 66.3872C336.604 66.2855 336.626 66.178 336.626 66.0647C336.626 65.9122 336.583 65.7871 336.497 65.6894C336.411 65.5917 336.295 65.5076 336.151 65.4372C336.01 65.3669 335.848 65.3043 335.664 65.2496C335.484 65.1949 335.301 65.1362 335.113 65.0737C334.925 65.0111 334.74 64.9388 334.556 64.8567C334.376 64.7746 334.214 64.671 334.069 64.5459C333.928 64.4169 333.815 64.2625 333.729 64.0827C333.643 63.899 333.6 63.6761 333.6 63.4142C333.6 63.1757 333.647 62.949 333.741 62.734C333.838 62.519 333.979 62.3294 334.163 62.1652C334.351 62.001 334.579 61.872 334.849 61.7782C335.123 61.6805 335.437 61.6316 335.793 61.6316C336.196 61.6316 336.561 61.6961 336.89 61.8251C337.218 61.9541 337.494 62.13 337.716 62.3529L337.435 62.8102Z" fill="white"/>
<path d="M372.606 90.684C372.606 90.684 355.352 87.9734 354.12 70.6533L340.563 80.6511C340.563 80.6511 347.042 96.5982 372.606 90.684Z" fill="#ED6B6C"/>
<path d="M318.521 102.653C304.893 102.653 290.069 97.7247 278.872 89.4167C266.512 80.2638 259.716 68.1891 259.716 55.3751C259.716 40.3433 263.66 28.4445 271.477 19.9605C280.492 10.2092 294.471 5.28076 313.027 5.28076C326.655 5.28076 339.542 9.89238 349.296 18.2708C359.05 26.6492 365.036 38.9703 365.036 52.0308C365.036 63.0846 362.043 73.4696 356.373 82.1296C360.458 93.8171 373.31 95.9293 373.451 95.9645L374.789 96.1757L373.451 96.4925C365.669 98.2879 354.718 99.0976 346.62 92.937C338.697 99.3088 328.979 102.653 318.521 102.653ZM313.027 5.80881C294.612 5.80881 280.773 10.6669 271.865 20.3126C264.153 28.691 260.245 40.4841 260.245 55.3751C260.245 68.0131 266.97 79.947 279.189 88.9942C290.28 97.2318 304.999 102.125 318.521 102.125C328.943 102.125 338.591 98.7456 346.444 92.3738L346.585 92.233L346.761 92.3738C354.331 98.2879 364.543 97.8303 372.148 96.2109C368.803 95.366 359.226 92.1273 355.81 82.1648V82.0592L355.88 81.9536C361.55 73.364 364.543 63.0142 364.543 52.0308C364.543 39.1463 359.014 27.2828 348.979 18.658C338.944 10.0332 326.514 5.80881 313.027 5.80881V5.80881Z" fill="#30262A"/>
<path d="M313.767 48.2289H313.697C313.454 48.2118 313.224 48.117 313.04 47.9584C312.856 47.7998 312.728 47.5859 312.676 47.3488V47.3488L311.76 39.076C311.302 37.2102 311.126 36.7526 309.33 36.1893L302.182 34.8868C301.967 34.8113 301.779 34.6743 301.642 34.4928C301.504 34.3113 301.423 34.0933 301.408 33.8659C301.392 33.6416 301.449 33.4182 301.569 33.2283C301.69 33.0383 301.867 32.8917 302.077 32.8098L319.577 25.2059C319.983 25.0204 320.435 24.9614 320.875 25.0368C321.315 25.1121 321.721 25.3183 322.042 25.6283C322.366 25.9397 322.589 26.3406 322.683 26.7797C322.777 27.2188 322.738 27.676 322.57 28.0926L314.788 47.56C314.704 47.7605 314.562 47.9313 314.38 48.0505C314.198 48.1697 313.985 48.2318 313.767 48.2289V48.2289ZM313.309 47.2432C313.341 47.335 313.397 47.4164 313.471 47.4785C313.546 47.5406 313.636 47.581 313.732 47.5952C313.833 47.6001 313.932 47.5716 314.015 47.5144C314.097 47.4571 314.159 47.3741 314.19 47.2784L321.972 27.8109C322.088 27.5136 322.113 27.1885 322.045 26.8766C321.977 26.5647 321.818 26.2799 321.589 26.0579C321.359 25.836 321.069 25.6868 320.755 25.6292C320.441 25.5715 320.117 25.608 319.824 25.7339L302.323 33.3379C302.237 33.3787 302.165 33.4437 302.115 33.5249C302.065 33.6062 302.039 33.7002 302.042 33.7955C302.077 33.8659 302.112 34.1475 302.358 34.218L309.471 35.5205C311.619 36.1893 311.901 36.8934 312.394 38.9L313.309 47.2432Z" fill="white"/>
</svg>
