<svg width="700" height="415" viewBox="0 0 700 415" fill="none" xmlns="http://www.w3.org/2000/svg">
<path d="M242.006 229.983C245.929 239.057 251.758 246.002 258.259 249.139C258.259 250.035 258.147 250.932 258.147 251.716C258.147 268.856 270.925 282.747 286.842 283.195C291.101 297.199 303.543 307.393 318.227 307.393C336.385 307.393 351.181 291.597 351.181 272.105V69.1122C351.181 54.2127 340.869 42.1138 328.091 42.1138C318.899 42.1138 310.941 48.3873 307.13 57.4614C304.973 56.8813 302.75 56.5801 300.517 56.5652C293.352 56.5652 286.481 59.4097 281.415 64.4729C276.349 69.5361 273.503 76.4032 273.503 83.5637C258.259 84.6839 246.153 98.2392 246.153 114.819C246.136 120.583 247.603 126.254 250.412 131.287C246.806 133.354 243.726 136.225 241.411 139.676C239.096 143.128 237.61 147.066 237.068 151.186C236.526 155.305 236.942 159.494 238.284 163.426C239.627 167.359 241.859 170.928 244.808 173.857C239.764 180.803 236.737 191.109 236.625 202.76C236.856 212.074 238.676 221.28 242.006 229.983V229.983Z" fill="#FF5D41"/>
<path d="M459.684 155.597L458.676 154.589L509.228 104.064H618.74V105.409H509.789L459.684 155.597Z" fill="#FF4C34"/>
<path d="M412.047 85.3562L411.15 84.46L438.724 56.9014H480.646V58.2457H439.285L412.047 85.3562Z" fill="#FF4C34"/>
<path d="M464.841 229.423L463.832 228.526L484.681 207.689H546.443V209.034H485.241L464.841 229.423Z" fill="#FF4C34"/>
<path d="M567.739 294.062H485.241L445 253.844L445.897 252.948L485.801 292.718H567.739V294.062Z" fill="#FF4C34"/>
<path d="M518.643 124.789H516.177L518.643 119.636H521.109L518.643 124.789Z" fill="#FF4C34"/>
<path d="M532.655 123.445H519.764L521.67 119.636H534.56L532.655 123.445Z" fill="#FF4C34"/>
<path d="M385.256 336.744H383.799L388.395 327.334H389.964L385.256 336.744Z" fill="#FF4C34"/>
<path d="M573.68 124.901H520.774V126.01H573.68V124.901Z" fill="#FF4C34"/>
<path d="M409.916 335.848H336.497V337.013H409.916V335.848Z" fill="#FF4C34"/>
<path d="M375.729 339.657H336.497V346.39H375.729V339.657Z" fill="#FF4C34"/>
<path d="M305.448 6.04102V9.06574H306.345V6.8252H308.587V6.04102H305.448ZM306.345 33.2635V31.135H305.448V34.1597H308.475V33.2635H306.345Z" fill="#FF4C34"/>
<path d="M422.246 6.04102V6.93723H424.488V9.17776H425.273V6.04102H422.246ZM424.376 31.135V33.3755H422.134V34.1597H425.273V31.135H424.376Z" fill="#FF4C34"/>
<path d="M213.31 80.6509H185.624V82.5889H213.31V80.6509Z" fill="#FF4C34"/>
<path d="M213.31 84.2358H185.624V92.4026H213.31V84.2358Z" fill="#FF4C34"/>
<path d="M226.426 95.2144H210.06V96.4355H226.426V95.2144Z" fill="#FF4C34"/>
<path d="M226.426 96.895H210.06V100.2H226.426V96.895Z" fill="#FF4C34"/>
<path d="M213.983 69.5605H212.75V92.4476H213.983V69.5605Z" fill="#FF4C34"/>
<path d="M404.2 323.637H383.799V327.334H404.2V323.637Z" fill="#FF4C34"/>
<path d="M404.2 321.957H383.799V322.651H404.2V321.957Z" fill="#FF4C34"/>
<path d="M207.146 168.592H171.389V173.05H207.146V168.592Z" fill="#FF4C34"/>
<path d="M213.423 168.592H210.508V173.05H213.423V168.592Z" fill="#FF4C34"/>
<path d="M466.073 173.969C469.043 171.051 471.295 167.484 472.651 163.548C474.006 159.612 474.429 155.415 473.886 151.288C473.343 147.161 471.848 143.217 469.52 139.765C467.191 136.314 464.093 133.45 460.469 131.399C463.361 126.394 464.869 120.711 464.84 114.931C464.84 98.3512 452.734 84.796 437.49 83.6757C437.49 76.5153 434.644 69.6481 429.578 64.5849C424.512 59.5217 417.641 56.6773 410.476 56.6773C408.206 56.6993 405.948 57.0003 403.751 57.5735C400.052 48.3873 392.094 42.1138 382.902 42.1138C370.124 42.1138 359.812 54.2127 359.812 69.1122V272.105C359.812 291.597 374.496 307.393 392.766 307.393C407.45 307.393 419.78 297.199 424.151 283.195C440.068 282.747 452.734 268.856 452.734 251.716C452.751 250.856 452.713 249.995 452.622 249.139C463.271 243.986 472.014 229.086 473.919 210.714C475.489 195.927 472.35 182.483 466.073 173.969Z" fill="#FF4C34"/>
<path d="M537.251 143.61H503.176C500.947 143.61 499.14 145.415 499.14 147.643V199.186C499.14 201.414 500.947 203.219 503.176 203.219H537.251C539.48 203.219 541.286 201.414 541.286 199.186V147.643C541.286 145.415 539.48 143.61 537.251 143.61Z" fill="#FF6C4E"/>
<path d="M539.044 146.411H501.494V195.333H539.044V146.411Z" fill="white"/>
<path d="M522.007 200.632C522.007 200.986 521.902 201.333 521.704 201.628C521.507 201.922 521.227 202.152 520.9 202.288C520.572 202.423 520.211 202.459 519.863 202.39C519.515 202.321 519.196 202.15 518.945 201.899C518.694 201.649 518.523 201.329 518.454 200.981C518.385 200.634 518.421 200.273 518.556 199.946C518.692 199.618 518.922 199.338 519.217 199.141C519.512 198.944 519.859 198.839 520.213 198.839C520.689 198.839 521.145 199.028 521.481 199.364C521.818 199.7 522.007 200.156 522.007 200.632Z" fill="#757575"/>
<path d="M496.226 240.289H556.082C556.855 240.289 557.596 240.596 558.143 241.142C558.689 241.688 558.996 242.429 558.996 243.202V284.876H493.312V243.314C493.297 242.922 493.361 242.531 493.5 242.165C493.64 241.798 493.852 241.464 494.125 241.181C494.397 240.899 494.723 240.674 495.084 240.521C495.445 240.368 495.834 240.289 496.226 240.289V240.289Z" fill="#FF6C4E"/>
<path d="M557.203 242.642H495.105V282.523H557.203V242.642Z" fill="white"/>
<path d="M490.174 284.988H562.248V285.66C562.248 286.343 561.976 286.999 561.492 287.482C561.009 287.965 560.353 288.237 559.669 288.237H492.752C492.068 288.237 491.412 287.965 490.929 287.482C490.445 286.999 490.174 286.343 490.174 285.66V284.988Z" fill="#FF6C4E"/>
<path d="M531.31 286.22H520.998V286.926H531.31V286.22Z" fill="#757575"/>
<path d="M422.919 276.81L421.35 276.474L422.134 276.698L421.35 276.474C421.35 276.474 422.807 268.744 418.211 263.255C413.615 257.765 409.468 257.317 401.958 257.317C394.448 257.317 388.619 255.077 385.369 250.82C380.437 244.322 382.903 235.36 383.015 235.024L384.584 235.472C384.472 235.472 382.23 243.986 386.714 249.923C389.516 253.732 394.672 255.637 401.958 255.637C409.244 255.637 415.969 257.877 419.444 262.246C424.6 268.408 423.031 276.474 422.919 276.81Z" fill="white"/>
<path d="M401.958 247.011C401.958 246.45 401.398 234.352 409.468 225.838C414.512 220.572 421.686 217.884 430.877 217.884C440.069 217.884 445.001 215.531 448.7 210.826C455.425 202.088 452.062 188.085 452.062 187.973L453.632 187.524C453.744 188.197 457.219 202.424 449.933 211.834C445.897 216.875 439.508 219.452 430.877 219.452C422.246 219.452 415.409 222.029 410.701 226.958C403.079 234.912 403.527 246.787 403.527 246.899L401.958 247.011Z" fill="white"/>
<path d="M433.567 201.416C427.851 201.416 421.125 200.407 415.857 196.374C410.589 192.341 406.89 184.388 406.89 174.417C406.89 164.447 403.863 155.709 397.923 150.107C388.395 141.145 374.608 141.929 374.384 141.929V140.361C375.056 140.249 389.067 139.577 399.156 148.987C405.433 154.812 408.571 163.439 408.571 174.417C408.571 185.396 411.373 190.885 416.866 195.03C427.626 203.208 445.225 198.391 445.337 198.391L445.785 199.959C441.785 200.931 437.683 201.42 433.567 201.416V201.416Z" fill="white"/>
<path d="M392.318 138.345L390.637 138.121C391.267 134.077 392.595 130.173 394.56 126.582C396.368 122.989 399.163 119.986 402.617 117.922C406.071 115.859 410.041 114.822 414.064 114.931C434.464 114.931 437.154 103.168 437.154 91.7417H438.835C438.835 99.5836 437.266 105.073 434.128 108.994C430.989 112.915 423.591 116.5 414.064 116.5C404.536 116.5 399.94 120.084 395.905 127.254C394.093 130.723 392.88 134.472 392.318 138.345V138.345Z" fill="white"/>
<path d="M414.737 168.928C413.649 168.928 412.563 168.853 411.486 168.704L411.71 167.136C411.822 167.136 420.117 168.48 425.609 163.775C429.084 160.862 430.878 156.269 430.878 149.996C430.878 143.722 432.783 138.793 436.594 135.432C443.32 129.607 453.408 131.063 453.856 131.063L453.632 132.744C453.52 132.744 443.768 131.399 437.603 136.665C434.24 139.689 432.447 144.17 432.447 149.996C432.447 155.821 430.541 161.871 426.73 165.007C423.298 167.646 419.065 169.03 414.737 168.928V168.928Z" fill="white"/>
<path d="M402.519 113.811C400.95 113.811 390.077 113.587 383.464 107.089C381.825 105.447 380.542 103.486 379.693 101.328C378.845 99.1696 378.45 96.8599 378.532 94.5423C378.532 84.796 384.585 81.0991 390.526 77.6263C396.466 74.1534 401.959 70.7926 401.959 61.6064H403.528C403.528 71.6889 397.363 75.3857 391.422 78.9706C385.481 82.5555 380.101 85.6922 380.101 94.5423C380.024 96.6358 380.382 98.7226 381.154 100.67C381.926 102.618 383.094 104.384 384.585 105.857C391.086 112.243 402.631 112.131 402.743 112.131V113.811H402.519Z" fill="white"/>
<path d="M370.46 213.739H368.779C368.779 207.465 370.572 192.902 386.601 192.902C392.654 192.902 397.026 190.325 399.716 185.284C400.953 182.875 401.714 180.251 401.958 177.554H403.527C403.292 180.48 402.493 183.334 401.173 185.956C399.155 189.765 395.008 194.358 386.601 194.358C372.59 194.47 370.46 206.569 370.46 213.739Z" fill="white"/>
<path d="M287.962 276.81C287.962 276.474 286.393 268.408 291.437 262.246C295.024 257.877 300.965 255.637 309.035 255.637C317.106 255.637 321.365 253.732 324.28 249.923C328.763 243.986 326.409 235.472 326.409 235.472L327.979 235.024C328.091 235.36 330.557 244.322 325.625 250.82C322.374 255.077 316.77 257.317 309.035 257.317C301.301 257.317 296.033 259.334 292.782 263.255C288.187 268.856 289.532 276.474 289.644 276.474L287.962 276.81Z" fill="white"/>
<path d="M309.036 247.011H307.354C307.354 246.899 307.915 235.024 300.293 227.07C295.585 222.141 288.747 219.564 280.004 219.564C271.261 219.564 264.984 216.988 261.061 211.947C253.775 202.536 257.138 188.309 257.362 187.637L258.931 188.085C258.819 188.197 255.457 202.2 262.294 210.938C265.993 215.643 271.934 217.996 280.004 217.996C288.075 217.996 296.482 220.685 301.413 225.95C309.596 234.352 309.036 246.451 309.036 247.011Z" fill="white"/>
<path d="M277.426 201.416C273.347 201.421 269.282 200.932 265.321 199.959L265.769 198.391C265.881 198.391 283.479 203.208 294.128 195.03C299.732 190.885 302.534 183.939 302.534 174.417C302.534 164.895 305.673 154.812 311.95 148.987C321.926 139.577 336.049 140.249 336.61 140.361V141.929C336.386 141.929 322.486 141.257 313.071 150.107C307.13 155.709 304.104 163.887 304.104 174.417C304.104 184.948 301.077 191.781 295.137 196.374C289.196 200.968 283.143 201.416 277.426 201.416Z" fill="white"/>
<path d="M318.675 138.345C318.105 134.459 316.852 130.705 314.976 127.254C311.053 120.084 305 116.5 296.93 116.5C288.859 116.5 280.789 114.035 276.754 108.994C272.718 103.953 272.158 99.5836 272.158 91.7417H273.839C273.839 103.168 276.529 114.931 296.93 114.931C305.449 114.931 312.174 118.964 316.434 126.582C318.393 130.166 319.684 134.076 320.245 138.121L318.675 138.345Z" fill="white"/>
<path d="M296.257 168.928C291.929 169.03 287.696 167.646 284.264 165.007C280.453 161.871 278.547 156.717 278.547 149.996C278.547 143.274 276.754 139.689 273.279 136.665C267.114 131.399 257.474 132.744 257.362 132.744L257.138 131.063C257.474 131.063 267.674 129.607 274.4 135.432C278.211 138.793 280.116 143.61 280.116 149.996C280.116 156.381 281.91 160.862 285.385 163.775C290.877 168.48 299.172 167.136 299.172 167.136L299.508 168.704C298.43 168.846 297.344 168.921 296.257 168.928V168.928Z" fill="white"/>
<path d="M308.363 113.811H308.251V112.131C308.363 112.131 319.908 112.243 326.409 105.857C329.324 103.056 330.781 99.2474 330.781 94.5423C330.781 85.6922 325.4 82.4434 319.572 78.9706C313.743 75.4978 307.354 71.6889 307.354 61.6064H309.035C309.035 70.7926 314.528 74.0414 320.469 77.6263C326.409 81.2111 332.462 84.796 332.462 94.5423C332.544 96.8599 332.149 99.1696 331.301 101.328C330.452 103.486 329.169 105.447 327.53 107.089C320.917 113.587 310.044 113.811 308.363 113.811Z" fill="white"/>
<path d="M342.102 213.739H340.533C340.533 206.569 338.403 194.47 324.28 194.47C315.985 194.47 311.838 189.877 309.82 186.068C308.496 183.44 307.66 180.593 307.354 177.666H309.035C309.264 180.365 310.026 182.993 311.277 185.396C313.855 190.437 318.339 193.014 324.28 193.014C340.421 192.902 342.102 207.465 342.102 213.739Z" fill="white"/>
<g style="mix-blend-mode:hard-light">
<path d="M305.449 192.454H197.058V366.005H305.449V192.454Z" fill="#F5F5F5"/>
</g>
<path d="M272.718 206.345H209.612C207.383 206.345 205.576 208.151 205.576 210.378V210.815C205.576 213.042 207.383 214.848 209.612 214.848H272.718C274.947 214.848 276.753 213.042 276.753 210.815V210.378C276.753 208.151 274.947 206.345 272.718 206.345Z" fill="#FF6C4E"/>
<path d="M292.67 214.859H286.169C285.039 214.859 283.956 214.411 283.157 213.612C282.358 212.814 281.91 211.731 281.91 210.602C281.91 210.043 282.02 209.49 282.234 208.973C282.448 208.457 282.762 207.987 283.157 207.592C283.553 207.197 284.022 206.883 284.539 206.669C285.056 206.455 285.61 206.345 286.169 206.345H292.67C293.23 206.345 293.784 206.455 294.3 206.669C294.817 206.883 295.287 207.197 295.682 207.592C296.078 207.987 296.391 208.457 296.606 208.973C296.82 209.49 296.93 210.043 296.93 210.602V210.602C296.93 211.731 296.481 212.814 295.682 213.612C294.883 214.411 293.8 214.859 292.67 214.859Z" fill="#FF6C4E"/>
<path d="M272.718 229.646H209.5C208.901 229.647 208.309 229.527 207.758 229.295C207.206 229.063 206.707 228.723 206.289 228.295C205.871 227.867 205.543 227.359 205.325 226.803C205.106 226.246 205.001 225.651 205.016 225.053V224.605C205.016 223.406 205.484 222.255 206.322 221.396C207.16 220.538 208.3 220.041 209.5 220.012H272.718C273.937 220.012 275.106 220.496 275.968 221.357C276.83 222.219 277.314 223.387 277.314 224.605V225.053C277.314 226.272 276.83 227.44 275.968 228.301C275.106 229.163 273.937 229.646 272.718 229.646ZM209.5 221.132C208.578 221.132 207.694 221.498 207.043 222.15C206.391 222.801 206.025 223.684 206.025 224.605V225.053C206.025 225.974 206.391 226.858 207.043 227.509C207.694 228.16 208.578 228.526 209.5 228.526H272.718C273.64 228.526 274.524 228.16 275.175 227.509C275.827 226.858 276.193 225.974 276.193 225.053V224.605C276.193 223.684 275.827 222.801 275.175 222.15C274.524 221.498 273.64 221.132 272.718 221.132H209.5Z" fill="#FF6C4E"/>
<path d="M251.87 252.836C250.271 248.385 247.309 244.55 243.406 241.876C239.503 239.201 234.856 237.823 230.125 237.937C227.793 238.059 225.491 238.512 223.287 239.281C220.04 240.449 217.106 242.351 214.715 244.838C212.323 247.325 210.539 250.331 209.5 253.62C208.01 258.259 208.088 263.259 209.724 267.848L210.285 269.192C211.148 271.227 212.32 273.116 213.76 274.793C217.116 278.857 221.804 281.601 226.993 282.538C232.181 283.475 237.533 282.546 242.101 279.914C246.669 277.283 250.156 273.119 251.944 268.162C253.733 263.205 253.706 257.776 251.87 252.836V252.836ZM236.514 276.138C233.293 277.278 229.803 277.417 226.502 276.537C223.201 275.657 220.244 273.8 218.019 271.209C216.991 269.939 216.125 268.547 215.441 267.064L214.993 265.943C213.805 262.507 213.726 258.784 214.768 255.301C215.556 252.825 216.907 250.565 218.716 248.699C220.525 246.833 222.742 245.411 225.193 244.546C226.845 243.933 228.587 243.592 230.349 243.538C234.341 243.432 238.241 244.751 241.35 247.257C244.459 249.763 246.573 253.293 247.315 257.215C248.056 261.138 247.377 265.196 245.398 268.663C243.419 272.13 240.27 274.78 236.514 276.138V276.138Z" fill="#FF6C4E"/>
<path d="M214.767 255.301L209.499 253.62C210.538 250.331 212.322 247.325 214.714 244.838C217.105 242.351 220.039 240.449 223.286 239.281C225.49 238.512 227.792 238.059 230.124 237.937L230.348 243.538C228.586 243.592 226.844 243.933 225.192 244.546C222.741 245.411 220.524 246.833 218.715 248.699C216.906 250.565 215.555 252.825 214.767 255.301V255.301Z" fill="#FF4C34"/>
<path d="M215.441 267.063L210.285 269.192L209.724 267.848C208.088 263.258 208.01 258.259 209.5 253.62L214.768 255.301C213.726 258.784 213.805 262.507 214.993 265.943L215.441 267.063Z" fill="#FFC59D"/>
<path d="M213.759 274.793C212.32 273.116 211.148 271.226 210.284 269.192L215.441 267.063C216.125 268.547 216.991 269.939 218.019 271.208L213.759 274.793Z" fill="#FFC59D"/>
<path d="M291.661 239.057H268.234C265.325 239.057 262.966 241.414 262.966 244.322V349.739C262.966 352.647 265.325 355.004 268.234 355.004H291.661C294.571 355.004 296.929 352.647 296.929 349.739V244.322C296.929 241.414 294.571 239.057 291.661 239.057Z" fill="#FF6C4E"/>
<path d="M243.35 355.564H217.121C214.673 355.535 212.335 354.542 210.615 352.802C208.894 351.061 207.929 348.713 207.93 346.266V296.862C207.93 294.426 208.898 292.09 210.622 290.367C212.345 288.644 214.683 287.676 217.121 287.676H243.35C245.788 287.676 248.126 288.644 249.849 290.367C251.573 292.09 252.541 294.426 252.541 296.862V346.266C252.542 348.713 251.577 351.061 249.856 352.802C248.136 354.542 245.798 355.535 243.35 355.564V355.564ZM217.121 288.797C214.97 288.796 212.906 289.643 211.374 291.152C209.843 292.662 208.968 294.713 208.938 296.862V346.266C208.938 348.435 209.8 350.515 211.335 352.049C212.87 353.583 214.951 354.444 217.121 354.444H243.35C245.501 354.415 247.553 353.54 249.064 352.01C250.574 350.479 251.421 348.416 251.421 346.266V296.862C251.421 294.723 250.57 292.672 249.057 291.159C247.543 289.646 245.49 288.797 243.35 288.797H217.121Z" fill="#FF6C4E"/>
<g style="mix-blend-mode:hard-light">
<path d="M218.13 209.818H131.373V348.742H218.13V209.818Z" fill="#FFC59D"/>
</g>
<path d="M168.923 224.83H146.169C142.949 224.83 140.34 227.438 140.34 230.655V253.419C140.34 256.636 142.949 259.244 146.169 259.244H168.923C172.142 259.244 174.751 256.636 174.751 253.419V230.655C174.751 227.438 172.142 224.83 168.923 224.83Z" fill="#FF6C4E"/>
<path d="M168.923 269.752H146.169C142.949 269.752 140.34 272.36 140.34 275.577V298.341C140.34 301.558 142.949 304.167 146.169 304.167H168.923C172.142 304.167 174.751 301.558 174.751 298.341V275.577C174.751 272.36 172.142 269.752 168.923 269.752Z" fill="#FF6C4E"/>
<path d="M156.032 250.148L146.392 240.513C146.14 240.261 145.998 239.918 145.998 239.561C145.998 239.204 146.14 238.861 146.392 238.609C146.645 238.356 146.988 238.214 147.345 238.214C147.703 238.214 148.045 238.356 148.298 238.609L156.032 246.339L167.465 234.912C167.718 234.659 168.061 234.518 168.418 234.518C168.775 234.518 169.118 234.659 169.371 234.912C169.624 235.165 169.766 235.507 169.766 235.864C169.766 236.221 169.624 236.564 169.371 236.816L156.032 250.148Z" fill="#F5F5F5"/>
<path d="M140.34 339.657L154.799 325.206L161.525 331.815L176.769 316.58L184.279 324.085L187.53 320.725L191.789 324.982L207.37 309.298V339.657H140.34Z" fill="#FF6C4E"/>
<path d="M202.214 304.705H190.893C190.177 304.705 189.468 304.562 188.807 304.285C188.147 304.008 187.549 303.602 187.048 303.09C186.547 302.579 186.153 301.973 185.889 301.308C185.626 300.642 185.497 299.931 185.512 299.215V229.759C185.497 229.043 185.626 228.332 185.889 227.667C186.153 227.001 186.547 226.395 187.048 225.884C187.549 225.373 188.147 224.967 188.807 224.689C189.468 224.412 190.177 224.269 190.893 224.27H202.214C203.651 224.299 205.019 224.89 206.025 225.916C207.031 226.943 207.594 228.322 207.594 229.759V299.215C207.594 300.652 207.031 302.032 206.025 303.058C205.019 304.084 203.651 304.675 202.214 304.705ZM190.893 225.39C189.733 225.39 188.621 225.85 187.801 226.669C186.982 227.489 186.521 228.6 186.521 229.759V299.215C186.521 300.374 186.982 301.486 187.801 302.305C188.621 303.124 189.733 303.585 190.893 303.585H202.214C202.783 303.585 203.346 303.471 203.87 303.25C204.394 303.029 204.869 302.706 205.266 302.298C205.663 301.891 205.974 301.408 206.182 300.879C206.389 300.35 206.488 299.784 206.473 299.215V229.759C206.488 229.19 206.389 228.625 206.182 228.095C205.974 227.566 205.663 227.083 205.266 226.676C204.869 226.269 204.394 225.945 203.87 225.724C203.346 225.503 202.783 225.39 202.214 225.39H190.893Z" fill="#FF6C4E"/>
<path d="M206.586 280.731L222.727 289.581L238.756 264.263L219.252 257.429L206.586 280.731Z" fill="#292C47"/>
<path d="M207.707 279.947L222.615 288.237L237.747 264.487L219.476 258.213L207.707 279.947Z" fill="#E2D2CA"/>
<path d="M202.214 275.577L206.137 273.561C207.67 272.84 209.242 272.204 210.845 271.657C211.069 271.432 220.148 270.872 220.709 270.424C221.269 269.976 221.83 271.432 219.476 271.993C217.122 272.553 213.759 273.785 213.647 274.681C213.535 275.577 216.001 275.801 216.337 276.586C216.673 277.37 216.225 277.146 215.889 277.37C215.553 277.594 212.75 276.026 211.629 276.474C210.509 276.922 208.603 276.25 207.594 276.586L202.214 278.378V275.577Z" fill="#EEA886"/>
<path d="M207.146 277.482L208.603 277.034C208.603 277.034 206.809 272.777 206.025 272.889L204.007 273.337L207.146 277.482Z" fill="#EAD8CF"/>
<path d="M207.482 278.266L204.455 272.553L198.29 273.449L201.653 279.946L207.482 278.266Z" fill="#DA9B5B"/>
<path d="M223.51 286.332L226.985 283.42C228.106 282.523 230.236 279.947 230.572 279.723C230.908 279.499 234.944 271.209 235.616 270.873C236.289 270.537 234.944 269.416 233.486 271.433C232.029 273.449 229.675 276.138 228.779 275.914C227.882 275.69 228.555 273.225 227.994 272.665C227.434 272.105 227.434 272.441 227.097 272.777C226.761 273.113 227.209 276.25 226.313 277.146C225.416 278.042 225.304 280.059 224.631 280.843L220.82 285.212L223.51 286.332Z" fill="#EEA886"/>
<path d="M172.959 399.143C172.959 399.143 172.398 402.728 172.398 403.176C172.398 403.624 166.682 402.952 166.682 402.952L166.233 398.695C166.233 398.695 172.286 398.695 172.959 399.143Z" fill="#424773"/>
<path d="M172.398 402.728C173.411 403.924 174.58 404.978 175.873 405.865C177.666 406.761 180.356 407.097 181.365 408.105C182.374 409.113 183.943 411.69 176.881 411.69C169.82 411.69 166.345 412.138 165.56 410.906C164.776 409.674 166.681 402.504 166.681 402.504C166.681 402.504 168.363 403.176 172.398 402.728Z" fill="#292C47"/>
<path d="M212.974 399.143C212.974 399.143 212.413 402.728 212.413 403.176C212.413 403.624 206.697 402.952 206.697 402.952L206.248 398.695C206.248 398.695 212.189 398.695 212.974 399.143Z" fill="#424773"/>
<path d="M212.414 402.728C213.428 403.924 214.596 404.978 215.889 405.865C217.571 406.761 223.96 407.545 224.969 408.441C225.977 409.338 226.874 411.914 216.898 411.69C209.724 411.466 206.362 412.138 205.577 410.906C204.792 409.674 206.698 402.504 206.698 402.504C206.698 402.504 208.267 403.176 212.414 402.728Z" fill="#292C47"/>
<path d="M177.553 308.737C177.553 308.737 172.285 317.027 172.733 324.533C173.182 332.039 170.828 340.329 170.043 348.171C169.259 356.013 165.56 377.746 165.448 382.339C165.335 386.932 166.008 402.056 166.008 402.056H173.182C173.182 402.056 179.235 365.871 180.804 362.062C182.373 358.253 190.107 332.039 190.332 329.014C190.556 325.989 177.553 308.737 177.553 308.737Z" fill="#292C47"/>
<path d="M205.128 309.858C205.128 309.858 209.163 330.471 209.612 335.064C210.06 339.657 210.508 357.357 210.733 360.27C210.957 363.182 212.526 397.911 213.871 402.168H204.68C204.68 402.168 197.618 376.962 197.618 364.975C197.618 352.988 192.238 338.873 188.651 331.031C185.064 323.189 177.106 322.965 174.976 308.289C174.976 308.289 202.214 305.153 205.128 309.858Z" fill="#292C47"/>
<path d="M186.297 238.721C186.297 238.721 193.359 236.032 196.61 241.41C199.86 246.787 199.524 257.541 195.937 258.774C192.35 260.006 187.082 259.446 185.289 256.085C183.495 252.724 181.814 247.907 181.926 244.658C182.038 241.41 184.504 239.617 186.297 238.721Z" fill="#EEA886"/>
<path d="M195.265 259.109C195.082 260.039 195.12 260.998 195.377 261.91C195.937 262.806 186.297 262.806 186.297 262.806C185.783 259.655 185.034 256.547 184.056 253.508C182.598 249.139 195.265 259.109 195.265 259.109Z" fill="#EEA886"/>
<path d="M184.056 253.508C184.056 253.508 184.728 254.517 187.418 254.18C190.108 253.844 193.359 250.148 194.592 249.699C195.825 249.251 195.713 248.691 195.713 248.691L196.385 249.699H197.618C197.618 249.699 196.498 246.451 198.179 245.106C199.86 243.762 196.385 234.688 187.755 237.713C187.755 237.713 181.141 239.617 181.365 243.314C181.59 247.011 182.598 251.604 184.056 253.508Z" fill="#3A3F47"/>
<path d="M195.937 261.798C195.937 261.798 195.937 260.006 195.152 259.782C194.368 259.558 186.185 258.886 185.176 259.222V261.35C185.176 261.35 187.082 262.471 195.937 261.798Z" fill="#E2D2CA"/>
<path d="M195.489 247.235C195.377 246.675 193.695 244.882 193.135 246.787C192.574 248.691 194.032 251.38 194.928 251.156C195.825 250.932 195.937 248.915 195.489 247.235Z" fill="#EEA886"/>
<path d="M228.33 282.859H228.219C228.33 282.971 228.33 282.971 228.33 282.859Z" fill="#323657"/>
<path d="M171.613 328.566C175.442 329.532 179.339 330.206 183.27 330.583C190.668 331.479 209.051 330.359 209.163 329.462C209.275 328.566 205.24 297.087 205.464 295.518C205.688 293.95 205.8 288.124 205.8 288.124C206.442 292.136 207.689 296.026 209.499 299.663C210.172 300.896 212.526 304.928 213.647 304.032C219.251 299.663 227.77 283.083 228.218 282.859L223.735 280.843C223.286 280.731 219.363 284.988 216.897 287.564C216.257 288.198 215.658 288.871 215.104 289.581C214.319 288.012 211.853 278.154 211.069 274.793C209.275 267.063 209.499 266.727 209.499 266.727C204.119 265.047 195.936 261.798 195.936 261.798L185.176 261.35C185.176 261.35 175.312 263.479 171.389 265.271C171.053 265.495 171.053 274.121 170.044 276.362L173.294 283.195C173.294 283.195 175.088 296.751 175.536 302.688C175.648 305.489 171.613 328.566 171.613 328.566Z" fill="#323657"/>
<path d="M169.596 287.677C169.82 288.573 171.165 289.357 171.95 289.581C172.476 289.821 173.061 289.899 173.631 289.805H174.08L181.478 288.461C181.478 288.461 183.159 269.864 171.39 265.383C171.053 265.383 167.018 279.275 169.596 287.677Z" fill="#323657"/>
<path d="M171.949 289.581C172.475 289.821 173.061 289.899 173.631 289.805H174.079L173.407 280.283L171.949 289.581Z" fill="#252840"/>
<path d="M215.105 289.581L216.001 293.39C216.462 291.476 216.762 289.528 216.898 287.564C216.258 288.198 215.659 288.871 215.105 289.581V289.581Z" fill="#252840"/>
<path d="M184.279 239.281C184.279 239.281 175.088 238.272 184.167 253.62L184.279 239.281Z" fill="#3A3F47"/>
<path d="M231.358 262.807L232.366 261.238L224.969 258.662L223.96 260.342L231.358 262.807Z" fill="#292C47"/>
<path d="M118.146 308.849L120.724 308.625C121.621 308.737 125.32 310.754 126.553 310.754C129.966 309.922 133.333 308.912 136.641 307.729C136.977 307.505 136.529 306.945 136.529 306.945L117.922 305.041L118.146 308.849Z" fill="#EEA886"/>
<path d="M130.476 305.265C131.545 305.735 132.53 306.379 133.39 307.169C133.615 307.393 133.839 307.617 133.615 307.841C133.39 308.065 132.942 308.289 132.045 307.953C131.318 307.733 130.563 307.62 129.803 307.617C129.803 307.617 129.019 307.057 130.476 305.265Z" fill="#EEA886"/>
<path d="M103.238 278.938L101.332 298.431C101.332 298.431 100.436 300.896 105.928 301.792C111.42 302.688 120.276 304.593 120.276 304.593C120.276 304.593 120.163 311.09 119.379 311.09C118.594 311.09 101.332 308.514 95.0553 307.281C88.7783 306.049 93.2619 279.499 93.2619 279.499L103.238 278.938Z" fill="#282B45"/>
<path d="M118.37 302.24L120.948 302.8C121.845 302.912 125.768 301.344 127.001 301.568C128.234 301.792 136.192 305.825 136.529 306.049C136.865 306.273 136.304 306.833 136.304 306.833L117.698 305.937L118.37 302.24Z" fill="#EEA886"/>
<path d="M97.8578 405.641C97.8578 405.641 101.669 407.993 103.462 408.89C105.256 409.786 111.981 410.01 112.654 410.682C113.326 411.354 113.102 413.371 111.981 413.595C110.86 413.819 102.453 414.491 99.7633 413.707C97.0732 412.923 91.6929 414.155 90.572 413.707C89.4511 413.259 90.2357 407.097 90.684 405.753C91.1324 404.409 97.8578 405.641 97.8578 405.641Z" fill="#292C47"/>
<path d="M98.1938 403.064L97.8575 405.641C97.8575 405.641 92.5893 406.537 91.02 405.753L91.4684 403.064H98.1938Z" fill="#3D416B"/>
<path d="M108.395 314.451C108.619 316.243 108.731 320.052 108.843 324.085V326.662C108.955 332.151 108.955 337.08 108.955 337.08C108.731 343.914 107.722 358.589 105.592 361.95C103.463 365.311 99.7636 403.512 99.7636 403.512L89.6755 404.52C89.6755 404.52 89.115 379.762 90.5722 373.265C92.0294 366.767 95.5042 356.237 93.5986 349.627C92.4777 345.482 90.1238 332.151 90.1238 332.151C90.1238 332.151 87.5458 317.251 90.1238 305.713C90.7964 302.912 108.395 314.451 108.395 314.451Z" fill="#292C47"/>
<path d="M115.008 405.641L120.612 408.89C122.406 409.674 129.243 410.01 129.916 410.682C130.588 411.354 130.364 413.371 129.243 413.595C128.122 413.819 119.716 414.491 116.913 413.707C114.111 412.923 108.955 414.155 107.834 413.707C106.713 413.259 107.498 407.097 107.946 405.753C108.395 404.409 115.008 405.641 115.008 405.641Z" fill="#292C47"/>
<path d="M115.456 403.064L115.008 405.641C115.008 405.641 109.852 406.537 108.283 405.753L108.731 403.064H115.456Z" fill="#3D416B"/>
<path d="M117.586 404.296H107.274C107.274 404.296 103.799 384.356 103.575 375.617C103.461 374.8 103.461 373.97 103.575 373.153C103.687 371.36 103.911 369.232 104.135 367.215C104.696 360.942 105.144 354.108 103.127 349.403C101.109 344.698 97.0738 332.711 97.0738 332.711C97.0738 332.711 92.366 318.26 93.2627 306.497C93.4869 303.584 111.758 310.978 111.758 310.978C112.69 314.629 113.401 318.332 113.887 322.069C116.353 344.922 115.457 359.71 115.457 359.71C113.999 364.639 117.586 404.296 117.586 404.296Z" fill="#292C47"/>
<path d="M110.188 262.246C110.188 262.246 113.775 270.76 114.56 275.241C115.345 279.722 112.206 292.269 112.094 294.846C111.646 302.8 111.534 311.65 111.534 311.65L94.0475 319.38C94.0475 319.38 92.254 312.322 90.909 303.584C90.0196 296.576 90.2086 289.474 91.4694 282.523C93.8233 266.839 103.687 259.333 103.687 259.333L110.188 262.246Z" fill="#CFBEB6"/>
<path d="M123.415 247.011C123.415 247.011 124.648 251.716 123.415 252.052C122.182 252.388 123.303 256.869 123.415 257.653C123.527 258.437 121.51 258.325 120.949 258.661C120.389 258.998 117.923 263.927 116.354 263.703C114.784 263.479 108.283 259.222 106.826 256.757C105.369 254.292 106.041 244.882 108.283 241.297C110.525 237.713 121.286 238.833 123.415 247.011Z" fill="#EEA886"/>
<path d="M113.551 258.549C113.439 259.222 112.99 260.678 112.766 261.91L112.43 263.479C112.094 264.604 111.942 265.777 111.982 266.951C111.982 269.08 104.584 259.222 104.584 259.222C105.771 254.588 106.595 249.868 107.05 245.106C107.834 237.601 113.551 258.549 113.551 258.549Z" fill="#EEA886"/>
<path d="M123.638 248.019C124.576 246.862 125.087 245.419 125.087 243.93C125.087 242.441 124.576 240.998 123.638 239.841C120.388 235.472 111.309 239.393 110.412 239.393C109.515 239.393 104.695 238.497 104.919 247.683C105.144 256.869 105.592 255.525 105.592 255.525C105.592 255.525 108.058 252.052 109.067 251.604C110.076 251.156 113.775 251.94 113.775 251.94C113.775 251.94 113.214 247.795 115.68 247.795C118.146 247.795 121.509 246.563 123.638 248.019Z" fill="#FCCCA2"/>
<path d="M111.869 249.139C111.757 248.579 111.757 246.114 109.403 247.011C107.05 247.907 109.291 252.948 109.628 253.06C109.964 253.172 112.43 254.068 111.869 249.139Z" fill="#EEA886"/>
<path d="M112.542 314.451L111.646 310.194L88.1067 314.003L88.3309 317.14C88.3309 317.14 105.256 316.131 112.542 314.451Z" fill="#23263D"/>
<path d="M88.1062 295.63C88.4476 307.342 86.0286 318.97 81.0445 329.574C80.0357 331.703 96.5129 331.591 96.5129 331.591L88.1062 295.63Z" fill="#323657"/>
<path d="M112.317 281.179C111.981 282.971 111.756 284.764 111.42 286.556C110.972 290.253 110.748 293.838 110.523 297.423C110.523 297.759 110.411 298.095 110.411 298.543V300.335C110.318 301.116 110.281 301.902 110.299 302.688C109.952 312.643 107.747 322.445 103.798 331.591C103.798 331.591 91.9165 332.375 88.8901 330.695C87.6078 318.678 87.2332 306.582 87.7691 294.51C87.7691 293.054 87.8812 291.709 87.9933 290.365C89.2263 275.801 94.9429 261.686 103.686 259.333C103.91 259.446 113.886 271.656 112.317 281.179Z" fill="#323657"/>
<path d="M150.915 307.15L119.891 305.905L119.777 308.748L150.801 309.993L150.915 307.15Z" fill="#807066"/>
<path d="M158.535 280.054L148.018 309.25L150.696 310.214L161.214 281.017L158.535 280.054Z" fill="#807066"/>
<path d="M108.282 357.917C107.386 363.518 103.575 375.281 103.575 375.617C103.461 374.8 103.461 373.97 103.575 373.153C103.687 371.36 103.911 369.232 104.135 367.215C104.743 364.661 105.529 362.153 106.489 359.709C107.386 357.469 108.282 348.283 108.282 348.283C108.83 351.471 108.83 354.729 108.282 357.917V357.917Z" fill="#191B2B"/>
<path d="M112.766 261.91L112.43 263.479C110.188 262.022 107.722 257.989 107.498 257.765C109.095 259.337 110.862 260.727 112.766 261.91V261.91Z" fill="#A77860"/>
<path d="M110.412 296.527V297.535C110.323 298.128 110.286 298.728 110.3 299.327C107.61 298.767 102.566 297.423 100.997 294.734C99.4277 292.046 104.135 282.411 104.248 282.299C104.36 282.187 102.006 293.054 104.248 294.062C106.489 295.07 108.731 295.742 110.412 296.527Z" fill="#282B45"/>
<path d="M112.205 269.528C113.296 276.087 113.372 282.775 112.429 289.357C111.084 298.431 110.636 304.816 110.636 304.816L111.309 307.393L112.542 305.489C112.542 305.489 114.559 293.838 115.007 289.021C115.748 282.417 115.06 275.731 112.99 269.416L112.205 269.528Z" fill="#D44040"/>
<path d="M112.093 269.528L112.654 269.864C113.102 269.976 113.663 269.528 112.205 266.728L112.093 269.528Z" fill="#D44040"/>
<path d="M104.808 258.102C104.808 258.102 109.404 264.039 112.43 265.607V270.537L103.799 259.334L104.808 258.102Z" fill="#EDDAD3"/>
<path d="M94.8319 274.121C95.2803 271.993 97.8584 262.471 103.239 263.815C108.619 265.159 107.05 271.657 105.929 276.586C104.808 281.515 100.324 293.95 100.997 294.734C101.669 295.519 108.059 298.319 109.404 298.767C110.749 299.215 119.38 301.904 119.94 302.24C120.501 302.576 116.689 309.522 116.689 309.522C116.689 309.522 95.1682 302.24 91.5813 299.888C87.9944 297.535 94.8319 274.121 94.8319 274.121Z" fill="#323657"/>
<path d="M564.153 100.928H573.792V71.7112H564.153V100.928Z" fill="#FF6C4E"/>
<path d="M531.758 85.8042L606.298 85.8042C608.651 85.8042 610.558 83.8983 610.558 81.5472V31.4824C610.558 29.1313 608.651 27.2254 606.298 27.2254L531.758 27.2254C529.406 27.2254 527.499 29.1313 527.499 31.4824V81.5472C527.499 83.8983 529.406 85.8042 531.758 85.8042Z" fill="#FF6C4E"/>
<path d="M530.75 76.6182L607.307 76.6182V30.5528L530.75 30.5528V76.6182Z" fill="white"/>
<path d="M566.394 80.8752C566.394 81.2232 566.464 81.5677 566.601 81.8878C566.737 82.208 566.937 82.4972 567.189 82.7379C567.44 82.9787 567.738 83.1661 568.063 83.2888C568.389 83.4115 568.737 83.467 569.084 83.4518C569.768 83.4518 570.424 83.1804 570.907 82.6972C571.391 82.214 571.663 81.5586 571.663 80.8752C571.744 80.4841 571.737 80.0799 571.642 79.6919C571.547 79.3039 571.367 78.9418 571.115 78.6321C570.863 78.3223 570.544 78.0726 570.184 77.9011C569.823 77.7296 569.428 77.6406 569.028 77.6406C568.629 77.6406 568.234 77.7296 567.873 77.9011C567.512 78.0726 567.194 78.3223 566.942 78.6321C566.69 78.9418 566.51 79.3039 566.415 79.6919C566.32 80.0799 566.313 80.4841 566.394 80.8752V80.8752Z" fill="#757575"/>
<path d="M590.606 99.8076H547.34V102.015H590.606V99.8076Z" fill="#FF6C4E"/>
<path d="M559.445 44.5786H534.785V73.0222H559.445V44.5786Z" fill="#FFC59D"/>
<path d="M588.587 44.5786H563.255V48.1187H588.587V44.5786Z" fill="#FFC59D"/>
<path d="M588.587 51.8604H563.255V55.4004H588.587V51.8604Z" fill="#FFC59D"/>
<path d="M588.587 58.3579H563.255V72.9774H588.587V58.3579Z" fill="#FFC59D"/>
<path d="M602.935 43.6821H592.175V72.9323H602.935V43.6821Z" fill="#FFC59D"/>
<path d="M602.711 34.1597H534.56V41.4638H602.711V34.1597Z" fill="#FFC59D"/>
<path d="M536.466 149.883H503.848V156.392H536.466V149.883Z" fill="#FFC59D"/>
<path d="M517.299 158.958H503.848V190.874H517.299V158.958Z" fill="#FFC59D"/>
<path d="M536.466 158.958H519.764V162.654H536.466V158.958Z" fill="#FFC59D"/>
<path d="M536.466 165.343H519.764V169.04H536.466V165.343Z" fill="#FFC59D"/>
<path d="M536.466 171.729H519.764V175.426H536.466V171.729Z" fill="#FFC59D"/>
<path d="M536.466 178.114H519.764V190.863H536.466V178.114Z" fill="#FFC59D"/>
<path d="M554.625 245.554H497.795V251.1H554.625V245.554Z" fill="#FFC59D"/>
<path d="M517.299 254.292H497.795V279.7H517.299V254.292Z" fill="#FFC59D"/>
<path d="M539.268 254.292H519.764V279.7H539.268V254.292Z" fill="#FFC59D"/>
<path d="M554.624 254.292H542.743V257.922H554.624V254.292Z" fill="#FFC59D"/>
<path d="M554.624 259.894H542.743V263.524H554.624V259.894Z" fill="#FFC59D"/>
<path d="M554.624 265.495H542.743V279.678H554.624V265.495Z" fill="#FFC59D"/>
<path d="M471.117 50.6279H450.269C449.445 50.5999 448.663 50.2605 448.08 49.6782C447.498 49.0959 447.158 48.3141 447.13 47.4911L446.906 4.13675C446.906 3.30483 447.237 2.50699 447.825 1.91873C448.414 1.33048 449.212 1 450.045 1H470.893C471.726 1 472.524 1.33048 473.113 1.91873C473.701 2.50699 474.032 3.30483 474.032 4.13675L474.256 47.4911C474.228 48.3141 473.888 49.0959 473.306 49.6782C472.723 50.2605 471.941 50.5999 471.117 50.6279V50.6279Z" fill="#FF6C4E"/>
<path d="M468.988 43.234H452.398C451.615 43.2345 450.861 42.9313 450.297 42.388C449.732 41.8448 449.401 41.1039 449.372 40.3213V7.60948C449.372 6.83698 449.679 6.09613 450.225 5.54989C450.772 5.00365 451.513 4.69678 452.286 4.69678H468.875C469.659 4.69624 470.412 4.99949 470.977 5.54273C471.541 6.08597 471.873 6.82685 471.902 7.60948V40.3213C471.902 41.0938 471.595 41.8346 471.048 42.3809C470.502 42.9271 469.76 43.234 468.988 43.234V43.234Z" fill="white"/>
<path d="M463.383 2.56836H457.667C457.33 2.56836 457.218 2.68038 457.218 2.90444C457.218 3.24052 457.33 3.35254 457.667 3.35254H463.383C463.608 3.35254 463.832 3.12849 463.72 2.90444C463.72 2.79241 463.608 2.56836 463.383 2.56836Z" fill="#787878"/>
<path d="M462.487 46.5947C462.503 46.8393 462.468 47.0845 462.385 47.315C462.301 47.5456 462.172 47.7567 462.004 47.9352C461.835 48.1137 461.633 48.2558 461.407 48.3528C461.182 48.4498 460.939 48.4996 460.694 48.4991C460.208 48.5 459.739 48.3148 459.385 47.9815C459.031 47.6482 458.817 47.1921 458.789 46.7067C458.815 46.2103 459.025 45.7414 459.377 45.3899C459.728 45.0384 460.197 44.8291 460.694 44.8022C461.17 44.8022 461.626 44.9911 461.962 45.3272C462.299 45.6634 462.487 46.1193 462.487 46.5947Z" fill="#787878"/>
<path d="M469.101 7.04932H451.839V13.995H469.101V7.04932Z" fill="#FFC59D"/>
<path d="M469.101 15.7876H451.839V18.6779H469.101V15.7876Z" fill="#FFC59D"/>
<path d="M469.101 20.4927H451.839V23.383H469.101V20.4927Z" fill="#FFC59D"/>
<path d="M469.101 25.1978H451.839V40.6126H469.101V25.1978Z" fill="#FFC59D"/>
</svg>
